<svg viewBox="0 0 217 92" xmlns="http://www.w3.org/2000/svg">
  <path
    d="M216.848 90.8377V83.9386C216.848 83.3035 216.332 82.7887 215.695 82.7887H208.774C208.137 82.7887 207.621 83.3035 207.621 83.9386V90.8377C207.621 91.4727 208.137 91.9875 208.774 91.9875H215.695C216.332 91.9875 216.848 91.4727 216.848 90.8377ZM206.467 90.8377V83.9386C206.467 83.3035 205.951 82.7887 205.314 82.7887H198.393C197.756 82.7887 197.24 83.3035 197.24 83.9386V90.8377C197.24 91.4727 197.756 91.9875 198.393 91.9875H205.314C205.951 91.9875 206.467 91.4727 206.467 90.8377ZM196.086 90.8377V83.9386C196.086 83.3035 195.57 82.7887 194.933 82.7887H188.012C187.375 82.7887 186.859 83.3035 186.859 83.9386V90.8377C186.859 91.4727 187.375 91.9875 188.012 91.9875H194.933C195.57 91.9875 196.086 91.4727 196.086 90.8377ZM185.705 90.8377V83.9386C185.705 83.3035 185.189 82.7887 184.552 82.7887H177.631C176.994 82.7887 176.478 83.3035 176.478 83.9386V90.8377C176.478 91.4727 176.994 91.9875 177.631 91.9875H184.552C185.189 91.9875 185.705 91.4727 185.705 90.8377ZM175.324 90.8377V83.9386C175.324 83.3035 174.808 82.7887 174.171 82.7887H167.25C166.613 82.7887 166.097 83.3035 166.097 83.9386V90.8377C166.097 91.4727 166.613 91.9875 167.25 91.9875H174.171C174.808 91.9875 175.324 91.4727 175.324 90.8377ZM164.943 90.8377V83.9386C164.943 83.3035 164.427 82.7887 163.79 82.7887H156.869C156.232 82.7887 155.716 83.3035 155.716 83.9386V90.8377C155.716 91.4727 156.232 91.9875 156.869 91.9875H163.79C164.427 91.9875 164.943 91.4727 164.943 90.8377ZM154.562 90.8377V83.9386C154.562 83.3035 154.046 82.7887 153.409 82.7887H146.488C145.851 82.7887 145.335 83.3035 145.335 83.9386V90.8377C145.335 91.4727 145.851 91.9875 146.488 91.9875H153.409C154.046 91.9875 154.562 91.4727 154.562 90.8377ZM144.181 90.8377V83.9386C144.181 83.3035 143.665 82.7887 143.028 82.7887H136.107C135.47 82.7887 134.953 83.3035 134.953 83.9386V90.8377C134.953 91.4727 135.47 91.9875 136.107 91.9875H143.028C143.665 91.9875 144.181 91.4727 144.181 90.8377ZM133.8 90.8377V83.9386C133.8 83.3035 133.284 82.7887 132.647 82.7887H125.726C125.089 82.7887 124.572 83.3035 124.572 83.9386V90.8377C124.572 91.4727 125.089 91.9875 125.726 91.9875H132.647C133.284 91.9875 133.8 91.4727 133.8 90.8377ZM123.419 90.8377V83.9386C123.419 83.3035 122.903 82.7887 122.266 82.7887H115.345C114.708 82.7887 114.191 83.3035 114.191 83.9386V90.8377C114.191 91.4727 114.708 91.9875 115.345 91.9875H122.266C122.903 91.9875 123.419 91.4727 123.419 90.8377ZM113.038 90.8377V83.9386C113.038 83.3035 112.522 82.7887 111.885 82.7887H104.964C104.327 82.7887 103.81 83.3035 103.81 83.9386V90.8377C103.81 91.4727 104.327 91.9875 104.964 91.9875H111.885C112.522 91.9875 113.038 91.4727 113.038 90.8377ZM102.657 90.8377V83.9386C102.657 83.3035 102.14 82.7887 101.503 82.7887H94.5828C93.9457 82.7887 93.4293 83.3035 93.4293 83.9386V90.8377C93.4293 91.4727 93.9457 91.9875 94.5828 91.9875H101.503C102.14 91.9875 102.657 91.4727 102.657 90.8377ZM92.2759 90.8377V83.9386C92.2759 83.3035 91.7595 82.7887 91.1224 82.7887H84.2017C83.5647 82.7887 83.0483 83.3035 83.0483 83.9386V90.8377C83.0483 91.4727 83.5647 91.9875 84.2017 91.9875H91.1224C91.7595 91.9875 92.2759 91.4727 92.2759 90.8377ZM81.8949 90.8377V83.9386C81.8949 83.3035 81.3784 82.7887 80.7414 82.7887H73.8207C73.1837 82.7887 72.6673 83.3035 72.6673 83.9386V90.8377C72.6673 91.4727 73.1837 91.9875 73.8207 91.9875H80.7414C81.3784 91.9875 81.8949 91.4727 81.8949 90.8377ZM71.5138 90.8377V83.9386C71.5138 83.3035 70.9974 82.7887 70.3604 82.7887H63.4397C62.8027 82.7887 62.2862 83.3035 62.2862 83.9386V90.8377C62.2862 91.4727 62.8027 91.9875 63.4397 91.9875H70.3604C70.9974 91.9875 71.5138 91.4727 71.5138 90.8377ZM61.1328 90.8377V83.9386C61.1328 83.3035 60.6164 82.7887 59.9793 82.7887H53.0586C52.4216 82.7887 51.9052 83.3035 51.9052 83.9386V90.8377C51.9052 91.4727 52.4216 91.9875 53.0586 91.9875H59.9793C60.6164 91.9875 61.1328 91.4727 61.1328 90.8377ZM50.7517 90.8377V83.9386C50.7517 83.3035 50.2353 82.7887 49.5983 82.7887H42.6776C42.0406 82.7887 41.5241 83.3035 41.5241 83.9386V90.8377C41.5241 91.4727 42.0406 91.9875 42.6776 91.9875H49.5983C50.2353 91.9875 50.7517 91.4727 50.7517 90.8377ZM40.3707 90.8377V83.9386C40.3707 83.3035 39.8543 82.7887 39.2173 82.7887H32.2966C31.6595 82.7887 31.1431 83.3035 31.1431 83.9386V90.8377C31.1431 91.4727 31.6595 91.9875 32.2966 91.9875H39.2173C39.8543 91.9875 40.3707 91.4727 40.3707 90.8377ZM29.9897 90.8377V83.9386C29.9897 83.3035 29.4733 82.7887 28.8362 82.7887H21.9155C21.2785 82.7887 20.7621 83.3035 20.7621 83.9386V90.8377C20.7621 91.4727 21.2785 91.9875 21.9155 91.9875H28.8362C29.4733 91.9875 29.9897 91.4727 29.9897 90.8377ZM19.6086 90.8377V83.9386C19.6086 83.3035 19.0922 82.7887 18.4552 82.7887H11.5345C10.8975 82.7887 10.381 83.3035 10.381 83.9386V90.8377C10.381 91.4727 10.8975 91.9875 11.5345 91.9875H18.4552C19.0922 91.9875 19.6086 91.4727 19.6086 90.8377ZM9.2276 90.8377V83.9386C9.2276 83.3035 8.71117 82.7887 8.07414 82.7887H1.15346C0.516426 82.7887 0 83.3035 0 83.9386V90.8377C0 91.4727 0.516426 91.9875 1.15346 91.9875H8.07414C8.71117 91.9875 9.2276 91.4727 9.2276 90.8377ZM216.848 80.4891V73.59C216.848 72.955 216.332 72.4402 215.695 72.4402H208.774C208.137 72.4402 207.621 72.955 207.621 73.59V80.4891C207.621 81.1241 208.137 81.6389 208.774 81.6389H215.695C216.332 81.6389 216.848 81.1241 216.848 80.4891ZM206.467 80.4891V73.59C206.467 72.955 205.951 72.4402 205.314 72.4402H198.393C197.756 72.4402 197.24 72.955 197.24 73.59V80.4891C197.24 81.1241 197.756 81.6389 198.393 81.6389H205.314C205.951 81.6389 206.467 81.1241 206.467 80.4891ZM196.086 80.4891V73.59C196.086 72.955 195.57 72.4402 194.933 72.4402H188.012C187.375 72.4402 186.859 72.955 186.859 73.59V80.4891C186.859 81.1241 187.375 81.6389 188.012 81.6389H194.933C195.57 81.6389 196.086 81.1241 196.086 80.4891ZM185.705 80.4891V73.59C185.705 72.955 185.189 72.4402 184.552 72.4402H177.631C176.994 72.4402 176.478 72.955 176.478 73.59V80.4891C176.478 81.1241 176.994 81.6389 177.631 81.6389H184.552C185.189 81.6389 185.705 81.1241 185.705 80.4891ZM175.324 80.4891V73.59C175.324 72.955 174.808 72.4402 174.171 72.4402H167.25C166.613 72.4402 166.097 72.955 166.097 73.59V80.4891C166.097 81.1241 166.613 81.6389 167.25 81.6389H174.171C174.808 81.6389 175.324 81.1241 175.324 80.4891ZM164.943 80.4891V73.59C164.943 72.955 164.427 72.4402 163.79 72.4402H156.869C156.232 72.4402 155.716 72.955 155.716 73.59V80.4891C155.716 81.1241 156.232 81.6389 156.869 81.6389H163.79C164.427 81.6389 164.943 81.1241 164.943 80.4891ZM154.562 80.4891V73.59C154.562 72.955 154.046 72.4402 153.409 72.4402H146.488C145.851 72.4402 145.335 72.955 145.335 73.59V80.4891C145.335 81.1241 145.851 81.6389 146.488 81.6389H153.409C154.046 81.6389 154.562 81.1241 154.562 80.4891ZM144.181 80.4891V73.59C144.181 72.955 143.665 72.4402 143.028 72.4402H136.107C135.47 72.4402 134.953 72.955 134.953 73.59V80.4891C134.953 81.1241 135.47 81.6389 136.107 81.6389H143.028C143.665 81.6389 144.181 81.1241 144.181 80.4891ZM133.8 80.4891V73.59C133.8 72.955 133.284 72.4402 132.647 72.4402H125.726C125.089 72.4402 124.572 72.955 124.572 73.59V80.4891C124.572 81.1241 125.089 81.6389 125.726 81.6389H132.647C133.284 81.6389 133.8 81.1241 133.8 80.4891ZM123.419 80.4891V73.59C123.419 72.955 122.903 72.4402 122.266 72.4402H115.345C114.708 72.4402 114.191 72.955 114.191 73.59V80.4891C114.191 81.1241 114.708 81.6389 115.345 81.6389H122.266C122.903 81.6389 123.419 81.1241 123.419 80.4891ZM113.038 80.4891V73.59C113.038 72.955 112.522 72.4402 111.885 72.4402H104.964C104.327 72.4402 103.81 72.955 103.81 73.59V80.4891C103.81 81.1241 104.327 81.6389 104.964 81.6389H111.885C112.522 81.6389 113.038 81.1241 113.038 80.4891ZM102.657 80.4891V73.59C102.657 72.955 102.14 72.4402 101.503 72.4402H94.5828C93.9457 72.4402 93.4293 72.955 93.4293 73.59V80.4891C93.4293 81.1241 93.9457 81.6389 94.5828 81.6389H101.503C102.14 81.6389 102.657 81.1241 102.657 80.4891ZM92.2759 80.4891V73.59C92.2759 72.955 91.7595 72.4402 91.1224 72.4402H84.2017C83.5647 72.4402 83.0483 72.955 83.0483 73.59V80.4891C83.0483 81.1241 83.5647 81.6389 84.2017 81.6389H91.1224C91.7595 81.6389 92.2759 81.1241 92.2759 80.4891ZM81.8949 80.4891V73.59C81.8949 72.955 81.3784 72.4402 80.7414 72.4402H73.8207C73.1837 72.4402 72.6673 72.955 72.6673 73.59V80.4891C72.6673 81.1241 73.1837 81.6389 73.8207 81.6389H80.7414C81.3784 81.6389 81.8949 81.1241 81.8949 80.4891ZM71.5138 80.4891V73.59C71.5138 72.955 70.9974 72.4402 70.3604 72.4402H63.4397C62.8027 72.4402 62.2862 72.955 62.2862 73.59V80.4891C62.2862 81.1241 62.8027 81.6389 63.4397 81.6389H70.3604C70.9974 81.6389 71.5138 81.1241 71.5138 80.4891ZM61.1328 80.4891V73.59C61.1328 72.955 60.6164 72.4402 59.9793 72.4402H53.0586C52.4216 72.4402 51.9052 72.955 51.9052 73.59V80.4891C51.9052 81.1241 52.4216 81.6389 53.0586 81.6389H59.9793C60.6164 81.6389 61.1328 81.1241 61.1328 80.4891ZM50.7517 80.4891V73.59C50.7517 72.955 50.2353 72.4402 49.5983 72.4402H42.6776C42.0406 72.4402 41.5241 72.955 41.5241 73.59V80.4891C41.5241 81.1241 42.0406 81.6389 42.6776 81.6389H49.5983C50.2353 81.6389 50.7517 81.1241 50.7517 80.4891ZM40.3707 80.4891V73.59C40.3707 72.955 39.8543 72.4402 39.2173 72.4402H32.2966C31.6595 72.4402 31.1431 72.955 31.1431 73.59V80.4891C31.1431 81.1241 31.6595 81.6389 32.2966 81.6389H39.2173C39.8543 81.6389 40.3707 81.1241 40.3707 80.4891ZM29.9897 80.4891V73.59C29.9897 72.955 29.4733 72.4402 28.8362 72.4402H21.9155C21.2785 72.4402 20.7621 72.955 20.7621 73.59V80.4891C20.7621 81.1241 21.2785 81.6389 21.9155 81.6389H28.8362C29.4733 81.6389 29.9897 81.1241 29.9897 80.4891ZM19.6086 80.4891V73.59C19.6086 72.955 19.0922 72.4402 18.4552 72.4402H11.5345C10.8975 72.4402 10.381 72.955 10.381 73.59V80.4891C10.381 81.1241 10.8975 81.6389 11.5345 81.6389H18.4552C19.0922 81.6389 19.6086 81.1241 19.6086 80.4891ZM9.2276 80.4891V73.59C9.2276 72.955 8.71117 72.4402 8.07414 72.4402H1.15346C0.516426 72.4402 0 72.955 0 73.59V80.4891C0 81.1241 0.516426 81.6389 1.15346 81.6389H8.07414C8.71117 81.6389 9.2276 81.1241 9.2276 80.4891ZM216.848 70.1405V63.2414C216.848 62.6064 216.332 62.0916 215.695 62.0916H208.774C208.137 62.0916 207.621 62.6064 207.621 63.2414V70.1405C207.621 70.7755 208.137 71.2903 208.774 71.2903H215.695C216.332 71.2903 216.848 70.7755 216.848 70.1405ZM206.467 70.1405V63.2414C206.467 62.6064 205.951 62.0916 205.314 62.0916H198.393C197.756 62.0916 197.24 62.6064 197.24 63.2414V70.1405C197.24 70.7755 197.756 71.2903 198.393 71.2903H205.314C205.951 71.2903 206.467 70.7755 206.467 70.1405ZM196.086 70.1405V63.2414C196.086 62.6064 195.57 62.0916 194.933 62.0916H188.012C187.375 62.0916 186.859 62.6064 186.859 63.2414V70.1405C186.859 70.7755 187.375 71.2903 188.012 71.2903H194.933C195.57 71.2903 196.086 70.7755 196.086 70.1405ZM185.705 70.1405V63.2414C185.705 62.6064 185.189 62.0916 184.552 62.0916H177.631C176.994 62.0916 176.478 62.6064 176.478 63.2414V70.1405C176.478 70.7755 176.994 71.2903 177.631 71.2903H184.552C185.189 71.2903 185.705 70.7755 185.705 70.1405ZM175.324 70.1405V63.2414C175.324 62.6064 174.808 62.0916 174.171 62.0916H167.25C166.613 62.0916 166.097 62.6064 166.097 63.2414V70.1405C166.097 70.7755 166.613 71.2903 167.25 71.2903H174.171C174.808 71.2903 175.324 70.7755 175.324 70.1405ZM164.943 70.1405V63.2414C164.943 62.6064 164.427 62.0916 163.79 62.0916H156.869C156.232 62.0916 155.716 62.6064 155.716 63.2414V70.1405C155.716 70.7755 156.232 71.2903 156.869 71.2903H163.79C164.427 71.2903 164.943 70.7755 164.943 70.1405ZM154.562 70.1405V63.2414C154.562 62.6064 154.046 62.0916 153.409 62.0916H146.488C145.851 62.0916 145.335 62.6064 145.335 63.2414V70.1405C145.335 70.7755 145.851 71.2903 146.488 71.2903H153.409C154.046 71.2903 154.562 70.7755 154.562 70.1405ZM144.181 70.1405V63.2414C144.181 62.6064 143.665 62.0916 143.028 62.0916H136.107C135.47 62.0916 134.953 62.6064 134.953 63.2414V70.1405C134.953 70.7755 135.47 71.2903 136.107 71.2903H143.028C143.665 71.2903 144.181 70.7755 144.181 70.1405ZM133.8 70.1405V63.2414C133.8 62.6064 133.284 62.0916 132.647 62.0916H125.726C125.089 62.0916 124.572 62.6064 124.572 63.2414V70.1405C124.572 70.7755 125.089 71.2903 125.726 71.2903H132.647C133.284 71.2903 133.8 70.7755 133.8 70.1405ZM123.419 70.1405V63.2414C123.419 62.6064 122.903 62.0916 122.266 62.0916H115.345C114.708 62.0916 114.191 62.6064 114.191 63.2414V70.1405C114.191 70.7755 114.708 71.2903 115.345 71.2903H122.266C122.903 71.2903 123.419 70.7755 123.419 70.1405ZM113.038 70.1405V63.2414C113.038 62.6064 112.522 62.0916 111.885 62.0916H104.964C104.327 62.0916 103.81 62.6064 103.81 63.2414V70.1405C103.81 70.7755 104.327 71.2903 104.964 71.2903H111.885C112.522 71.2903 113.038 70.7755 113.038 70.1405ZM102.657 70.1405V63.2414C102.657 62.6064 102.14 62.0916 101.503 62.0916H94.5828C93.9457 62.0916 93.4293 62.6064 93.4293 63.2414V70.1405C93.4293 70.7755 93.9457 71.2903 94.5828 71.2903H101.503C102.14 71.2903 102.657 70.7755 102.657 70.1405ZM92.2759 70.1405V63.2414C92.2759 62.6064 91.7595 62.0916 91.1224 62.0916H84.2017C83.5647 62.0916 83.0483 62.6064 83.0483 63.2414V70.1405C83.0483 70.7755 83.5647 71.2903 84.2017 71.2903H91.1224C91.7595 71.2903 92.2759 70.7755 92.2759 70.1405ZM81.8949 70.1405V63.2414C81.8949 62.6064 81.3784 62.0916 80.7414 62.0916H73.8207C73.1837 62.0916 72.6673 62.6064 72.6673 63.2414V70.1405C72.6673 70.7755 73.1837 71.2903 73.8207 71.2903H80.7414C81.3784 71.2903 81.8949 70.7755 81.8949 70.1405ZM71.5138 70.1405V63.2414C71.5138 62.6064 70.9974 62.0916 70.3604 62.0916H63.4397C62.8027 62.0916 62.2862 62.6064 62.2862 63.2414V70.1405C62.2862 70.7755 62.8027 71.2903 63.4397 71.2903H70.3604C70.9974 71.2903 71.5138 70.7755 71.5138 70.1405ZM61.1328 70.1405V63.2414C61.1328 62.6064 60.6164 62.0916 59.9793 62.0916H53.0586C52.4216 62.0916 51.9052 62.6064 51.9052 63.2414V70.1405C51.9052 70.7755 52.4216 71.2903 53.0586 71.2903H59.9793C60.6164 71.2903 61.1328 70.7755 61.1328 70.1405ZM50.7517 70.1405V63.2414C50.7517 62.6064 50.2353 62.0916 49.5983 62.0916H42.6776C42.0406 62.0916 41.5241 62.6064 41.5241 63.2414V70.1405C41.5241 70.7755 42.0406 71.2903 42.6776 71.2903H49.5983C50.2353 71.2903 50.7517 70.7755 50.7517 70.1405ZM40.3707 70.1405V63.2414C40.3707 62.6064 39.8543 62.0916 39.2173 62.0916H32.2966C31.6595 62.0916 31.1431 62.6064 31.1431 63.2414V70.1405C31.1431 70.7755 31.6595 71.2903 32.2966 71.2903H39.2173C39.8543 71.2903 40.3707 70.7755 40.3707 70.1405ZM29.9897 70.1405V63.2414C29.9897 62.6064 29.4733 62.0916 28.8362 62.0916H21.9155C21.2785 62.0916 20.7621 62.6064 20.7621 63.2414V70.1405C20.7621 70.7755 21.2785 71.2903 21.9155 71.2903H28.8362C29.4733 71.2903 29.9897 70.7755 29.9897 70.1405ZM19.6086 70.1405V63.2414C19.6086 62.6064 19.0922 62.0916 18.4552 62.0916H11.5345C10.8975 62.0916 10.381 62.6064 10.381 63.2414V70.1405C10.381 70.7755 10.8975 71.2903 11.5345 71.2903H18.4552C19.0922 71.2903 19.6086 70.7755 19.6086 70.1405ZM9.2276 70.1405V63.2414C9.2276 62.6064 8.71117 62.0916 8.07414 62.0916H1.15346C0.516426 62.0916 0 62.6064 0 63.2414V70.1405C0 70.7755 0.516426 71.2903 1.15346 71.2903H8.07414C8.71117 71.2903 9.2276 70.7755 9.2276 70.1405ZM216.848 59.7919V52.8928C216.848 52.2578 216.332 51.743 215.695 51.743H208.774C208.137 51.743 207.621 52.2578 207.621 52.8928V59.7919C207.621 60.4269 208.137 60.9417 208.774 60.9417H215.695C216.332 60.9417 216.848 60.4269 216.848 59.7919ZM206.467 59.7919V52.8928C206.467 52.2578 205.951 51.743 205.314 51.743H198.393C197.756 51.743 197.24 52.2578 197.24 52.8928V59.7919C197.24 60.4269 197.756 60.9417 198.393 60.9417H205.314C205.951 60.9417 206.467 60.4269 206.467 59.7919ZM196.086 59.7919V52.8928C196.086 52.2578 195.57 51.743 194.933 51.743H188.012C187.375 51.743 186.859 52.2578 186.859 52.8928V59.7919C186.859 60.4269 187.375 60.9417 188.012 60.9417H194.933C195.57 60.9417 196.086 60.4269 196.086 59.7919ZM185.705 59.7919V52.8928C185.705 52.2578 185.189 51.743 184.552 51.743H177.631C176.994 51.743 176.478 52.2578 176.478 52.8928V59.7919C176.478 60.4269 176.994 60.9417 177.631 60.9417H184.552C185.189 60.9417 185.705 60.4269 185.705 59.7919ZM175.324 59.7919V52.8928C175.324 52.2578 174.808 51.743 174.171 51.743H167.25C166.613 51.743 166.097 52.2578 166.097 52.8928V59.7919C166.097 60.4269 166.613 60.9417 167.25 60.9417H174.171C174.808 60.9417 175.324 60.4269 175.324 59.7919ZM164.943 59.7919V52.8928C164.943 52.2578 164.427 51.743 163.79 51.743H156.869C156.232 51.743 155.716 52.2578 155.716 52.8928V59.7919C155.716 60.4269 156.232 60.9417 156.869 60.9417H163.79C164.427 60.9417 164.943 60.4269 164.943 59.7919ZM154.562 59.7919V52.8928C154.562 52.2578 154.046 51.743 153.409 51.743H146.488C145.851 51.743 145.335 52.2578 145.335 52.8928V59.7919C145.335 60.4269 145.851 60.9417 146.488 60.9417H153.409C154.046 60.9417 154.562 60.4269 154.562 59.7919ZM144.181 59.7919V52.8928C144.181 52.2578 143.665 51.743 143.028 51.743H136.107C135.47 51.743 134.953 52.2578 134.953 52.8928V59.7919C134.953 60.4269 135.47 60.9417 136.107 60.9417H143.028C143.665 60.9417 144.181 60.4269 144.181 59.7919ZM133.8 59.7919V52.8928C133.8 52.2578 133.284 51.743 132.647 51.743H125.726C125.089 51.743 124.572 52.2578 124.572 52.8928V59.7919C124.572 60.4269 125.089 60.9417 125.726 60.9417H132.647C133.284 60.9417 133.8 60.4269 133.8 59.7919ZM123.419 59.7919V52.8928C123.419 52.2578 122.903 51.743 122.266 51.743H115.345C114.708 51.743 114.191 52.2578 114.191 52.8928V59.7919C114.191 60.4269 114.708 60.9417 115.345 60.9417H122.266C122.903 60.9417 123.419 60.4269 123.419 59.7919ZM113.038 59.7919V52.8928C113.038 52.2578 112.522 51.743 111.885 51.743H104.964C104.327 51.743 103.81 52.2578 103.81 52.8928V59.7919C103.81 60.4269 104.327 60.9417 104.964 60.9417H111.885C112.522 60.9417 113.038 60.4269 113.038 59.7919ZM102.657 59.7919V52.8928C102.657 52.2578 102.14 51.743 101.503 51.743H94.5828C93.9457 51.743 93.4293 52.2578 93.4293 52.8928V59.7919C93.4293 60.4269 93.9457 60.9417 94.5828 60.9417H101.503C102.14 60.9417 102.657 60.4269 102.657 59.7919ZM92.2759 59.7919V52.8928C92.2759 52.2578 91.7595 51.743 91.1224 51.743H84.2017C83.5647 51.743 83.0483 52.2578 83.0483 52.8928V59.7919C83.0483 60.4269 83.5647 60.9417 84.2017 60.9417H91.1224C91.7595 60.9417 92.2759 60.4269 92.2759 59.7919ZM81.8949 59.7919V52.8928C81.8949 52.2578 81.3784 51.743 80.7414 51.743H73.8207C73.1837 51.743 72.6673 52.2578 72.6673 52.8928V59.7919C72.6673 60.4269 73.1837 60.9417 73.8207 60.9417H80.7414C81.3784 60.9417 81.8949 60.4269 81.8949 59.7919ZM71.5138 59.7919V52.8928C71.5138 52.2578 70.9974 51.743 70.3604 51.743H63.4397C62.8027 51.743 62.2862 52.2578 62.2862 52.8928V59.7919C62.2862 60.4269 62.8027 60.9417 63.4397 60.9417H70.3604C70.9974 60.9417 71.5138 60.4269 71.5138 59.7919ZM61.1328 59.7919V52.8928C61.1328 52.2578 60.6164 51.743 59.9793 51.743H53.0586C52.4216 51.743 51.9052 52.2578 51.9052 52.8928V59.7919C51.9052 60.4269 52.4216 60.9417 53.0586 60.9417H59.9793C60.6164 60.9417 61.1328 60.4269 61.1328 59.7919ZM50.7517 59.7919V52.8928C50.7517 52.2578 50.2353 51.743 49.5983 51.743H42.6776C42.0406 51.743 41.5241 52.2578 41.5241 52.8928V59.7919C41.5241 60.4269 42.0406 60.9417 42.6776 60.9417H49.5983C50.2353 60.9417 50.7517 60.4269 50.7517 59.7919ZM40.3707 59.7919V52.8928C40.3707 52.2578 39.8543 51.743 39.2173 51.743H32.2966C31.6595 51.743 31.1431 52.2578 31.1431 52.8928V59.7919C31.1431 60.4269 31.6595 60.9417 32.2966 60.9417H39.2173C39.8543 60.9417 40.3707 60.4269 40.3707 59.7919ZM29.9897 59.7919V52.8928C29.9897 52.2578 29.4733 51.743 28.8362 51.743H21.9155C21.2785 51.743 20.7621 52.2578 20.7621 52.8928V59.7919C20.7621 60.4269 21.2785 60.9417 21.9155 60.9417H28.8362C29.4733 60.9417 29.9897 60.4269 29.9897 59.7919ZM19.6086 59.7919V52.8928C19.6086 52.2578 19.0922 51.743 18.4552 51.743H11.5345C10.8975 51.743 10.381 52.2578 10.381 52.8928V59.7919C10.381 60.4269 10.8975 60.9417 11.5345 60.9417H18.4552C19.0922 60.9417 19.6086 60.4269 19.6086 59.7919ZM9.2276 59.7919V52.8928C9.2276 52.2578 8.71117 51.743 8.07414 51.743H1.15346C0.516426 51.743 0 52.2578 0 52.8928V59.7919C0 60.4269 0.516426 60.9417 1.15346 60.9417H8.07414C8.71117 60.9417 9.2276 60.4269 9.2276 59.7919ZM216.848 49.4433V42.5442C216.848 41.9092 216.332 41.3944 215.695 41.3944H208.774C208.137 41.3944 207.621 41.9092 207.621 42.5442V49.4433C207.621 50.0783 208.137 50.5931 208.774 50.5931H215.695C216.332 50.5931 216.848 50.0783 216.848 49.4433ZM206.467 49.4433V42.5442C206.467 41.9092 205.951 41.3944 205.314 41.3944H198.393C197.756 41.3944 197.24 41.9092 197.24 42.5442V49.4433C197.24 50.0783 197.756 50.5931 198.393 50.5931H205.314C205.951 50.5931 206.467 50.0783 206.467 49.4433ZM196.086 49.4433V42.5442C196.086 41.9092 195.57 41.3944 194.933 41.3944H188.012C187.375 41.3944 186.859 41.9092 186.859 42.5442V49.4433C186.859 50.0783 187.375 50.5931 188.012 50.5931H194.933C195.57 50.5931 196.086 50.0783 196.086 49.4433ZM185.705 49.4433V42.5442C185.705 41.9092 185.189 41.3944 184.552 41.3944H177.631C176.994 41.3944 176.478 41.9092 176.478 42.5442V49.4433C176.478 50.0783 176.994 50.5931 177.631 50.5931H184.552C185.189 50.5931 185.705 50.0783 185.705 49.4433ZM175.324 49.4433V42.5442C175.324 41.9092 174.808 41.3944 174.171 41.3944H167.25C166.613 41.3944 166.097 41.9092 166.097 42.5442V49.4433C166.097 50.0783 166.613 50.5931 167.25 50.5931H174.171C174.808 50.5931 175.324 50.0783 175.324 49.4433ZM164.943 49.4433V42.5442C164.943 41.9092 164.427 41.3944 163.79 41.3944H156.869C156.232 41.3944 155.716 41.9092 155.716 42.5442V49.4433C155.716 50.0783 156.232 50.5931 156.869 50.5931H163.79C164.427 50.5931 164.943 50.0783 164.943 49.4433ZM154.562 49.4433V42.5442C154.562 41.9092 154.046 41.3944 153.409 41.3944H146.488C145.851 41.3944 145.335 41.9092 145.335 42.5442V49.4433C145.335 50.0783 145.851 50.5931 146.488 50.5931H153.409C154.046 50.5931 154.562 50.0783 154.562 49.4433ZM144.181 49.4433V42.5442C144.181 41.9092 143.665 41.3944 143.028 41.3944H136.107C135.47 41.3944 134.953 41.9092 134.953 42.5442V49.4433C134.953 50.0783 135.47 50.5931 136.107 50.5931H143.028C143.665 50.5931 144.181 50.0783 144.181 49.4433ZM133.8 49.4433V42.5442C133.8 41.9092 133.284 41.3944 132.647 41.3944H125.726C125.089 41.3944 124.572 41.9092 124.572 42.5442V49.4433C124.572 50.0783 125.089 50.5931 125.726 50.5931H132.647C133.284 50.5931 133.8 50.0783 133.8 49.4433ZM123.419 49.4433V42.5442C123.419 41.9092 122.903 41.3944 122.266 41.3944H115.345C114.708 41.3944 114.191 41.9092 114.191 42.5442V49.4433C114.191 50.0783 114.708 50.5931 115.345 50.5931H122.266C122.903 50.5931 123.419 50.0783 123.419 49.4433ZM113.038 49.4433V42.5442C113.038 41.9092 112.522 41.3944 111.885 41.3944H104.964C104.327 41.3944 103.81 41.9092 103.81 42.5442V49.4433C103.81 50.0783 104.327 50.5931 104.964 50.5931H111.885C112.522 50.5931 113.038 50.0783 113.038 49.4433ZM102.657 49.4433V42.5442C102.657 41.9092 102.14 41.3944 101.503 41.3944H94.5828C93.9457 41.3944 93.4293 41.9092 93.4293 42.5442V49.4433C93.4293 50.0783 93.9457 50.5931 94.5828 50.5931H101.503C102.14 50.5931 102.657 50.0783 102.657 49.4433ZM92.2759 49.4433V42.5442C92.2759 41.9092 91.7595 41.3944 91.1224 41.3944H84.2017C83.5647 41.3944 83.0483 41.9092 83.0483 42.5442V49.4433C83.0483 50.0783 83.5647 50.5931 84.2017 50.5931H91.1224C91.7595 50.5931 92.2759 50.0783 92.2759 49.4433ZM81.8949 49.4433V42.5442C81.8949 41.9092 81.3784 41.3944 80.7414 41.3944H73.8207C73.1837 41.3944 72.6673 41.9092 72.6673 42.5442V49.4433C72.6673 50.0783 73.1837 50.5931 73.8207 50.5931H80.7414C81.3784 50.5931 81.8949 50.0783 81.8949 49.4433ZM71.5138 49.4433V42.5442C71.5138 41.9092 70.9974 41.3944 70.3604 41.3944H63.4397C62.8027 41.3944 62.2862 41.9092 62.2862 42.5442V49.4433C62.2862 50.0783 62.8027 50.5931 63.4397 50.5931H70.3604C70.9974 50.5931 71.5138 50.0783 71.5138 49.4433ZM61.1328 49.4433V42.5442C61.1328 41.9092 60.6164 41.3944 59.9793 41.3944H53.0586C52.4216 41.3944 51.9052 41.9092 51.9052 42.5442V49.4433C51.9052 50.0783 52.4216 50.5931 53.0586 50.5931H59.9793C60.6164 50.5931 61.1328 50.0783 61.1328 49.4433ZM50.7517 49.4433V42.5442C50.7517 41.9092 50.2353 41.3944 49.5983 41.3944H42.6776C42.0406 41.3944 41.5241 41.9092 41.5241 42.5442V49.4433C41.5241 50.0783 42.0406 50.5931 42.6776 50.5931H49.5983C50.2353 50.5931 50.7517 50.0783 50.7517 49.4433ZM40.3707 49.4433V42.5442C40.3707 41.9092 39.8543 41.3944 39.2173 41.3944H32.2966C31.6595 41.3944 31.1431 41.9092 31.1431 42.5442V49.4433C31.1431 50.0783 31.6595 50.5931 32.2966 50.5931H39.2173C39.8543 50.5931 40.3707 50.0783 40.3707 49.4433ZM29.9897 49.4433V42.5442C29.9897 41.9092 29.4733 41.3944 28.8362 41.3944H21.9155C21.2785 41.3944 20.7621 41.9092 20.7621 42.5442V49.4433C20.7621 50.0783 21.2785 50.5931 21.9155 50.5931H28.8362C29.4733 50.5931 29.9897 50.0783 29.9897 49.4433ZM19.6086 49.4433V42.5442C19.6086 41.9092 19.0922 41.3944 18.4552 41.3944H11.5345C10.8975 41.3944 10.381 41.9092 10.381 42.5442V49.4433C10.381 50.0783 10.8975 50.5931 11.5345 50.5931H18.4552C19.0922 50.5931 19.6086 50.0783 19.6086 49.4433ZM9.2276 49.4433V42.5442C9.2276 41.9092 8.71117 41.3944 8.07414 41.3944H1.15346C0.516426 41.3944 0 41.9092 0 42.5442V49.4433C0 50.0783 0.516426 50.5931 1.15346 50.5931H8.07414C8.71117 50.5931 9.2276 50.0783 9.2276 49.4433ZM216.848 39.0947V32.1956C216.848 31.5606 216.332 31.0458 215.695 31.0458H208.774C208.137 31.0458 207.621 31.5606 207.621 32.1956V39.0947C207.621 39.7297 208.137 40.2445 208.774 40.2445H215.695C216.332 40.2445 216.848 39.7297 216.848 39.0947ZM206.467 39.0947V32.1956C206.467 31.5606 205.951 31.0458 205.314 31.0458H198.393C197.756 31.0458 197.24 31.5606 197.24 32.1956V39.0947C197.24 39.7297 197.756 40.2445 198.393 40.2445H205.314C205.951 40.2445 206.467 39.7297 206.467 39.0947ZM196.086 39.0947V32.1956C196.086 31.5606 195.57 31.0458 194.933 31.0458H188.012C187.375 31.0458 186.859 31.5606 186.859 32.1956V39.0947C186.859 39.7297 187.375 40.2445 188.012 40.2445H194.933C195.57 40.2445 196.086 39.7297 196.086 39.0947ZM185.705 39.0947V32.1956C185.705 31.5606 185.189 31.0458 184.552 31.0458H177.631C176.994 31.0458 176.478 31.5606 176.478 32.1956V39.0947C176.478 39.7297 176.994 40.2445 177.631 40.2445H184.552C185.189 40.2445 185.705 39.7297 185.705 39.0947ZM175.324 39.0947V32.1956C175.324 31.5606 174.808 31.0458 174.171 31.0458H167.25C166.613 31.0458 166.097 31.5606 166.097 32.1956V39.0947C166.097 39.7297 166.613 40.2445 167.25 40.2445H174.171C174.808 40.2445 175.324 39.7297 175.324 39.0947ZM164.943 39.0947V32.1956C164.943 31.5606 164.427 31.0458 163.79 31.0458H156.869C156.232 31.0458 155.716 31.5606 155.716 32.1956V39.0947C155.716 39.7297 156.232 40.2445 156.869 40.2445H163.79C164.427 40.2445 164.943 39.7297 164.943 39.0947ZM154.562 39.0947V32.1956C154.562 31.5606 154.046 31.0458 153.409 31.0458H146.488C145.851 31.0458 145.335 31.5606 145.335 32.1956V39.0947C145.335 39.7297 145.851 40.2445 146.488 40.2445H153.409C154.046 40.2445 154.562 39.7297 154.562 39.0947ZM144.181 39.0947V32.1956C144.181 31.5606 143.665 31.0458 143.028 31.0458H136.107C135.47 31.0458 134.953 31.5606 134.953 32.1956V39.0947C134.953 39.7297 135.47 40.2445 136.107 40.2445H143.028C143.665 40.2445 144.181 39.7297 144.181 39.0947ZM133.8 39.0947V32.1956C133.8 31.5606 133.284 31.0458 132.647 31.0458H125.726C125.089 31.0458 124.572 31.5606 124.572 32.1956V39.0947C124.572 39.7297 125.089 40.2445 125.726 40.2445H132.647C133.284 40.2445 133.8 39.7297 133.8 39.0947ZM123.419 39.0947V32.1956C123.419 31.5606 122.903 31.0458 122.266 31.0458H115.345C114.708 31.0458 114.191 31.5606 114.191 32.1956V39.0947C114.191 39.7297 114.708 40.2445 115.345 40.2445H122.266C122.903 40.2445 123.419 39.7297 123.419 39.0947ZM113.038 39.0947V32.1956C113.038 31.5606 112.522 31.0458 111.885 31.0458H104.964C104.327 31.0458 103.81 31.5606 103.81 32.1956V39.0947C103.81 39.7297 104.327 40.2445 104.964 40.2445H111.885C112.522 40.2445 113.038 39.7297 113.038 39.0947ZM102.657 39.0947V32.1956C102.657 31.5606 102.14 31.0458 101.503 31.0458H94.5828C93.9457 31.0458 93.4293 31.5606 93.4293 32.1956V39.0947C93.4293 39.7297 93.9457 40.2445 94.5828 40.2445H101.503C102.14 40.2445 102.657 39.7297 102.657 39.0947ZM92.2759 39.0947V32.1956C92.2759 31.5606 91.7595 31.0458 91.1224 31.0458H84.2017C83.5647 31.0458 83.0483 31.5606 83.0483 32.1956V39.0947C83.0483 39.7297 83.5647 40.2445 84.2017 40.2445H91.1224C91.7595 40.2445 92.2759 39.7297 92.2759 39.0947ZM81.8949 39.0947V32.1956C81.8949 31.5606 81.3784 31.0458 80.7414 31.0458H73.8207C73.1837 31.0458 72.6673 31.5606 72.6673 32.1956V39.0947C72.6673 39.7297 73.1837 40.2445 73.8207 40.2445H80.7414C81.3784 40.2445 81.8949 39.7297 81.8949 39.0947ZM71.5138 39.0947V32.1956C71.5138 31.5606 70.9974 31.0458 70.3604 31.0458H63.4397C62.8027 31.0458 62.2862 31.5606 62.2862 32.1956V39.0947C62.2862 39.7297 62.8027 40.2445 63.4397 40.2445H70.3604C70.9974 40.2445 71.5138 39.7297 71.5138 39.0947ZM61.1328 39.0947V32.1956C61.1328 31.5606 60.6164 31.0458 59.9793 31.0458H53.0586C52.4216 31.0458 51.9052 31.5606 51.9052 32.1956V39.0947C51.9052 39.7297 52.4216 40.2445 53.0586 40.2445H59.9793C60.6164 40.2445 61.1328 39.7297 61.1328 39.0947ZM50.7517 39.0947V32.1956C50.7517 31.5606 50.2353 31.0458 49.5983 31.0458H42.6776C42.0406 31.0458 41.5241 31.5606 41.5241 32.1956V39.0947C41.5241 39.7297 42.0406 40.2445 42.6776 40.2445H49.5983C50.2353 40.2445 50.7517 39.7297 50.7517 39.0947ZM40.3707 39.0947V32.1956C40.3707 31.5606 39.8543 31.0458 39.2173 31.0458H32.2966C31.6595 31.0458 31.1431 31.5606 31.1431 32.1956V39.0947C31.1431 39.7297 31.6595 40.2445 32.2966 40.2445H39.2173C39.8543 40.2445 40.3707 39.7297 40.3707 39.0947ZM29.9897 39.0947V32.1956C29.9897 31.5606 29.4733 31.0458 28.8362 31.0458H21.9155C21.2785 31.0458 20.7621 31.5606 20.7621 32.1956V39.0947C20.7621 39.7297 21.2785 40.2445 21.9155 40.2445H28.8362C29.4733 40.2445 29.9897 39.7297 29.9897 39.0947ZM19.6086 39.0947V32.1956C19.6086 31.5606 19.0922 31.0458 18.4552 31.0458H11.5345C10.8975 31.0458 10.381 31.5606 10.381 32.1956V39.0947C10.381 39.7297 10.8975 40.2445 11.5345 40.2445H18.4552C19.0922 40.2445 19.6086 39.7297 19.6086 39.0947ZM9.2276 39.0947V32.1956C9.2276 31.5606 8.71117 31.0458 8.07414 31.0458H1.15346C0.516426 31.0458 0 31.5606 0 32.1956V39.0947C0 39.7297 0.516426 40.2445 1.15346 40.2445H8.07414C8.71117 40.2445 9.2276 39.7297 9.2276 39.0947ZM216.848 28.7461V21.847C216.848 21.212 216.332 20.6972 215.695 20.6972H208.774C208.137 20.6972 207.621 21.212 207.621 21.847V28.7461C207.621 29.3811 208.137 29.8959 208.774 29.8959H215.695C216.332 29.8959 216.848 29.3811 216.848 28.7461ZM206.467 28.7461V21.847C206.467 21.212 205.951 20.6972 205.314 20.6972H198.393C197.756 20.6972 197.24 21.212 197.24 21.847V28.7461C197.24 29.3811 197.756 29.8959 198.393 29.8959H205.314C205.951 29.8959 206.467 29.3811 206.467 28.7461ZM196.086 28.7461V21.847C196.086 21.212 195.57 20.6972 194.933 20.6972H188.012C187.375 20.6972 186.859 21.212 186.859 21.847V28.7461C186.859 29.3811 187.375 29.8959 188.012 29.8959H194.933C195.57 29.8959 196.086 29.3811 196.086 28.7461ZM185.705 28.7461V21.847C185.705 21.212 185.189 20.6972 184.552 20.6972H177.631C176.994 20.6972 176.478 21.212 176.478 21.847V28.7461C176.478 29.3811 176.994 29.8959 177.631 29.8959H184.552C185.189 29.8959 185.705 29.3811 185.705 28.7461ZM175.324 28.7461V21.847C175.324 21.212 174.808 20.6972 174.171 20.6972H167.25C166.613 20.6972 166.097 21.212 166.097 21.847V28.7461C166.097 29.3811 166.613 29.8959 167.25 29.8959H174.171C174.808 29.8959 175.324 29.3811 175.324 28.7461ZM164.943 28.7461V21.847C164.943 21.212 164.427 20.6972 163.79 20.6972H156.869C156.232 20.6972 155.716 21.212 155.716 21.847V28.7461C155.716 29.3811 156.232 29.8959 156.869 29.8959H163.79C164.427 29.8959 164.943 29.3811 164.943 28.7461ZM154.562 28.7461V21.847C154.562 21.212 154.046 20.6972 153.409 20.6972H146.488C145.851 20.6972 145.335 21.212 145.335 21.847V28.7461C145.335 29.3811 145.851 29.8959 146.488 29.8959H153.409C154.046 29.8959 154.562 29.3811 154.562 28.7461ZM144.181 28.7461V21.847C144.181 21.212 143.665 20.6972 143.028 20.6972H136.107C135.47 20.6972 134.953 21.212 134.953 21.847V28.7461C134.953 29.3811 135.47 29.8959 136.107 29.8959H143.028C143.665 29.8959 144.181 29.3811 144.181 28.7461ZM133.8 28.7461V21.847C133.8 21.212 133.284 20.6972 132.647 20.6972H125.726C125.089 20.6972 124.572 21.212 124.572 21.847V28.7461C124.572 29.3811 125.089 29.8959 125.726 29.8959H132.647C133.284 29.8959 133.8 29.3811 133.8 28.7461ZM123.419 28.7461V21.847C123.419 21.212 122.903 20.6972 122.266 20.6972H115.345C114.708 20.6972 114.191 21.212 114.191 21.847V28.7461C114.191 29.3811 114.708 29.8959 115.345 29.8959H122.266C122.903 29.8959 123.419 29.3811 123.419 28.7461ZM113.038 28.7461V21.847C113.038 21.212 112.522 20.6972 111.885 20.6972H104.964C104.327 20.6972 103.81 21.212 103.81 21.847V28.7461C103.81 29.3811 104.327 29.8959 104.964 29.8959H111.885C112.522 29.8959 113.038 29.3811 113.038 28.7461ZM102.657 28.7461V21.847C102.657 21.212 102.14 20.6972 101.503 20.6972H94.5828C93.9457 20.6972 93.4293 21.212 93.4293 21.847V28.7461C93.4293 29.3811 93.9457 29.8959 94.5828 29.8959H101.503C102.14 29.8959 102.657 29.3811 102.657 28.7461ZM92.2759 28.7461V21.847C92.2759 21.212 91.7595 20.6972 91.1224 20.6972H84.2017C83.5647 20.6972 83.0483 21.212 83.0483 21.847V28.7461C83.0483 29.3811 83.5647 29.8959 84.2017 29.8959H91.1224C91.7595 29.8959 92.2759 29.3811 92.2759 28.7461ZM81.8949 28.7461V21.847C81.8949 21.212 81.3784 20.6972 80.7414 20.6972H73.8207C73.1837 20.6972 72.6673 21.212 72.6673 21.847V28.7461C72.6673 29.3811 73.1837 29.8959 73.8207 29.8959H80.7414C81.3784 29.8959 81.8949 29.3811 81.8949 28.7461ZM71.5138 28.7461V21.847C71.5138 21.212 70.9974 20.6972 70.3604 20.6972H63.4397C62.8027 20.6972 62.2862 21.212 62.2862 21.847V28.7461C62.2862 29.3811 62.8027 29.8959 63.4397 29.8959H70.3604C70.9974 29.8959 71.5138 29.3811 71.5138 28.7461ZM61.1328 28.7461V21.847C61.1328 21.212 60.6164 20.6972 59.9793 20.6972H53.0586C52.4216 20.6972 51.9052 21.212 51.9052 21.847V28.7461C51.9052 29.3811 52.4216 29.8959 53.0586 29.8959H59.9793C60.6164 29.8959 61.1328 29.3811 61.1328 28.7461ZM50.7517 28.7461V21.847C50.7517 21.212 50.2353 20.6972 49.5983 20.6972H42.6776C42.0406 20.6972 41.5241 21.212 41.5241 21.847V28.7461C41.5241 29.3811 42.0406 29.8959 42.6776 29.8959H49.5983C50.2353 29.8959 50.7517 29.3811 50.7517 28.7461ZM40.3707 28.7461V21.847C40.3707 21.212 39.8543 20.6972 39.2173 20.6972H32.2966C31.6595 20.6972 31.1431 21.212 31.1431 21.847V28.7461C31.1431 29.3811 31.6595 29.8959 32.2966 29.8959H39.2173C39.8543 29.8959 40.3707 29.3811 40.3707 28.7461ZM29.9897 28.7461V21.847C29.9897 21.212 29.4733 20.6972 28.8362 20.6972H21.9155C21.2785 20.6972 20.7621 21.212 20.7621 21.847V28.7461C20.7621 29.3811 21.2785 29.8959 21.9155 29.8959H28.8362C29.4733 29.8959 29.9897 29.3811 29.9897 28.7461ZM19.6086 28.7461V21.847C19.6086 21.212 19.0922 20.6972 18.4552 20.6972H11.5345C10.8975 20.6972 10.381 21.212 10.381 21.847V28.7461C10.381 29.3811 10.8975 29.8959 11.5345 29.8959H18.4552C19.0922 29.8959 19.6086 29.3811 19.6086 28.7461ZM9.2276 28.7461V21.847C9.2276 21.212 8.71117 20.6972 8.07414 20.6972H1.15346C0.516426 20.6972 0 21.212 0 21.847V28.7461C0 29.3811 0.516426 29.8959 1.15346 29.8959H8.07414C8.71117 29.8959 9.2276 29.3811 9.2276 28.7461ZM216.848 18.3975V11.4984C216.848 10.8634 216.332 10.3486 215.695 10.3486H208.774C208.137 10.3486 207.621 10.8634 207.621 11.4984V18.3975C207.621 19.0325 208.137 19.5473 208.774 19.5473H215.695C216.332 19.5473 216.848 19.0325 216.848 18.3975ZM206.467 18.3975V11.4984C206.467 10.8634 205.951 10.3486 205.314 10.3486H198.393C197.756 10.3486 197.24 10.8634 197.24 11.4984V18.3975C197.24 19.0325 197.756 19.5473 198.393 19.5473H205.314C205.951 19.5473 206.467 19.0325 206.467 18.3975ZM196.086 18.3975V11.4984C196.086 10.8634 195.57 10.3486 194.933 10.3486H188.012C187.375 10.3486 186.859 10.8634 186.859 11.4984V18.3975C186.859 19.0325 187.375 19.5473 188.012 19.5473H194.933C195.57 19.5473 196.086 19.0325 196.086 18.3975ZM185.705 18.3975V11.4984C185.705 10.8634 185.189 10.3486 184.552 10.3486H177.631C176.994 10.3486 176.478 10.8634 176.478 11.4984V18.3975C176.478 19.0325 176.994 19.5473 177.631 19.5473H184.552C185.189 19.5473 185.705 19.0325 185.705 18.3975ZM175.324 18.3975V11.4984C175.324 10.8634 174.808 10.3486 174.171 10.3486H167.25C166.613 10.3486 166.097 10.8634 166.097 11.4984V18.3975C166.097 19.0325 166.613 19.5473 167.25 19.5473H174.171C174.808 19.5473 175.324 19.0325 175.324 18.3975ZM164.943 18.3975V11.4984C164.943 10.8634 164.427 10.3486 163.79 10.3486H156.869C156.232 10.3486 155.716 10.8634 155.716 11.4984V18.3975C155.716 19.0325 156.232 19.5473 156.869 19.5473H163.79C164.427 19.5473 164.943 19.0325 164.943 18.3975ZM154.562 18.3975V11.4984C154.562 10.8634 154.046 10.3486 153.409 10.3486H146.488C145.851 10.3486 145.335 10.8634 145.335 11.4984V18.3975C145.335 19.0325 145.851 19.5473 146.488 19.5473H153.409C154.046 19.5473 154.562 19.0325 154.562 18.3975ZM144.181 18.3975V11.4984C144.181 10.8634 143.665 10.3486 143.028 10.3486H136.107C135.47 10.3486 134.953 10.8634 134.953 11.4984V18.3975C134.953 19.0325 135.47 19.5473 136.107 19.5473H143.028C143.665 19.5473 144.181 19.0325 144.181 18.3975ZM133.8 18.3975V11.4984C133.8 10.8634 133.284 10.3486 132.647 10.3486H125.726C125.089 10.3486 124.572 10.8634 124.572 11.4984V18.3975C124.572 19.0325 125.089 19.5473 125.726 19.5473H132.647C133.284 19.5473 133.8 19.0325 133.8 18.3975ZM123.419 18.3975V11.4984C123.419 10.8634 122.903 10.3486 122.266 10.3486H115.345C114.708 10.3486 114.191 10.8634 114.191 11.4984V18.3975C114.191 19.0325 114.708 19.5473 115.345 19.5473H122.266C122.903 19.5473 123.419 19.0325 123.419 18.3975ZM113.038 18.3975V11.4984C113.038 10.8634 112.522 10.3486 111.885 10.3486H104.964C104.327 10.3486 103.81 10.8634 103.81 11.4984V18.3975C103.81 19.0325 104.327 19.5473 104.964 19.5473H111.885C112.522 19.5473 113.038 19.0325 113.038 18.3975ZM102.657 18.3975V11.4984C102.657 10.8634 102.14 10.3486 101.503 10.3486H94.5828C93.9457 10.3486 93.4293 10.8634 93.4293 11.4984V18.3975C93.4293 19.0325 93.9457 19.5473 94.5828 19.5473H101.503C102.14 19.5473 102.657 19.0325 102.657 18.3975ZM92.2759 18.3975V11.4984C92.2759 10.8634 91.7595 10.3486 91.1224 10.3486H84.2017C83.5647 10.3486 83.0483 10.8634 83.0483 11.4984V18.3975C83.0483 19.0325 83.5647 19.5473 84.2017 19.5473H91.1224C91.7595 19.5473 92.2759 19.0325 92.2759 18.3975ZM81.8949 18.3975V11.4984C81.8949 10.8634 81.3784 10.3486 80.7414 10.3486H73.8207C73.1837 10.3486 72.6673 10.8634 72.6673 11.4984V18.3975C72.6673 19.0325 73.1837 19.5473 73.8207 19.5473H80.7414C81.3784 19.5473 81.8949 19.0325 81.8949 18.3975ZM71.5138 18.3975V11.4984C71.5138 10.8634 70.9974 10.3486 70.3604 10.3486H63.4397C62.8027 10.3486 62.2862 10.8634 62.2862 11.4984V18.3975C62.2862 19.0325 62.8027 19.5473 63.4397 19.5473H70.3604C70.9974 19.5473 71.5138 19.0325 71.5138 18.3975ZM61.1328 18.3975V11.4984C61.1328 10.8634 60.6164 10.3486 59.9793 10.3486H53.0586C52.4216 10.3486 51.9052 10.8634 51.9052 11.4984V18.3975C51.9052 19.0325 52.4216 19.5473 53.0586 19.5473H59.9793C60.6164 19.5473 61.1328 19.0325 61.1328 18.3975ZM50.7517 18.3975V11.4984C50.7517 10.8634 50.2353 10.3486 49.5983 10.3486H42.6776C42.0406 10.3486 41.5241 10.8634 41.5241 11.4984V18.3975C41.5241 19.0325 42.0406 19.5473 42.6776 19.5473H49.5983C50.2353 19.5473 50.7517 19.0325 50.7517 18.3975ZM40.3707 18.3975V11.4984C40.3707 10.8634 39.8543 10.3486 39.2173 10.3486H32.2966C31.6595 10.3486 31.1431 10.8634 31.1431 11.4984V18.3975C31.1431 19.0325 31.6595 19.5473 32.2966 19.5473H39.2173C39.8543 19.5473 40.3707 19.0325 40.3707 18.3975ZM29.9897 18.3975V11.4984C29.9897 10.8634 29.4733 10.3486 28.8362 10.3486H21.9155C21.2785 10.3486 20.7621 10.8634 20.7621 11.4984V18.3975C20.7621 19.0325 21.2785 19.5473 21.9155 19.5473H28.8362C29.4733 19.5473 29.9897 19.0325 29.9897 18.3975ZM19.6086 18.3975V11.4984C19.6086 10.8634 19.0922 10.3486 18.4552 10.3486H11.5345C10.8975 10.3486 10.381 10.8634 10.381 11.4984V18.3975C10.381 19.0325 10.8975 19.5473 11.5345 19.5473H18.4552C19.0922 19.5473 19.6086 19.0325 19.6086 18.3975ZM9.2276 18.3975V11.4984C9.2276 10.8634 8.71117 10.3486 8.07414 10.3486H1.15346C0.516426 10.3486 0 10.8634 0 11.4984V18.3975C0 19.0325 0.516426 19.5473 1.15346 19.5473H8.07414C8.71117 19.5473 9.2276 19.0325 9.2276 18.3975ZM216.848 8.04891V1.14984C216.848 0.514803 216.332 0 215.695 0H208.774C208.137 0 207.621 0.514803 207.621 1.14984V8.04891C207.621 8.68395 208.137 9.19875 208.774 9.19875H215.695C216.332 9.19875 216.848 8.68395 216.848 8.04891ZM206.467 8.04891V1.14984C206.467 0.514803 205.951 0 205.314 0H198.393C197.756 0 197.24 0.514803 197.24 1.14984V8.04891C197.24 8.68395 197.756 9.19875 198.393 9.19875H205.314C205.951 9.19875 206.467 8.68395 206.467 8.04891ZM196.086 8.04891V1.14984C196.086 0.514803 195.57 0 194.933 0H188.012C187.375 0 186.859 0.514803 186.859 1.14984V8.04891C186.859 8.68395 187.375 9.19875 188.012 9.19875H194.933C195.57 9.19875 196.086 8.68395 196.086 8.04891ZM185.705 8.04891V1.14984C185.705 0.514803 185.189 0 184.552 0H177.631C176.994 0 176.478 0.514803 176.478 1.14984V8.04891C176.478 8.68395 176.994 9.19875 177.631 9.19875H184.552C185.189 9.19875 185.705 8.68395 185.705 8.04891ZM175.324 8.04891V1.14984C175.324 0.514803 174.808 0 174.171 0H167.25C166.613 0 166.097 0.514803 166.097 1.14984V8.04891C166.097 8.68395 166.613 9.19875 167.25 9.19875H174.171C174.808 9.19875 175.324 8.68395 175.324 8.04891ZM164.943 8.04891V1.14984C164.943 0.514803 164.427 0 163.79 0H156.869C156.232 0 155.716 0.514803 155.716 1.14984V8.04891C155.716 8.68395 156.232 9.19875 156.869 9.19875H163.79C164.427 9.19875 164.943 8.68395 164.943 8.04891ZM154.562 8.04891V1.14984C154.562 0.514803 154.046 0 153.409 0H146.488C145.851 0 145.335 0.514803 145.335 1.14984V8.04891C145.335 8.68395 145.851 9.19875 146.488 9.19875H153.409C154.046 9.19875 154.562 8.68395 154.562 8.04891ZM144.181 8.04891V1.14984C144.181 0.514803 143.665 0 143.028 0H136.107C135.47 0 134.953 0.514803 134.953 1.14984V8.04891C134.953 8.68395 135.47 9.19875 136.107 9.19875H143.028C143.665 9.19875 144.181 8.68395 144.181 8.04891ZM133.8 8.04891V1.14984C133.8 0.514803 133.284 0 132.647 0H125.726C125.089 0 124.572 0.514803 124.572 1.14984V8.04891C124.572 8.68395 125.089 9.19875 125.726 9.19875H132.647C133.284 9.19875 133.8 8.68395 133.8 8.04891ZM123.419 8.04891V1.14984C123.419 0.514803 122.903 0 122.266 0H115.345C114.708 0 114.191 0.514803 114.191 1.14984V8.04891C114.191 8.68395 114.708 9.19875 115.345 9.19875H122.266C122.903 9.19875 123.419 8.68395 123.419 8.04891ZM113.038 8.04891V1.14984C113.038 0.514803 112.522 0 111.885 0H104.964C104.327 0 103.81 0.514803 103.81 1.14984V8.04891C103.81 8.68395 104.327 9.19875 104.964 9.19875H111.885C112.522 9.19875 113.038 8.68395 113.038 8.04891ZM102.657 8.04891V1.14984C102.657 0.514803 102.14 0 101.503 0H94.5828C93.9457 0 93.4293 0.514803 93.4293 1.14984V8.04891C93.4293 8.68395 93.9457 9.19875 94.5828 9.19875H101.503C102.14 9.19875 102.657 8.68395 102.657 8.04891ZM92.2759 8.04891V1.14984C92.2759 0.514803 91.7595 0 91.1224 0H84.2017C83.5647 0 83.0483 0.514803 83.0483 1.14984V8.04891C83.0483 8.68395 83.5647 9.19875 84.2017 9.19875H91.1224C91.7595 9.19875 92.2759 8.68395 92.2759 8.04891ZM81.8949 8.04891V1.14984C81.8949 0.514803 81.3784 0 80.7414 0H73.8207C73.1837 0 72.6673 0.514803 72.6673 1.14984V8.04891C72.6673 8.68395 73.1837 9.19875 73.8207 9.19875H80.7414C81.3784 9.19875 81.8949 8.68395 81.8949 8.04891ZM71.5138 8.04891V1.14984C71.5138 0.514803 70.9974 0 70.3604 0H63.4397C62.8027 0 62.2862 0.514803 62.2862 1.14984V8.04891C62.2862 8.68395 62.8027 9.19875 63.4397 9.19875H70.3604C70.9974 9.19875 71.5138 8.68395 71.5138 8.04891ZM61.1328 8.04891V1.14984C61.1328 0.514803 60.6164 0 59.9793 0H53.0586C52.4216 0 51.9052 0.514803 51.9052 1.14984V8.04891C51.9052 8.68395 52.4216 9.19875 53.0586 9.19875H59.9793C60.6164 9.19875 61.1328 8.68395 61.1328 8.04891ZM50.7517 8.04891V1.14984C50.7517 0.514803 50.2353 0 49.5983 0H42.6776C42.0406 0 41.5241 0.514803 41.5241 1.14984V8.04891C41.5241 8.68395 42.0406 9.19875 42.6776 9.19875H49.5983C50.2353 9.19875 50.7517 8.68395 50.7517 8.04891ZM40.3707 8.04891V1.14984C40.3707 0.514803 39.8543 0 39.2173 0H32.2966C31.6595 0 31.1431 0.514803 31.1431 1.14984V8.04891C31.1431 8.68395 31.6595 9.19875 32.2966 9.19875H39.2173C39.8543 9.19875 40.3707 8.68395 40.3707 8.04891ZM29.9897 8.04891V1.14984C29.9897 0.514803 29.4733 0 28.8362 0H21.9155C21.2785 0 20.7621 0.514803 20.7621 1.14984V8.04891C20.7621 8.68395 21.2785 9.19875 21.9155 9.19875H28.8362C29.4733 9.19875 29.9897 8.68395 29.9897 8.04891ZM19.6086 8.04891V1.14984C19.6086 0.514803 19.0922 0 18.4552 0H11.5345C10.8975 0 10.381 0.514803 10.381 1.14984V8.04891C10.381 8.68395 10.8975 9.19875 11.5345 9.19875H18.4552C19.0922 9.19875 19.6086 8.68395 19.6086 8.04891ZM9.2276 8.04891V1.14984C9.2276 0.514803 8.71117 0 8.07414 0H1.15346C0.516426 0 0 0.514803 0 1.14984V8.04891C0 8.68395 0.516426 9.19875 1.15346 9.19875H8.07414C8.71117 9.19875 9.2276 8.68395 9.2276 8.04891Z"
    data-gradient="gradient"
  />
</svg>
