<svg viewBox="0 0 132 99" fill="none" xmlns="http://www.w3.org/2000/svg">
  <g opacity="0.3">
    <path
      d="M2 94.683L2 85.4147C2 84.135 3.04198 83.0977 4.32733 83.0977L13.6367 83.0977C14.922 83.0977 15.964 84.135 15.964 85.4147L15.964 94.683C15.964 95.9627 14.922 97.0001 13.6367 97.0001L4.32733 97.0001C3.04198 97.0001 2 95.9627 2 94.683Z"
      fill="#38D430"
    />
    <path
      opacity="0.871429"
      d="M18.2922 94.683L18.2922 85.4147C18.2922 84.135 19.3342 83.0977 20.6196 83.0977L29.9289 83.0977C31.2142 83.0977 32.2562 84.135 32.2562 85.4147L32.2562 94.683C32.2562 95.9627 31.2142 97.0001 29.9289 97.0001L20.6196 97.0001C19.3342 97.0001 18.2922 95.9627 18.2922 94.683Z"
      fill="#38D430"
    />
    <path
      opacity="0.742857"
      d="M34.5856 94.683L34.5856 85.4147C34.5856 84.135 35.6276 83.0977 36.913 83.0977L46.2223 83.0977C47.5076 83.0977 48.5496 84.135 48.5496 85.4147L48.5496 94.683C48.5496 95.9627 47.5076 97.0001 46.2223 97.0001L36.913 97.0001C35.6276 97.0001 34.5856 95.9627 34.5856 94.683Z"
      fill="#38D430"
    />
    <path
      opacity="0.614286"
      d="M50.8741 94.683L50.8741 85.4147C50.8741 84.135 51.9161 83.0977 53.2014 83.0977L62.5107 83.0977C63.7961 83.0977 64.8381 84.135 64.8381 85.4147L64.8381 94.683C64.8381 95.9627 63.7961 97.0001 62.5107 97.0001L53.2014 97.0001C51.9161 97.0001 50.8741 95.9627 50.8741 94.683Z"
      fill="#38D430"
    />
    <path
      opacity="0.485714"
      d="M67.1663 94.683L67.1663 85.4147C67.1663 84.135 68.2083 83.0977 69.4937 83.0977L78.803 83.0977C80.0883 83.0977 81.1303 84.135 81.1303 85.4147L81.1303 94.683C81.1303 95.9627 80.0883 97.0001 78.803 97.0001L69.4937 97.0001C68.2083 97.0001 67.1663 95.9627 67.1663 94.683Z"
      fill="#38D430"
    />
    <path
      opacity="0.357143"
      d="M83.4566 94.683L83.4566 85.4147C83.4566 84.135 84.4986 83.0977 85.7839 83.0977L95.0933 83.0977C96.3786 83.0977 97.4206 84.135 97.4206 85.4147L97.4206 94.683C97.4206 95.9627 96.3786 97.0001 95.0933 97.0001L85.7839 97.0001C84.4986 97.0001 83.4566 95.9627 83.4566 94.683Z"
      fill="#38D430"
    />
    <path
      opacity="0.228571"
      d="M99.748 94.683L99.748 85.4147C99.748 84.135 100.79 83.0977 102.075 83.0977L111.385 83.0977C112.67 83.0977 113.712 84.135 113.712 85.4147L113.712 94.683C113.712 95.9627 112.67 97.0001 111.385 97.0001L102.075 97.0001C100.79 97.0001 99.748 95.9627 99.748 94.683Z"
      fill="#38D430"
    />
    <path
      opacity="0.1"
      d="M116.038 94.683L116.038 85.4147C116.038 84.135 117.08 83.0977 118.366 83.0977L127.675 83.0977C128.96 83.0977 130.002 84.135 130.002 85.4147L130.002 94.683C130.002 95.9627 128.96 97.0001 127.675 97.0001L118.366 97.0001C117.08 97.0001 116.038 95.9627 116.038 94.683Z"
      fill="#38D430"
    />
    <path
      d="M2 78.4633L2 69.195C2 67.9153 3.04198 66.8779 4.32733 66.8779L13.6367 66.8779C14.922 66.8779 15.964 67.9153 15.964 69.195L15.964 78.4633C15.964 79.743 14.922 80.7804 13.6367 80.7804L4.32733 80.7804C3.04198 80.7804 2 79.743 2 78.4633Z"
      fill="#38D430"
    />
    <path
      opacity="0.82"
      d="M18.2922 78.4633L18.2922 69.195C18.2922 67.9153 19.3342 66.8779 20.6196 66.8779L29.9289 66.8779C31.2142 66.8779 32.2562 67.9153 32.2562 69.195L32.2562 78.4633C32.2562 79.743 31.2142 80.7804 29.9289 80.7804L20.6196 80.7804C19.3342 80.7804 18.2922 79.743 18.2922 78.4633Z"
      fill="#38D430"
    />
    <path
      opacity="0.64"
      d="M34.5856 78.4633L34.5856 69.195C34.5856 67.9153 35.6276 66.8779 36.913 66.8779L46.2223 66.8779C47.5076 66.8779 48.5496 67.9153 48.5496 69.195L48.5496 78.4633C48.5496 79.743 47.5076 80.7804 46.2223 80.7804L36.913 80.7804C35.6276 80.7804 34.5856 79.743 34.5856 78.4633Z"
      fill="#38D430"
    />
    <path
      opacity="0.46"
      d="M50.8741 78.4633L50.8741 69.195C50.8741 67.9153 51.9161 66.8779 53.2014 66.8779L62.5107 66.8779C63.7961 66.8779 64.8381 67.9153 64.8381 69.195L64.8381 78.4633C64.8381 79.743 63.7961 80.7804 62.5107 80.7804L53.2014 80.7804C51.9161 80.7804 50.8741 79.743 50.8741 78.4633Z"
      fill="#38D430"
    />
    <path
      opacity="0.28"
      d="M67.1663 78.4633L67.1663 69.195C67.1663 67.9153 68.2083 66.8779 69.4937 66.8779L78.803 66.8779C80.0883 66.8779 81.1303 67.9153 81.1303 69.195L81.1303 78.4633C81.1303 79.743 80.0883 80.7804 78.803 80.7804L69.4937 80.7804C68.2083 80.7804 67.1663 79.743 67.1663 78.4633Z"
      fill="#38D430"
    />
    <path
      opacity="0.1"
      d="M83.4566 78.4633L83.4566 69.195C83.4566 67.9153 84.4986 66.8779 85.7839 66.8779L95.0933 66.8779C96.3786 66.8779 97.4206 67.9153 97.4206 69.195L97.4206 78.4633C97.4206 79.743 96.3786 80.7804 95.0933 80.7804L85.7839 80.7804C84.4986 80.7804 83.4566 79.743 83.4566 78.4633Z"
      fill="#38D430"
    />
    <path
      opacity="0.742857"
      d="M2 62.244L2 52.9758C2 51.6961 3.04198 50.6587 4.32733 50.6587L13.6367 50.6587C14.922 50.6587 15.964 51.6961 15.964 52.9758L15.964 62.244C15.964 63.5237 14.922 64.5611 13.6367 64.5611L4.32733 64.5611C3.04198 64.5611 2 63.5237 2 62.244Z"
      fill="#38D430"
    />
    <path
      opacity="0.485714"
      d="M18.2922 62.2445L18.2922 52.9763C18.2922 51.6966 19.3342 50.6592 20.6196 50.6592L29.9289 50.6592C31.2142 50.6592 32.2562 51.6966 32.2562 52.9763L32.2562 62.2445C32.2562 63.5242 31.2142 64.5616 29.9289 64.5616L20.6196 64.5616C19.3342 64.5616 18.2922 63.5242 18.2922 62.2445Z"
      fill="#38D430"
    />
    <path
      opacity="0.228571"
      d="M34.5856 62.2445L34.5856 52.9763C34.5856 51.6966 35.6276 50.6592 36.913 50.6592L46.2223 50.6592C47.5076 50.6592 48.5496 51.6966 48.5496 52.9763L48.5496 62.2445C48.5496 63.5242 47.5076 64.5616 46.2223 64.5616L36.913 64.5616C35.6276 64.5616 34.5856 63.5242 34.5856 62.2445Z"
      fill="#38D430"
    />
    <g opacity="0.614286">
      <path
        d="M2 46.0243L2 36.756C2 35.4764 3.04198 34.439 4.32733 34.439L13.6367 34.439C14.922 34.439 15.964 35.4764 15.964 36.756L15.964 46.0243C15.964 47.304 14.922 48.3414 13.6367 48.3414L4.32733 48.3414C3.04198 48.3414 2 47.304 2 46.0243Z"
        fill="#38D430"
      />
    </g>
    <g opacity="0.28">
      <path
        d="M18.2922 46.0243L18.2922 36.756C18.2922 35.4764 19.3342 34.439 20.6196 34.439L29.9289 34.439C31.2142 34.439 32.2562 35.4764 32.2562 36.756L32.2562 46.0243C32.2562 47.304 31.2142 48.3414 29.9289 48.3414L20.6196 48.3414C19.3342 48.3414 18.2922 47.304 18.2922 46.0243Z"
        fill="#38D430"
      />
    </g>
    <g opacity="0.357143">
      <path
        d="M2 29.8039L2 20.5356C2 19.2559 3.04198 18.2185 4.32733 18.2185L13.6367 18.2185C14.922 18.2185 15.964 19.2559 15.964 20.5356L15.964 29.8039C15.964 31.0835 14.922 32.1209 13.6367 32.1209L4.32733 32.1209C3.04198 32.1209 2 31.0835 2 29.8039Z"
        fill="#38D430"
      />
    </g>
    <g opacity="0.1">
      <path
        d="M2 13.5854L2 4.31707C2 3.03739 3.04198 2 4.32733 2L13.6367 2C14.922 2 15.964 3.03739 15.964 4.31707L15.964 13.5854C15.964 14.865 14.922 15.9024 13.6367 15.9024L4.32733 15.9024C3.04198 15.9024 2 14.865 2 13.5854Z"
        fill="#38D430"
      />
    </g>
    <g opacity="0.1">
      <path
        d="M18.2922 29.8039L18.2922 20.5356C18.2922 19.2559 19.3342 18.2185 20.6196 18.2185L29.9289 18.2185C31.2142 18.2185 32.2562 19.2559 32.2562 20.5356L32.2562 29.8039C32.2562 31.0835 31.2142 32.1209 29.9289 32.1209L20.6196 32.1209C19.3342 32.1209 18.2922 31.0835 18.2922 29.8039Z"
        fill="#38D430"
      />
    </g>
  </g>
</svg>
