<svg
  id="Layer_2"
  data-name="Layer 2"
  xmlns="http://www.w3.org/2000/svg"
  xmlns:xlink="http://www.w3.org/1999/xlink"
  viewBox="0 0 464 416"
>
  <defs>
    <style>
      .cls-1 {
        fill: url(#New_Gradient_Swatch_1);
      }
    </style>
    <linearGradient
      id="New_Gradient_Swatch_1"
      data-name="New Gradient Swatch 1"
      x1="0"
      y1="208"
      x2="464"
      y2="208"
      gradientUnits="userSpaceOnUse"
    >
      <stop offset="0" stop-color="#38d430" />
      <stop offset=".999999549001309" stop-color="#5090ff" />
    </linearGradient>
  </defs>
  <g id="Web_Assets" data-name="Web Assets">
    <path
      id="led-spots"
      class="cls-1"
      d="M72,192h55.0302734375l13.27978515625-13.280029296875,14.40966796875-14.409912109375,4.310546875-4.31005859375h-87.0302734375c-22.08984375,0-40-17.91015625-40-40,0-22.090087890625,17.91015625-40,40-40h167.0302734375l24.07958984375-24.070068359375c.0703125-.070068359375.13037109375-.139892578125.2001953125-.2099609375l.40966796875-.409912109375c.0703125-.070068359375.14013671875-.130126953125.21044921875-.2001953125l7.10009765625-7.10986328125H72C32.240234375,48,0,80.239990234375,0,120s32.240234375,72,72,72ZM23.2802734375,72.6201171875c-4.0400390625,4.7099609375-3.8203125,11.809814453125.6396484375,16.27001953125,4.68017578125,4.679931640625,12.2802734375,4.679931640625,16.97021484375,0,4.6796875-4.690185546875,4.6796875-12.2900390625,0-16.97021484375-4.4599609375-4.4599609375-11.56005859375-4.679931640625-16.27001953125-.639892578125,12.25-11.929931640625,28.9697265625-19.280029296875,47.3798828125-19.280029296875h189.3701171875l-24,24H72c-24.259765625,0-44,19.739990234375-44,44s19.740234375,44,44,44h77.3701171875l-.3701171875.3798828125h-.009765625l-8.6103515625,8.610107421875v.010009765625l-15.009765625,15h-53.3701171875c-18.41015625,0-35.1298828125-7.35009765625-47.3798828125-19.280029296875,4.7099609375,4.0400390625,11.81005859375,3.820068359375,16.27001953125-.639892578125,4.6796875-4.68017578125,4.6796875-12.280029296875,0-16.97021484375-4.68994140625-4.679931640625-12.2900390625-4.679931640625-16.97021484375,0-4.4599609375,4.460205078125-4.6796875,11.56005859375-.6396484375,16.27001953125-11.93017578125-12.25-19.2802734375-28.969970703125-19.2802734375-47.3798828125,0-18.41015625,7.35009765625-35.1298828125,19.2802734375-47.3798828125ZM392,160h-167.0302734375l-24.27978515625,24.280029296875c-.14013671875.139892578125-.27001953125.27001953125-.40966796875.409912109375l-7.310546875,7.31005859375h199.0302734375c22.08984375,0,40,17.909912109375,40,40h32c0-39.760009765625-32.240234375-72-72-72ZM459.31005859375,228c-1.64013671875-4.66015625-6.080078125-8-11.31005859375-8s-9.669921875,3.33984375-11.31005859375,8h-.8701171875c-2.02978515625-22.39990234375-20.90966796875-40-43.81982421875-40h-189.3701171875l24-24h165.3701171875c18.41015625,0,35.14013671875,7.35986328125,47.39013671875,19.2900390625-4.7099609375-4.050048828125-11.81005859375-3.840087890625-16.2802734375.6298828125-4.6796875,4.68017578125-4.6796875,12.280029296875,0,16.97021484375,4.68994140625,4.679931640625,12.2900390625,4.679931640625,16.97021484375,0,4.4697265625-4.47021484375,4.6796875-11.580078125.6298828125-16.2900390625,11.06005859375,11.35986328125,18.18994140625,26.56982421875,19.169921875,43.39990234375h-.56982421875ZM336.9697265625,48l-13.27978515625,13.280029296875-14.40966796875,14.409912109375-4.310546875,4.31005859375h159.0302734375v-32h-127.0302734375ZM460,76h-145.3701171875l.3798828125-.3798828125,8.6103515625-8.610107421875v-.000244140625l15.009765625-15.009765625h121.3701171875v24ZM132,36l-20-20L128,0l36,36h-32ZM352,224l-16,16-36-36h32l20,20ZM72,164c6.6298828125,0,12,5.3701171875,12,12s-5.3701171875,12-12,12-12-5.3701171875-12-12,5.3701171875-12,12-12ZM392,188c-6.6298828125,0-12-5.3701171875-12-12s5.3701171875-12,12-12,12,5.3701171875,12,12-5.3701171875,12-12,12ZM352,188c-6.6298828125,0-12-5.3701171875-12-12s5.3701171875-12,12-12,12,5.3701171875,12,12-5.3701171875,12-12,12ZM352,76c-6.6298828125,0-12-5.3701171875-12-12s5.3701171875-12,12-12,12,5.3701171875,12,12-5.3701171875,12-12,12ZM232,52c6.6298828125,0,12,5.3701171875,12,12s-5.3701171875,12-12,12-12-5.3701171875-12-12,5.3701171875-12,12-12ZM432,76c-6.6298828125,0-12-5.3701171875-12-12s5.3701171875-12,12-12,12,5.3701171875,12,12-5.3701171875,12-12,12ZM112,164c6.6298828125,0,12,5.3701171875,12,12s-5.3701171875,12-12,12-12-5.3701171875-12-12,5.3701171875-12,12-12ZM272,64L336,0l16,16-36.52001953125,36.52001953125-14.9599609375,14.9599609375-52.52001953125,52.52001953125,28,28h-32l-12-12-31.509765625,31.509765625v.000244140625l-8.490234375,8.489990234375-64,64-16-16,36.52001953125-36.52001953125,14.9599609375-14.9599609375,52.52001953125-52.52001953125-28-28h32l12,12,31.509765625-31.509765625v-.000244140625l8.490234375-8.489990234375ZM392,76c-6.6298828125,0-12-5.3701171875-12-12s5.3701171875-12,12-12,12,5.3701171875,12,12-5.3701171875,12-12,12ZM232,188c-6.6298828125,0-12-5.3701171875-12-12s5.3701171875-12,12-12,12,5.3701171875,12,12-5.3701171875,12-12,12ZM72,52c6.6298828125,0,12,5.3701171875,12,12s-5.3701171875,12-12,12-12-5.3701171875-12-12,5.3701171875-12,12-12ZM112,52c6.6298828125,0,12,5.3701171875,12,12s-5.3701171875,12-12,12-12-5.3701171875-12-12,5.3701171875-12,12-12ZM4,120c0-6.6298828125,5.3701171875-12,12-12s12,5.3701171875,12,12-5.3701171875,12-12,12-12-5.3701171875-12-12ZM312,188c-6.6298828125,0-12-5.3701171875-12-12s5.3701171875-12,12-12,12,5.3701171875,12,12-5.3701171875,12-12,12ZM192,52c6.6298828125,0,12,5.3701171875,12,12s-5.3701171875,12-12,12-12-5.3701171875-12-12,5.3701171875-12,12-12ZM272,188c-6.6298828125,0-12-5.3701171875-12-12s5.3701171875-12,12-12,12,5.3701171875,12,12-5.3701171875,12-12,12ZM152,52c6.6298828125,0,12,5.3701171875,12,12s-5.3701171875,12-12,12-12-5.3701171875-12-12,5.3701171875-12,12-12ZM32,344c0,22.090087890625,17.91015625,40,40,40h392v32H72c-39.759765625,0-72-32.239990234375-72-72s32.240234375-72,72-72h320c22.08984375,0,40-17.909912109375,40-40h32c0,39.760009765625-32.240234375,72-72,72H72c-22.08984375,0-40,17.91015625-40,40Z"
    />
  </g>
</svg>
