<svg
  id="Layer_2"
  data-name="Layer 2"
  xmlns="http://www.w3.org/2000/svg"
  xmlns:xlink="http://www.w3.org/1999/xlink"
  viewBox="0 0 464 464"
>
  <defs>
    <style>
      .cls-1 {
        fill: url(#New_Gradient_Swatch_1);
      }
    </style>
    <linearGradient
      id="New_Gradient_Swatch_1"
      data-name="New Gradient Swatch 1"
      x1="0"
      y1="232"
      x2="464"
      y2="232"
      gradientUnits="userSpaceOnUse"
    >
      <stop offset="0" stop-color="#38d430" />
      <stop offset=".999999549001309" stop-color="#5090ff" />
    </linearGradient>
  </defs>
  <g id="Web_Assets" data-name="Web Assets">
    <path
      id="led-doorway"
      class="cls-1"
      d="M336,152c0-57.43994140625-46.56005859375-104-104-104s-104,46.56005859375-104,104v264H0v48h464v-48h-128V152ZM128,460H4v-40h124v40ZM332,460h-200V152c0-55.14013671875,44.85986328125-100,100-100s100,44.85986328125,100,100v308ZM460,420v40h-124v-40h124ZM464,368v32h-112v-248c0-66.274169921875-53.7255859375-120-120-120s-120,53.725830078125-120,120v248H0v-32h80v-216C80,68.052734375,148.052734375,0,232,0s152,68.052734375,152,152v216h80ZM144.35986328125,144h79.64013671875v-79.64013671875c-42.2197265625,3.800048828125-75.83984375,37.420166015625-79.64013671875,79.64013671875ZM220,68.85009765625v71.14990234375h-71.14990234375c2.56982421875-17.85986328125,10.89990234375-34.550048828125,23.75-47.39990234375,12.85009765625-12.85009765625,29.5400390625-21.18017578125,47.39990234375-23.75ZM240,64.35986328125v79.64013671875h79.64013671875c-3.80029296875-42.219970703125-37.42041015625-75.840087890625-79.64013671875-79.64013671875ZM244,68.85009765625c17.85986328125,2.56982421875,34.5498046875,10.89990234375,47.39990234375,23.75,12.85009765625,12.849853515625,21.18017578125,29.5400390625,23.75,47.39990234375h-71.14990234375v-71.14990234375ZM144,272h80v-112h-80v112ZM148,164h72v104h-72v-104ZM144,444h80v-156h-80v156ZM148,292h72v148h-72v-148ZM240,272h29.009765625c.3603515625-1.3701171875.80029296875-2.7099609375,1.330078125-4,4.75-11.719970703125,16.25-20,29.66015625-20,5.830078125,0,11.2900390625,1.570068359375,16,4.300048828125,1.41015625.809814453125,2.740234375,1.72998046875,4,2.72998046875v-95.030029296875h-80v112ZM244,164h72v83.75c-4.81982421875-2.39990234375-10.25-3.75-16-3.75-15.669921875,0-29.009765625,10.02001953125-33.9501953125,24h-22.0498046875v-104ZM300,312c-13.41015625,0-24.91015625-8.280029296875-29.66015625-20-.52978515625-1.2900390625-.9697265625-2.6298828125-1.330078125-4h-29.009765625v156h80v-139.030029296875c-1.259765625,1-2.58984375,1.920166015625-4,2.72998046875-4.7099609375,2.72998046875-10.169921875,4.300048828125-16,4.300048828125ZM316,440h-72v-148h22.0498046875c4.9404296875,13.97998046875,18.2802734375,24,33.9501953125,24,5.75,0,11.18017578125-1.35009765625,16-3.739990234375v127.739990234375ZM318.330078125,272c1.06982421875,2.449951171875,1.669921875,5.14990234375,1.669921875,8s-.60009765625,5.550048828125-1.669921875,8c-.6201171875,1.429931640625-1.41015625,2.77001953125-2.330078125,4-3.64990234375,4.85986328125-9.4599609375,8-16,8s-12.35009765625-3.14013671875-16-8c-.919921875-1.22998046875-1.7099609375-2.570068359375-2.330078125-4-1.06982421875-2.449951171875-1.669921875-5.14990234375-1.669921875-8s.60009765625-5.550048828125,1.669921875-8c.6201171875-1.429931640625,1.41015625-2.77001953125,2.330078125-4,3.64990234375-4.85986328125,9.4599609375-8,16-8s12.35009765625,3.14013671875,16,8c.919921875,1.22998046875,1.7099609375,2.570068359375,2.330078125,4Z"
    />
  </g>
</svg>
