<svg
  viewBox="0 0 682 501"
  fill="none"
  xmlns="http://www.w3.org/2000/svg"
>
  <path
    d="M227.961 292.403C229.004 292.71 229.744 293.329 230.182 294.259C230.621 295.19 230.718 296.106 230.474 297.008C230.069 298.24 229.263 299.072 228.058 299.502C227.576 299.675 227.054 299.725 226.492 299.654C223.923 300.029 211.791 303.685 190.098 310.622C192.336 337.677 194.467 360.489 196.492 379.06C200.383 416.122 203.917 439.521 207.095 449.255C207.299 448.231 207.544 447.125 207.828 445.936C208.033 444.912 208.577 444.106 209.462 443.518C210.347 442.93 211.23 442.75 212.112 442.978C213.115 443.164 213.876 443.639 214.395 444.405C214.954 445.292 215.131 446.248 214.927 447.272C213.378 454.483 211.338 458.541 208.807 459.446C208.204 459.661 207.562 459.755 206.88 459.727C205.235 459.635 203.773 458.663 202.495 456.81C201.377 455.035 200.005 451.245 198.379 445.44C196.913 439.714 195.456 431.539 194.006 420.915C192.556 410.291 190.878 396.081 188.971 378.283C187.223 360.564 185.229 338.79 182.987 312.959C174.711 315.645 162.377 319.713 145.986 325.162C143.536 325.902 140.804 326.811 137.79 327.887C130.991 369.313 124.854 398.75 119.379 416.196C117.879 420.672 116.121 424.358 114.105 427.252C112.089 430.147 109.975 432.125 107.765 433.187C105.594 434.37 103.665 435.059 101.979 435.254C100.293 435.449 98.5875 435.379 96.863 435.044C89.4034 433.634 81.9778 427.999 74.5863 418.14C67.3551 408.359 61.7154 396.651 57.6672 383.016C53.5794 369.258 52.0564 356.555 53.0983 344.905C54.4701 330.555 59.6438 319.399 68.6194 311.436C77.7154 303.43 90.0497 299.158 105.622 298.62C106.666 298.519 107.508 298.83 108.147 299.552C108.908 300.232 109.266 301.123 109.222 302.225C109.259 303.163 108.935 304.026 108.25 304.815C107.565 305.603 106.681 305.987 105.598 305.966C100.42 306.186 95.542 306.91 90.963 308.139C86.3841 309.368 81.8024 311.412 77.218 314.274C72.7144 316.97 68.9889 321.019 66.0415 326.42C63.0543 331.7 61.1671 338.081 60.3798 345.564C59.839 351.328 60.0194 357.446 60.9209 363.917C61.8225 370.389 63.2267 376.545 65.1336 382.386C67.0406 388.226 69.3296 393.794 72.0008 399.09C74.7118 404.507 77.5254 409.209 80.4417 413.194C83.5183 417.258 86.5572 420.588 89.5584 423.184C92.6801 425.737 95.6046 427.274 98.3318 427.794C104.348 428.905 109.038 424.307 112.403 414.001C117.755 397.414 123.606 369.575 129.956 330.483C98.3391 340.831 80.9847 346.217 77.8933 346.642C76.8495 346.744 75.9072 346.537 75.0661 346.022C74.3059 345.343 73.8271 344.495 73.6298 343.478C73.5531 342.419 73.8571 341.495 74.542 340.707C75.2268 339.918 76.011 339.434 76.8944 339.254C79.7448 338.915 97.8826 333.249 131.308 322.255C133.195 309.896 136.046 291.213 139.861 266.207C142.243 249.594 144.234 236.111 145.834 225.756C147.433 215.401 149.051 205.516 150.688 196.099C152.445 186.639 153.933 179.449 155.153 174.529C156.334 169.488 157.593 165.098 158.929 161.359C160.226 157.499 161.479 154.945 162.687 153.698C163.976 152.286 165.423 151.565 167.028 151.535C169.195 151.576 170.937 152.788 172.253 155.171C173.69 157.511 174.902 161.018 175.89 165.692C177.749 173.86 179.493 186.416 181.123 203.362C181.941 210.815 183.389 227.825 185.468 254.393C187.165 275.255 188.496 291.492 189.46 303.105C213.203 295.435 226.037 291.868 227.961 292.403ZM143.843 317.98C159.792 312.824 172.627 308.644 182.35 305.442C180.996 290.164 179.566 273.419 178.062 255.206C176.022 228.759 174.654 211.788 173.956 204.293C171.625 181.076 169.226 166.511 166.757 160.6C165.464 163.236 164.004 168.038 162.375 175.006C160.828 181.809 159.031 191.147 156.985 203.02C155.06 214.85 153.482 224.857 152.251 233.042C150.98 241.105 149.237 252.462 147.021 267.113C143.573 290.357 140.947 307.873 139.142 319.66C139.624 319.487 140.347 319.229 141.312 318.884C142.396 318.497 143.24 318.195 143.843 317.98ZM278.227 146.038C282.393 148.082 284.481 159.837 284.49 181.302C284.485 182.934 284.478 185.179 284.468 188.035C284.478 197.136 284.434 204.421 284.336 209.891C284.237 215.361 283.81 223.123 283.054 233.176C282.299 243.229 281.123 253.025 279.526 262.563C281.513 280.604 284.038 299.675 287.102 319.777C292.285 354.203 296.583 377.261 299.995 388.95C300.84 388.24 301.804 387.896 302.888 387.916C303.891 388.101 304.651 388.577 305.171 389.342C305.85 390.186 306.148 391.099 306.064 392.08C305.404 397.479 303.99 400.566 301.82 401.342C301.338 401.514 300.836 401.625 300.314 401.676C298.829 401.663 297.567 401.095 296.527 399.972C295.648 398.928 294.533 396.337 293.182 392.2C291.992 388.141 290.587 381.985 288.969 373.731C286.284 360.56 283.252 343.028 279.873 321.137C278.107 309.132 276.501 297.409 275.054 285.969C273.304 293.388 271.312 300.894 269.08 308.485C264.939 323.009 259.379 329.684 252.4 328.509C247.629 327.089 244.152 322.829 241.968 315.728C239.745 308.506 239.128 300.642 240.12 292.135C241.317 282.196 243.971 274.249 248.085 268.296C252.198 262.342 256.582 259.281 261.238 259.111C265.854 258.821 269.297 261.123 271.569 266.018C271.853 264.829 272.078 263.662 272.242 262.516C268.659 229.692 267.042 202.891 267.392 182.113C267.823 161.17 269.869 149.297 273.53 146.494C275.019 145.283 276.584 145.131 278.227 146.038ZM262.164 306.473C265.128 296.174 267.609 286.048 269.609 276.094C267.602 276.131 266.482 275.173 266.247 273.219C265.26 268.544 263.642 266.269 261.394 266.393C261.153 266.479 260.791 266.608 260.309 266.781C257.778 267.685 255.2 270.508 252.576 275.251C250.033 279.828 248.328 285.737 247.461 292.976C246.843 297.681 246.868 302.292 247.535 306.809C248.284 311.161 249.275 314.611 250.511 317.159C251.707 319.585 252.866 320.869 253.99 321.011C254.431 321.125 254.973 320.932 255.617 320.43C256.341 319.763 257.33 318.255 258.581 315.906C259.794 313.434 260.988 310.29 262.164 306.473ZM277.086 181.502C277.073 173.218 276.755 166.266 276.131 160.646C274.317 175.29 274.365 197.081 276.276 226.019C276.949 216.539 277.232 204.005 277.123 188.418C277.093 185.44 277.08 183.134 277.086 181.502ZM376.683 233.958C377.567 233.37 378.451 233.19 379.333 233.418C380.336 233.604 381.116 234.14 381.675 235.027C382.234 235.914 382.412 236.87 382.208 237.894C380.335 245.765 378.426 252.901 376.478 259.304C374.491 265.585 372.688 270.781 371.069 274.892C369.531 278.839 367.894 282.277 366.159 285.207C364.463 288.259 363.031 290.469 361.863 291.838C360.734 293.328 359.487 294.453 358.12 295.213C356.793 296.095 355.808 296.583 355.165 296.677C354.683 296.849 354.061 297.004 353.298 297.14C347.156 297.705 341.836 292.336 337.339 281.035C336.384 278.523 335.388 276.501 334.349 274.97C333.271 273.317 332.472 272.312 331.951 271.955C331.391 271.476 330.99 271.279 330.749 271.365C330.629 271.408 330.569 271.43 330.569 271.43C329.604 271.774 328.537 273.039 327.366 275.224C326.155 277.287 324.9 280.453 323.602 284.721C322.304 288.99 321.123 294.032 320.06 299.846C318.998 305.661 318.051 312.861 317.22 321.447C316.509 329.989 316.058 339.118 315.865 348.834C315.899 350.588 315.073 351.767 313.385 352.37C313.144 352.456 312.903 352.542 312.662 352.628C312.02 352.722 311.458 352.651 310.977 352.415C310.376 352.222 309.855 351.865 309.416 351.343C309.016 350.942 308.797 350.477 308.758 349.947C307.37 344.872 305.34 327.73 302.668 298.52C299.836 269.232 297.666 245.686 296.16 227.881C294.735 209.911 293.677 196.158 292.986 186.622C291.602 168.366 291.635 152.389 293.085 138.691C294.616 124.828 297.191 116.842 300.809 114.734C302.739 113.636 304.505 113.685 306.106 114.879C309.95 117.582 311.462 127.572 310.642 144.849C309.943 162.083 307.162 183.866 302.299 210.197C305.611 252.086 308.55 285.616 311.115 310.788C312.724 297.577 315.047 286.759 318.085 278.337C321.083 269.792 324.851 265.049 329.389 264.106C335.051 262.898 339.932 267.54 344.031 278.033C347.295 285.97 350.172 289.833 352.66 289.623C353.062 289.616 353.544 289.443 354.107 289.106C354.79 288.726 355.938 287.501 357.55 285.43C359.162 283.359 360.757 280.616 362.333 277.199C363.87 273.661 365.773 268.36 368.044 261.299C370.435 254.194 372.751 245.825 374.99 236.193C375.233 235.291 375.798 234.546 376.683 233.958ZM302.881 125.407C299.39 137.389 298.367 155.486 299.811 179.699C303.387 154.371 304.41 136.274 302.881 125.407ZM430.437 215.767C431.322 215.18 432.225 215.061 433.147 215.411C434.15 215.596 434.87 216.153 435.309 217.084C435.747 218.014 435.844 218.931 435.601 219.833C428.257 243.926 420.292 261.99 411.704 274.027C408.277 278.784 404.394 281.938 400.055 283.489C396.68 284.695 393.429 284.838 390.301 283.917C388.497 283.339 386.755 282.331 385.074 280.893C383.273 279.499 381.414 277.31 379.498 274.326C377.582 271.342 376.051 267.066 374.905 261.496C373.639 255.97 372.979 249.413 372.924 241.823L372.864 241.641C372.624 229.362 373.862 219.136 376.578 210.965C379.294 202.793 382.56 197.957 386.378 196.457C389.11 195.344 391.315 195.915 392.993 198.169C395.471 201.223 395.533 206.772 393.179 214.815C390.825 222.858 386.52 232.141 380.265 242.665C380.368 247.927 380.774 252.674 381.482 256.904C382.19 261.135 383.002 264.446 383.917 266.836C384.913 269.062 386.01 270.98 387.209 272.59C388.488 274.035 389.488 275.036 390.209 275.594C391.05 276.109 391.851 276.502 392.613 276.773C397.103 278.158 401.505 275.769 405.819 269.608C413.963 258.273 421.525 241.032 428.504 217.885C428.868 216.94 429.513 216.234 430.437 215.767ZM387.615 204.575C384.27 208.759 381.999 216.025 380.801 226.372C385.487 216.816 387.759 209.551 387.615 204.575ZM494.684 193.012C495.569 192.424 496.513 192.223 497.516 192.408C498.518 192.593 499.299 193.13 499.858 194.017C500.377 194.782 500.535 195.677 500.331 196.701C498.616 205.467 496.947 212.517 495.325 217.853C493.702 223.188 491.72 227.633 489.381 231.186C487.042 234.74 484.306 236.872 481.173 237.584C474.908 239.008 468.002 234.139 460.454 222.976C455.182 215.485 451.641 212.063 449.833 212.709C449.432 212.716 448.949 213.093 448.385 213.838C447.901 214.418 447.234 215.879 446.384 218.221C445.494 220.442 444.641 223.396 443.826 227.084C443.132 230.729 442.312 236.05 441.366 243.046C440.54 249.999 439.831 258.133 439.238 267.448C439.112 269.124 438.266 270.242 436.699 270.802C436.458 270.888 436.197 270.913 435.916 270.877C433.708 271.123 432.387 270.168 431.952 268.014C429.9 257.605 428.362 237.434 427.337 207.5C427.267 204.4 427.175 202.055 427.06 200.466C427.103 199.363 427.488 198.478 428.212 197.812C428.897 197.024 429.701 196.6 430.624 196.542C431.668 196.441 432.57 196.73 433.33 197.41C434.09 198.089 434.449 198.98 434.405 200.083C434.442 201.021 434.534 203.365 434.682 207.117C435.09 217.434 435.424 225.467 435.686 231.216C437.16 222.537 438.886 216.281 440.865 212.449C442.844 208.616 445.179 206.287 447.871 205.461C451.045 204.463 454.052 205.223 456.893 207.74C459.854 210.215 463.073 213.888 466.548 218.761C472.259 227.182 476.68 231.037 479.813 230.325C481.339 230.052 482.828 228.636 484.281 226.079C485.815 223.357 487.212 219.801 488.47 215.41C489.689 210.899 490.564 207.393 491.094 204.894C491.744 202.351 492.397 199.197 493.051 195.43C493.255 194.406 493.8 193.6 494.684 193.012ZM560.367 169.54C561.251 168.952 562.195 168.751 563.198 168.936C564.2 169.121 564.981 169.658 565.54 170.545C566.059 171.311 566.217 172.205 566.013 173.229C564.298 181.995 562.63 189.045 561.007 194.381C559.384 199.716 557.403 204.161 555.063 207.714C552.724 211.268 549.988 213.401 546.855 214.112C540.59 215.536 533.684 210.667 526.136 199.505C520.864 192.013 517.323 188.591 515.515 189.237C515.114 189.244 514.631 189.621 514.067 190.366C513.583 190.946 512.916 192.408 512.066 194.75C511.176 196.97 510.323 199.924 509.508 203.612C508.814 207.257 507.994 212.578 507.048 219.574C506.222 226.527 505.513 234.661 504.92 243.976C504.794 245.652 503.948 246.77 502.381 247.33C502.14 247.416 501.879 247.441 501.598 247.406C499.39 247.651 498.069 246.697 497.634 244.542C495.582 234.134 494.044 213.962 493.019 184.028C492.949 180.928 492.857 178.583 492.742 176.994C492.785 175.891 493.17 175.007 493.894 174.34C494.579 173.552 495.383 173.129 496.306 173.07C497.35 172.969 498.252 173.258 499.012 173.938C499.772 174.617 500.131 175.508 500.087 176.611C500.124 177.549 500.216 179.894 500.365 183.645C500.772 193.962 501.106 201.995 501.368 207.744C502.842 199.065 504.568 192.809 506.547 188.977C508.526 185.145 510.861 182.815 513.553 181.989C516.727 180.991 519.734 181.751 522.575 184.268C525.536 186.743 528.755 190.416 532.23 195.289C537.941 203.71 542.362 207.565 545.495 206.854C547.021 206.58 548.51 205.165 549.963 202.607C551.497 199.885 552.894 196.329 554.152 191.939C555.371 187.427 556.246 183.921 556.776 181.422C557.426 178.88 558.079 175.725 558.733 171.958C558.937 170.934 559.482 170.128 560.367 169.54ZM629.061 145.4C629.906 144.69 630.83 144.428 631.832 144.613C632.795 144.677 633.556 145.152 634.115 146.039C634.755 146.762 635.033 147.614 634.949 148.595C630.832 180.095 623.711 197.654 613.586 201.272C612.983 201.487 612.3 201.663 611.537 201.8C602.945 203.104 594.367 193.941 585.804 174.309C582.52 184.451 579.422 192.895 576.51 199.643C573.842 205.487 570.843 208.258 567.514 207.953C564.263 207.892 561.844 205.223 560.256 199.948C558.826 195.568 558.082 189.991 558.024 183.218C557.967 176.445 558.872 169.531 560.742 162.477C562.611 155.422 565.477 150.39 569.34 147.379C574.973 142.784 581.575 142.803 589.144 147.435C589.985 147.95 590.504 148.716 590.701 149.732C591.019 150.706 590.916 151.626 590.391 152.493C589.867 153.36 589.122 153.965 588.158 154.31C587.154 154.533 586.232 154.387 585.39 153.872C579.503 150.269 574.906 150.825 571.6 155.539C567.81 160.834 565.737 168.708 565.382 179.162C565.107 189.451 565.967 196.413 567.961 200.048C568.486 199.181 569.071 198.089 569.718 196.771C572.831 189.816 576.294 180.222 580.107 167.989C580.958 165.239 581.547 163.33 581.871 162.263C582.438 160.702 583.585 159.885 585.311 159.811C586.997 159.616 588.178 160.349 588.855 162.01C591.043 167.886 593.253 173.006 595.486 177.372C597.719 181.737 599.594 185.007 601.112 187.182C602.59 189.236 604.069 190.881 605.55 192.119C607.031 193.356 608.091 194.132 608.732 194.446C609.454 194.596 610.117 194.563 610.719 194.347C612.526 194.109 614.377 192.565 616.273 189.713C618.249 186.697 620.292 181.619 622.403 174.479C624.594 167.174 626.349 158.326 627.668 147.936C627.832 146.79 628.296 145.945 629.061 145.4Z"
  />
</svg>
