<svg
  viewBox="0 0 196 271"
  xmlns="http://www.w3.org/2000/svg"
>
  <path
    d="M96.0171 160.652L95.9986 159.416V160.652C83.348 160.652 71.3677 155.134 63.1286 145.514C63.0854 145.465 63.0514 145.425 63.0205 145.385C58.9087 140.559 55.9615 134.968 54.2778 128.789C52.8877 124.723 52.2235 120.198 51.5809 115.82C51.0248 112.03 50.4502 108.119 49.4555 105.144C49.3659 104.918 49.2887 104.69 49.2269 104.461C48.3155 101.057 46.8636 97.8807 44.9111 95.0201C44.8586 94.9459 44.8092 94.8749 44.7598 94.8007C42.9464 92.1903 40.7159 89.8579 38.1394 87.8962C38.056 87.8313 37.9788 87.7695 37.9016 87.7016C37.7502 87.5749 37.6297 87.4544 37.5494 87.3772C37.4289 87.2629 37.3022 87.1269 37.1818 86.9879C37.052 86.8335 36.9346 86.6821 36.8234 86.5184C36.7863 86.4658 36.6906 86.333 36.5855 86.1569C36.5546 86.1075 36.5176 86.0457 36.4836 85.9839C36.462 85.9438 36.4403 85.9036 36.4187 85.8634C36.3384 85.709 36.2673 85.5545 36.2025 85.397C36.1221 85.2085 36.0542 85.0293 35.9955 84.844C35.909 84.5721 35.8626 84.3528 35.8441 84.257C35.8009 84.0655 35.77 83.8678 35.7452 83.667C35.7144 83.392 35.7113 83.1696 35.7113 83.0769C35.7113 82.9873 35.7051 82.7711 35.7267 82.4992C35.7514 82.2181 35.7854 82.0173 35.8132 81.8721C35.841 81.7022 35.8843 81.5076 35.9368 81.3191L35.9522 81.2666C36.0171 81.038 36.0882 80.8557 36.1407 80.7229C36.2056 80.553 36.2828 80.3769 36.3693 80.2008C36.4558 80.0278 36.5546 79.8548 36.6659 79.6818C36.7585 79.5273 36.8574 79.3852 36.9655 79.2431C36.9748 79.2308 36.9933 79.206 37.0149 79.1813C37.0458 79.1412 37.0922 79.0825 37.1416 79.0269C37.2714 78.8693 37.398 78.7396 37.4814 78.6562C37.6019 78.5264 37.744 78.3966 37.8892 78.2731C38.0869 78.1093 38.2414 77.9981 38.3402 77.9302C38.3959 77.89 38.5349 77.7911 38.7202 77.6799C38.7944 77.6336 38.8809 77.5842 38.9674 77.5378C39.0755 77.4791 39.1805 77.4266 39.2887 77.3741C43.1503 75.397 47.3393 74.3095 51.7199 74.1612C52.0628 74.1489 52.4026 74.1427 52.7486 74.1427C55.2571 74.1427 57.744 74.4578 60.1629 75.0849V25.9499C60.1629 17.093 67.3702 9.88569 76.2272 9.88569C77.8243 9.88569 79.3906 10.1174 80.8982 10.5777C83.1873 4.28792 89.2176 0 95.9986 0C102.78 0 108.81 4.28792 111.099 10.5777C112.607 10.1174 114.173 9.88569 115.77 9.88569C124.627 9.88569 131.834 17.093 131.834 25.9499V75.0849C134.253 74.4609 136.74 74.1427 139.248 74.1427C139.594 74.1427 139.934 74.1489 140.277 74.1612C144.658 74.3095 148.847 75.3939 152.733 77.3865C152.813 77.4266 152.919 77.4791 153.03 77.5378C153.122 77.5873 153.215 77.6398 153.305 77.6954C153.465 77.7912 153.598 77.8869 153.669 77.9363C153.762 77.9981 153.926 78.1155 154.117 78.2793C154.25 78.3936 154.383 78.5171 154.519 78.6592C154.596 78.7365 154.707 78.8508 154.834 78.9991C154.883 79.0547 154.939 79.1226 154.991 79.1906C155.001 79.2029 155.019 79.2277 155.041 79.2555C155.14 79.3852 155.235 79.5273 155.331 79.6818C155.442 79.8548 155.541 80.0278 155.631 80.207C155.742 80.4263 155.816 80.6148 155.869 80.7507C155.909 80.8495 155.98 81.0349 156.048 81.2728L156.063 81.3284C156.138 81.5941 156.175 81.8134 156.193 81.9061C156.215 82.0142 156.249 82.215 156.27 82.4714C156.295 82.7711 156.289 82.9935 156.289 83.0769C156.289 83.1665 156.286 83.3889 156.255 83.667C156.224 83.9357 156.181 84.152 156.15 84.291C156.116 84.4578 156.067 84.6555 156.005 84.8471C155.946 85.0355 155.878 85.2178 155.795 85.4031C155.73 85.5607 155.662 85.709 155.585 85.8573C155.56 85.9005 155.541 85.9407 155.52 85.9808C155.486 86.0395 155.452 86.1013 155.415 86.16C155.313 86.3299 155.22 86.4628 155.168 86.5338C155.066 86.6821 154.948 86.8396 154.818 86.9879C154.701 87.1269 154.577 87.2567 154.442 87.3865C154.37 87.4575 154.247 87.5749 154.089 87.7108C154.028 87.7634 153.957 87.822 153.882 87.8776C151.294 89.8517 149.057 92.1872 147.228 94.8223C147.197 94.8718 147.148 94.9428 147.095 95.0139C145.143 97.8746 143.691 101.047 142.78 104.449C142.715 104.683 142.637 104.915 142.548 105.141C141.553 108.116 140.978 112.014 140.425 115.786C139.78 120.179 139.113 124.72 137.722 128.786C136.039 134.964 133.092 140.55 128.964 145.397C128.94 145.425 128.899 145.474 128.859 145.521C120.629 155.131 108.658 160.646 96.0202 160.646L96.0171 160.652ZM52.7486 76.6141C52.4304 76.6141 52.1184 76.6203 51.8033 76.6327C47.7903 76.7686 43.9504 77.7633 40.3884 79.586C40.2865 79.6354 40.2123 79.6725 40.132 79.7158C40.0888 79.7405 40.0455 79.7652 40.0054 79.7899C39.888 79.861 39.8046 79.9197 39.7582 79.9536C39.6717 80.0123 39.5883 80.071 39.4802 80.1637C39.3782 80.2502 39.301 80.3275 39.2516 80.3831C39.1898 80.4479 39.1126 80.5252 39.0261 80.6271C38.9952 80.6642 38.9735 80.692 38.9519 80.7167C38.9488 80.7229 38.9334 80.7383 38.9303 80.7445C38.8716 80.8186 38.8191 80.8959 38.7697 80.9793C38.7635 80.9886 38.7573 81.0009 38.7511 81.0102C38.6832 81.1152 38.6245 81.2172 38.575 81.316C38.5102 81.4427 38.4669 81.5508 38.4422 81.6219C38.3989 81.7331 38.3619 81.8319 38.3217 81.9648C38.2939 82.0605 38.2661 82.1717 38.2445 82.3077C38.2229 82.422 38.2043 82.5332 38.1889 82.7C38.1765 82.8452 38.1796 82.9688 38.1796 83.0337C38.1796 83.1171 38.1796 83.2406 38.1981 83.3951C38.2105 83.5063 38.229 83.6175 38.2537 83.7349C38.2723 83.8214 38.297 83.9512 38.3464 84.0995C38.3928 84.2416 38.4391 84.3528 38.47 84.4269C38.4731 84.4362 38.4793 84.4486 38.4823 84.4578C38.5102 84.5258 38.5472 84.6154 38.5997 84.7142L38.6337 84.7791C38.6492 84.8069 38.6677 84.8378 38.6862 84.8656C38.7573 84.9799 38.8129 85.0602 38.8438 85.1066C38.8994 85.1869 38.9643 85.2796 39.06 85.3908C39.1404 85.4865 39.2176 85.5638 39.2701 85.6101C39.3381 85.6781 39.4091 85.7491 39.5049 85.8264C39.5543 85.8696 39.5945 85.9036 39.6377 85.9345C42.415 88.0507 44.8277 90.5715 46.8018 93.4167C46.8481 93.4878 46.879 93.5341 46.913 93.5805C46.9192 93.5897 46.9284 93.6021 46.9346 93.6114C49.0508 96.7068 50.6232 100.142 51.6087 103.818C51.6458 103.96 51.6952 104.106 51.7539 104.251C51.7632 104.276 51.7724 104.297 51.7817 104.322C52.8537 107.51 53.4468 111.551 54.0214 115.456C54.6516 119.74 55.3004 124.167 56.6257 128.026C56.635 128.051 56.6411 128.078 56.6504 128.103C58.2352 133.942 61.0186 139.225 64.9173 143.803L65.0069 143.908C72.7734 152.975 84.0678 158.177 95.9955 158.177H96.014C107.929 158.177 119.215 152.978 126.981 143.911C127.012 143.877 127.037 143.846 127.061 143.815C130.975 139.218 133.756 133.939 135.341 128.1C135.347 128.075 135.356 128.048 135.365 128.023C136.691 124.164 137.342 119.722 137.973 115.428C138.544 111.532 139.134 107.507 140.209 104.319C140.219 104.294 140.228 104.269 140.237 104.248C140.296 104.106 140.345 103.957 140.385 103.809C141.371 100.136 142.943 96.7037 145.056 93.6083C145.062 93.599 145.072 93.5866 145.078 93.5774C145.112 93.531 145.143 93.4847 145.174 93.4384C147.166 90.5653 149.582 88.0445 152.375 85.916C152.406 85.8912 152.443 85.8603 152.477 85.8295C152.576 85.746 152.647 85.675 152.708 85.6163C152.801 85.5267 152.869 85.4557 152.934 85.3815C153.024 85.2734 153.092 85.1807 153.135 85.1158C153.184 85.0479 153.237 84.9706 153.299 84.8687C153.32 84.8316 153.339 84.8007 153.357 84.7698L153.394 84.7019C153.444 84.6092 153.481 84.5227 153.509 84.4547C153.512 84.4424 153.518 84.4331 153.521 84.4238C153.57 84.3126 153.611 84.2045 153.645 84.0964C153.666 84.0253 153.7 83.9079 153.728 83.7751C153.753 83.6577 153.777 83.5403 153.796 83.392C153.814 83.2345 153.814 83.1078 153.814 83.0398C153.814 82.9688 153.818 82.8421 153.805 82.6691C153.793 82.5301 153.774 82.4158 153.759 82.3447C153.743 82.2613 153.722 82.1347 153.678 81.9802C153.632 81.8258 153.595 81.7207 153.564 81.6466C153.524 81.5415 153.481 81.4365 153.422 81.316C153.37 81.211 153.311 81.1121 153.246 81.0071C153.24 80.9947 153.231 80.9855 153.224 80.9731C153.175 80.8897 153.122 80.8125 153.064 80.7352C153.061 80.729 153.048 80.7136 153.042 80.7074C153.017 80.6735 152.99 80.6425 152.962 80.6086C152.875 80.5066 152.807 80.4356 152.764 80.3923C152.758 80.3861 152.749 80.3769 152.742 80.3707C152.665 80.2904 152.594 80.2224 152.52 80.1606C152.412 80.071 152.319 80.0031 152.261 79.9629C152.199 79.9197 152.118 79.8641 152.013 79.7992C151.955 79.7621 151.911 79.7374 151.865 79.7127C151.788 79.6694 151.711 79.6324 151.636 79.5953C148.05 77.7572 144.21 76.7655 140.197 76.6296C139.882 76.6172 139.57 76.611 139.252 76.611C136.44 76.611 133.657 77.0435 130.978 77.8993C130.602 78.0198 130.194 77.9518 129.873 77.7201C129.554 77.4884 129.366 77.1177 129.366 76.7223V25.9499C129.366 18.4554 123.268 12.3571 115.773 12.3571C114.043 12.3571 112.359 12.6784 110.765 13.3086C110.438 13.4384 110.07 13.4229 109.758 13.2654C109.443 13.1078 109.211 12.8236 109.119 12.4869C107.509 6.58943 102.115 2.47142 96.0016 2.47142C89.888 2.47142 84.4972 6.58943 82.8846 12.4869C82.7919 12.8267 82.5602 13.1109 82.2451 13.2654C81.93 13.4229 81.5624 13.4384 81.238 13.3086C79.6439 12.6753 77.9603 12.3571 76.2303 12.3571C68.7357 12.3571 62.6374 18.4554 62.6374 25.9499V76.7253C62.6374 77.1208 62.449 77.4915 62.1308 77.7232C61.8126 77.9549 61.4017 78.0228 61.0248 77.9024C58.3464 77.0466 55.563 76.6141 52.7517 76.6141H52.7486ZM76.2272 79.0856C76.9099 79.0856 77.4629 78.5326 77.4629 77.8498C77.4629 73.219 79.1651 68.9435 82.0196 66.4164C82.2852 66.1816 82.4366 65.8449 82.4366 65.4927C82.4366 65.1405 82.2852 64.8007 82.0196 64.569C79.1651 62.042 77.4629 57.7695 77.4629 53.1356C77.4629 52.4529 76.9099 51.8999 76.2272 51.8999C75.5444 51.8999 74.9915 52.4529 74.9915 53.1356C74.9915 57.7664 73.2893 62.042 70.4348 64.569C70.1691 64.8038 70.0177 65.1405 70.0177 65.4927C70.0177 65.8449 70.1691 66.1847 70.4348 66.4164C73.2893 68.9435 74.9915 73.2159 74.9915 77.8498C74.9915 78.5326 75.5444 79.0856 76.2272 79.0856ZM76.2272 60.1545C76.9871 62.1934 78.0746 64.0161 79.4369 65.4927C78.0746 66.9663 76.984 68.7921 76.2272 70.831C75.4672 68.7921 74.3798 66.9694 73.0174 65.4927C74.3798 64.0191 75.4703 62.1934 76.2272 60.1545ZM151.315 83.2406C151.324 83.2005 151.334 83.1634 151.337 83.1233C151.343 83.0831 151.34 83.0398 151.343 82.9997C151.343 82.9595 151.343 82.9224 151.343 82.8854C151.34 82.8452 151.331 82.8081 151.324 82.768C151.318 82.7278 151.312 82.6908 151.3 82.6506C151.287 82.6104 151.272 82.5734 151.257 82.5363C151.241 82.4992 151.232 82.4652 151.213 82.4312C151.192 82.388 151.164 82.3478 151.136 82.3046C151.121 82.283 151.111 82.2582 151.096 82.2366C151.093 82.2335 151.09 82.2304 151.084 82.2243C151.053 82.1872 151.019 82.1532 150.982 82.1161C150.957 82.0914 150.935 82.0667 150.91 82.0451C150.883 82.0235 150.855 82.0049 150.824 81.9833C150.784 81.9555 150.747 81.9246 150.704 81.903C150.697 81.903 150.694 81.8968 150.691 81.8937C150.632 81.8628 150.577 81.835 150.521 81.8072C147.274 80.1359 143.771 79.2246 140.107 79.101C139.82 79.0917 139.536 79.0856 139.245 79.0856C134.862 79.0856 130.636 80.2286 126.888 82.3973V25.9499C126.888 19.8177 121.899 14.8285 115.767 14.8285C112.276 14.8285 109.156 16.4473 107.117 18.9713V16.0643C107.117 9.93203 102.128 4.94285 95.9955 4.94285C89.8632 4.94285 84.8741 9.93203 84.8741 16.0643V18.9713C82.8351 16.4473 79.715 14.8285 76.2241 14.8285C70.0919 14.8285 65.1027 19.8177 65.1027 25.9499V82.3973C61.3554 80.2255 57.1292 79.0856 52.7456 79.0856C52.4552 79.0856 52.1709 79.0917 51.8836 79.101C48.2198 79.2246 44.7165 80.1359 41.4697 81.8072C41.411 81.835 41.3585 81.8628 41.2998 81.8937C41.2936 81.8937 41.2905 81.8999 41.2874 81.903C41.2442 81.9277 41.2071 81.9555 41.1669 81.9833C41.1391 82.0049 41.1082 82.0204 41.0835 82.0451C41.0588 82.0667 41.0341 82.0945 41.0125 82.1192C40.9785 82.1532 40.9414 82.1872 40.9136 82.2274C40.9105 82.2304 40.9074 82.2335 40.9013 82.2397C40.8858 82.2613 40.8735 82.286 40.8611 82.3077C40.8333 82.3478 40.8055 82.388 40.7839 82.4343C40.7653 82.4683 40.753 82.5054 40.7406 82.5394C40.7252 82.5764 40.7097 82.6166 40.6974 82.6537C40.685 82.6938 40.6819 82.7309 40.6726 82.7711C40.6665 82.8112 40.6572 82.8483 40.6541 82.8885C40.6541 82.9286 40.6541 82.9657 40.6541 83.0028C40.6541 83.0429 40.6541 83.0862 40.6603 83.1263C40.6634 83.1665 40.6757 83.2036 40.6819 83.2437C40.6912 83.2808 40.6974 83.321 40.7097 83.358C40.7252 83.4044 40.7437 83.4476 40.7653 83.4909C40.7777 83.5156 40.7839 83.5434 40.7962 83.5681C40.7962 83.5743 40.8024 83.5774 40.8055 83.5805C40.8271 83.6206 40.858 83.6608 40.8858 83.6978C40.9074 83.7287 40.926 83.7596 40.9476 83.7844C40.9692 83.8091 40.9939 83.8307 41.0156 83.8523C41.0526 83.8894 41.0866 83.9265 41.1268 83.9574C41.1299 83.9604 41.133 83.9635 41.1391 83.9666C44.1697 86.2774 46.7647 89.0052 48.8778 92.0636C48.8994 92.0976 48.921 92.1285 48.9457 92.1594C51.2225 95.4742 52.934 99.1782 54.006 103.176C54.0245 103.25 54.0523 103.321 54.0832 103.386C55.2571 106.806 55.875 111.007 56.4774 115.1C57.0984 119.32 57.7378 123.679 59.0137 127.34C60.5058 132.892 63.1379 137.909 66.8481 142.246C66.8636 142.264 66.8759 142.283 66.8914 142.301C74.1913 150.825 84.7937 155.712 95.9862 155.712H96.0078C96.0078 155.712 96.014 155.712 96.0171 155.712C96.0202 155.712 96.0233 155.712 96.0264 155.712C107.219 155.712 117.821 150.825 125.121 142.301C125.137 142.283 125.152 142.264 125.164 142.249C128.872 137.909 131.507 132.895 132.999 127.343C134.272 123.682 134.914 119.323 135.538 115.076C136.134 111.01 136.752 106.809 137.929 103.389C137.96 103.321 137.988 103.253 138.007 103.179C139.079 99.1813 140.79 95.4804 143.067 92.1625C143.092 92.1316 143.113 92.1007 143.135 92.0667C145.248 89.0083 147.84 86.2836 150.873 83.9697C150.877 83.9666 150.88 83.9635 150.886 83.9604C150.926 83.9296 150.96 83.8925 150.997 83.8585C151.022 83.8338 151.046 83.8153 151.068 83.7905C151.09 83.7627 151.108 83.7318 151.13 83.704C151.158 83.6639 151.185 83.6268 151.21 83.5866C151.21 83.5805 151.216 83.5774 151.219 83.5743C151.232 83.5496 151.238 83.5248 151.25 83.497C151.269 83.4538 151.29 83.4105 151.306 83.3642C151.318 83.3271 151.324 83.287 151.334 83.2499L151.315 83.2406ZM140.024 81.5724C140.07 81.5724 140.113 81.5786 140.16 81.5817C136.796 83.0862 133.926 85.6039 132.016 88.8539C131.989 88.8909 131.964 88.928 131.942 88.9682C131.012 90.5715 130.188 92.2212 129.459 93.9141C129.428 93.9141 129.397 93.9141 129.363 93.9141C126.224 93.9141 123.209 93.2777 120.379 92.0235C121.933 89.5428 123.984 87.3587 126.372 85.6626C130.151 82.9781 134.602 81.557 139.248 81.557C139.508 81.557 139.767 81.5632 140.024 81.5724ZM130.639 126.58C130.639 126.58 130.632 126.608 130.629 126.623C130.623 126.639 130.617 126.654 130.611 126.67C130.092 128.613 129.421 130.488 128.603 132.283C126.919 130.973 125.152 129.765 123.326 128.665C126.947 125.709 130.055 122.203 132.542 118.282C132.069 121.233 131.504 124.115 130.639 126.58ZM135.798 101.891C133.691 102.335 131.531 102.564 129.363 102.564C129.32 102.564 129.273 102.564 129.23 102.564C129.712 100.432 130.351 98.3503 131.139 96.3237C133.759 96.1353 136.326 95.5298 138.739 94.5381C137.518 96.8582 136.533 99.3172 135.795 101.894L135.798 101.891ZM107.12 29.7127C110.021 29.9753 112.761 31.1616 114.945 33.1202C115.18 33.3302 115.473 33.4353 115.77 33.4353C116.067 33.4353 116.36 33.3302 116.595 33.1202C118.779 31.1647 121.519 29.9784 124.42 29.7127V32.1996C122.023 32.4652 119.783 33.494 118.01 35.1714C117.312 35.8356 116.477 36.7624 115.77 37.9394C115.063 36.7624 114.231 35.8356 113.53 35.1714C111.757 33.4971 109.517 32.4652 107.12 32.1996V29.7127ZM115.77 17.3C120.54 17.3 124.42 21.1801 124.42 25.9499V27.2351C121.266 27.4761 118.26 28.6407 115.77 30.59C113.28 28.6407 110.274 27.4791 107.12 27.2351V25.9499C107.12 21.1801 111 17.3 115.77 17.3ZM87.3486 16.0643C87.3486 11.2944 91.2287 7.41427 95.9986 7.41427C100.768 7.41427 104.649 11.2944 104.649 16.0643V93.9852C104.642 94.0377 104.636 94.0902 104.636 94.1458C104.645 94.4763 104.649 94.8131 104.649 95.1498C104.649 97.6707 104.401 100.117 103.941 102.376C101.766 101.795 99.5172 101.449 97.2343 101.356V92.6784C97.2343 91.9957 96.6813 91.4427 95.9986 91.4427C95.3158 91.4427 94.7628 91.9957 94.7628 92.6784V101.356C92.4799 101.449 90.2309 101.795 88.056 102.376C87.5957 100.117 87.3486 97.6676 87.3486 95.1498C87.3486 94.8131 87.3486 94.4763 87.3609 94.1458C87.3609 94.0902 87.3548 94.0377 87.3486 93.9852V16.0643ZM110.354 122.132C111.467 119.923 112.06 117.467 112.06 114.921C112.06 114.43 112.032 113.936 111.989 113.445C112.838 113.689 113.682 113.951 114.519 114.232C114.528 114.461 114.534 114.693 114.534 114.921C114.534 116.531 114.327 118.125 113.919 119.666C112.795 120.581 111.603 121.406 110.358 122.135L110.354 122.132ZM95.9986 126.043C93.1595 126.043 90.3668 125.61 87.7038 124.795C85.8812 122.756 84.8772 120.142 84.8772 117.393C84.8772 115.505 85.3591 113.661 86.2642 112.023C87.3733 111.835 88.4916 111.684 89.6161 111.563C88.2105 113.102 87.3486 115.15 87.3486 117.393C87.3486 122.162 91.2287 126.043 95.9986 126.043C102.131 126.043 107.12 121.053 107.12 114.921C107.12 113.998 107.006 113.092 106.786 112.212C107.67 112.379 108.547 112.564 109.421 112.771C109.533 113.482 109.591 114.201 109.591 114.921C109.591 118.428 108.269 121.733 105.866 124.26C102.739 125.422 99.4029 126.043 95.9986 126.043ZM104.055 111.767C104.448 112.771 104.649 113.828 104.649 114.921C104.649 119.691 100.768 123.571 95.9986 123.571C92.5911 123.571 89.82 120.8 89.82 117.393C89.82 113.985 92.5911 111.214 95.9986 111.214C98.0437 111.214 99.7057 112.876 99.7057 114.921C99.7057 116.966 98.0437 118.628 95.9986 118.628C95.3158 118.628 94.7628 118.075 94.7628 117.393C94.7628 116.71 95.3158 116.157 95.9986 116.157C96.6813 116.157 97.2343 115.604 97.2343 114.921C97.2343 114.238 96.6813 113.685 95.9986 113.685C93.9535 113.685 92.2914 115.348 92.2914 117.393C92.2914 119.438 93.9535 121.1 95.9986 121.1C99.406 121.1 102.177 118.329 102.177 114.921C102.177 113.63 101.779 112.428 101.096 111.436C102.088 111.523 103.073 111.631 104.055 111.767ZM94.7628 108.758C93.2769 108.789 91.8002 108.872 90.3328 109.005C89.6655 107.754 89.1002 106.327 88.6461 104.773C90.6294 104.238 92.6807 103.92 94.7628 103.831V108.758ZM87.7193 109.305C85.529 109.605 83.3634 110.022 81.2287 110.559C80.8518 109.935 80.5058 109.286 80.1845 108.622C82.0906 107.346 84.1419 106.302 86.2951 105.517C86.6936 106.874 87.1694 108.143 87.7193 109.305ZM78.7573 111.23C77.7842 111.52 76.8172 111.832 75.8595 112.172C76.5886 111.44 77.3578 110.751 78.158 110.108C78.3495 110.488 78.5472 110.862 78.7573 111.233V111.23ZM75.1181 115.082C75.9893 114.745 76.8666 114.43 77.7502 114.137C77.5586 115.209 77.4629 116.296 77.4629 117.39C77.4629 118.004 77.4938 118.619 77.5556 119.228C76.6597 118.465 75.807 117.646 75.0069 116.772C75.0224 116.206 75.0594 115.641 75.1212 115.079L75.1181 115.082ZM80.4348 121.387C80.1011 120.083 79.9312 118.743 79.9312 117.393C79.9312 116.043 80.1073 114.64 80.4564 113.315C80.617 113.272 80.7777 113.228 80.9414 113.185C80.9723 113.179 81.0001 113.17 81.031 113.16C81.7755 112.963 82.5262 112.774 83.2769 112.607C82.7054 114.127 82.4026 115.746 82.4026 117.393C82.4026 119.444 82.8629 121.436 83.7248 123.244C82.588 122.7 81.4882 122.079 80.4317 121.39L80.4348 121.387ZM116.999 115.131C117.349 115.267 117.701 115.406 118.05 115.548C117.685 115.996 117.305 116.432 116.913 116.855C116.965 116.284 116.993 115.709 116.999 115.131ZM113.237 111.23C113.444 110.862 113.645 110.485 113.836 110.105C114.636 110.751 115.405 111.436 116.138 112.169C115.177 111.829 114.213 111.517 113.24 111.226L113.237 111.23ZM110.768 110.559C110.753 110.556 110.738 110.55 110.722 110.547C108.875 110.083 107.006 109.71 105.115 109.425C105.106 109.425 105.096 109.425 105.084 109.422C104.815 109.382 104.547 109.342 104.278 109.308C104.828 108.149 105.303 106.877 105.702 105.521C107.855 106.305 109.91 107.349 111.813 108.625C111.491 109.289 111.142 109.935 110.768 110.562V110.559ZM101.661 109.008C100.194 108.872 98.7171 108.789 97.2312 108.761V103.834C99.3134 103.926 101.365 104.245 103.348 104.776C102.894 106.33 102.328 107.76 101.661 109.008ZM67.5772 29.7127C70.478 29.9753 73.2182 31.1616 75.4023 33.1202C75.6371 33.3302 75.9306 33.4353 76.2272 33.4353C76.5237 33.4353 76.8172 33.3302 77.052 33.1202C79.2361 31.1647 81.9763 29.9784 84.8772 29.7127V32.1996C82.4799 32.4652 80.2401 33.494 78.4669 35.1714C77.7687 35.8356 76.9346 36.7624 76.2272 37.9394C75.5197 36.7624 74.6887 35.8356 73.9874 35.1714C72.2142 33.4971 69.9745 32.4652 67.5772 32.1996V29.7127ZM76.2272 17.3C80.997 17.3 84.8772 21.1801 84.8772 25.9499V27.2351C81.723 27.4761 78.7171 28.6407 76.2272 30.59C73.7372 28.6407 70.7313 27.4791 67.5772 27.2351V25.9499C67.5772 21.1801 71.4573 17.3 76.2272 17.3ZM51.9701 81.5724C52.2266 81.5632 52.4861 81.557 52.7456 81.557C57.3918 81.557 61.8435 82.9781 65.6217 85.6626C68.0097 87.3587 70.061 89.5428 71.6149 92.0235C68.7851 93.2777 65.77 93.9141 62.6312 93.9141C62.6004 93.9141 62.5664 93.9141 62.5355 93.9141C61.8064 92.2243 60.9816 90.5715 60.0517 88.9682C60.0301 88.928 60.0054 88.8909 59.9776 88.857C58.0684 85.607 55.1984 83.0893 51.8342 81.5817C51.8806 81.5817 51.9238 81.5755 51.9701 81.5724ZM61.3832 126.67C61.3801 126.654 61.3708 126.639 61.3646 126.623C61.3616 126.608 61.3585 126.596 61.3554 126.58C60.4935 124.118 59.9281 121.239 59.4524 118.282C61.9362 122.2 65.0471 125.709 68.6677 128.665C66.8419 129.762 65.0749 130.973 63.3912 132.283C62.5756 130.488 61.9053 128.613 61.3832 126.67ZM56.1994 101.891C55.461 99.3142 54.4755 96.8551 53.2553 94.535C55.6711 95.5267 58.2352 96.1322 60.8549 96.3207C61.6427 98.3472 62.2822 100.432 62.7641 102.561C62.7208 102.561 62.6745 102.561 62.6312 102.561C60.4626 102.561 58.3032 102.332 56.1963 101.888L56.1994 101.891ZM44.2006 83.2715C44.8277 83.0089 45.4641 82.7711 46.1098 82.5703C51.0372 83.0831 55.4363 85.9221 57.9108 90.2101C57.9325 90.2471 57.9572 90.2842 57.9819 90.3213C58.6214 91.4334 59.2114 92.5703 59.749 93.7287C56.5732 93.3148 53.5179 92.2181 50.7993 90.5066C48.9365 87.8406 46.7276 85.4124 44.2006 83.2715ZM95.9986 134.578C97.0273 135.768 97.9355 137.062 98.6986 138.44C99.1187 139.197 99.4925 139.978 99.8231 140.782C98.0375 143.272 96.7431 146.101 96.0356 149.092C96.0202 149.144 96.0078 149.203 95.9955 149.259C95.9831 149.203 95.9708 149.147 95.9553 149.092C95.251 146.104 93.9535 143.272 92.1678 140.782C92.4984 139.981 92.8722 139.2 93.2923 138.44C94.0585 137.062 94.9636 135.768 95.9924 134.578H95.9986ZM106.187 151.761C106.898 150.374 107.766 149.095 108.779 147.936C108.76 148.956 108.671 149.975 108.504 150.989C107.741 151.273 106.969 151.529 106.187 151.761ZM111.173 145.644C111.408 145.456 111.646 145.27 111.89 145.094C112.881 144.371 113.947 143.747 115.062 143.228C115.384 144.418 115.591 145.635 115.677 146.861C115.69 147.016 115.696 147.173 115.702 147.328C114.241 148.292 112.715 149.144 111.136 149.879C111.275 148.468 111.29 147.05 111.173 145.638V145.644ZM103.978 150.652C104 150.405 104.015 150.158 104.025 149.91C104.028 149.784 104.031 149.651 104.031 149.521C104.031 149.391 104.031 149.259 104.025 149.147C103.987 146.435 103.506 143.741 102.622 141.192C102.801 140.973 102.98 140.757 103.169 140.547C104.114 139.481 105.164 138.511 106.301 137.655C106.972 138.909 107.512 140.232 107.92 141.6C108.214 142.583 108.43 143.599 108.575 144.628C106.687 146.348 105.146 148.372 103.978 150.655V150.652ZM101.553 149.194C101.553 149.302 101.559 149.41 101.559 149.521C101.559 149.632 101.559 149.74 101.553 149.842C101.522 150.887 101.337 151.909 101.006 152.888C100.076 153.018 99.1404 153.114 98.1981 153.17C98.0869 152.209 98.1209 151.239 98.3063 150.284L98.3186 150.219C98.3341 150.142 98.3495 150.065 98.368 149.988L98.3773 149.947C98.3958 149.867 98.4144 149.784 98.436 149.703L98.4453 149.669C98.9334 147.59 99.7428 145.598 100.827 143.766C101.284 145.533 101.535 147.356 101.559 149.194H101.553ZM93.5549 149.673L93.5642 149.706C93.5858 149.784 93.6044 149.867 93.6229 149.951L93.6322 149.994C93.6507 150.068 93.6662 150.148 93.6816 150.222L93.694 150.275C93.8793 151.239 93.9133 152.212 93.8021 153.173C92.8598 153.114 91.9238 153.021 90.9939 152.892C90.6634 151.912 90.478 150.893 90.4471 149.852C90.4471 149.744 90.4409 149.635 90.4409 149.524C90.4409 149.413 90.4409 149.305 90.4471 149.181C90.4718 147.352 90.7221 145.533 91.1793 143.769C92.2636 145.601 93.073 147.597 93.5611 149.673H93.5549ZM83.4932 150.989C83.3263 149.978 83.2337 148.959 83.2182 147.936C84.2346 149.095 85.0996 150.374 85.8101 151.761C85.0285 151.529 84.2562 151.273 83.4932 150.989ZM87.9726 149.132C87.9695 149.259 87.9664 149.391 87.9664 149.521C87.9664 149.651 87.9664 149.784 87.9726 149.917C87.9788 150.164 87.9973 150.408 88.0189 150.652C86.8512 148.369 85.3096 146.345 83.4221 144.625C83.5673 143.599 83.7835 142.583 84.077 141.597C84.4848 140.229 85.0254 138.906 85.6958 137.652C86.8358 138.508 87.8861 139.478 88.8283 140.544C89.0137 140.754 89.196 140.97 89.3751 141.189C88.4885 143.738 88.0097 146.429 87.9726 149.132ZM80.8549 149.886C79.2763 149.147 77.7502 148.295 76.289 147.334C76.2951 147.176 76.3044 147.022 76.3137 146.867C76.4002 145.638 76.6071 144.421 76.9284 143.231C78.0468 143.747 79.1095 144.374 80.1042 145.097C80.3452 145.273 80.5831 145.456 80.8178 145.644C80.7004 147.056 80.7128 148.474 80.8549 149.886ZM123.237 140.689C123.221 140.707 123.206 140.723 123.193 140.741C121.627 142.561 119.9 144.201 118.044 145.653C117.861 144.124 117.515 142.617 117.012 141.158C116.904 140.843 116.669 140.584 116.366 140.442C116.063 140.3 115.717 140.287 115.405 140.405C113.765 141.029 112.211 141.854 110.781 142.851C110.645 142.187 110.481 141.532 110.29 140.887C109.696 138.888 108.841 136.979 107.75 135.209C107.574 134.924 107.293 134.723 106.965 134.649C106.641 134.578 106.298 134.64 106.017 134.825C104.383 135.904 102.891 137.179 101.575 138.619C101.352 138.149 101.114 137.689 100.861 137.235C99.7767 135.28 98.4391 133.479 96.8852 131.878C96.8821 131.875 96.8759 131.872 96.8728 131.866C96.8697 131.86 96.8666 131.857 96.8605 131.854C96.8358 131.829 96.8049 131.81 96.7771 131.789C96.7431 131.761 96.7122 131.733 96.6782 131.708C96.6442 131.687 96.6102 131.671 96.5763 131.653C96.5392 131.634 96.5021 131.609 96.462 131.594C96.428 131.579 96.3909 131.572 96.3538 131.56C96.3137 131.548 96.2735 131.535 96.2333 131.526C96.1963 131.52 96.1592 131.517 96.1252 131.514C96.082 131.511 96.0418 131.504 95.9986 131.504C95.9615 131.504 95.9275 131.511 95.8904 131.514C95.8472 131.517 95.807 131.52 95.7638 131.529C95.7267 131.535 95.6927 131.548 95.6587 131.56C95.6186 131.572 95.5753 131.582 95.5383 131.597C95.5043 131.613 95.4703 131.631 95.4363 131.65C95.3992 131.668 95.3622 131.687 95.3251 131.711C95.2911 131.733 95.2602 131.761 95.2293 131.789C95.2015 131.81 95.1706 131.832 95.1428 131.857C95.1397 131.86 95.1367 131.866 95.1305 131.869C95.1243 131.872 95.1212 131.875 95.1181 131.881C93.5642 133.482 92.2266 135.283 91.1422 137.238C90.8889 137.692 90.651 138.156 90.4286 138.622C89.1126 137.183 87.6204 135.907 85.9862 134.829C85.7082 134.646 85.3653 134.581 85.0378 134.652C84.7103 134.723 84.4292 134.927 84.2531 135.212C83.1626 136.982 82.31 138.891 81.7137 140.887C81.5222 141.532 81.3585 142.187 81.2225 142.851C79.7891 141.85 78.2383 141.026 76.5979 140.405C76.2859 140.287 75.9399 140.3 75.6371 140.442C75.3344 140.584 75.1027 140.84 74.9915 141.158C74.4879 142.617 74.1419 144.124 73.9596 145.653C72.103 144.201 70.373 142.564 68.8098 140.741C68.7975 140.723 68.782 140.704 68.7666 140.689C67.1262 138.777 65.7113 136.719 64.525 134.538C66.706 132.805 69.0384 131.248 71.4697 129.901C71.516 129.876 71.5562 129.842 71.5994 129.812C71.6211 129.796 71.6427 129.784 71.6643 129.768C71.7354 129.71 71.7971 129.642 71.8527 129.571L71.8589 129.564C71.8744 129.543 71.8836 129.518 71.8991 129.496C71.9269 129.453 71.9547 129.41 71.9763 129.367C71.9949 129.333 72.0041 129.296 72.0196 129.259C72.035 129.221 72.0505 129.184 72.0597 129.144C72.069 129.104 72.0752 129.064 72.0814 129.024C72.0875 128.987 72.0968 128.947 72.0968 128.909C72.0968 128.869 72.0968 128.832 72.0968 128.792C72.0968 128.752 72.0968 128.712 72.0906 128.669C72.0844 128.628 72.0752 128.591 72.0659 128.551C72.0566 128.514 72.0505 128.474 72.0381 128.437C72.0227 128.39 72.001 128.347 71.9794 128.301C71.9671 128.276 71.9609 128.248 71.9454 128.224C71.9454 128.221 71.9392 128.217 71.9392 128.214C71.9145 128.171 71.8836 128.134 71.8558 128.094C71.8342 128.066 71.8188 128.035 71.7971 128.01C71.7755 127.986 71.7508 127.967 71.7292 127.946C71.6921 127.909 71.655 127.871 71.6149 127.841C71.6118 127.841 71.6087 127.834 71.6056 127.831C65.7051 123.42 61.1082 117.504 58.3032 110.723C57.9541 108.601 57.5494 106.515 57.0149 104.563C58.8654 104.875 60.7468 105.036 62.6343 105.036C63.1873 105.036 63.7619 105.02 64.3427 104.992C64.3705 104.992 64.3952 104.983 64.4199 104.98C64.4508 104.977 64.4817 104.98 64.5126 104.971C64.525 104.971 64.5373 104.961 64.5497 104.961C64.5929 104.952 64.6362 104.937 64.6763 104.924C64.7134 104.912 64.7505 104.9 64.7845 104.884C64.8216 104.869 64.8555 104.847 64.8926 104.825C64.9266 104.807 64.9637 104.785 64.9945 104.764C65.0254 104.742 65.0532 104.717 65.0841 104.69C65.115 104.662 65.1459 104.637 65.1737 104.606C65.2015 104.578 65.2232 104.547 65.2479 104.517C65.2726 104.486 65.2973 104.455 65.3189 104.421C65.3405 104.387 65.356 104.353 65.3745 104.316C65.3931 104.282 65.4116 104.245 65.427 104.208C65.4425 104.171 65.4518 104.133 65.4641 104.096C65.4765 104.056 65.4857 104.019 65.495 103.976C65.5012 103.939 65.5043 103.899 65.5074 103.862C65.5105 103.818 65.5135 103.775 65.5135 103.732C65.5135 103.719 65.5135 103.707 65.5135 103.692C65.5135 103.661 65.5043 103.633 65.5012 103.605C65.4981 103.577 65.5012 103.55 65.495 103.522C65.0254 101.078 64.3612 98.687 63.5148 96.367C67.1385 96.2372 70.7221 95.3074 73.9287 93.6546C73.9318 93.6546 73.9349 93.6515 73.938 93.6484C73.9442 93.6484 73.9504 93.6422 73.9565 93.6391C73.9905 93.6206 74.0183 93.5959 74.0492 93.5774C74.0832 93.5557 74.1203 93.5341 74.1512 93.5063C74.1821 93.4785 74.2099 93.4476 74.2408 93.4198C74.2686 93.392 74.2995 93.3642 74.3242 93.3333C74.3489 93.3024 74.3705 93.2654 74.3921 93.2314C74.4138 93.2005 74.4354 93.1665 74.4539 93.1325C74.4725 93.0954 74.4848 93.0584 74.5003 93.0213C74.5157 92.9842 74.5312 92.9502 74.5435 92.9132C74.5559 92.8761 74.562 92.8359 74.5682 92.7958C74.5775 92.7587 74.5868 92.7186 74.5899 92.6815C74.5929 92.6413 74.5899 92.6012 74.5899 92.561C74.5899 92.5208 74.5929 92.4807 74.5899 92.4405C74.5868 92.4004 74.5775 92.3602 74.5682 92.32C74.562 92.2799 74.5559 92.2428 74.5435 92.2026C74.5312 92.1625 74.5126 92.1223 74.4972 92.0822C74.4848 92.0482 74.4755 92.0142 74.457 91.9833C74.457 91.9802 74.4508 91.974 74.4477 91.9709C74.4477 91.9648 74.4447 91.9617 74.4416 91.9555C72.7548 88.8693 70.3884 86.1353 67.571 84.0191V34.6864C69.3319 34.9367 70.9723 35.7244 72.2822 36.9632C73.6229 38.236 74.5991 39.7899 75.0316 41.3377C75.1799 41.8721 75.668 42.2428 76.221 42.2428C76.774 42.2428 77.2621 41.8721 77.4104 41.3377C77.8429 39.7899 78.8191 38.236 80.1598 36.9632C81.4697 35.7244 83.1101 34.9367 84.871 34.6864V95.1498C84.871 97.9178 85.1552 100.618 85.6835 103.111C83.4036 103.92 81.2256 104.995 79.1929 106.311C78.3124 103.93 77.7533 101.372 77.5494 98.721C77.4969 98.0414 76.9006 97.5347 76.221 97.5842C75.5414 97.6367 75.0316 98.2329 75.0841 98.9126C75.3251 102.02 76.014 105.017 77.1107 107.785C75.2201 109.243 73.4901 110.921 71.9671 112.805C70.7653 110.911 69.7922 108.888 69.0724 106.759C68.9241 106.243 68.4484 105.863 67.883 105.863C67.3949 105.863 66.9501 106.154 66.7523 106.599C66.6226 106.892 66.6133 107.22 66.7184 107.513C67.6946 110.398 69.0909 113.114 70.8704 115.592C70.8796 115.607 70.8858 115.619 70.8951 115.635C70.9198 115.669 70.9445 115.7 70.9692 115.734C70.9785 115.746 70.9847 115.755 70.9908 115.768C73.0915 118.659 75.6587 121.124 78.5441 123.095C78.6245 123.166 78.714 123.231 78.8098 123.278C81.1793 124.863 83.7588 126.114 86.4712 126.994C86.5948 127.059 86.7245 127.099 86.8605 127.121C89.7891 128.032 92.8629 128.514 95.9924 128.514C99.7119 128.514 103.357 127.834 106.768 126.562C106.904 126.537 107.03 126.484 107.154 126.413C110.237 125.215 113.119 123.528 115.68 121.412C115.758 121.359 115.832 121.301 115.9 121.233C117.797 119.639 119.514 117.81 120.997 115.768C121.006 115.755 121.012 115.743 121.022 115.734C121.046 115.7 121.071 115.669 121.099 115.632C121.108 115.616 121.114 115.604 121.124 115.588C122.9 113.114 124.296 110.398 125.269 107.516C125.371 107.223 125.365 106.895 125.236 106.602C125.038 106.154 124.593 105.867 124.105 105.867C123.539 105.867 123.064 106.243 122.915 106.762C122.193 108.888 121.219 110.914 120.021 112.808C118.498 110.927 116.765 109.246 114.877 107.788C115.971 105.02 116.663 102.023 116.904 98.9156C116.956 98.236 116.447 97.6398 115.767 97.5873C115.084 97.5378 114.491 98.0445 114.438 98.7241C114.231 101.375 113.672 103.933 112.795 106.314C110.765 104.998 108.584 103.926 106.304 103.114C106.833 100.618 107.117 97.9209 107.117 95.1529V34.6864C108.878 34.9367 110.518 35.7244 111.828 36.9632C113.169 38.236 114.145 39.7899 114.577 41.3377C114.726 41.8721 115.214 42.2428 115.767 42.2428C116.32 42.2428 116.808 41.8721 116.956 41.3377C117.389 39.7899 118.365 38.236 119.706 36.9632C121.016 35.7244 122.656 34.9367 124.417 34.6864V84.0284C121.599 86.1446 119.233 88.8786 117.546 91.9648C117.546 91.9709 117.543 91.974 117.54 91.9802C117.54 91.9833 117.534 91.9895 117.531 91.9926C117.515 92.0235 117.506 92.0574 117.491 92.0914C117.475 92.1316 117.457 92.1717 117.444 92.2119C117.432 92.249 117.429 92.2891 117.42 92.3293C117.41 92.3695 117.401 92.4096 117.398 92.4529C117.395 92.493 117.398 92.5332 117.398 92.5703C117.398 92.6104 117.398 92.6506 117.398 92.6908C117.401 92.7309 117.413 92.768 117.42 92.805C117.429 92.8452 117.432 92.8823 117.444 92.9224C117.457 92.9595 117.472 92.9935 117.488 93.0306C117.503 93.0676 117.515 93.1047 117.534 93.1418C117.552 93.1758 117.574 93.2067 117.596 93.2375C117.617 93.2715 117.639 93.3055 117.664 93.3395C117.688 93.3704 117.719 93.3951 117.747 93.426C117.775 93.4569 117.803 93.4847 117.837 93.5125C117.868 93.5372 117.905 93.5588 117.939 93.5835C117.97 93.6052 117.997 93.6299 118.031 93.6453C118.037 93.6484 118.044 93.6515 118.05 93.6546C118.053 93.6546 118.056 93.6577 118.059 93.6608C121.266 95.3135 124.849 96.2403 128.473 96.3732C127.627 98.6963 126.962 101.084 126.493 103.528C126.487 103.556 126.49 103.584 126.487 103.611C126.484 103.639 126.474 103.667 126.474 103.698C126.474 103.71 126.474 103.723 126.474 103.738C126.474 103.781 126.474 103.825 126.48 103.868C126.484 103.908 126.487 103.945 126.493 103.982C126.499 104.022 126.511 104.062 126.524 104.103C126.536 104.14 126.545 104.18 126.561 104.214C126.576 104.251 126.595 104.285 126.613 104.322C126.632 104.356 126.647 104.393 126.669 104.427C126.691 104.461 126.715 104.492 126.74 104.523C126.765 104.554 126.786 104.584 126.814 104.612C126.842 104.643 126.873 104.668 126.904 104.696C126.932 104.72 126.962 104.745 126.993 104.77C127.024 104.791 127.061 104.813 127.095 104.832C127.129 104.853 127.166 104.872 127.203 104.89C127.237 104.906 127.274 104.918 127.311 104.93C127.355 104.946 127.395 104.958 127.438 104.968C127.451 104.968 127.463 104.977 127.475 104.977C127.506 104.983 127.537 104.983 127.568 104.986C127.593 104.986 127.62 104.995 127.645 104.998C128.226 105.029 128.804 105.042 129.354 105.042C131.241 105.042 133.122 104.881 134.973 104.569C134.442 106.518 134.034 108.604 133.688 110.729C130.883 117.51 126.283 123.423 120.385 127.837C120.382 127.837 120.379 127.844 120.376 127.847C120.336 127.878 120.299 127.915 120.262 127.952C120.24 127.973 120.215 127.992 120.194 128.017C120.172 128.041 120.154 128.072 120.132 128.1C120.104 128.14 120.073 128.177 120.049 128.221C120.049 128.224 120.042 128.227 120.042 128.23C120.03 128.255 120.021 128.282 120.008 128.307C119.987 128.35 119.965 128.397 119.95 128.443C119.937 128.48 119.931 128.52 119.922 128.557C119.913 128.597 119.903 128.635 119.897 128.675C119.891 128.715 119.891 128.755 119.891 128.798C119.891 128.838 119.888 128.875 119.891 128.916C119.891 128.956 119.9 128.993 119.906 129.03C119.913 129.07 119.919 129.11 119.928 129.15C119.937 129.191 119.956 129.228 119.968 129.265C119.981 129.302 119.993 129.339 120.012 129.373C120.033 129.419 120.061 129.459 120.089 129.503C120.104 129.524 120.113 129.549 120.129 129.571L120.135 129.577C120.191 129.648 120.252 129.716 120.324 129.774C120.345 129.793 120.367 129.802 120.388 129.818C120.432 129.849 120.472 129.883 120.518 129.907C122.949 131.254 125.282 132.811 127.463 134.544C126.277 136.725 124.862 138.783 123.221 140.695L123.237 140.689ZM141.198 90.5035C138.479 92.215 135.424 93.3117 132.248 93.7226C132.786 92.5641 133.376 91.4272 134.015 90.3151C134.04 90.2811 134.065 90.244 134.086 90.2039C136.561 85.9159 140.96 83.0769 145.887 82.5641C146.533 82.768 147.169 83.0028 147.797 83.2654C145.269 85.4062 143.061 87.8344 141.198 90.5005V90.5035ZM121.562 66.4164C121.828 66.1816 121.979 65.8449 121.979 65.4927C121.979 65.1405 121.828 64.8007 121.562 64.569C118.708 62.042 117.006 57.7695 117.006 53.1356C117.006 52.4529 116.453 51.8999 115.77 51.8999C115.087 51.8999 114.534 52.4529 114.534 53.1356C114.534 57.7664 112.832 62.042 109.978 64.569C109.712 64.8038 109.56 65.1405 109.56 65.4927C109.56 65.8449 109.712 66.1847 109.978 66.4164C112.832 68.9435 114.534 73.2159 114.534 77.8498C114.534 78.5326 115.087 79.0856 115.77 79.0856C116.453 79.0856 117.006 78.5326 117.006 77.8498C117.006 73.219 118.708 68.9435 121.562 66.4164ZM115.77 70.831C115.01 68.7921 113.923 66.9694 112.56 65.4927C113.923 64.0191 115.013 62.1934 115.77 60.1545C116.53 62.1934 117.617 64.0161 118.98 65.4927C117.617 66.9663 116.527 68.7921 115.77 70.831ZM97.2343 40.7785C97.2343 40.0958 96.6813 39.5428 95.9986 39.5428C95.3158 39.5428 94.7628 40.0958 94.7628 40.7785C94.7628 48.4862 92.9989 55.6132 90.0486 59.8424C89.752 60.2688 89.752 60.831 90.0486 61.2573C93.002 65.4865 94.7628 72.6135 94.7628 80.3213C94.7628 81.004 95.3158 81.557 95.9986 81.557C96.6813 81.557 97.2343 81.004 97.2343 80.3213C97.2343 72.6135 98.9982 65.4865 101.949 61.2573C102.245 60.831 102.245 60.2688 101.949 59.8424C98.9952 55.6132 97.2343 48.4862 97.2343 40.7785ZM95.9986 69.2864C95.1953 65.8943 94.0214 62.8946 92.5447 60.5499C94.0214 58.2082 95.1953 55.2054 95.9986 51.8134C96.8018 55.2054 97.9757 58.2051 99.4524 60.5499C97.9757 62.8916 96.8018 65.8943 95.9986 69.2864ZM97.5432 32.1285C99.2608 32.1285 100.923 31.625 102.35 30.6673C102.82 30.3522 103.014 29.759 102.826 29.2277C102.637 28.6963 102.115 28.3565 101.55 28.409C101.451 28.4183 101.352 28.4183 101.25 28.4183C98.5256 28.4183 96.3075 26.2002 96.3075 23.4754C96.3075 20.7507 98.5256 18.5326 101.25 18.5326C101.352 18.5326 101.451 18.5326 101.55 18.5419C102.112 18.5975 102.637 18.2576 102.826 17.7232C103.014 17.1888 102.817 16.5987 102.35 16.2836C100.923 15.329 99.2608 14.8224 97.5432 14.8224C92.7733 14.8224 88.8932 18.7025 88.8932 23.4723C88.8932 28.2422 92.7733 32.1223 97.5432 32.1223V32.1285ZM97.1354 17.3123C95.1459 18.6438 93.8361 20.9113 93.8361 23.4785C93.8361 26.0457 95.149 28.3132 97.1354 29.6447C93.9164 29.4347 91.3646 26.7501 91.3646 23.4785C91.3646 20.207 93.9195 17.5224 97.1354 17.3123Z"
    fill="#DCB2C1"
  />
  <path
    d="M61.6903 221.152C61.9671 221.35 62.1253 221.607 62.1648 221.924C62.2044 222.24 62.1451 222.517 61.9869 222.754C61.7496 223.07 61.4333 223.229 61.0378 223.229C60.8796 223.229 60.7215 223.189 60.5633 223.11C59.7724 222.952 55.8574 222.754 48.8184 222.517C46.8807 230.623 45.3186 237.485 44.1323 243.1C41.72 254.291 40.5139 261.469 40.5139 264.632C40.6721 264.355 40.8501 264.059 41.0478 263.742C41.206 263.466 41.4432 263.288 41.7596 263.209C42.0759 263.129 42.3528 263.169 42.59 263.327C42.8669 263.485 43.0448 263.703 43.1239 263.98C43.203 264.296 43.1634 264.593 43.0053 264.869C41.8585 266.807 40.8698 267.776 40.0394 267.776C39.8417 267.776 39.6439 267.736 39.4462 267.657C38.9717 267.46 38.6355 267.025 38.4378 266.352C38.2796 265.72 38.2401 264.474 38.3192 262.615C38.4378 260.796 38.7937 258.265 39.3869 255.023C39.9801 251.78 40.8501 247.47 41.9969 242.092C43.1832 236.753 44.6859 230.208 46.505 222.457C43.8159 222.378 39.8021 222.279 34.4635 222.161C33.6726 222.121 32.7829 222.101 31.7942 222.101C25.8229 233.451 21.1962 241.38 17.9139 245.888C17.0439 247.035 16.1739 247.924 15.3039 248.557C14.4339 249.19 13.6233 249.546 12.8719 249.625C12.1206 249.743 11.4878 249.743 10.9738 249.625C10.4597 249.506 9.96536 249.308 9.49082 249.032C7.43447 247.845 5.79335 245.433 4.56746 241.795C3.3811 238.196 2.84724 234.202 2.96588 229.813C3.08452 225.384 3.85564 221.528 5.27927 218.246C7.05879 214.212 9.649 211.503 13.0499 210.119C16.4903 208.735 20.5239 208.775 25.1507 210.238C25.467 210.317 25.6845 210.495 25.8032 210.772C25.9613 211.049 25.9811 211.345 25.8625 211.662C25.7834 211.938 25.6054 212.156 25.3286 212.314C25.0518 212.472 24.7552 212.492 24.4389 212.373C22.8966 211.899 21.3939 211.602 19.9307 211.484C18.4675 211.365 16.9253 211.484 15.3039 211.84C13.7221 212.156 12.2392 212.947 10.8551 214.212C9.47104 215.438 8.30446 217.099 7.35538 219.195C6.64357 220.816 6.10971 222.616 5.75381 224.593C5.3979 226.57 5.21995 228.508 5.21995 230.406C5.21995 232.304 5.35836 234.163 5.63517 235.982C5.91199 237.84 6.28767 239.501 6.76221 240.964C7.27629 242.467 7.8497 243.752 8.48242 244.82C9.15468 245.888 9.86649 246.639 10.6179 247.074C12.2787 248.023 14.0978 247.173 16.0751 244.524C19.2387 240.253 23.6282 232.759 29.2436 222.042C18.9619 221.765 13.3465 221.528 12.3974 221.33C12.081 221.251 11.824 221.093 11.6262 220.856C11.4681 220.579 11.4088 220.282 11.4483 219.966C11.5274 219.65 11.7053 219.412 11.9822 219.254C12.259 219.096 12.5358 219.037 12.8126 219.076C13.6826 219.274 19.555 219.511 30.4299 219.788C32.1699 216.387 34.7997 211.246 38.3192 204.366C40.6128 199.778 42.4912 196.061 43.9543 193.214C45.4175 190.367 46.8411 187.658 48.2252 185.087C49.6488 182.517 50.7759 180.579 51.6063 179.274C52.4368 177.93 53.2277 176.783 53.979 175.834C54.7304 174.845 55.3433 174.232 55.8179 173.995C56.3319 173.718 56.8263 173.659 57.3008 173.817C57.9335 174.054 58.329 174.588 58.4872 175.419C58.6849 176.249 58.7047 177.396 58.5465 178.859C58.3092 181.429 57.6172 185.265 56.4704 190.367C55.9958 192.621 54.7897 197.722 52.852 205.67C51.3493 211.919 50.1827 216.783 49.3522 220.263C57.0635 220.5 61.1762 220.796 61.6903 221.152ZM34.5228 219.847C39.7032 220.006 43.8753 220.124 47.0389 220.203C48.1066 215.616 49.2929 210.594 50.5979 205.137C52.5356 197.228 53.7615 192.146 54.2756 189.892C55.8179 182.893 56.5099 178.404 56.3517 176.427C55.719 177.06 54.8292 178.305 53.6824 180.164C52.5752 181.983 51.1515 184.514 49.4116 187.757C47.7111 190.999 46.2875 193.748 45.1407 196.002C43.9939 198.216 42.3923 201.34 40.336 205.374C37.0933 211.78 34.6415 216.605 32.9806 219.847C33.1388 219.847 33.376 219.847 33.6924 219.847C34.0483 219.847 34.3251 219.847 34.5228 219.847ZM90.4983 183.782C91.5264 184.81 91.0123 188.449 88.956 194.697C88.7978 195.171 88.5803 195.824 88.3035 196.654C87.4335 199.304 86.7217 201.419 86.1681 203.001C85.6144 204.583 84.7445 206.798 83.5581 209.645C82.3718 212.492 81.0865 215.221 79.7025 217.831C78.5557 223.288 77.4682 229.101 76.44 235.27C74.6605 245.829 73.7114 252.986 73.5927 256.743C73.9091 256.624 74.2255 256.624 74.5418 256.743C74.8186 256.901 74.9966 257.119 75.0757 257.395C75.1943 257.712 75.1943 258.008 75.0757 258.285C74.3639 259.788 73.6521 260.539 72.9403 260.539C72.7821 260.539 72.6239 260.52 72.4657 260.48C72.0307 260.322 71.7144 260.025 71.5166 259.59C71.3584 259.195 71.2794 258.325 71.2794 256.98C71.3189 255.675 71.4969 253.738 71.8132 251.167C72.2878 247.054 73.0787 241.637 74.1859 234.914C74.8186 231.236 75.4711 227.658 76.1434 224.178C74.9175 226.155 73.6125 228.132 72.2284 230.109C69.6185 233.906 67.3446 235.27 65.4069 234.202C64.1415 233.293 63.5285 231.691 63.5681 229.398C63.6076 227.064 64.181 224.711 65.2883 222.339C66.5933 219.571 68.1355 217.534 69.9151 216.229C71.6946 214.924 73.2764 214.489 74.6605 214.924C76.0445 215.319 76.8354 216.348 77.0332 218.009C77.2309 217.692 77.4088 217.376 77.567 217.059C79.6629 207.134 81.7588 199.165 83.8547 193.154C85.9901 187.104 87.7301 183.861 89.0746 183.426C89.6283 183.229 90.1028 183.347 90.4983 183.782ZM70.3896 228.804C72.2482 226.115 73.9487 223.426 75.4909 220.737C74.8977 220.539 74.6605 220.144 74.7791 219.551C74.9373 218.088 74.6802 217.257 74.008 217.059C73.9289 217.059 73.8102 217.059 73.6521 217.059C72.8216 217.059 71.7934 217.613 70.5675 218.72C69.3812 219.788 68.3135 221.33 67.3644 223.347C66.7317 224.652 66.2967 225.997 66.0594 227.381C65.8617 228.725 65.8221 229.833 65.9408 230.703C66.0594 231.533 66.2769 232.027 66.5933 232.185C66.7119 232.265 66.8899 232.265 67.1271 232.185C67.4039 232.067 67.8389 231.731 68.4321 231.177C69.0253 230.584 69.6778 229.793 70.3896 228.804ZM86.7613 193.985C87.5522 191.573 88.1256 189.516 88.4815 187.816C86.5438 191.889 84.4676 198.236 82.2531 206.857C83.3604 204.168 84.6456 200.549 86.1088 196.002C86.3856 195.132 86.6031 194.459 86.7613 193.985ZM110.991 219.61C111.307 219.531 111.584 219.571 111.822 219.729C112.098 219.887 112.276 220.124 112.355 220.441C112.434 220.757 112.395 221.054 112.237 221.33C110.932 223.426 109.686 225.305 108.5 226.966C107.313 228.587 106.285 229.912 105.415 230.94C104.585 231.928 103.774 232.759 102.983 233.431C102.192 234.143 101.56 234.637 101.085 234.914C100.611 235.23 100.136 235.428 99.6614 235.507C99.1869 235.626 98.8508 235.665 98.653 235.626C98.4949 235.626 98.2971 235.606 98.0599 235.567C96.2012 235.092 95.1533 232.976 94.916 229.22C94.8765 228.389 94.7776 227.697 94.6194 227.143C94.4613 226.55 94.3229 226.175 94.2042 226.016C94.0856 225.819 93.9867 225.72 93.9076 225.72C93.8681 225.72 93.8483 225.72 93.8483 225.72C93.532 225.72 93.097 225.977 92.5433 226.491C91.9897 226.966 91.3174 227.756 90.5265 228.864C89.7356 229.971 88.9052 231.315 88.0352 232.897C87.1652 234.479 86.1963 236.476 85.1286 238.888C84.1005 241.301 83.0921 243.911 82.1034 246.718C81.9452 247.232 81.5893 247.489 81.0357 247.489C80.9566 247.489 80.8775 247.489 80.7984 247.489C80.6007 247.45 80.4425 247.371 80.3239 247.252C80.1657 247.134 80.0471 246.975 79.968 246.778C79.8889 246.619 79.8691 246.461 79.9087 246.303C79.9878 244.682 81.0357 239.482 83.0525 230.703C85.0298 221.884 86.6511 214.805 87.9166 209.467C89.2215 204.089 90.2299 199.976 90.9417 197.129C92.2863 191.672 93.8285 187.025 95.5685 183.189C97.348 179.314 98.8705 177.257 100.136 177.02C100.808 176.901 101.322 177.099 101.678 177.613C102.548 178.8 102.034 181.864 100.136 186.808C98.2774 191.751 95.3708 197.801 91.4163 204.959C88.3713 217.494 86.0184 227.559 84.3575 235.151C86.0975 231.474 87.8177 228.567 89.5181 226.432C91.2186 224.257 92.7806 223.268 94.2042 223.466C95.9837 223.703 96.9724 225.562 97.1701 229.042C97.3678 231.691 97.8424 233.115 98.5937 233.312C98.7124 233.352 98.8705 233.352 99.0683 233.312C99.3055 233.273 99.7603 233.036 100.433 232.601C101.105 232.166 101.836 231.533 102.627 230.703C103.418 229.833 104.486 228.488 105.83 226.669C107.215 224.85 108.697 222.655 110.279 220.085C110.437 219.847 110.675 219.689 110.991 219.61ZM99.7208 180.342C97.5458 183.466 95.5092 188.627 93.611 195.824C97.091 188.824 99.1276 183.664 99.7208 180.342ZM128.529 219.907C128.846 219.828 129.122 219.887 129.36 220.085C129.636 220.243 129.795 220.48 129.834 220.796C129.874 221.113 129.814 221.39 129.656 221.627C125.188 227.875 121.114 232.304 117.437 234.914C115.974 235.942 114.53 236.456 113.107 236.456C111.999 236.456 111.03 236.16 110.2 235.567C109.726 235.211 109.31 234.736 108.954 234.143C108.559 233.55 108.223 232.719 107.946 231.652C107.669 230.584 107.63 229.18 107.827 227.44C107.986 225.7 108.421 223.723 109.132 221.508V221.449C110.24 217.85 111.584 215.003 113.166 212.907C114.748 210.811 116.171 209.744 117.437 209.704C118.346 209.665 118.94 210.06 119.216 210.89C119.651 212.037 119.137 213.659 117.674 215.754C116.211 217.85 114.056 220.104 111.208 222.517C110.734 224.059 110.398 225.483 110.2 226.788C110.002 228.093 109.923 229.14 109.963 229.931C110.042 230.683 110.18 231.355 110.378 231.948C110.615 232.502 110.813 232.897 110.971 233.135C111.169 233.372 111.367 233.57 111.564 233.728C112.751 234.598 114.273 234.36 116.132 233.016C119.612 230.564 123.487 226.333 127.758 220.322C127.956 220.085 128.213 219.946 128.529 219.907ZM117.022 212.195C115.637 213.065 114.273 214.944 112.929 217.831C115.222 215.537 116.587 213.659 117.022 212.195ZM149.588 219.966C149.904 219.887 150.201 219.926 150.478 220.085C150.754 220.243 150.932 220.48 151.011 220.796C151.091 221.073 151.051 221.35 150.893 221.627C149.548 224 148.382 225.878 147.393 227.262C146.404 228.646 145.396 229.734 144.368 230.525C143.34 231.315 142.331 231.652 141.343 231.533C139.365 231.296 137.803 229.16 136.657 225.127C135.826 222.398 135.114 221.034 134.521 221.034C134.403 220.994 134.225 221.054 133.987 221.212C133.79 221.33 133.453 221.686 132.979 222.279C132.504 222.833 131.971 223.604 131.377 224.593C130.824 225.581 130.072 227.045 129.123 228.982C128.214 230.92 127.225 233.214 126.157 235.863C125.96 236.338 125.604 236.575 125.09 236.575C125.011 236.575 124.932 236.555 124.852 236.516C124.18 236.357 123.884 235.942 123.963 235.27C124.358 232.027 125.841 225.997 128.411 217.178C128.688 216.269 128.886 215.577 129.005 215.102C129.123 214.786 129.321 214.568 129.598 214.45C129.875 214.291 130.151 214.252 130.428 214.331C130.745 214.41 130.982 214.588 131.14 214.865C131.298 215.142 131.318 215.438 131.199 215.754C131.12 216.031 130.923 216.723 130.606 217.831C129.736 220.876 129.064 223.248 128.589 224.949C129.855 222.576 130.962 220.935 131.911 220.025C132.86 219.116 133.77 218.681 134.64 218.72C135.668 218.76 136.479 219.294 137.072 220.322C137.705 221.35 138.298 222.754 138.851 224.533C139.721 227.578 140.651 229.16 141.639 229.279C142.114 229.358 142.687 229.101 143.36 228.508C144.071 227.875 144.823 226.985 145.614 225.838C146.404 224.652 146.998 223.723 147.393 223.051C147.828 222.378 148.322 221.528 148.876 220.5C149.034 220.223 149.271 220.045 149.588 219.966ZM171.137 219.966C171.453 219.887 171.75 219.926 172.027 220.085C172.303 220.243 172.481 220.48 172.56 220.796C172.64 221.073 172.6 221.35 172.442 221.627C171.097 224 169.931 225.878 168.942 227.262C167.953 228.646 166.945 229.734 165.917 230.525C164.889 231.315 163.88 231.652 162.892 231.533C160.914 231.296 159.352 229.16 158.206 225.127C157.375 222.398 156.663 221.034 156.07 221.034C155.952 220.994 155.774 221.054 155.536 221.212C155.339 221.33 155.002 221.686 154.528 222.279C154.053 222.833 153.52 223.604 152.926 224.593C152.373 225.581 151.621 227.045 150.672 228.982C149.763 230.92 148.774 233.214 147.706 235.863C147.509 236.338 147.153 236.575 146.639 236.575C146.56 236.575 146.48 236.555 146.401 236.516C145.729 236.357 145.433 235.942 145.512 235.27C145.907 232.027 147.39 225.997 149.96 217.178C150.237 216.269 150.435 215.577 150.554 215.102C150.672 214.786 150.87 214.568 151.147 214.45C151.424 214.291 151.7 214.252 151.977 214.331C152.294 214.41 152.531 214.588 152.689 214.865C152.847 215.142 152.867 215.438 152.748 215.754C152.669 216.031 152.472 216.723 152.155 217.831C151.285 220.876 150.613 223.248 150.138 224.949C151.404 222.576 152.511 220.935 153.46 220.025C154.409 219.116 155.319 218.681 156.189 218.72C157.217 218.76 158.028 219.294 158.621 220.322C159.254 221.35 159.847 222.754 160.4 224.533C161.27 227.578 162.2 229.16 163.188 229.279C163.663 229.358 164.236 229.101 164.908 228.508C165.62 227.875 166.372 226.985 167.163 225.838C167.953 224.652 168.547 223.723 168.942 223.051C169.377 222.378 169.871 221.528 170.425 220.5C170.583 220.223 170.82 220.045 171.137 219.966ZM193.635 220.085C193.951 219.966 194.248 219.986 194.525 220.144C194.801 220.263 194.979 220.48 195.059 220.796C195.177 221.073 195.177 221.35 195.059 221.627C190.827 230.366 187.051 234.736 183.729 234.736C183.531 234.736 183.314 234.716 183.076 234.677C180.427 234.163 178.786 230.604 178.153 224C176.215 226.61 174.495 228.745 172.992 230.406C171.648 231.83 170.501 232.324 169.552 231.889C168.603 231.533 168.148 230.505 168.188 228.804C168.188 227.381 168.504 225.68 169.137 223.703C169.769 221.726 170.699 219.808 171.925 217.949C173.151 216.091 174.475 214.924 175.899 214.45C177.995 213.698 179.933 214.39 181.712 216.526C181.91 216.763 181.989 217.04 181.949 217.356C181.949 217.672 181.831 217.929 181.593 218.127C181.356 218.325 181.079 218.424 180.763 218.424C180.447 218.384 180.19 218.246 179.992 218.009C178.608 216.348 177.204 216.031 175.78 217.059C174.159 218.206 172.795 220.282 171.687 223.288C170.62 226.254 170.204 228.369 170.442 229.635C170.679 229.437 170.956 229.18 171.272 228.864C172.854 227.163 174.792 224.731 177.085 221.568C177.599 220.856 177.955 220.361 178.153 220.085C178.469 219.689 178.885 219.571 179.399 219.729C179.913 219.847 180.19 220.184 180.229 220.737C180.308 222.675 180.466 224.395 180.704 225.898C180.941 227.401 181.178 228.547 181.415 229.338C181.653 230.09 181.93 230.722 182.246 231.236C182.562 231.75 182.8 232.087 182.958 232.245C183.155 232.363 183.353 232.423 183.551 232.423C184.105 232.541 184.797 232.284 185.627 231.652C186.497 230.979 187.584 229.714 188.889 227.855C190.234 225.957 191.598 223.565 192.982 220.678C193.141 220.361 193.358 220.164 193.635 220.085Z"
    fill="#DCB2C1"
  />
  <path
    d="M103.001 248.886H114.034V252H110.052V265.258H106.827V252H103.001V248.886ZM113.975 265.258L121.361 248.241H121.538L128.924 265.258H125.187L120.471 253.29L122.806 251.689L117.156 265.258H113.975ZM119.025 259.341H123.941L125.075 262.055H118.024L119.025 259.341ZM128.873 248.886H139.906V252H135.924V265.258H132.699V252H128.873V248.886ZM141.906 248.886H152.94V252H148.958V265.258H145.732V252H141.906V248.886ZM154.487 257.094C154.487 255.967 154.702 254.899 155.132 253.891C155.562 252.883 156.155 251.993 156.911 251.222C157.682 250.436 158.572 249.82 159.58 249.376C160.589 248.931 161.671 248.708 162.828 248.708C163.97 248.708 165.045 248.931 166.053 249.376C167.062 249.82 167.952 250.436 168.723 251.222C169.509 251.993 170.117 252.883 170.547 253.891C170.992 254.899 171.214 255.967 171.214 257.094C171.214 258.251 170.992 259.333 170.547 260.342C170.117 261.35 169.509 262.24 168.723 263.011C167.952 263.767 167.062 264.361 166.053 264.791C165.045 265.221 163.97 265.436 162.828 265.436C161.671 265.436 160.589 265.221 159.58 264.791C158.572 264.361 157.682 263.767 156.911 263.011C156.155 262.24 155.562 261.35 155.132 260.342C154.702 259.333 154.487 258.251 154.487 257.094ZM157.823 257.094C157.823 257.821 157.949 258.503 158.201 259.141C158.468 259.764 158.832 260.32 159.291 260.809C159.766 261.284 160.307 261.654 160.915 261.921C161.538 262.188 162.213 262.322 162.939 262.322C163.636 262.322 164.281 262.188 164.875 261.921C165.483 261.654 166.009 261.284 166.454 260.809C166.899 260.32 167.247 259.764 167.499 259.141C167.751 258.503 167.877 257.821 167.877 257.094C167.877 256.353 167.744 255.663 167.477 255.026C167.225 254.388 166.869 253.832 166.409 253.357C165.964 252.868 165.438 252.49 164.83 252.223C164.222 251.956 163.562 251.822 162.85 251.822C162.138 251.822 161.479 251.956 160.871 252.223C160.263 252.49 159.729 252.868 159.269 253.357C158.809 253.832 158.453 254.388 158.201 255.026C157.949 255.663 157.823 256.353 157.823 257.094ZM173.429 257.094C173.429 255.967 173.644 254.899 174.074 253.891C174.504 252.883 175.097 251.993 175.853 251.222C176.624 250.436 177.514 249.82 178.523 249.376C179.531 248.931 180.614 248.708 181.77 248.708C182.912 248.708 183.987 248.931 184.996 249.376C186.004 249.82 186.894 250.436 187.665 251.222C188.451 251.993 189.059 252.883 189.489 253.891C189.934 254.899 190.156 255.967 190.156 257.094C190.156 258.251 189.934 259.333 189.489 260.342C189.059 261.35 188.451 262.24 187.665 263.011C186.894 263.767 186.004 264.361 184.996 264.791C183.987 265.221 182.912 265.436 181.77 265.436C180.614 265.436 179.531 265.221 178.523 264.791C177.514 264.361 176.624 263.767 175.853 263.011C175.097 262.24 174.504 261.35 174.074 260.342C173.644 259.333 173.429 258.251 173.429 257.094ZM176.765 257.094C176.765 257.821 176.891 258.503 177.144 259.141C177.41 259.764 177.774 260.32 178.233 260.809C178.708 261.284 179.249 261.654 179.857 261.921C180.48 262.188 181.155 262.322 181.882 262.322C182.578 262.322 183.224 262.188 183.817 261.921C184.425 261.654 184.951 261.284 185.396 260.809C185.841 260.32 186.189 259.764 186.442 259.141C186.694 258.503 186.82 257.821 186.82 257.094C186.82 256.353 186.686 255.663 186.419 255.026C186.167 254.388 185.811 253.832 185.352 253.357C184.907 252.868 184.38 252.49 183.772 252.223C183.164 251.956 182.504 251.822 181.793 251.822C181.081 251.822 180.421 251.956 179.813 252.223C179.205 252.49 178.671 252.868 178.211 253.357C177.752 253.832 177.396 254.388 177.144 255.026C176.891 255.663 176.765 256.353 176.765 257.094Z"
    fill="#DCB2C1"
  />
</svg>
