<svg
  viewBox="0 0 122 161"
  fill="none"
  xmlns="http://www.w3.org/2000/svg"
>
  <path
    d="M61.0171 160.652L60.9986 159.416V160.652C48.348 160.652 36.3677 155.134 28.1286 145.514C28.0854 145.465 28.0514 145.425 28.0205 145.385C23.9087 140.559 20.9615 134.968 19.2778 128.789C17.8877 124.723 17.2235 120.198 16.5809 115.82C16.0248 112.03 15.4502 108.119 14.4555 105.144C14.3659 104.918 14.2887 104.69 14.2269 104.461C13.3155 101.057 11.8636 97.8807 9.91114 95.0201C9.85862 94.9459 9.80919 94.8749 9.75977 94.8007C7.94636 92.1903 5.7159 89.8579 3.13944 87.8962C3.05603 87.8313 2.9788 87.7695 2.90157 87.7016C2.75019 87.5749 2.62971 87.4544 2.54939 87.3772C2.42891 87.2629 2.30225 87.1269 2.18176 86.9879C2.05201 86.8335 1.93462 86.6821 1.82341 86.5184C1.78634 86.4658 1.69057 86.333 1.58553 86.1569C1.55464 86.1075 1.51757 86.0457 1.48359 85.9839C1.46196 85.9438 1.44034 85.9036 1.41871 85.8634C1.33839 85.709 1.26734 85.5545 1.20246 85.397C1.12214 85.2085 1.05418 85.0293 0.99548 84.844C0.90898 84.5721 0.862641 84.3528 0.844105 84.257C0.800855 84.0655 0.769963 83.8678 0.745248 83.667C0.714355 83.392 0.711266 83.1696 0.711266 83.0769C0.711266 82.9873 0.705088 82.7711 0.726713 82.4992C0.751427 82.2181 0.785409 82.0173 0.813212 81.8721C0.841016 81.7022 0.884266 81.5076 0.936784 81.3191L0.95223 81.2666C1.0171 81.038 1.08816 80.8557 1.14068 80.7229C1.20555 80.553 1.28278 80.3769 1.36928 80.2008C1.45578 80.0278 1.55464 79.8548 1.66585 79.6818C1.75853 79.5273 1.85739 79.3852 1.96551 79.2431C1.97478 79.2308 1.99332 79.206 2.01494 79.1813C2.04584 79.1412 2.09217 79.0825 2.1416 79.0269C2.27135 78.8693 2.39801 78.7396 2.48142 78.6562C2.60191 78.5264 2.74401 78.3966 2.88921 78.2731C3.08692 78.1093 3.24139 77.9981 3.34024 77.9302C3.39585 77.89 3.53487 77.7911 3.72022 77.6799C3.79437 77.6336 3.88087 77.5842 3.96737 77.5378C4.07549 77.4791 4.18053 77.4266 4.28865 77.3741C8.15025 75.397 12.3393 74.3095 16.7199 74.1612C17.0628 74.1489 17.4026 74.1427 17.7486 74.1427C20.2571 74.1427 22.744 74.4578 25.1629 75.0849V25.9499C25.1629 17.093 32.3702 9.88569 41.2272 9.88569C42.8243 9.88569 44.3906 10.1174 45.8982 10.5777C48.1873 4.28792 54.2176 0 60.9986 0C67.7795 0 73.8098 4.28792 76.099 10.5777C77.6065 10.1174 79.1728 9.88569 80.77 9.88569C89.6269 9.88569 96.8342 17.093 96.8342 25.9499V75.0849C99.2531 74.4609 101.74 74.1427 104.248 74.1427C104.594 74.1427 104.934 74.1489 105.277 74.1612C109.658 74.3095 113.847 75.3939 117.733 77.3865C117.813 77.4266 117.919 77.4791 118.03 77.5378C118.122 77.5873 118.215 77.6398 118.305 77.6954C118.465 77.7912 118.598 77.8869 118.669 77.9363C118.762 77.9981 118.926 78.1155 119.117 78.2793C119.25 78.3936 119.383 78.5171 119.519 78.6592C119.596 78.7365 119.707 78.8508 119.834 78.9991C119.883 79.0547 119.939 79.1226 119.991 79.1906C120.001 79.2029 120.019 79.2277 120.041 79.2555C120.14 79.3852 120.235 79.5273 120.331 79.6818C120.442 79.8548 120.541 80.0278 120.631 80.207C120.742 80.4263 120.816 80.6148 120.869 80.7507C120.909 80.8495 120.98 81.0349 121.048 81.2728L121.063 81.3284C121.138 81.5941 121.175 81.8134 121.193 81.9061C121.215 82.0142 121.249 82.215 121.27 82.4714C121.295 82.7711 121.289 82.9935 121.289 83.0769C121.289 83.1665 121.286 83.3889 121.255 83.667C121.224 83.9357 121.181 84.152 121.15 84.291C121.116 84.4578 121.067 84.6555 121.005 84.8471C120.946 85.0355 120.878 85.2178 120.795 85.4031C120.73 85.5607 120.662 85.709 120.585 85.8573C120.56 85.9005 120.541 85.9407 120.52 85.9808C120.486 86.0395 120.452 86.1013 120.415 86.16C120.313 86.3299 120.22 86.4628 120.168 86.5338C120.066 86.6821 119.948 86.8396 119.818 86.9879C119.701 87.1269 119.577 87.2567 119.442 87.3865C119.37 87.4575 119.247 87.5749 119.089 87.7108C119.028 87.7634 118.957 87.822 118.882 87.8776C116.294 89.8517 114.057 92.1872 112.228 94.8223C112.197 94.8718 112.148 94.9428 112.095 95.0139C110.143 97.8746 108.691 101.047 107.78 104.449C107.715 104.683 107.637 104.915 107.548 105.141C106.553 108.116 105.978 112.014 105.425 115.786C104.78 120.179 104.113 124.72 102.722 128.786C101.039 134.964 98.0915 140.55 93.9643 145.397C93.9395 145.425 93.8994 145.474 93.8592 145.521C85.6294 155.131 73.6584 160.646 61.0202 160.646L61.0171 160.652ZM17.7486 76.6141C17.4304 76.6141 17.1184 76.6203 16.8033 76.6327C12.7903 76.7686 8.95037 77.7633 5.38844 79.586C5.28649 79.6354 5.21235 79.6725 5.13203 79.7158C5.08878 79.7405 5.04553 79.7652 5.00536 79.7899C4.88797 79.861 4.80456 79.9197 4.75822 79.9536C4.67172 80.0123 4.58831 80.071 4.48019 80.1637C4.37824 80.2502 4.30101 80.3275 4.25158 80.3831C4.1898 80.4479 4.11256 80.5252 4.02606 80.6271C3.99517 80.6642 3.97355 80.692 3.95192 80.7167C3.94883 80.7229 3.93338 80.7383 3.9303 80.7445C3.8716 80.8186 3.81908 80.8959 3.76965 80.9793C3.76347 80.9886 3.7573 81.0009 3.75112 81.0102C3.68315 81.1152 3.62446 81.2172 3.57503 81.316C3.51015 81.4427 3.4669 81.5508 3.44219 81.6219C3.39894 81.7331 3.36187 81.8319 3.32171 81.9648C3.2939 82.0605 3.2661 82.1717 3.24448 82.3077C3.22285 82.422 3.20431 82.5332 3.18887 82.7C3.17651 82.8452 3.1796 82.9688 3.1796 83.0337C3.1796 83.1171 3.1796 83.2406 3.19814 83.3951C3.21049 83.5063 3.22903 83.6175 3.25374 83.7349C3.27228 83.8214 3.29699 83.9512 3.34642 84.0995C3.39276 84.2416 3.4391 84.3528 3.46999 84.4269C3.47308 84.4362 3.47926 84.4486 3.48235 84.4578C3.51015 84.5258 3.54722 84.6154 3.59974 84.7142L3.63372 84.7791C3.64917 84.8069 3.66771 84.8378 3.68624 84.8656C3.7573 84.9799 3.8129 85.0602 3.8438 85.1066C3.8994 85.1869 3.96428 85.2796 4.06005 85.3908C4.14037 85.4865 4.2176 85.5638 4.27012 85.6101C4.33808 85.6781 4.40913 85.7491 4.5049 85.8264C4.55433 85.8696 4.59449 85.9036 4.63774 85.9345C7.415 88.0507 9.82773 90.5715 11.8018 93.4167C11.8481 93.4878 11.879 93.5341 11.913 93.5805C11.9192 93.5897 11.9284 93.6021 11.9346 93.6114C14.0508 96.7068 15.6232 100.142 16.6087 103.818C16.6458 103.96 16.6952 104.106 16.7539 104.251C16.7632 104.276 16.7724 104.297 16.7817 104.322C17.8537 107.51 18.4468 111.551 19.0214 115.456C19.6516 119.74 20.3004 124.167 21.6257 128.026C21.635 128.051 21.6411 128.078 21.6504 128.103C23.2352 133.942 26.0186 139.225 29.9173 143.803L30.0069 143.908C37.7734 152.975 49.0678 158.177 60.9955 158.177H61.014C72.9294 158.177 84.2145 152.978 91.9809 143.911C92.0118 143.877 92.0365 143.846 92.0613 143.815C95.9754 139.218 98.7557 133.939 100.341 128.1C100.347 128.075 100.356 128.048 100.365 128.023C101.691 124.164 102.342 119.722 102.973 115.428C103.544 111.532 104.134 107.507 105.209 104.319C105.219 104.294 105.228 104.269 105.237 104.248C105.296 104.106 105.345 103.957 105.385 103.809C106.371 100.136 107.943 96.7037 110.056 93.6083C110.062 93.599 110.072 93.5866 110.078 93.5774C110.112 93.531 110.143 93.4847 110.174 93.4384C112.166 90.5653 114.582 88.0445 117.375 85.916C117.406 85.8912 117.443 85.8603 117.477 85.8295C117.576 85.746 117.647 85.675 117.708 85.6163C117.801 85.5267 117.869 85.4557 117.934 85.3815C118.024 85.2734 118.092 85.1807 118.135 85.1158C118.184 85.0479 118.237 84.9706 118.299 84.8687C118.32 84.8316 118.339 84.8007 118.357 84.7698L118.394 84.7019C118.444 84.6092 118.481 84.5227 118.509 84.4547C118.512 84.4424 118.518 84.4331 118.521 84.4238C118.57 84.3126 118.611 84.2045 118.645 84.0964C118.666 84.0253 118.7 83.9079 118.728 83.7751C118.753 83.6577 118.777 83.5403 118.796 83.392C118.814 83.2345 118.814 83.1078 118.814 83.0398C118.814 82.9688 118.818 82.8421 118.805 82.6691C118.793 82.5301 118.774 82.4158 118.759 82.3447C118.743 82.2613 118.722 82.1347 118.678 81.9802C118.632 81.8258 118.595 81.7207 118.564 81.6466C118.524 81.5415 118.481 81.4365 118.422 81.316C118.37 81.211 118.311 81.1121 118.246 81.0071C118.24 80.9947 118.231 80.9855 118.224 80.9731C118.175 80.8897 118.122 80.8125 118.064 80.7352C118.061 80.729 118.048 80.7136 118.042 80.7074C118.017 80.6735 117.99 80.6425 117.962 80.6086C117.875 80.5066 117.807 80.4356 117.764 80.3923C117.758 80.3861 117.749 80.3769 117.742 80.3707C117.665 80.2904 117.594 80.2224 117.52 80.1606C117.412 80.071 117.319 80.0031 117.261 79.9629C117.199 79.9197 117.118 79.8641 117.013 79.7992C116.955 79.7621 116.911 79.7374 116.865 79.7127C116.788 79.6694 116.711 79.6324 116.636 79.5953C113.05 77.7572 109.21 76.7655 105.197 76.6296C104.882 76.6172 104.57 76.611 104.252 76.611C101.44 76.611 98.6569 77.0435 95.9785 77.8993C95.6016 78.0198 95.1938 77.9518 94.8725 77.7201C94.5543 77.4884 94.3659 77.1177 94.3659 76.7223V25.9499C94.3659 18.4554 88.2676 12.3571 80.773 12.3571C79.0431 12.3571 77.3594 12.6784 75.7653 13.3086C75.4379 13.4384 75.0702 13.4229 74.7582 13.2654C74.4431 13.1078 74.2114 12.8236 74.1187 12.4869C72.5092 6.58943 67.1153 2.47142 61.0016 2.47142C54.888 2.47142 49.4972 6.58943 47.8846 12.4869C47.7919 12.8267 47.5602 13.1109 47.2451 13.2654C46.93 13.4229 46.5624 13.4384 46.238 13.3086C44.6439 12.6753 42.9603 12.3571 41.2303 12.3571C33.7357 12.3571 27.6374 18.4554 27.6374 25.9499V76.7253C27.6374 77.1208 27.449 77.4915 27.1308 77.7232C26.8126 77.9549 26.4017 78.0228 26.0248 77.9024C23.3464 77.0466 20.563 76.6141 17.7517 76.6141H17.7486ZM41.2272 79.0856C41.9099 79.0856 42.4629 78.5326 42.4629 77.8498C42.4629 73.219 44.1651 68.9435 47.0196 66.4164C47.2852 66.1816 47.4366 65.8449 47.4366 65.4927C47.4366 65.1405 47.2852 64.8007 47.0196 64.569C44.1651 62.042 42.4629 57.7695 42.4629 53.1356C42.4629 52.4529 41.9099 51.8999 41.2272 51.8999C40.5444 51.8999 39.9915 52.4529 39.9915 53.1356C39.9915 57.7664 38.2893 62.042 35.4348 64.569C35.1691 64.8038 35.0177 65.1405 35.0177 65.4927C35.0177 65.8449 35.1691 66.1847 35.4348 66.4164C38.2893 68.9435 39.9915 73.2159 39.9915 77.8498C39.9915 78.5326 40.5444 79.0856 41.2272 79.0856ZM41.2272 60.1545C41.9871 62.1934 43.0746 64.0161 44.4369 65.4927C43.0746 66.9663 41.984 68.7921 41.2272 70.831C40.4672 68.7921 39.3798 66.9694 38.0174 65.4927C39.3798 64.0191 40.4703 62.1934 41.2272 60.1545ZM116.315 83.2406C116.324 83.2005 116.334 83.1634 116.337 83.1233C116.343 83.0831 116.34 83.0398 116.343 82.9997C116.343 82.9595 116.343 82.9224 116.343 82.8854C116.34 82.8452 116.331 82.8081 116.324 82.768C116.318 82.7278 116.312 82.6908 116.3 82.6506C116.287 82.6104 116.272 82.5734 116.257 82.5363C116.241 82.4992 116.232 82.4652 116.213 82.4312C116.192 82.388 116.164 82.3478 116.136 82.3046C116.121 82.283 116.111 82.2582 116.096 82.2366C116.093 82.2335 116.09 82.2304 116.084 82.2243C116.053 82.1872 116.019 82.1532 115.982 82.1161C115.957 82.0914 115.935 82.0667 115.91 82.0451C115.883 82.0235 115.855 82.0049 115.824 81.9833C115.784 81.9555 115.747 81.9246 115.704 81.903C115.697 81.903 115.694 81.8968 115.691 81.8937C115.632 81.8628 115.577 81.835 115.521 81.8072C112.274 80.1359 108.771 79.2246 105.107 79.101C104.82 79.0917 104.536 79.0856 104.245 79.0856C99.8617 79.0856 95.6356 80.2286 91.8883 82.3973V25.9499C91.8883 19.8177 86.8991 14.8285 80.7669 14.8285C77.276 14.8285 74.1558 16.4473 72.1169 18.9713V16.0643C72.1169 9.93203 67.1277 4.94285 60.9955 4.94285C54.8632 4.94285 49.8741 9.93203 49.8741 16.0643V18.9713C47.8351 16.4473 44.715 14.8285 41.2241 14.8285C35.0919 14.8285 30.1027 19.8177 30.1027 25.9499V82.3973C26.3554 80.2255 22.1292 79.0856 17.7456 79.0856C17.4552 79.0856 17.1709 79.0917 16.8836 79.101C13.2198 79.2246 9.71652 80.1359 6.46968 81.8072C6.41099 81.835 6.35847 81.8628 6.29977 81.8937C6.29359 81.8937 6.2905 81.8999 6.28742 81.903C6.24417 81.9277 6.20709 81.9555 6.16693 81.9833C6.13913 82.0049 6.10824 82.0204 6.08352 82.0451C6.05881 82.0667 6.03409 82.0945 6.01247 82.1192C5.97849 82.1532 5.94142 82.1872 5.91361 82.2274C5.91052 82.2304 5.90743 82.2335 5.90126 82.2397C5.88581 82.2613 5.87345 82.286 5.8611 82.3077C5.83329 82.3478 5.80549 82.388 5.78386 82.4343C5.76533 82.4683 5.75297 82.5054 5.74061 82.5394C5.72517 82.5764 5.70972 82.6166 5.69736 82.6537C5.68501 82.6938 5.68192 82.7309 5.67265 82.7711C5.66647 82.8112 5.6572 82.8483 5.65411 82.8885C5.65411 82.9286 5.65411 82.9657 5.65411 83.0028C5.65411 83.0429 5.65411 83.0862 5.66029 83.1263C5.66338 83.1665 5.67574 83.2036 5.68192 83.2437C5.69119 83.2808 5.69736 83.321 5.70972 83.358C5.72517 83.4044 5.7437 83.4476 5.76533 83.4909C5.77769 83.5156 5.78386 83.5434 5.79622 83.5681C5.79622 83.5743 5.8024 83.5774 5.80549 83.5805C5.82711 83.6206 5.85801 83.6608 5.88581 83.6978C5.90743 83.7287 5.92597 83.7596 5.9476 83.7844C5.96922 83.8091 5.99393 83.8307 6.01556 83.8523C6.05263 83.8894 6.08661 83.9265 6.12677 83.9574C6.12986 83.9604 6.13295 83.9635 6.13913 83.9666C9.16971 86.2774 11.7647 89.0052 13.8778 92.0636C13.8994 92.0976 13.921 92.1285 13.9457 92.1594C16.2225 95.4742 17.934 99.1782 19.006 103.176C19.0245 103.25 19.0523 103.321 19.0832 103.386C20.2571 106.806 20.875 111.007 21.4774 115.1C22.0984 119.32 22.7378 123.679 24.0137 127.34C25.5058 132.892 28.1379 137.909 31.8481 142.246C31.8636 142.264 31.8759 142.283 31.8914 142.301C39.1913 150.825 49.7937 155.712 60.9862 155.712H61.0078C61.0078 155.712 61.014 155.712 61.0171 155.712C61.0202 155.712 61.0233 155.712 61.0264 155.712C72.2188 155.712 82.8212 150.825 90.1212 142.301C90.1366 142.283 90.1521 142.264 90.1645 142.249C93.8716 137.909 96.5067 132.895 97.9989 127.343C99.2716 123.682 99.9142 119.323 100.538 115.076C101.134 111.01 101.752 106.809 102.929 103.389C102.96 103.321 102.988 103.253 103.007 103.179C104.079 99.1813 105.79 95.4804 108.067 92.1625C108.092 92.1316 108.113 92.1007 108.135 92.0667C110.248 89.0083 112.84 86.2836 115.873 83.9697C115.877 83.9666 115.88 83.9635 115.886 83.9604C115.926 83.9296 115.96 83.8925 115.997 83.8585C116.022 83.8338 116.046 83.8153 116.068 83.7905C116.09 83.7627 116.108 83.7318 116.13 83.704C116.158 83.6639 116.185 83.6268 116.21 83.5866C116.21 83.5805 116.216 83.5774 116.219 83.5743C116.232 83.5496 116.238 83.5248 116.25 83.497C116.269 83.4538 116.29 83.4105 116.306 83.3642C116.318 83.3271 116.324 83.287 116.334 83.2499L116.315 83.2406ZM105.024 81.5724C105.07 81.5724 105.113 81.5786 105.16 81.5817C101.796 83.0862 98.9256 85.6039 97.0165 88.8539C96.9887 88.8909 96.964 88.928 96.9423 88.9682C96.0125 90.5715 95.1876 92.2212 94.4585 93.9141C94.4277 93.9141 94.3968 93.9141 94.3628 93.9141C91.2241 93.9141 88.2089 93.2777 85.3791 92.0235C86.9331 89.5428 88.9844 87.3587 91.3724 85.6626C95.1506 82.9781 99.6022 81.557 104.248 81.557C104.508 81.557 104.767 81.5632 105.024 81.5724ZM95.6386 126.58C95.6386 126.58 95.6325 126.608 95.6294 126.623C95.6232 126.639 95.617 126.654 95.6109 126.67C95.0919 128.613 94.4215 130.488 93.6028 132.283C91.9192 130.973 90.1521 129.765 88.3263 128.665C91.947 125.709 95.0548 122.203 97.5416 118.282C97.069 121.233 96.5036 124.115 95.6386 126.58ZM100.798 101.891C98.6909 102.335 96.5314 102.564 94.3628 102.564C94.3195 102.564 94.2732 102.564 94.2299 102.564C94.7119 100.432 95.3513 98.3503 96.1391 96.3237C98.7588 96.1353 101.326 95.5298 103.739 94.5381C102.518 96.8582 101.533 99.3172 100.795 101.894L100.798 101.891ZM72.12 29.7127C75.0208 29.9753 77.761 31.1616 79.9451 33.1202C80.1799 33.3302 80.4734 33.4353 80.77 33.4353C81.0665 33.4353 81.36 33.3302 81.5948 33.1202C83.7789 31.1647 86.5191 29.9784 89.4199 29.7127V32.1996C87.0227 32.4652 84.7829 33.494 83.0097 35.1714C82.3115 35.8356 81.4774 36.7624 80.77 37.9394C80.0625 36.7624 79.2315 35.8356 78.5302 35.1714C76.757 33.4971 74.5173 32.4652 72.12 32.1996V29.7127ZM80.77 17.3C85.5398 17.3 89.4199 21.1801 89.4199 25.9499V27.2351C86.2658 27.4761 83.2599 28.6407 80.77 30.59C78.28 28.6407 75.2741 27.4791 72.12 27.2351V25.9499C72.12 21.1801 76.0001 17.3 80.77 17.3ZM52.3486 16.0643C52.3486 11.2944 56.2287 7.41427 60.9986 7.41427C65.7684 7.41427 69.6485 11.2944 69.6485 16.0643V93.9852C69.6424 94.0377 69.6362 94.0902 69.6362 94.1458C69.6454 94.4763 69.6485 94.8131 69.6485 95.1498C69.6485 97.6707 69.4014 100.117 68.9411 102.376C66.7662 101.795 64.5172 101.449 62.2343 101.356V92.6784C62.2343 91.9957 61.6813 91.4427 60.9986 91.4427C60.3158 91.4427 59.7628 91.9957 59.7628 92.6784V101.356C57.4799 101.449 55.2309 101.795 53.056 102.376C52.5957 100.117 52.3486 97.6676 52.3486 95.1498C52.3486 94.8131 52.3486 94.4763 52.3609 94.1458C52.3609 94.0902 52.3548 94.0377 52.3486 93.9852V16.0643ZM75.3544 122.132C76.4666 119.923 77.0597 117.467 77.0597 114.921C77.0597 114.43 77.0319 113.936 76.9887 113.445C77.8382 113.689 78.6816 113.951 79.5188 114.232C79.5281 114.461 79.5342 114.693 79.5342 114.921C79.5342 116.531 79.3273 118.125 78.9195 119.666C77.795 120.581 76.6025 121.406 75.3575 122.135L75.3544 122.132ZM60.9986 126.043C58.1595 126.043 55.3668 125.61 52.7038 124.795C50.8812 122.756 49.8772 120.142 49.8772 117.393C49.8772 115.505 50.3591 113.661 51.2642 112.023C52.3733 111.835 53.4916 111.684 54.6161 111.563C53.2105 113.102 52.3486 115.15 52.3486 117.393C52.3486 122.162 56.2287 126.043 60.9986 126.043C67.1308 126.043 72.12 121.053 72.12 114.921C72.12 113.998 72.0057 113.092 71.7863 112.212C72.6699 112.379 73.5472 112.564 74.4215 112.771C74.5327 113.482 74.5914 114.201 74.5914 114.921C74.5914 118.428 73.2692 121.733 70.8657 124.26C67.7394 125.422 64.4029 126.043 60.9986 126.043ZM69.0554 111.767C69.4477 112.771 69.6485 113.828 69.6485 114.921C69.6485 119.691 65.7684 123.571 60.9986 123.571C57.5911 123.571 54.82 120.8 54.82 117.393C54.82 113.985 57.5911 111.214 60.9986 111.214C63.0437 111.214 64.7057 112.876 64.7057 114.921C64.7057 116.966 63.0437 118.628 60.9986 118.628C60.3158 118.628 59.7628 118.075 59.7628 117.393C59.7628 116.71 60.3158 116.157 60.9986 116.157C61.6813 116.157 62.2343 115.604 62.2343 114.921C62.2343 114.238 61.6813 113.685 60.9986 113.685C58.9535 113.685 57.2914 115.348 57.2914 117.393C57.2914 119.438 58.9535 121.1 60.9986 121.1C64.406 121.1 67.1771 118.329 67.1771 114.921C67.1771 113.63 66.7786 112.428 66.0959 111.436C67.0875 111.523 68.073 111.631 69.0554 111.767ZM59.7628 108.758C58.2769 108.789 56.8002 108.872 55.3328 109.005C54.6655 107.754 54.1002 106.327 53.6461 104.773C55.6294 104.238 57.6807 103.92 59.7628 103.831V108.758ZM52.7193 109.305C50.529 109.605 48.3634 110.022 46.2287 110.559C45.8518 109.935 45.5058 109.286 45.1845 108.622C47.0906 107.346 49.1419 106.302 51.2951 105.517C51.6936 106.874 52.1694 108.143 52.7193 109.305ZM43.7573 111.23C42.7842 111.52 41.8172 111.832 40.8595 112.172C41.5886 111.44 42.3578 110.751 43.158 110.108C43.3495 110.488 43.5472 110.862 43.7573 111.233V111.23ZM40.1181 115.082C40.9893 114.745 41.8666 114.43 42.7502 114.137C42.5586 115.209 42.4629 116.296 42.4629 117.39C42.4629 118.004 42.4938 118.619 42.5556 119.228C41.6597 118.465 40.807 117.646 40.0069 116.772C40.0224 116.206 40.0594 115.641 40.1212 115.079L40.1181 115.082ZM45.4348 121.387C45.1011 120.083 44.9312 118.743 44.9312 117.393C44.9312 116.043 45.1073 114.64 45.4564 113.315C45.617 113.272 45.7777 113.228 45.9414 113.185C45.9723 113.179 46.0001 113.17 46.031 113.16C46.7755 112.963 47.5262 112.774 48.2769 112.607C47.7054 114.127 47.4026 115.746 47.4026 117.393C47.4026 119.444 47.8629 121.436 48.7248 123.244C47.588 122.7 46.4882 122.079 45.4317 121.39L45.4348 121.387ZM81.9995 115.131C82.3486 115.267 82.7008 115.406 83.0498 115.548C82.6853 115.996 82.3053 116.432 81.913 116.855C81.9655 116.284 81.9933 115.709 81.9995 115.131ZM78.2367 111.23C78.4437 110.862 78.6445 110.485 78.8361 110.105C79.6362 110.751 80.4054 111.436 81.1376 112.169C80.1768 111.829 79.213 111.517 78.2398 111.226L78.2367 111.23ZM75.7684 110.559C75.753 110.556 75.7375 110.55 75.7221 110.547C73.8747 110.083 72.0057 109.71 70.115 109.425C70.1058 109.425 70.0965 109.425 70.0841 109.422C69.8154 109.382 69.5466 109.342 69.2778 109.308C69.8277 108.149 70.3035 106.877 70.702 105.521C72.8552 106.305 74.9096 107.349 76.8126 108.625C76.4913 109.289 76.1422 109.935 75.7684 110.562V110.559ZM66.6612 109.008C65.1938 108.872 63.7171 108.789 62.2312 108.761V103.834C64.3134 103.926 66.3646 104.245 68.348 104.776C67.8938 106.33 67.3285 107.76 66.6612 109.008ZM32.5772 29.7127C35.478 29.9753 38.2182 31.1616 40.4023 33.1202C40.6371 33.3302 40.9306 33.4353 41.2272 33.4353C41.5237 33.4353 41.8172 33.3302 42.052 33.1202C44.2361 31.1647 46.9763 29.9784 49.8772 29.7127V32.1996C47.4799 32.4652 45.2401 33.494 43.4669 35.1714C42.7687 35.8356 41.9346 36.7624 41.2272 37.9394C40.5197 36.7624 39.6887 35.8356 38.9874 35.1714C37.2142 33.4971 34.9745 32.4652 32.5772 32.1996V29.7127ZM41.2272 17.3C45.997 17.3 49.8772 21.1801 49.8772 25.9499V27.2351C46.723 27.4761 43.7171 28.6407 41.2272 30.59C38.7372 28.6407 35.7313 27.4791 32.5772 27.2351V25.9499C32.5772 21.1801 36.4573 17.3 41.2272 17.3ZM16.9701 81.5724C17.2266 81.5632 17.4861 81.557 17.7456 81.557C22.3918 81.557 26.8435 82.9781 30.6217 85.6626C33.0097 87.3587 35.061 89.5428 36.6149 92.0235C33.7851 93.2777 30.77 93.9141 27.6312 93.9141C27.6004 93.9141 27.5664 93.9141 27.5355 93.9141C26.8064 92.2243 25.9816 90.5715 25.0517 88.9682C25.0301 88.928 25.0054 88.8909 24.9776 88.857C23.0684 85.607 20.1984 83.0893 16.8342 81.5817C16.8806 81.5817 16.9238 81.5755 16.9701 81.5724ZM26.3832 126.67C26.3801 126.654 26.3708 126.639 26.3646 126.623C26.3616 126.608 26.3585 126.596 26.3554 126.58C25.4935 124.118 24.9281 121.239 24.4524 118.282C26.9362 122.2 30.0471 125.709 33.6677 128.665C31.8419 129.762 30.0749 130.973 28.3912 132.283C27.5756 130.488 26.9053 128.613 26.3832 126.67ZM21.1994 101.891C20.461 99.3142 19.4755 96.8551 18.2553 94.535C20.6711 95.5267 23.2352 96.1322 25.8549 96.3207C26.6427 98.3472 27.2822 100.432 27.7641 102.561C27.7208 102.561 27.6745 102.561 27.6312 102.561C25.4626 102.561 23.3032 102.332 21.1963 101.888L21.1994 101.891ZM9.20061 83.2715C9.82773 83.0089 10.4641 82.7711 11.1098 82.5703C16.0372 83.0831 20.4363 85.9221 22.9108 90.2101C22.9325 90.2471 22.9572 90.2842 22.9819 90.3213C23.6214 91.4334 24.2114 92.5703 24.749 93.7287C21.5732 93.3148 18.5179 92.2181 15.7993 90.5066C13.9365 87.8406 11.7276 85.4124 9.20061 83.2715ZM60.9986 134.578C62.0273 135.768 62.9355 137.062 63.6986 138.44C64.1187 139.197 64.4925 139.978 64.8231 140.782C63.0375 143.272 61.7431 146.101 61.0356 149.092C61.0202 149.144 61.0078 149.203 60.9955 149.259C60.9831 149.203 60.9708 149.147 60.9553 149.092C60.251 146.104 58.9535 143.272 57.1678 140.782C57.4984 139.981 57.8722 139.2 58.2923 138.44C59.0585 137.062 59.9636 135.768 60.9924 134.578H60.9986ZM71.187 151.761C71.8975 150.374 72.7656 149.095 73.7789 147.936C73.7604 148.956 73.6708 149.975 73.504 150.989C72.7409 151.273 71.9686 151.529 71.187 151.761ZM76.1731 145.644C76.4079 145.456 76.6458 145.27 76.8898 145.094C77.8815 144.371 78.9473 143.747 80.0625 143.228C80.3838 144.418 80.5908 145.635 80.6773 146.861C80.6896 147.016 80.6958 147.173 80.702 147.328C79.2408 148.292 77.7147 149.144 76.136 149.879C76.275 148.468 76.2905 147.05 76.1731 145.638V145.644ZM68.9782 150.652C68.9998 150.405 69.0152 150.158 69.0245 149.91C69.0276 149.784 69.0307 149.651 69.0307 149.521C69.0307 149.391 69.0307 149.259 69.0245 149.147C68.9874 146.435 68.5055 143.741 67.622 141.192C67.8012 140.973 67.9803 140.757 68.1688 140.547C69.1141 139.481 70.1645 138.511 71.3013 137.655C71.9717 138.909 72.5123 140.232 72.9201 141.6C73.2136 142.583 73.4298 143.599 73.575 144.628C71.6875 146.348 70.1459 148.372 68.9782 150.655V150.652ZM66.5531 149.194C66.5531 149.302 66.5593 149.41 66.5593 149.521C66.5593 149.632 66.5593 149.74 66.5531 149.842C66.5222 150.887 66.3368 151.909 66.0063 152.888C65.0764 153.018 64.1404 153.114 63.1981 153.17C63.0869 152.209 63.1209 151.239 63.3063 150.284L63.3186 150.219C63.3341 150.142 63.3495 150.065 63.368 149.988L63.3773 149.947C63.3958 149.867 63.4144 149.784 63.436 149.703L63.4453 149.669C63.9334 147.59 64.7428 145.598 65.8271 143.766C66.2843 145.533 66.5345 147.356 66.5593 149.194H66.5531ZM58.5549 149.673L58.5642 149.706C58.5858 149.784 58.6044 149.867 58.6229 149.951L58.6322 149.994C58.6507 150.068 58.6662 150.148 58.6816 150.222L58.694 150.275C58.8793 151.239 58.9133 152.212 58.8021 153.173C57.8598 153.114 56.9238 153.021 55.9939 152.892C55.6634 151.912 55.478 150.893 55.4471 149.852C55.4471 149.744 55.4409 149.635 55.4409 149.524C55.4409 149.413 55.4409 149.305 55.4471 149.181C55.4718 147.352 55.7221 145.533 56.1793 143.769C57.2636 145.601 58.073 147.597 58.5611 149.673H58.5549ZM48.4932 150.989C48.3263 149.978 48.2337 148.959 48.2182 147.936C49.2346 149.095 50.0996 150.374 50.8101 151.761C50.0285 151.529 49.2562 151.273 48.4932 150.989ZM52.9726 149.132C52.9695 149.259 52.9664 149.391 52.9664 149.521C52.9664 149.651 52.9664 149.784 52.9726 149.917C52.9788 150.164 52.9973 150.408 53.0189 150.652C51.8512 148.369 50.3096 146.345 48.4221 144.625C48.5673 143.599 48.7835 142.583 49.077 141.597C49.4848 140.229 50.0254 138.906 50.6958 137.652C51.8358 138.508 52.8861 139.478 53.8283 140.544C54.0137 140.754 54.196 140.97 54.3751 141.189C53.4885 143.738 53.0097 146.429 52.9726 149.132ZM45.8549 149.886C44.2763 149.147 42.7502 148.295 41.289 147.334C41.2951 147.176 41.3044 147.022 41.3137 146.867C41.4002 145.638 41.6071 144.421 41.9284 143.231C43.0468 143.747 44.1095 144.374 45.1042 145.097C45.3452 145.273 45.5831 145.456 45.8178 145.644C45.7004 147.056 45.7128 148.474 45.8549 149.886ZM88.2367 140.689C88.2213 140.707 88.2058 140.723 88.1935 140.741C86.6272 142.561 84.9003 144.201 83.0437 145.653C82.8614 144.124 82.5154 142.617 82.0118 141.158C81.9037 140.843 81.6689 140.584 81.3662 140.442C81.0634 140.3 80.7174 140.287 80.4054 140.405C78.765 141.029 77.2111 141.854 75.7808 142.851C75.6448 142.187 75.4811 141.532 75.2896 140.887C74.6964 138.888 73.8407 136.979 72.7502 135.209C72.5741 134.924 72.293 134.723 71.9655 134.649C71.6411 134.578 71.2982 134.64 71.0171 134.825C69.3829 135.904 67.8907 137.179 66.5747 138.619C66.3523 138.149 66.1144 137.689 65.8611 137.235C64.7767 135.28 63.4391 133.479 61.8852 131.878C61.8821 131.875 61.8759 131.872 61.8728 131.866C61.8697 131.86 61.8666 131.857 61.8605 131.854C61.8358 131.829 61.8049 131.81 61.7771 131.789C61.7431 131.761 61.7122 131.733 61.6782 131.708C61.6442 131.687 61.6102 131.671 61.5763 131.653C61.5392 131.634 61.5021 131.609 61.462 131.594C61.428 131.579 61.3909 131.572 61.3538 131.56C61.3137 131.548 61.2735 131.535 61.2333 131.526C61.1963 131.52 61.1592 131.517 61.1252 131.514C61.082 131.511 61.0418 131.504 60.9986 131.504C60.9615 131.504 60.9275 131.511 60.8904 131.514C60.8472 131.517 60.807 131.52 60.7638 131.529C60.7267 131.535 60.6927 131.548 60.6587 131.56C60.6186 131.572 60.5753 131.582 60.5383 131.597C60.5043 131.613 60.4703 131.631 60.4363 131.65C60.3992 131.668 60.3622 131.687 60.3251 131.711C60.2911 131.733 60.2602 131.761 60.2293 131.789C60.2015 131.81 60.1706 131.832 60.1428 131.857C60.1397 131.86 60.1367 131.866 60.1305 131.869C60.1243 131.872 60.1212 131.875 60.1181 131.881C58.5642 133.482 57.2266 135.283 56.1422 137.238C55.8889 137.692 55.651 138.156 55.4286 138.622C54.1126 137.183 52.6204 135.907 50.9862 134.829C50.7082 134.646 50.3653 134.581 50.0378 134.652C49.7103 134.723 49.4292 134.927 49.2531 135.212C48.1626 136.982 47.31 138.891 46.7137 140.887C46.5222 141.532 46.3585 142.187 46.2225 142.851C44.7891 141.85 43.2383 141.026 41.5979 140.405C41.2859 140.287 40.9399 140.3 40.6371 140.442C40.3344 140.584 40.1027 140.84 39.9915 141.158C39.4879 142.617 39.1419 144.124 38.9596 145.653C37.103 144.201 35.373 142.564 33.8098 140.741C33.7975 140.723 33.782 140.704 33.7666 140.689C32.1262 138.777 30.7113 136.719 29.525 134.538C31.706 132.805 34.0384 131.248 36.4697 129.901C36.516 129.876 36.5562 129.842 36.5994 129.812C36.6211 129.796 36.6427 129.784 36.6643 129.768C36.7354 129.71 36.7971 129.642 36.8527 129.571L36.8589 129.564C36.8744 129.543 36.8836 129.518 36.8991 129.496C36.9269 129.453 36.9547 129.41 36.9763 129.367C36.9949 129.333 37.0041 129.296 37.0196 129.259C37.035 129.221 37.0505 129.184 37.0597 129.144C37.069 129.104 37.0752 129.064 37.0814 129.024C37.0875 128.987 37.0968 128.947 37.0968 128.909C37.0968 128.869 37.0968 128.832 37.0968 128.792C37.0968 128.752 37.0968 128.712 37.0906 128.669C37.0844 128.628 37.0752 128.591 37.0659 128.551C37.0566 128.514 37.0505 128.474 37.0381 128.437C37.0227 128.39 37.001 128.347 36.9794 128.301C36.9671 128.276 36.9609 128.248 36.9454 128.224C36.9454 128.221 36.9392 128.217 36.9392 128.214C36.9145 128.171 36.8836 128.134 36.8558 128.094C36.8342 128.066 36.8188 128.035 36.7971 128.01C36.7755 127.986 36.7508 127.967 36.7292 127.946C36.6921 127.909 36.655 127.871 36.6149 127.841C36.6118 127.841 36.6087 127.834 36.6056 127.831C30.7051 123.42 26.1082 117.504 23.3032 110.723C22.9541 108.601 22.5494 106.515 22.0149 104.563C23.8654 104.875 25.7468 105.036 27.6343 105.036C28.1873 105.036 28.7619 105.02 29.3427 104.992C29.3705 104.992 29.3952 104.983 29.4199 104.98C29.4508 104.977 29.4817 104.98 29.5126 104.971C29.525 104.971 29.5373 104.961 29.5497 104.961C29.5929 104.952 29.6362 104.937 29.6763 104.924C29.7134 104.912 29.7505 104.9 29.7845 104.884C29.8216 104.869 29.8555 104.847 29.8926 104.825C29.9266 104.807 29.9637 104.785 29.9945 104.764C30.0254 104.742 30.0532 104.717 30.0841 104.69C30.115 104.662 30.1459 104.637 30.1737 104.606C30.2015 104.578 30.2232 104.547 30.2479 104.517C30.2726 104.486 30.2973 104.455 30.3189 104.421C30.3405 104.387 30.356 104.353 30.3745 104.316C30.3931 104.282 30.4116 104.245 30.427 104.208C30.4425 104.171 30.4518 104.133 30.4641 104.096C30.4765 104.056 30.4857 104.019 30.495 103.976C30.5012 103.939 30.5043 103.899 30.5074 103.862C30.5105 103.818 30.5135 103.775 30.5135 103.732C30.5135 103.719 30.5135 103.707 30.5135 103.692C30.5135 103.661 30.5043 103.633 30.5012 103.605C30.4981 103.577 30.5012 103.55 30.495 103.522C30.0254 101.078 29.3612 98.687 28.5148 96.367C32.1385 96.2372 35.7221 95.3074 38.9287 93.6546C38.9318 93.6546 38.9349 93.6515 38.938 93.6484C38.9442 93.6484 38.9504 93.6422 38.9565 93.6391C38.9905 93.6206 39.0183 93.5959 39.0492 93.5774C39.0832 93.5557 39.1203 93.5341 39.1512 93.5063C39.1821 93.4785 39.2099 93.4476 39.2408 93.4198C39.2686 93.392 39.2995 93.3642 39.3242 93.3333C39.3489 93.3024 39.3705 93.2654 39.3921 93.2314C39.4138 93.2005 39.4354 93.1665 39.4539 93.1325C39.4725 93.0954 39.4848 93.0584 39.5003 93.0213C39.5157 92.9842 39.5312 92.9502 39.5435 92.9132C39.5559 92.8761 39.562 92.8359 39.5682 92.7958C39.5775 92.7587 39.5868 92.7186 39.5899 92.6815C39.5929 92.6413 39.5899 92.6012 39.5899 92.561C39.5899 92.5208 39.5929 92.4807 39.5899 92.4405C39.5868 92.4004 39.5775 92.3602 39.5682 92.32C39.562 92.2799 39.5559 92.2428 39.5435 92.2026C39.5312 92.1625 39.5126 92.1223 39.4972 92.0822C39.4848 92.0482 39.4755 92.0142 39.457 91.9833C39.457 91.9802 39.4508 91.974 39.4477 91.9709C39.4477 91.9648 39.4447 91.9617 39.4416 91.9555C37.7548 88.8693 35.3884 86.1353 32.571 84.0191V34.6864C34.3319 34.9367 35.9723 35.7244 37.2822 36.9632C38.6229 38.236 39.5991 39.7899 40.0316 41.3377C40.1799 41.8721 40.668 42.2428 41.221 42.2428C41.774 42.2428 42.2621 41.8721 42.4104 41.3377C42.8429 39.7899 43.8191 38.236 45.1598 36.9632C46.4697 35.7244 48.1101 34.9367 49.871 34.6864V95.1498C49.871 97.9178 50.1552 100.618 50.6835 103.111C48.4036 103.92 46.2256 104.995 44.1929 106.311C43.3124 103.93 42.7533 101.372 42.5494 98.721C42.4969 98.0414 41.9006 97.5347 41.221 97.5842C40.5414 97.6367 40.0316 98.2329 40.0841 98.9126C40.3251 102.02 41.014 105.017 42.1107 107.785C40.2201 109.243 38.4901 110.921 36.9671 112.805C35.7653 110.911 34.7922 108.888 34.0724 106.759C33.9241 106.243 33.4484 105.863 32.883 105.863C32.3949 105.863 31.9501 106.154 31.7523 106.599C31.6226 106.892 31.6133 107.22 31.7184 107.513C32.6946 110.398 34.0909 113.114 35.8704 115.592C35.8796 115.607 35.8858 115.619 35.8951 115.635C35.9198 115.669 35.9445 115.7 35.9692 115.734C35.9785 115.746 35.9847 115.755 35.9908 115.768C38.0915 118.659 40.6587 121.124 43.5441 123.095C43.6245 123.166 43.714 123.231 43.8098 123.278C46.1793 124.863 48.7588 126.114 51.4712 126.994C51.5948 127.059 51.7245 127.099 51.8605 127.121C54.7891 128.032 57.8629 128.514 60.9924 128.514C64.7119 128.514 68.3572 127.834 71.7678 126.562C71.9037 126.537 72.0304 126.484 72.1539 126.413C75.2371 125.215 78.1193 123.528 80.6804 121.412C80.7576 121.359 80.8317 121.301 80.8997 121.233C82.7965 119.639 84.5142 117.81 85.997 115.768C86.0063 115.755 86.0125 115.743 86.0217 115.734C86.0464 115.7 86.0712 115.669 86.099 115.632C86.1082 115.616 86.1144 115.604 86.1237 115.588C87.9 113.114 89.2964 110.398 90.2695 107.516C90.3714 107.223 90.3652 106.895 90.2355 106.602C90.0378 106.154 89.5929 105.867 89.1048 105.867C88.5395 105.867 88.0637 106.243 87.9155 106.762C87.1926 108.888 86.2194 110.914 85.0208 112.808C83.4978 110.927 81.7647 109.246 79.8771 107.788C80.9707 105.02 81.6628 102.023 81.9037 98.9156C81.9562 98.236 81.4465 97.6398 80.7669 97.5873C80.0841 97.5378 79.491 98.0445 79.4385 98.7241C79.2315 101.375 78.6723 103.933 77.795 106.314C75.7653 104.998 73.5843 103.926 71.3044 103.114C71.8327 100.618 72.1169 97.9209 72.1169 95.1529V34.6864C73.8778 34.9367 75.5182 35.7244 76.828 36.9632C78.1688 38.236 79.145 39.7899 79.5775 41.3377C79.7258 41.8721 80.2139 42.2428 80.7669 42.2428C81.3198 42.2428 81.8079 41.8721 81.9562 41.3377C82.3887 39.7899 83.3649 38.236 84.7057 36.9632C86.0155 35.7244 87.656 34.9367 89.4168 34.6864V84.0284C86.5994 86.1446 84.233 88.8786 82.5463 91.9648C82.5463 91.9709 82.5432 91.974 82.5401 91.9802C82.5401 91.9833 82.5339 91.9895 82.5308 91.9926C82.5154 92.0235 82.5061 92.0574 82.4907 92.0914C82.4752 92.1316 82.4567 92.1717 82.4443 92.2119C82.432 92.249 82.4289 92.2891 82.4196 92.3293C82.4104 92.3695 82.4011 92.4096 82.398 92.4529C82.3949 92.493 82.398 92.5332 82.398 92.5703C82.398 92.6104 82.398 92.6506 82.398 92.6908C82.4011 92.7309 82.4134 92.768 82.4196 92.805C82.4289 92.8452 82.432 92.8823 82.4443 92.9224C82.4567 92.9595 82.4721 92.9935 82.4876 93.0306C82.503 93.0676 82.5154 93.1047 82.5339 93.1418C82.5525 93.1758 82.5741 93.2067 82.5957 93.2375C82.6173 93.2715 82.639 93.3055 82.6637 93.3395C82.6884 93.3704 82.7193 93.3951 82.7471 93.426C82.7749 93.4569 82.8027 93.4847 82.8367 93.5125C82.8676 93.5372 82.9046 93.5588 82.9386 93.5835C82.9695 93.6052 82.9973 93.6299 83.0313 93.6453C83.0375 93.6484 83.0437 93.6515 83.0498 93.6546C83.0529 93.6546 83.056 93.6577 83.0591 93.6608C86.2658 95.3135 89.8493 96.2403 93.4731 96.3732C92.6266 98.6963 91.9624 101.084 91.4928 103.528C91.4867 103.556 91.4898 103.584 91.4867 103.611C91.4836 103.639 91.4743 103.667 91.4743 103.698C91.4743 103.71 91.4743 103.723 91.4743 103.738C91.4743 103.781 91.4743 103.825 91.4805 103.868C91.4836 103.908 91.4867 103.945 91.4928 103.982C91.499 104.022 91.5114 104.062 91.5237 104.103C91.5361 104.14 91.5453 104.18 91.5608 104.214C91.5762 104.251 91.5948 104.285 91.6133 104.322C91.6319 104.356 91.6473 104.393 91.6689 104.427C91.6906 104.461 91.7153 104.492 91.74 104.523C91.7647 104.554 91.7863 104.584 91.8141 104.612C91.8419 104.643 91.8728 104.668 91.9037 104.696C91.9315 104.72 91.9624 104.745 91.9933 104.77C92.0242 104.791 92.0613 104.813 92.0952 104.832C92.1292 104.853 92.1663 104.872 92.2034 104.89C92.2374 104.906 92.2744 104.918 92.3115 104.93C92.3547 104.946 92.3949 104.958 92.4382 104.968C92.4505 104.968 92.4629 104.977 92.4752 104.977C92.5061 104.983 92.537 104.983 92.5679 104.986C92.5926 104.986 92.6204 104.995 92.6451 104.998C93.2259 105.029 93.8036 105.042 94.3535 105.042C96.2411 105.042 98.1224 104.881 99.9729 104.569C99.4416 106.518 99.0338 108.604 98.6878 110.729C95.8827 117.51 91.2828 123.423 85.3853 127.837C85.3822 127.837 85.3792 127.844 85.3761 127.847C85.3359 127.878 85.2988 127.915 85.2618 127.952C85.2401 127.973 85.2154 127.992 85.1938 128.017C85.1722 128.041 85.1536 128.072 85.132 128.1C85.1042 128.14 85.0733 128.177 85.0486 128.221C85.0486 128.224 85.0424 128.227 85.0424 128.23C85.0301 128.255 85.0208 128.282 85.0084 128.307C84.9868 128.35 84.9652 128.397 84.9497 128.443C84.9374 128.48 84.9312 128.52 84.9219 128.557C84.9127 128.597 84.9034 128.635 84.8972 128.675C84.891 128.715 84.891 128.755 84.891 128.798C84.891 128.838 84.888 128.875 84.891 128.916C84.891 128.956 84.9003 128.993 84.9065 129.03C84.9127 129.07 84.9188 129.11 84.9281 129.15C84.9374 129.191 84.9559 129.228 84.9683 129.265C84.9806 129.302 84.993 129.339 85.0115 129.373C85.0332 129.419 85.061 129.459 85.0888 129.503C85.1042 129.524 85.1135 129.549 85.1289 129.571L85.1351 129.577C85.1907 129.648 85.2525 129.716 85.3235 129.774C85.3452 129.793 85.3668 129.802 85.3884 129.818C85.4317 129.849 85.4718 129.883 85.5182 129.907C87.9494 131.254 90.2818 132.811 92.4629 134.544C91.2766 136.725 89.8617 138.783 88.2213 140.695L88.2367 140.689ZM106.198 90.5035C103.479 92.215 100.424 93.3117 97.2482 93.7226C97.7857 92.5641 98.3758 91.4272 99.0152 90.3151C99.0399 90.2811 99.0647 90.244 99.0863 90.2039C101.561 85.9159 105.96 83.0769 110.887 82.5641C111.533 82.768 112.169 83.0028 112.797 83.2654C110.269 85.4062 108.061 87.8344 106.198 90.5005V90.5035ZM86.5623 66.4164C86.828 66.1816 86.9794 65.8449 86.9794 65.4927C86.9794 65.1405 86.828 64.8007 86.5623 64.569C83.7079 62.042 82.0057 57.7695 82.0057 53.1356C82.0057 52.4529 81.4527 51.8999 80.77 51.8999C80.0872 51.8999 79.5342 52.4529 79.5342 53.1356C79.5342 57.7664 77.832 62.042 74.9775 64.569C74.7119 64.8038 74.5605 65.1405 74.5605 65.4927C74.5605 65.8449 74.7119 66.1847 74.9775 66.4164C77.832 68.9435 79.5342 73.2159 79.5342 77.8498C79.5342 78.5326 80.0872 79.0856 80.77 79.0856C81.4527 79.0856 82.0057 78.5326 82.0057 77.8498C82.0057 73.219 83.7079 68.9435 86.5623 66.4164ZM80.77 70.831C80.01 68.7921 78.9226 66.9694 77.5602 65.4927C78.9226 64.0191 80.0131 62.1934 80.77 60.1545C81.5299 62.1934 82.6173 64.0161 83.9797 65.4927C82.6173 66.9663 81.5268 68.7921 80.77 70.831ZM62.2343 40.7785C62.2343 40.0958 61.6813 39.5428 60.9986 39.5428C60.3158 39.5428 59.7628 40.0958 59.7628 40.7785C59.7628 48.4862 57.9989 55.6132 55.0486 59.8424C54.752 60.2688 54.752 60.831 55.0486 61.2573C58.002 65.4865 59.7628 72.6135 59.7628 80.3213C59.7628 81.004 60.3158 81.557 60.9986 81.557C61.6813 81.557 62.2343 81.004 62.2343 80.3213C62.2343 72.6135 63.9982 65.4865 66.9485 61.2573C67.2451 60.831 67.2451 60.2688 66.9485 59.8424C63.9952 55.6132 62.2343 48.4862 62.2343 40.7785ZM60.9986 69.2864C60.1953 65.8943 59.0214 62.8946 57.5447 60.5499C59.0214 58.2082 60.1953 55.2054 60.9986 51.8134C61.8018 55.2054 62.9757 58.2051 64.4524 60.5499C62.9757 62.8916 61.8018 65.8943 60.9986 69.2864ZM62.5432 32.1285C64.2608 32.1285 65.9229 31.625 67.3501 30.6673C67.8197 30.3522 68.0143 29.759 67.8259 29.2277C67.6374 28.6963 67.1153 28.3565 66.55 28.409C66.4511 28.4183 66.3523 28.4183 66.2503 28.4183C63.5256 28.4183 61.3075 26.2002 61.3075 23.4754C61.3075 20.7507 63.5256 18.5326 66.2503 18.5326C66.3523 18.5326 66.4511 18.5326 66.55 18.5419C67.1122 18.5975 67.6374 18.2576 67.8259 17.7232C68.0143 17.1888 67.8166 16.5987 67.3501 16.2836C65.9229 15.329 64.2608 14.8224 62.5432 14.8224C57.7733 14.8224 53.8932 18.7025 53.8932 23.4723C53.8932 28.2422 57.7733 32.1223 62.5432 32.1223V32.1285ZM62.1354 17.3123C60.1459 18.6438 58.8361 20.9113 58.8361 23.4785C58.8361 26.0457 60.149 28.3132 62.1354 29.6447C58.9164 29.4347 56.3646 26.7501 56.3646 23.4785C56.3646 20.207 58.9195 17.5224 62.1354 17.3123Z"
    fill="#DCB2C1"
  />
</svg>
