<svg
  viewBox="0 0 480 480"
  fill="none"
  xmlns="http://www.w3.org/2000/svg"
>
  <g clip-path="url(#clip0_266_2328)">
    <path
      d="M240 480C372.548 480 480 372.548 480 240C480 107.452 372.548 0 240 0C107.452 0 0 107.452 0 240C0 372.548 107.452 480 240 480Z"
      fill="#572839"
    />
    <path
      d="M240 395.897C326.1 395.897 395.897 326.1 395.897 240C395.897 153.9 326.1 84.1026 240 84.1026C153.9 84.1026 84.1025 153.9 84.1025 240C84.1025 326.1 153.9 395.897 240 395.897Z"
      fill="#853D57"
    />
    <path
      d="M119.282 274.021C114.641 280.333 109.287 287.605 103.179 294.831C107.062 303.462 110.2 311.928 112.918 319.272C113.836 321.754 114.708 324.097 115.518 326.215L121.4 341.533L106.082 347.415C103.964 348.226 101.641 349.154 99.1846 350.128C91.9026 353.021 83.5077 356.359 74.4974 359.246C73.2205 368.621 71.3949 377.467 69.8051 385.133C69.2718 387.728 68.7641 390.174 68.3333 392.4L65.8564 405.149C25.0359 362.123 0 303.99 0 240C0 200.031 9.76923 162.344 27.0564 129.2L32.9744 140.821C34.0051 142.841 35.1641 145.056 36.3949 147.4C40.0359 154.333 44.2256 162.333 48.041 170.99C57.4974 171.287 66.4872 172.18 74.2821 172.954C76.9128 173.215 79.4 173.462 81.6615 173.656L98.0051 175.087L96.5795 191.436C96.3795 193.692 96.1897 196.185 95.9897 198.826C95.4 206.636 94.718 215.641 93.3641 225.005C101.231 230.267 108.379 235.785 114.579 240.574C116.672 242.19 118.651 243.718 120.462 245.082L133.569 254.959L123.692 268.062C122.328 269.872 120.846 271.887 119.282 274.021Z"
      fill="#DCB2C1"
    />
    <path
      d="M480 240C480 303.99 454.964 362.123 414.144 405.149L411.667 392.4C411.236 390.174 410.728 387.728 410.195 385.133C408.605 377.467 406.779 368.621 405.502 359.246C396.492 356.359 388.097 353.021 380.815 350.128C378.359 349.154 376.036 348.226 373.918 347.415L358.6 341.533L364.482 326.215C365.292 324.097 366.164 321.754 367.082 319.272C369.8 311.928 372.938 303.462 376.82 294.831C370.713 287.605 365.359 280.333 360.718 274.021C359.154 271.887 357.672 269.872 356.308 268.062L346.431 254.959L359.538 245.082C361.349 243.718 363.328 242.19 365.42 240.574C371.62 235.785 378.769 230.267 386.636 225.005C385.282 215.641 384.6 206.636 384.01 198.826C383.81 196.185 383.62 193.692 383.42 191.436L381.995 175.087L398.338 173.656C400.6 173.462 403.087 173.215 405.718 172.954C413.513 172.18 422.502 171.287 431.959 170.99C435.774 162.333 439.964 154.333 443.605 147.4C444.836 145.056 445.995 142.841 447.026 140.821L452.943 129.2C470.231 162.344 480 200.031 480 240Z"
      fill="#DCB2C1"
    />
    <path
      d="M451.774 126.979L445.195 139.892C444.159 141.928 442.954 144.226 441.79 146.446C438.272 153.154 434.303 160.713 430.605 168.985C421.554 169.318 413.056 170.159 405.513 170.913L405.374 170.923C402.8 171.179 400.364 171.42 398.164 171.615L383.092 172.933C379.251 164.749 374.692 156.887 369.446 149.426C364.205 141.959 358.272 134.897 351.687 128.313C321.856 98.482 282.19 82.0513 240 82.0513C197.81 82.0513 158.144 98.482 128.313 128.313C115.144 141.482 104.59 156.564 96.9077 172.933L81.8359 171.615C79.6359 171.42 77.2 171.179 74.6257 170.923L74.4872 170.913C66.9436 170.159 58.4462 169.318 49.3949 168.985C45.6975 160.713 41.7282 153.154 38.2103 146.446C37.0462 144.226 35.8411 141.928 34.8052 139.892L28.2257 126.979C27.4308 128.462 26.6564 129.949 25.8975 131.446L31.1487 141.754C32.2 143.81 33.4103 146.118 34.5795 148.349C38.2308 155.318 42.3744 163.21 46.1641 171.82C46.4821 172.544 47.1898 173.015 47.9795 173.041C57.3693 173.333 66.2462 174.215 74.077 174.995L74.2205 175.005C76.8103 175.267 79.2513 175.508 81.4821 175.703L95.7846 176.954L94.5334 191.256C94.3334 193.574 94.1334 196.164 93.9487 198.672C93.3539 206.513 92.6821 215.405 91.3334 224.713C91.2205 225.497 91.5693 226.272 92.2257 226.713C100.046 231.944 107.103 237.39 113.328 242.195L113.385 242.241C115.462 243.846 117.426 245.364 119.226 246.718L130.692 255.364L122.051 266.831C120.672 268.662 119.195 270.672 117.626 272.805C112.964 279.144 107.682 286.333 101.61 293.508C101.103 294.108 100.985 294.954 101.308 295.672C105.164 304.236 108.262 312.605 110.995 319.985C111.872 322.354 112.78 324.8 113.605 326.949L118.749 340.354L105.344 345.503C103.241 346.308 100.938 347.226 98.5026 348.195L98.4257 348.22C91.1128 351.128 82.8257 354.42 73.8718 357.292C73.118 357.533 72.5744 358.185 72.4667 358.969C71.1949 368.282 69.3898 377.015 67.8 384.718C67.2872 387.19 66.759 389.738 66.318 392.01L64.1231 403.303C65.2616 404.533 66.4205 405.754 67.5898 406.959L70.3487 392.79C70.7846 390.549 71.3077 388.005 71.8154 385.549C73.3487 378.133 75.077 369.769 76.3539 360.8C84.9641 357.99 92.8975 354.831 99.9385 352.036L100.015 352.005C102.441 351.041 104.733 350.128 106.815 349.333L121.01 343.882C123.344 346.554 125.78 349.154 128.313 351.687C158.144 381.518 197.81 397.949 240 397.949C282.19 397.949 321.856 381.518 351.687 351.687C354.221 349.154 356.656 346.554 358.99 343.882L373.185 349.333C375.267 350.128 377.559 351.041 379.985 352.005L380.062 352.036C387.103 354.831 395.036 357.99 403.646 360.8C404.923 369.769 406.651 378.133 408.185 385.549C408.692 388.005 409.215 390.549 409.651 392.79L412.41 406.959C413.58 405.754 414.739 404.533 415.877 403.303L413.682 392.01C413.241 389.738 412.713 387.19 412.2 384.718C410.61 377.015 408.805 368.282 407.533 358.969C407.426 358.185 406.882 357.533 406.128 357.292C397.174 354.42 388.887 351.128 381.574 348.22L381.497 348.195C379.062 347.226 376.759 346.308 374.656 345.503L361.251 340.354L366.395 326.949C367.221 324.8 368.128 322.354 369.005 319.985C371.738 312.605 374.836 304.236 378.692 295.672C379.015 294.954 378.897 294.108 378.39 293.508C372.318 286.333 367.036 279.144 362.374 272.805C360.805 270.672 359.328 268.662 357.949 266.831L349.308 255.364L360.774 246.718C362.574 245.364 364.539 243.846 366.615 242.241L366.672 242.195C372.897 237.39 379.954 231.944 387.774 226.713C388.431 226.272 388.78 225.497 388.667 224.713C387.318 215.405 386.646 206.513 386.051 198.672C385.867 196.164 385.667 193.574 385.467 191.256L384.215 176.954L398.518 175.703C400.749 175.508 403.19 175.267 405.78 175.005L405.923 174.995C413.754 174.215 422.631 173.333 432.021 173.041C432.81 173.015 433.518 172.544 433.836 171.82C437.626 163.21 441.769 155.318 445.421 148.349C446.59 146.118 447.8 143.81 448.851 141.754L454.103 131.446C453.344 129.949 452.569 128.462 451.774 126.979ZM384.426 224.02C376.918 229.103 370.159 234.323 364.164 238.949L364.108 238.995C362.041 240.595 360.087 242.103 358.303 243.446L345.2 253.318C344.292 254 344.113 255.287 344.795 256.195L354.672 269.297C356.036 271.113 357.508 273.113 359.067 275.236C363.554 281.338 368.615 288.22 374.426 295.169C370.759 303.441 367.79 311.456 365.159 318.559C364.282 320.918 363.385 323.354 362.564 325.482L357.133 339.636C328.892 372.785 286.856 393.846 240 393.846C193.144 393.846 151.108 372.785 122.867 339.636L117.436 325.482C116.615 323.354 115.718 320.918 114.841 318.559C112.21 311.456 109.241 303.441 105.574 295.169C111.385 288.22 116.446 281.338 120.933 275.236C122.492 273.113 123.964 271.113 125.328 269.297L135.205 256.195C135.887 255.287 135.708 254 134.8 253.318L121.697 243.446C119.913 242.103 117.959 240.595 115.892 238.995L115.836 238.949C109.841 234.323 103.082 229.103 95.5744 224.02C96.8205 215.046 97.4667 206.533 98.0359 198.979C98.2257 196.487 98.4205 193.908 98.6205 191.615L99.959 176.318C124.221 123.174 177.867 86.1538 240 86.1538C302.133 86.1538 355.78 123.174 380.041 176.318L381.38 191.615C381.58 193.908 381.774 196.487 381.964 198.979C382.533 206.533 383.18 215.046 384.426 224.02Z"
      fill="#572839"
    />
    <path
      d="M9.86642 308.333C10.3741 310.051 10.9074 311.764 11.4562 313.467C19.1074 316.482 27.3536 318.097 35.7998 318.097C38.8562 318.097 41.9433 317.887 45.0408 317.451C48.3177 316.99 51.5023 316.164 54.6049 315.041C57.4869 324.231 58.0254 334.574 57.3844 344.882C46.4921 347.513 35.3126 348.785 25.0921 346.954C25.8408 348.462 26.61 349.954 27.3895 351.446C29.9844 351.764 32.6254 351.918 35.2921 351.918C42.4664 351.918 49.8254 350.846 57.0562 349.179C55.9946 360.749 53.6562 372.061 51.728 381.395C51.3331 383.303 50.9587 385.128 50.61 386.872C50.4459 386.841 50.2715 386.81 50.1074 386.779C51.1895 388.179 52.2869 389.569 53.3998 390.944C53.8203 390.651 54.1331 390.205 54.2408 389.667C54.6869 387.359 55.1998 384.867 55.7485 382.231C57.7792 372.39 60.2562 360.415 61.2664 348.144C73.1741 345.015 84.5331 340.503 93.8767 336.79C96.3741 335.795 98.7382 334.856 100.933 334.015C101.99 333.61 102.518 332.426 102.113 331.364C101.272 329.169 100.39 326.785 99.451 324.262C95.9639 314.836 91.7177 303.374 86.0716 292.431C94.5126 283.472 101.754 273.62 107.713 265.518C109.302 263.354 110.81 261.308 112.225 259.426C112.907 258.523 112.723 257.236 111.82 256.554C109.943 255.138 107.933 253.585 105.8 251.944C97.8459 245.795 88.1639 238.323 77.5792 232.036C79.9895 219.964 80.9177 207.774 81.6716 197.749C81.8767 195.067 82.0664 192.533 82.2716 190.19C82.369 189.062 81.5382 188.067 80.41 187.969C78.0664 187.764 75.5382 187.513 72.8613 187.246C62.8562 186.251 50.6921 185.041 38.3844 185.318C34.0254 173.805 28.3485 162.974 23.6818 154.072C22.4305 151.692 21.251 149.441 20.1844 147.344C19.9228 146.836 19.4767 146.482 18.9741 146.323C18.2767 147.969 17.5946 149.626 16.9331 151.292C17.1074 151.205 17.2869 151.113 17.4613 151.026C18.2767 152.605 19.1433 154.256 20.0459 155.979C24.4767 164.426 29.8408 174.651 34.0459 185.482C23.8921 186.015 13.8049 187.697 4.90745 191.477C4.56899 193.118 4.25104 194.769 3.94847 196.426C13.2613 191.856 24.3536 190 35.5433 189.518C38.9998 199.251 41.3382 209.344 41.0972 218.969C37.8049 218.749 34.5126 218.831 31.2357 219.292C19.6254 220.923 8.99463 225.544 0.117703 232.338C0.0612931 234.118 0.0253956 235.903 0.00488281 237.697C8.82027 230.174 19.7536 225.051 31.8049 223.354C34.7895 222.938 37.8049 222.862 40.8254 223.067C40.5023 226.082 39.9074 229.036 38.9741 231.903C36.6305 239.118 33.0408 245.667 28.5126 251.374C18.9126 251.087 9.36899 252.882 0.558729 256.595C0.656165 258.036 0.768985 259.477 0.892062 260.913C8.47155 257.518 16.6664 255.656 24.9792 255.456C18.5639 262.246 10.6869 267.533 1.95873 270.892C2.17411 272.574 2.41001 274.251 2.66129 275.923C11.9741 276.754 20.9998 279.656 29.0459 284.415C20.9895 286.513 12.5844 286.974 4.35873 285.8C4.63565 287.226 4.92283 288.641 5.2254 290.056C7.88181 290.374 10.5485 290.544 13.2203 290.544C20.1023 290.544 26.9792 289.482 33.5844 287.369C39.5074 291.605 44.7587 296.913 48.9998 303.2C50.6869 305.697 52.0767 308.374 53.2151 311.179C50.3639 312.21 47.451 312.969 44.4613 313.39C32.3792 315.087 20.4305 313.159 9.86129 308.333H9.86642ZM95.6049 325.682C96.2818 327.508 96.928 329.256 97.5587 330.918C95.9023 331.564 94.1639 332.256 92.3587 332.974C83.5023 336.497 72.769 340.759 61.5587 343.81C62.1023 333.395 61.4408 322.918 58.4203 313.492C67.4459 309.431 75.6716 302.913 83.051 295.538C88.2818 305.913 92.2921 316.744 95.6049 325.682ZM103.292 255.185C104.831 256.374 106.307 257.513 107.723 258.59C106.661 260.015 105.554 261.518 104.405 263.082C98.7587 270.769 91.9126 280.072 84.0254 288.6C78.9639 279.472 72.8459 270.938 65.2869 264.544C70.7895 256.318 74.3228 246.436 76.6716 236.272C86.6049 242.297 95.7485 249.354 103.292 255.185ZM39.8562 189.395C51.4715 189.241 62.9639 190.379 72.4562 191.323C74.3895 191.513 76.2459 191.697 78.0152 191.867C77.8716 193.636 77.728 195.497 77.5844 197.436C76.8613 206.944 75.9895 218.456 73.8203 229.872C64.6972 224.815 54.9895 220.82 45.1946 219.4C45.5023 209.508 43.251 199.256 39.8562 189.395ZM42.8869 233.164C43.9074 230.015 44.5639 226.79 44.9126 223.508C54.4357 224.944 63.969 229 72.9536 234.092C70.728 244.179 67.3536 253.969 62.0459 262.005C59.3792 260.077 56.5433 258.405 53.528 257.062C47.0254 254.169 40.2459 252.405 33.4305 251.697C37.4613 246.154 40.6869 239.933 42.8869 233.164ZM8.45104 272.538C16.8408 268.482 24.3331 262.703 30.3895 255.554C37.6613 256.005 44.928 257.723 51.8562 260.81C54.61 262.036 57.2049 263.564 59.6562 265.338C57.7844 267.723 55.7177 269.918 53.41 271.856C47.5998 276.728 41.0921 280.385 34.2305 282.82C26.4408 277.615 17.6357 274.123 8.45104 272.538ZM52.4049 300.903C48.4305 295.005 43.6203 289.913 38.2203 285.703C44.5741 283.138 50.5998 279.569 56.0459 275C58.5792 272.872 60.8459 270.477 62.8767 267.882C70.1946 274.144 76.1331 282.641 81.0562 291.723C73.8203 299.092 65.7741 305.62 57.0151 309.626C55.7792 306.569 54.2562 303.646 52.4049 300.903Z"
      fill="#572839"
    />
    <path
      d="M435.533 313.39C432.543 312.969 429.63 312.21 426.779 311.179C427.917 308.374 429.307 305.697 430.994 303.2C435.235 296.913 440.487 291.605 446.41 287.369C453.015 289.482 459.892 290.544 466.774 290.544C469.44 290.544 472.112 290.374 474.769 290.056C475.071 288.641 475.358 287.226 475.635 285.8C467.404 286.974 458.999 286.508 450.948 284.415C458.994 279.656 468.02 276.754 477.333 275.923C477.584 274.251 477.82 272.574 478.035 270.892C469.307 267.533 461.43 262.246 455.015 255.456C463.328 255.656 471.528 257.518 479.102 260.913C479.225 259.477 479.338 258.036 479.435 256.595C470.625 252.887 461.081 251.087 451.481 251.374C446.953 245.667 443.363 239.118 441.02 231.902C440.087 229.036 439.492 226.082 439.169 223.067C442.189 222.861 445.204 222.938 448.189 223.354C460.245 225.051 471.174 230.174 479.989 237.697C479.974 235.908 479.933 234.123 479.876 232.338C471.004 225.544 460.369 220.923 448.758 219.292C445.481 218.831 442.189 218.749 438.897 218.969C438.656 209.344 440.994 199.251 444.451 189.518C455.645 190 466.733 191.856 476.045 196.426C475.743 194.769 475.425 193.118 475.087 191.477C466.194 187.697 456.102 186.015 445.948 185.482C450.153 174.651 455.517 164.426 459.948 155.979C460.851 154.256 461.717 152.605 462.533 151.026C462.707 151.113 462.886 151.2 463.061 151.292C462.399 149.626 461.717 147.969 461.02 146.323C460.517 146.482 460.071 146.836 459.81 147.344C458.743 149.441 457.563 151.692 456.312 154.072C451.645 162.974 445.969 173.805 441.61 185.318C429.302 185.041 417.138 186.251 407.133 187.246C404.456 187.513 401.928 187.764 399.584 187.969C398.456 188.067 397.625 189.061 397.722 190.19C397.928 192.533 398.117 195.067 398.322 197.749C399.076 207.774 400.004 219.964 402.415 232.036C391.83 238.323 382.148 245.795 374.194 251.944C372.061 253.585 370.051 255.138 368.174 256.554C367.271 257.236 367.087 258.523 367.769 259.426C369.184 261.308 370.692 263.354 372.281 265.518C378.24 273.62 385.481 283.472 393.922 292.431C388.276 303.374 384.03 314.836 380.543 324.261C379.604 326.785 378.722 329.169 377.881 331.364C377.476 332.426 378.004 333.61 379.061 334.015C381.256 334.856 383.62 335.795 386.117 336.79C395.461 340.502 406.82 345.015 418.728 348.144C419.738 360.415 422.215 372.39 424.246 382.231C424.794 384.867 425.307 387.359 425.753 389.667C425.861 390.21 426.174 390.651 426.594 390.944C427.707 389.569 428.804 388.179 429.887 386.779C429.717 386.81 429.548 386.841 429.384 386.872C429.035 385.128 428.661 383.302 428.266 381.395C426.338 372.061 423.999 360.749 422.938 349.179C430.169 350.846 437.528 351.918 444.702 351.918C447.369 351.918 450.004 351.764 452.604 351.446C453.384 349.959 454.153 348.461 454.902 346.954C444.687 348.779 433.507 347.508 422.61 344.882C421.969 334.574 422.507 324.231 425.389 315.041C428.492 316.164 431.676 316.99 434.953 317.451C438.051 317.887 441.138 318.097 444.194 318.097C452.64 318.097 460.887 316.477 468.538 313.467C469.087 311.764 469.615 310.051 470.128 308.333C459.563 313.164 447.61 315.092 435.528 313.39H435.533ZM396.948 295.538C404.328 302.913 412.553 309.431 421.579 313.492C418.558 322.918 417.897 333.395 418.44 343.81C407.23 340.759 396.497 336.497 387.64 332.974C385.835 332.256 384.097 331.564 382.44 330.918C383.071 329.256 383.717 327.508 384.394 325.682C387.707 316.744 391.717 305.913 396.948 295.538ZM403.328 236.272C405.676 246.436 409.21 256.318 414.712 264.544C407.153 270.938 401.035 279.472 395.974 288.6C388.087 280.072 381.24 270.769 375.594 263.082C374.445 261.518 373.338 260.015 372.276 258.59C373.692 257.513 375.169 256.374 376.707 255.185C384.251 249.354 393.394 242.297 403.328 236.272ZM434.804 219.4C425.01 220.82 415.302 224.815 406.179 229.872C404.01 218.456 403.138 206.944 402.415 197.436C402.271 195.497 402.128 193.636 401.984 191.867C403.753 191.697 405.61 191.513 407.543 191.323C417.035 190.379 428.528 189.241 440.143 189.395C436.748 199.256 434.497 209.508 434.804 219.4ZM446.569 251.697C439.753 252.405 432.974 254.169 426.471 257.061C423.456 258.405 420.62 260.077 417.953 262.005C412.645 253.969 409.271 244.179 407.045 234.092C416.03 229 425.563 224.944 435.087 223.508C435.435 226.79 436.092 230.015 437.112 233.164C439.312 239.933 442.538 246.154 446.569 251.697ZM445.769 282.82C438.907 280.385 432.399 276.728 426.589 271.856C424.281 269.918 422.215 267.723 420.343 265.338C422.794 263.564 425.389 262.036 428.143 260.81C435.071 257.723 442.338 256.005 449.61 255.554C455.666 262.702 463.158 268.482 471.548 272.538C462.363 274.123 453.558 277.615 445.769 282.82ZM422.984 309.626C414.225 305.62 406.179 299.092 398.943 291.723C403.866 282.641 409.804 274.144 417.122 267.882C419.153 270.477 421.42 272.872 423.953 275C429.399 279.569 435.425 283.138 441.779 285.702C436.379 289.913 431.569 295.005 427.594 300.902C425.743 303.646 424.22 306.569 422.984 309.626Z"
      fill="#572839"
    />
    <path
      d="M331.856 240.154C331.851 240.087 331.836 240.026 331.826 239.959C331.815 239.892 331.805 239.831 331.785 239.764C331.764 239.697 331.738 239.636 331.713 239.574C331.687 239.513 331.672 239.456 331.641 239.4C331.605 239.328 331.559 239.262 331.513 239.19C331.487 239.154 331.472 239.113 331.446 239.077C331.441 239.072 331.436 239.067 331.431 239.056C331.379 238.995 331.323 238.938 331.262 238.877C331.221 238.836 331.185 238.795 331.144 238.759C331.097 238.723 331.051 238.692 331 238.656C330.933 238.61 330.872 238.559 330.8 238.523C330.79 238.523 330.785 238.513 330.779 238.508C330.682 238.456 330.59 238.41 330.497 238.364C325.108 235.59 319.292 234.077 313.21 233.872C312.733 233.856 312.262 233.846 311.779 233.846C304.503 233.846 297.487 235.744 291.267 239.344V145.641C291.267 135.462 282.985 127.179 272.805 127.179C267.01 127.179 261.831 129.867 258.446 134.056V129.231C258.446 119.051 250.164 110.769 239.985 110.769C229.805 110.769 221.523 119.051 221.523 129.231V134.056C218.138 129.867 212.959 127.179 207.164 127.179C196.985 127.179 188.703 135.462 188.703 145.641V239.344C182.482 235.738 175.467 233.846 168.19 233.846C167.708 233.846 167.236 233.856 166.759 233.872C160.677 234.077 154.862 235.59 149.472 238.364C149.374 238.41 149.287 238.456 149.19 238.508C149.179 238.508 149.174 238.518 149.169 238.523C149.097 238.559 149.036 238.61 148.969 238.656C148.923 238.692 148.872 238.718 148.831 238.759C148.79 238.795 148.749 238.841 148.713 238.882C148.656 238.938 148.595 238.995 148.549 239.062C148.544 239.067 148.538 239.072 148.533 239.082C148.508 239.118 148.487 239.159 148.467 239.195C148.42 239.262 148.374 239.328 148.338 239.405C148.308 239.462 148.287 239.523 148.267 239.579C148.241 239.641 148.215 239.708 148.195 239.769C148.174 239.836 148.169 239.897 148.154 239.964C148.144 240.031 148.128 240.092 148.123 240.159C148.123 240.226 148.123 240.287 148.123 240.349C148.123 240.415 148.123 240.487 148.133 240.554C148.138 240.621 148.159 240.682 148.169 240.749C148.185 240.81 148.195 240.877 148.215 240.938C148.241 241.015 148.272 241.087 148.308 241.159C148.328 241.2 148.338 241.246 148.359 241.287C148.359 241.297 148.369 241.303 148.374 241.308C148.41 241.374 148.462 241.441 148.508 241.503C148.544 241.554 148.574 241.605 148.61 241.646C148.646 241.687 148.687 241.723 148.723 241.759C148.785 241.821 148.841 241.882 148.908 241.933C148.913 241.938 148.918 241.944 148.928 241.949C153.959 245.785 158.267 250.313 161.774 255.39C161.81 255.446 161.846 255.497 161.887 255.549C165.667 261.051 168.508 267.2 170.287 273.836C170.318 273.959 170.364 274.077 170.415 274.185C172.364 279.862 173.39 286.836 174.39 293.631C175.42 300.636 176.482 307.872 178.6 313.949C181.077 323.164 185.446 331.492 191.605 338.692C191.631 338.723 191.651 338.754 191.677 338.785C203.795 352.933 221.395 361.046 239.974 361.046H240.01C240.01 361.046 240.02 361.046 240.026 361.046C240.031 361.046 240.036 361.046 240.041 361.046C258.62 361.046 276.221 352.933 288.338 338.785C288.364 338.754 288.39 338.723 288.41 338.697C294.564 331.492 298.938 323.169 301.415 313.954C303.528 307.877 304.595 300.641 305.631 293.59C306.62 286.841 307.646 279.867 309.6 274.19C309.651 274.077 309.697 273.964 309.728 273.841C311.508 267.205 314.349 261.062 318.128 255.554C318.169 255.503 318.205 255.451 318.241 255.395C321.749 250.318 326.051 245.795 331.087 241.954C331.092 241.949 331.097 241.944 331.108 241.938C331.174 241.887 331.231 241.826 331.292 241.769C331.333 241.728 331.374 241.697 331.41 241.656C331.446 241.61 331.477 241.559 331.513 241.513C331.559 241.446 331.605 241.385 331.646 241.318C331.646 241.308 331.656 241.303 331.662 241.297C331.682 241.256 331.692 241.215 331.713 241.169C331.744 241.097 331.779 241.026 331.805 240.949C331.826 240.887 331.836 240.821 331.851 240.759C331.867 240.692 331.882 240.631 331.887 240.564C331.897 240.497 331.892 240.426 331.897 240.359C331.897 240.292 331.897 240.231 331.897 240.169L331.856 240.154Z"
      fill="#572839"
    />
    <path
      d="M207.164 233.846C208.297 233.846 209.215 232.928 209.215 231.795C209.215 224.108 212.041 217.01 216.779 212.815C217.22 212.426 217.472 211.867 217.472 211.282C217.472 210.697 217.22 210.133 216.779 209.749C212.041 205.554 209.215 198.462 209.215 190.769C209.215 189.636 208.297 188.718 207.164 188.718C206.031 188.718 205.113 189.636 205.113 190.769C205.113 198.456 202.287 205.554 197.549 209.749C197.108 210.138 196.856 210.697 196.856 211.282C196.856 211.867 197.108 212.431 197.549 212.815C202.287 217.01 205.113 224.103 205.113 231.795C205.113 232.928 206.031 233.846 207.164 233.846ZM207.164 202.421C208.426 205.805 210.231 208.831 212.492 211.282C210.231 213.728 208.42 216.759 207.164 220.144C205.903 216.759 204.097 213.733 201.836 211.282C204.097 208.836 205.908 205.805 207.164 202.421ZM331.81 240.744C331.826 240.677 331.841 240.615 331.846 240.549C331.856 240.482 331.851 240.41 331.856 240.344C331.856 240.277 331.856 240.215 331.856 240.154C331.851 240.087 331.836 240.026 331.826 239.959C331.815 239.892 331.805 239.831 331.785 239.764C331.764 239.697 331.738 239.636 331.713 239.574C331.687 239.513 331.672 239.456 331.641 239.4C331.605 239.328 331.559 239.262 331.513 239.19C331.487 239.154 331.472 239.113 331.446 239.077C331.441 239.072 331.436 239.067 331.426 239.056C331.374 238.995 331.318 238.938 331.256 238.877C331.215 238.836 331.179 238.795 331.138 238.759C331.092 238.723 331.046 238.692 330.995 238.656C330.928 238.61 330.867 238.559 330.795 238.523C330.785 238.523 330.779 238.513 330.774 238.508C330.677 238.456 330.585 238.41 330.492 238.364C325.103 235.59 319.287 234.077 313.205 233.872C312.728 233.856 312.256 233.846 311.774 233.846C304.497 233.846 297.482 235.744 291.262 239.344V145.641C291.262 135.462 282.979 127.179 272.8 127.179C267.005 127.179 261.826 129.867 258.441 134.056V129.231C258.441 119.051 250.159 110.769 239.979 110.769C229.8 110.769 221.518 119.051 221.518 129.231V134.056C218.133 129.867 212.954 127.179 207.159 127.179C196.979 127.179 188.697 135.462 188.697 145.641V239.344C182.477 235.738 175.462 233.846 168.185 233.846C167.703 233.846 167.231 233.856 166.754 233.872C160.672 234.077 154.856 235.59 149.467 238.364C149.369 238.41 149.282 238.456 149.185 238.508C149.174 238.508 149.169 238.518 149.164 238.523C149.092 238.564 149.031 238.61 148.964 238.656C148.918 238.692 148.867 238.718 148.826 238.759C148.785 238.795 148.744 238.841 148.708 238.882C148.651 238.938 148.59 238.995 148.544 239.062C148.538 239.067 148.533 239.072 148.523 239.082C148.497 239.118 148.477 239.159 148.456 239.195C148.41 239.262 148.364 239.328 148.328 239.405C148.297 239.462 148.277 239.523 148.256 239.579C148.231 239.641 148.205 239.708 148.185 239.769C148.164 239.836 148.159 239.897 148.144 239.964C148.133 240.031 148.118 240.092 148.113 240.159C148.113 240.226 148.113 240.287 148.113 240.349C148.113 240.415 148.113 240.487 148.123 240.554C148.128 240.621 148.149 240.682 148.159 240.749C148.174 240.81 148.185 240.877 148.205 240.938C148.231 241.015 148.262 241.087 148.297 241.159C148.318 241.2 148.328 241.246 148.349 241.287C148.349 241.297 148.359 241.303 148.364 241.308C148.4 241.374 148.451 241.441 148.497 241.503C148.533 241.554 148.564 241.605 148.6 241.646C148.636 241.687 148.677 241.723 148.713 241.759C148.774 241.821 148.831 241.882 148.897 241.933C148.903 241.938 148.908 241.944 148.918 241.949C153.949 245.785 158.256 250.313 161.764 255.39C161.8 255.446 161.836 255.497 161.877 255.549C165.656 261.051 168.497 267.2 170.277 273.836C170.308 273.959 170.354 274.077 170.405 274.185C172.354 279.862 173.379 286.836 174.379 293.631C175.41 300.636 176.472 307.872 178.59 313.949C181.067 323.164 185.436 331.492 191.595 338.692C191.62 338.723 191.641 338.754 191.667 338.785C203.785 352.933 221.385 361.046 239.964 361.046H240C240 361.046 240.01 361.046 240.015 361.046C240.02 361.046 240.026 361.046 240.031 361.046C258.61 361.046 276.21 352.933 288.328 338.785C288.354 338.754 288.379 338.723 288.4 338.697C294.554 331.492 298.928 323.169 301.405 313.954C303.518 307.877 304.585 300.641 305.62 293.59C306.61 286.841 307.636 279.867 309.59 274.19C309.641 274.077 309.687 273.964 309.718 273.841C311.497 267.205 314.338 261.062 318.118 255.554C318.159 255.503 318.195 255.451 318.231 255.395C321.738 250.318 326.041 245.795 331.077 241.954C331.082 241.949 331.087 241.944 331.097 241.938C331.164 241.887 331.22 241.826 331.282 241.769C331.323 241.728 331.364 241.697 331.4 241.656C331.436 241.61 331.467 241.559 331.503 241.513C331.549 241.446 331.595 241.385 331.636 241.318C331.636 241.308 331.646 241.303 331.651 241.297C331.672 241.256 331.682 241.215 331.703 241.169C331.733 241.097 331.769 241.026 331.795 240.949C331.815 240.887 331.826 240.821 331.841 240.759L331.81 240.744ZM313.067 237.974C313.144 237.974 313.215 237.985 313.292 237.99C307.708 240.487 302.944 244.667 299.774 250.062C299.728 250.123 299.687 250.185 299.651 250.251C298.108 252.913 296.738 255.651 295.528 258.462C295.477 258.462 295.426 258.462 295.369 258.462C290.159 258.462 285.154 257.405 280.456 255.323C283.036 251.205 286.441 247.579 290.405 244.764C296.677 240.308 304.067 237.949 311.779 237.949C312.21 237.949 312.641 237.959 313.067 237.974ZM297.487 312.687C297.487 312.687 297.477 312.733 297.472 312.759C297.462 312.785 297.451 312.81 297.441 312.836C296.579 316.062 295.467 319.174 294.108 322.154C291.313 319.98 288.379 317.974 285.349 316.149C291.359 311.241 296.518 305.421 300.646 298.913C299.861 303.81 298.923 308.595 297.487 312.687ZM306.051 271.703C302.554 272.441 298.969 272.821 295.369 272.821C295.297 272.821 295.22 272.821 295.149 272.821C295.949 269.282 297.01 265.826 298.318 262.462C302.667 262.149 306.928 261.144 310.933 259.497C308.908 263.349 307.272 267.431 306.046 271.708L306.051 271.703ZM258.446 151.887C263.261 152.323 267.81 154.292 271.436 157.544C271.826 157.892 272.313 158.067 272.805 158.067C273.297 158.067 273.785 157.892 274.174 157.544C277.8 154.297 282.349 152.328 287.164 151.887V156.015C283.185 156.456 279.467 158.164 276.523 160.949C275.364 162.051 273.979 163.59 272.805 165.544C271.631 163.59 270.251 162.051 269.087 160.949C266.144 158.169 262.426 156.456 258.446 156.015V151.887ZM272.805 131.282C280.723 131.282 287.164 137.723 287.164 145.641V147.774C281.928 148.174 276.938 150.108 272.805 153.344C268.672 150.108 263.682 148.179 258.446 147.774V145.641C258.446 137.723 264.887 131.282 272.805 131.282ZM225.626 129.231C225.626 121.313 232.067 114.872 239.985 114.872C247.903 114.872 254.344 121.313 254.344 129.231V258.579C254.333 258.667 254.323 258.754 254.323 258.846C254.338 259.395 254.344 259.954 254.344 260.513C254.344 264.697 253.933 268.759 253.169 272.508C249.559 271.544 245.826 270.969 242.036 270.815V256.41C242.036 255.277 241.118 254.359 239.985 254.359C238.851 254.359 237.933 255.277 237.933 256.41V270.815C234.144 270.969 230.41 271.544 226.8 272.508C226.036 268.759 225.626 264.692 225.626 260.513C225.626 259.954 225.626 259.395 225.646 258.846C225.646 258.754 225.636 258.667 225.626 258.579V129.231ZM263.82 305.303C265.667 301.636 266.651 297.559 266.651 293.333C266.651 292.518 266.605 291.697 266.533 290.882C267.944 291.287 269.344 291.723 270.733 292.19C270.749 292.569 270.759 292.954 270.759 293.333C270.759 296.005 270.415 298.651 269.738 301.21C267.872 302.728 265.892 304.097 263.826 305.308L263.82 305.303ZM239.985 311.795C235.272 311.795 230.636 311.077 226.215 309.723C223.19 306.338 221.523 302 221.523 297.436C221.523 294.303 222.323 291.241 223.826 288.523C225.667 288.21 227.523 287.959 229.39 287.759C227.056 290.313 225.626 293.713 225.626 297.436C225.626 305.354 232.067 311.795 239.985 311.795C250.164 311.795 258.446 303.513 258.446 293.333C258.446 291.8 258.256 290.297 257.892 288.836C259.359 289.113 260.815 289.421 262.267 289.764C262.451 290.944 262.549 292.138 262.549 293.333C262.549 299.154 260.354 304.641 256.364 308.836C251.174 310.764 245.636 311.795 239.985 311.795ZM253.359 288.097C254.01 289.764 254.344 291.518 254.344 293.333C254.344 301.251 247.903 307.692 239.985 307.692C234.328 307.692 229.728 303.092 229.728 297.436C229.728 291.779 234.328 287.179 239.985 287.179C243.379 287.179 246.138 289.938 246.138 293.333C246.138 296.728 243.379 299.487 239.985 299.487C238.851 299.487 237.933 298.569 237.933 297.436C237.933 296.303 238.851 295.385 239.985 295.385C241.118 295.385 242.036 294.467 242.036 293.333C242.036 292.2 241.118 291.282 239.985 291.282C236.59 291.282 233.831 294.041 233.831 297.436C233.831 300.831 236.59 303.59 239.985 303.59C245.641 303.59 250.241 298.99 250.241 293.333C250.241 291.19 249.579 289.195 248.446 287.549C250.092 287.692 251.728 287.872 253.359 288.097ZM237.933 283.103C235.467 283.154 233.015 283.292 230.579 283.513C229.472 281.436 228.533 279.067 227.779 276.487C231.072 275.6 234.477 275.072 237.933 274.923V283.103ZM226.241 284.01C222.605 284.508 219.01 285.2 215.467 286.092C214.841 285.056 214.267 283.979 213.733 282.877C216.897 280.759 220.303 279.026 223.877 277.723C224.538 279.974 225.328 282.082 226.241 284.01ZM211.369 287.205C209.754 287.687 208.149 288.205 206.559 288.769C207.769 287.554 209.046 286.41 210.374 285.344C210.692 285.974 211.02 286.595 211.369 287.21V287.205ZM205.323 293.6C206.769 293.041 208.226 292.518 209.692 292.031C209.374 293.81 209.215 295.615 209.215 297.431C209.215 298.451 209.267 299.472 209.369 300.482C207.882 299.215 206.467 297.856 205.138 296.405C205.164 295.467 205.226 294.528 205.328 293.595L205.323 293.6ZM214.154 304.067C213.6 301.903 213.318 299.677 213.318 297.436C213.318 295.195 213.61 292.867 214.19 290.667C214.456 290.595 214.723 290.523 214.995 290.451C215.046 290.441 215.092 290.426 215.144 290.41C216.379 290.082 217.626 289.769 218.872 289.492C217.923 292.015 217.42 294.703 217.42 297.436C217.42 300.841 218.185 304.149 219.615 307.149C217.728 306.246 215.903 305.215 214.149 304.072L214.154 304.067ZM274.851 293.682C275.431 293.908 276.015 294.138 276.595 294.374C275.99 295.118 275.359 295.841 274.708 296.544C274.795 295.595 274.841 294.641 274.851 293.682ZM268.6 287.205C268.944 286.595 269.277 285.969 269.595 285.338C270.923 286.41 272.2 287.549 273.415 288.764C271.82 288.2 270.22 287.682 268.605 287.2L268.6 287.205ZM264.503 286.092C264.477 286.087 264.451 286.077 264.426 286.072C261.359 285.303 258.256 284.682 255.118 284.21C255.103 284.21 255.087 284.21 255.067 284.205C254.62 284.138 254.174 284.072 253.728 284.015C254.641 282.092 255.431 279.979 256.092 277.728C259.667 279.031 263.077 280.764 266.236 282.882C265.703 283.985 265.123 285.056 264.503 286.097V286.092ZM249.385 283.518C246.949 283.292 244.497 283.154 242.031 283.108V274.928C245.487 275.082 248.892 275.61 252.185 276.492C251.431 279.072 250.492 281.446 249.385 283.518ZM192.805 151.887C197.62 152.323 202.169 154.292 205.795 157.544C206.185 157.892 206.672 158.067 207.164 158.067C207.656 158.067 208.144 157.892 208.533 157.544C212.159 154.297 216.708 152.328 221.523 151.887V156.015C217.544 156.456 213.826 158.164 210.882 160.949C209.723 162.051 208.338 163.59 207.164 165.544C205.99 163.59 204.61 162.051 203.446 160.949C200.503 158.169 196.785 156.456 192.805 156.015V151.887ZM207.164 131.282C215.082 131.282 221.523 137.723 221.523 145.641V147.774C216.287 148.174 211.297 150.108 207.164 153.344C203.031 150.108 198.041 148.179 192.805 147.774V145.641C192.805 137.723 199.246 131.282 207.164 131.282ZM166.903 237.974C167.328 237.959 167.759 237.949 168.19 237.949C175.903 237.949 183.292 240.308 189.564 244.764C193.528 247.579 196.933 251.205 199.513 255.323C194.815 257.405 189.81 258.462 184.6 258.462C184.549 258.462 184.492 258.462 184.441 258.462C183.231 255.656 181.862 252.913 180.318 250.251C180.282 250.185 180.241 250.123 180.195 250.067C177.026 244.672 172.261 240.492 166.677 237.99C166.754 237.99 166.826 237.979 166.903 237.974ZM182.523 312.836C182.518 312.81 182.503 312.785 182.492 312.759C182.487 312.733 182.482 312.713 182.477 312.687C181.046 308.6 180.108 303.821 179.318 298.913C183.441 305.415 188.605 311.241 194.615 316.149C191.585 317.969 188.651 319.98 185.856 322.154C184.503 319.174 183.39 316.062 182.523 312.836ZM173.918 271.703C172.692 267.426 171.056 263.344 169.031 259.492C173.041 261.138 177.297 262.144 181.646 262.456C182.954 265.821 184.015 269.282 184.815 272.815C184.744 272.815 184.667 272.815 184.595 272.815C180.995 272.815 177.41 272.436 173.913 271.697L173.918 271.703ZM154 240.795C155.041 240.359 156.097 239.964 157.169 239.631C165.349 240.482 172.651 245.195 176.759 252.313C176.795 252.374 176.836 252.436 176.877 252.497C177.938 254.344 178.918 256.231 179.81 258.154C174.538 257.467 169.467 255.646 164.954 252.805C161.862 248.379 158.195 244.349 154 240.795ZM239.985 325.964C241.692 327.938 243.2 330.087 244.467 332.374C245.164 333.631 245.785 334.928 246.333 336.262C243.369 340.395 241.22 345.092 240.046 350.056C240.02 350.144 240 350.241 239.979 350.333C239.959 350.241 239.938 350.149 239.913 350.056C238.744 345.097 236.59 340.395 233.626 336.262C234.174 334.933 234.795 333.636 235.492 332.374C236.764 330.087 238.267 327.938 239.974 325.964H239.985ZM256.897 354.487C258.077 352.185 259.518 350.062 261.2 348.138C261.169 349.831 261.02 351.523 260.744 353.205C259.477 353.677 258.195 354.103 256.897 354.487ZM265.179 344.333C265.569 344.021 265.964 343.713 266.369 343.421C268.015 342.221 269.785 341.185 271.636 340.323C272.169 342.297 272.513 344.318 272.656 346.354C272.677 346.61 272.687 346.872 272.697 347.128C270.272 348.728 267.738 350.144 265.118 351.364C265.349 349.021 265.374 346.667 265.179 344.323V344.333ZM253.231 352.646C253.267 352.236 253.292 351.826 253.308 351.415C253.313 351.205 253.318 350.985 253.318 350.769C253.318 350.554 253.318 350.333 253.308 350.149C253.246 345.646 252.446 341.174 250.979 336.944C251.277 336.579 251.574 336.221 251.887 335.872C253.456 334.103 255.2 332.492 257.087 331.072C258.2 333.154 259.097 335.349 259.774 337.621C260.261 339.251 260.62 340.938 260.861 342.646C257.728 345.503 255.169 348.862 253.231 352.651V352.646ZM249.205 350.226C249.205 350.405 249.215 350.585 249.215 350.769C249.215 350.954 249.215 351.133 249.205 351.303C249.154 353.036 248.846 354.733 248.297 356.359C246.754 356.574 245.2 356.733 243.636 356.826C243.451 355.231 243.508 353.621 243.815 352.036L243.836 351.928C243.862 351.8 243.887 351.672 243.918 351.544L243.933 351.477C243.964 351.344 243.995 351.205 244.031 351.072L244.046 351.015C244.856 347.564 246.2 344.256 248 341.215C248.759 344.149 249.174 347.174 249.215 350.226H249.205ZM235.928 351.021L235.944 351.077C235.979 351.205 236.01 351.344 236.041 351.482L236.056 351.554C236.087 351.677 236.113 351.81 236.138 351.933L236.159 352.021C236.467 353.621 236.523 355.236 236.338 356.831C234.774 356.733 233.22 356.579 231.677 356.364C231.128 354.738 230.82 353.046 230.769 351.318C230.769 351.138 230.759 350.959 230.759 350.774C230.759 350.59 230.759 350.41 230.769 350.205C230.81 347.169 231.226 344.149 231.985 341.221C233.785 344.262 235.128 347.574 235.938 351.021H235.928ZM219.226 353.205C218.949 351.528 218.795 349.836 218.769 348.138C220.456 350.062 221.892 352.185 223.072 354.487C221.774 354.103 220.492 353.677 219.226 353.205ZM226.661 350.123C226.656 350.333 226.651 350.554 226.651 350.769C226.651 350.985 226.651 351.205 226.661 351.426C226.672 351.836 226.703 352.241 226.738 352.646C224.8 348.856 222.241 345.497 219.108 342.641C219.349 340.938 219.708 339.251 220.195 337.615C220.872 335.344 221.769 333.149 222.882 331.067C224.774 332.487 226.518 334.097 228.082 335.867C228.39 336.215 228.692 336.574 228.99 336.938C227.518 341.169 226.723 345.636 226.661 350.123ZM214.851 351.374C212.231 350.149 209.697 348.733 207.272 347.138C207.282 346.877 207.297 346.621 207.313 346.364C207.456 344.323 207.8 342.303 208.333 340.328C210.19 341.185 211.954 342.226 213.605 343.426C214.005 343.718 214.4 344.021 214.79 344.333C214.595 346.677 214.615 349.031 214.851 351.374ZM285.2 336.108C285.174 336.138 285.149 336.164 285.128 336.195C282.528 339.215 279.662 341.938 276.579 344.349C276.277 341.81 275.703 339.308 274.867 336.887C274.687 336.364 274.297 335.933 273.795 335.697C273.292 335.462 272.718 335.441 272.2 335.636C269.477 336.672 266.897 338.041 264.523 339.697C264.297 338.595 264.026 337.508 263.708 336.436C262.723 333.118 261.303 329.949 259.492 327.01C259.2 326.538 258.733 326.205 258.19 326.082C257.651 325.964 257.082 326.067 256.615 326.374C253.903 328.164 251.426 330.282 249.241 332.672C248.872 331.892 248.477 331.128 248.056 330.374C246.256 327.128 244.036 324.138 241.456 321.482C241.451 321.477 241.441 321.472 241.436 321.462C241.431 321.451 241.426 321.446 241.415 321.441C241.374 321.4 241.323 321.369 241.277 321.333C241.22 321.287 241.169 321.241 241.113 321.2C241.056 321.164 241 321.138 240.944 321.108C240.882 321.077 240.82 321.036 240.754 321.01C240.697 320.985 240.636 320.974 240.574 320.954C240.508 320.933 240.441 320.913 240.374 320.897C240.313 320.887 240.251 320.882 240.195 320.877C240.123 320.872 240.056 320.862 239.985 320.862C239.923 320.862 239.867 320.872 239.805 320.877C239.733 320.882 239.667 320.887 239.595 320.903C239.533 320.913 239.477 320.933 239.42 320.954C239.354 320.974 239.282 320.99 239.22 321.015C239.164 321.041 239.108 321.072 239.051 321.103C238.99 321.133 238.928 321.164 238.867 321.205C238.81 321.241 238.759 321.287 238.708 321.333C238.662 321.369 238.61 321.405 238.564 321.446C238.559 321.451 238.554 321.462 238.544 321.467C238.533 321.472 238.528 321.477 238.523 321.487C235.944 324.144 233.723 327.133 231.923 330.379C231.503 331.133 231.108 331.903 230.738 332.677C228.554 330.287 226.077 328.169 223.364 326.38C222.903 326.077 222.333 325.969 221.79 326.087C221.246 326.205 220.779 326.544 220.487 327.015C218.677 329.954 217.262 333.123 216.272 336.436C215.954 337.508 215.682 338.595 215.456 339.697C213.077 338.036 210.503 336.667 207.779 335.636C207.262 335.441 206.687 335.462 206.185 335.697C205.682 335.933 205.297 336.359 205.113 336.887C204.277 339.308 203.703 341.81 203.4 344.349C200.318 341.938 197.446 339.221 194.851 336.195C194.831 336.164 194.805 336.133 194.779 336.108C192.056 332.933 189.708 329.518 187.738 325.897C191.359 323.021 195.231 320.436 199.267 318.2C199.344 318.159 199.41 318.103 199.482 318.051C199.518 318.026 199.554 318.005 199.59 317.979C199.708 317.882 199.81 317.769 199.903 317.651L199.913 317.641C199.938 317.605 199.954 317.564 199.979 317.528C200.026 317.456 200.072 317.385 200.108 317.313C200.138 317.256 200.154 317.195 200.179 317.133C200.205 317.072 200.231 317.01 200.246 316.944C200.262 316.877 200.272 316.81 200.282 316.744C200.292 316.682 200.308 316.615 200.308 316.554C200.308 316.487 200.308 316.426 200.308 316.359C200.308 316.292 200.308 316.226 200.297 316.154C200.287 316.087 200.272 316.026 200.256 315.959C200.241 315.897 200.231 315.831 200.21 315.769C200.185 315.692 200.149 315.621 200.113 315.544C200.092 315.503 200.082 315.456 200.056 315.415C200.056 315.41 200.046 315.405 200.046 315.4C200.005 315.328 199.954 315.267 199.908 315.2C199.872 315.154 199.846 315.103 199.81 315.062C199.774 315.021 199.733 314.99 199.697 314.954C199.636 314.892 199.574 314.831 199.508 314.779C199.503 314.779 199.497 314.769 199.492 314.764C189.697 307.441 182.067 297.62 177.41 286.364C176.831 282.841 176.159 279.379 175.272 276.138C178.344 276.656 181.467 276.923 184.6 276.923C185.518 276.923 186.472 276.897 187.436 276.851C187.482 276.851 187.523 276.836 187.564 276.831C187.615 276.826 187.667 276.831 187.718 276.815C187.738 276.815 187.759 276.8 187.779 276.8C187.851 276.785 187.923 276.759 187.99 276.738C188.051 276.718 188.113 276.697 188.169 276.672C188.231 276.646 188.287 276.61 188.349 276.574C188.405 276.544 188.467 276.508 188.518 276.472C188.569 276.436 188.615 276.395 188.667 276.349C188.718 276.303 188.769 276.262 188.815 276.21C188.862 276.164 188.897 276.113 188.938 276.062C188.979 276.01 189.02 275.959 189.056 275.903C189.092 275.846 189.118 275.79 189.149 275.728C189.179 275.672 189.21 275.61 189.236 275.549C189.262 275.487 189.277 275.426 189.297 275.364C189.318 275.297 189.333 275.236 189.349 275.164C189.359 275.103 189.364 275.036 189.369 274.974C189.374 274.903 189.379 274.831 189.379 274.759C189.379 274.738 189.379 274.718 189.379 274.692C189.379 274.641 189.364 274.595 189.359 274.549C189.354 274.503 189.359 274.456 189.349 274.41C188.569 270.354 187.467 266.385 186.062 262.533C192.077 262.318 198.026 260.774 203.349 258.031C203.354 258.031 203.359 258.026 203.364 258.021C203.374 258.021 203.385 258.01 203.395 258.005C203.451 257.974 203.497 257.933 203.549 257.903C203.605 257.867 203.667 257.831 203.718 257.785C203.769 257.738 203.815 257.687 203.867 257.641C203.913 257.595 203.964 257.549 204.005 257.497C204.046 257.446 204.082 257.385 204.118 257.328C204.154 257.277 204.19 257.221 204.22 257.164C204.251 257.103 204.272 257.041 204.297 256.979C204.323 256.918 204.349 256.862 204.369 256.8C204.39 256.738 204.4 256.672 204.41 256.605C204.426 256.544 204.441 256.477 204.446 256.415C204.451 256.349 204.446 256.282 204.446 256.215C204.446 256.149 204.451 256.082 204.446 256.015C204.441 255.949 204.426 255.882 204.41 255.815C204.4 255.749 204.39 255.687 204.369 255.621C204.349 255.554 204.318 255.487 204.292 255.421C204.272 255.364 204.256 255.308 204.226 255.256C204.226 255.251 204.215 255.241 204.21 255.236C204.21 255.226 204.205 255.221 204.2 255.21C201.4 250.087 197.472 245.549 192.795 242.036V160.128C195.718 160.544 198.441 161.851 200.615 163.908C202.841 166.021 204.462 168.6 205.179 171.169C205.426 172.056 206.236 172.672 207.154 172.672C208.072 172.672 208.882 172.056 209.128 171.169C209.846 168.6 211.467 166.021 213.692 163.908C215.867 161.851 218.59 160.544 221.513 160.128V260.497C221.513 265.092 221.985 269.574 222.861 273.713C219.077 275.056 215.462 276.841 212.087 279.026C210.626 275.072 209.697 270.826 209.359 266.426C209.272 265.297 208.282 264.456 207.154 264.538C206.026 264.626 205.179 265.615 205.267 266.744C205.667 271.903 206.81 276.877 208.631 281.472C205.492 283.892 202.62 286.677 200.092 289.805C198.097 286.662 196.482 283.303 195.287 279.769C195.041 278.913 194.251 278.282 193.313 278.282C192.503 278.282 191.764 278.764 191.436 279.503C191.22 279.99 191.205 280.533 191.379 281.021C193 285.81 195.318 290.318 198.272 294.431C198.287 294.456 198.297 294.477 198.313 294.503C198.354 294.559 198.395 294.61 198.436 294.667C198.451 294.687 198.461 294.703 198.472 294.723C201.959 299.523 206.22 303.615 211.01 306.887C211.144 307.005 211.292 307.113 211.451 307.19C215.385 309.821 219.667 311.897 224.169 313.359C224.374 313.467 224.59 313.533 224.815 313.569C229.677 315.082 234.779 315.882 239.974 315.882C246.149 315.882 252.2 314.754 257.861 312.641C258.087 312.6 258.297 312.513 258.503 312.395C263.62 310.405 268.405 307.605 272.656 304.092C272.785 304.005 272.908 303.908 273.02 303.795C276.169 301.149 279.02 298.113 281.482 294.723C281.497 294.703 281.508 294.682 281.523 294.667C281.564 294.61 281.605 294.559 281.651 294.497C281.667 294.472 281.677 294.451 281.692 294.426C284.641 290.318 286.959 285.81 288.574 281.026C288.744 280.538 288.733 279.995 288.518 279.508C288.19 278.764 287.451 278.287 286.641 278.287C285.703 278.287 284.913 278.913 284.667 279.774C283.467 283.303 281.851 286.667 279.861 289.81C277.333 286.687 274.456 283.897 271.323 281.477C273.138 276.882 274.287 271.908 274.687 266.749C274.774 265.62 273.928 264.631 272.8 264.544C271.667 264.462 270.682 265.303 270.595 266.431C270.251 270.831 269.323 275.077 267.867 279.031C264.497 276.846 260.877 275.067 257.092 273.718C257.969 269.574 258.441 265.097 258.441 260.503V160.133C261.364 160.549 264.087 161.856 266.262 163.913C268.487 166.026 270.108 168.605 270.826 171.174C271.072 172.062 271.882 172.677 272.8 172.677C273.718 172.677 274.528 172.062 274.774 171.174C275.492 168.605 277.113 166.026 279.338 163.913C281.513 161.856 284.236 160.549 287.159 160.133V242.041C282.482 245.554 278.554 250.092 275.754 255.215C275.754 255.226 275.749 255.231 275.744 255.241C275.744 255.246 275.733 255.256 275.728 255.262C275.703 255.313 275.687 255.369 275.661 255.426C275.636 255.492 275.605 255.559 275.585 255.626C275.564 255.687 275.559 255.754 275.544 255.821C275.528 255.887 275.513 255.954 275.508 256.026C275.503 256.092 275.508 256.159 275.508 256.221C275.508 256.287 275.508 256.354 275.508 256.421C275.513 256.487 275.533 256.549 275.544 256.61C275.559 256.677 275.564 256.738 275.585 256.805C275.605 256.867 275.631 256.923 275.656 256.985C275.682 257.046 275.703 257.108 275.733 257.169C275.764 257.226 275.8 257.277 275.836 257.328C275.872 257.385 275.908 257.441 275.949 257.497C275.99 257.549 276.041 257.59 276.087 257.641C276.133 257.692 276.179 257.738 276.236 257.785C276.287 257.826 276.349 257.862 276.405 257.903C276.456 257.938 276.503 257.979 276.559 258.005C276.569 258.01 276.579 258.015 276.59 258.021C276.595 258.021 276.6 258.026 276.605 258.031C281.928 260.774 287.877 262.313 293.892 262.533C292.487 266.39 291.385 270.354 290.605 274.41C290.595 274.456 290.6 274.503 290.595 274.549C290.59 274.595 290.574 274.641 290.574 274.692C290.574 274.713 290.574 274.733 290.574 274.759C290.574 274.831 290.574 274.903 290.585 274.974C290.59 275.041 290.595 275.103 290.605 275.164C290.615 275.231 290.636 275.297 290.656 275.364C290.677 275.426 290.692 275.492 290.718 275.549C290.744 275.61 290.774 275.667 290.805 275.728C290.836 275.785 290.861 275.846 290.897 275.903C290.933 275.959 290.974 276.01 291.015 276.062C291.056 276.113 291.092 276.164 291.138 276.21C291.185 276.262 291.236 276.303 291.287 276.349C291.333 276.39 291.385 276.431 291.436 276.472C291.487 276.508 291.549 276.544 291.605 276.574C291.661 276.61 291.723 276.641 291.785 276.672C291.841 276.697 291.903 276.718 291.964 276.738C292.036 276.764 292.103 276.785 292.174 276.8C292.195 276.8 292.215 276.815 292.236 276.815C292.287 276.826 292.338 276.826 292.39 276.831C292.431 276.831 292.477 276.846 292.518 276.851C293.482 276.903 294.441 276.923 295.354 276.923C298.487 276.923 301.61 276.656 304.682 276.138C303.8 279.374 303.123 282.836 302.549 286.364C297.892 297.62 290.256 307.436 280.467 314.764C280.461 314.764 280.456 314.774 280.451 314.779C280.385 314.831 280.323 314.892 280.262 314.954C280.226 314.99 280.185 315.021 280.149 315.062C280.113 315.103 280.082 315.154 280.046 315.2C280 315.267 279.949 315.328 279.908 315.4C279.908 315.405 279.897 315.41 279.897 315.415C279.877 315.456 279.861 315.503 279.841 315.544C279.805 315.615 279.769 315.692 279.744 315.769C279.723 315.831 279.713 315.897 279.697 315.959C279.682 316.026 279.667 316.087 279.656 316.154C279.646 316.221 279.646 316.287 279.646 316.359C279.646 316.426 279.641 316.487 279.646 316.554C279.646 316.621 279.661 316.682 279.672 316.744C279.682 316.81 279.692 316.877 279.708 316.944C279.723 317.01 279.754 317.072 279.774 317.133C279.795 317.195 279.815 317.256 279.846 317.313C279.882 317.39 279.928 317.456 279.974 317.528C280 317.564 280.015 317.605 280.041 317.641L280.051 317.651C280.144 317.769 280.246 317.882 280.364 317.979C280.4 318.01 280.436 318.026 280.472 318.051C280.544 318.103 280.61 318.159 280.687 318.2C284.723 320.436 288.595 323.021 292.215 325.897C290.246 329.518 287.897 332.933 285.174 336.108H285.2ZM315.015 252.8C310.503 255.641 305.431 257.462 300.159 258.144C301.051 256.221 302.031 254.333 303.092 252.487C303.133 252.431 303.174 252.369 303.21 252.303C307.318 245.185 314.62 240.472 322.8 239.621C323.872 239.959 324.928 240.349 325.969 240.785C321.774 244.338 318.108 248.369 315.015 252.795V252.8ZM282.42 212.815C282.861 212.426 283.113 211.867 283.113 211.282C283.113 210.697 282.861 210.133 282.42 209.749C277.682 205.554 274.856 198.462 274.856 190.769C274.856 189.636 273.938 188.718 272.805 188.718C271.672 188.718 270.754 189.636 270.754 190.769C270.754 198.456 267.928 205.554 263.19 209.749C262.749 210.138 262.497 210.697 262.497 211.282C262.497 211.867 262.749 212.431 263.19 212.815C267.928 217.01 270.754 224.103 270.754 231.795C270.754 232.928 271.672 233.846 272.805 233.846C273.938 233.846 274.856 232.928 274.856 231.795C274.856 224.108 277.682 217.01 282.42 212.815ZM272.805 220.144C271.544 216.759 269.738 213.733 267.477 211.282C269.738 208.836 271.549 205.805 272.805 202.421C274.067 205.805 275.872 208.831 278.133 211.282C275.872 213.728 274.061 216.759 272.805 220.144ZM242.036 170.256C242.036 169.123 241.118 168.205 239.985 168.205C238.851 168.205 237.933 169.123 237.933 170.256C237.933 183.051 235.005 194.882 230.108 201.903C229.615 202.61 229.615 203.544 230.108 204.251C235.01 211.272 237.933 223.103 237.933 235.897C237.933 237.031 238.851 237.949 239.985 237.949C241.118 237.949 242.036 237.031 242.036 235.897C242.036 223.103 244.964 211.272 249.862 204.251C250.354 203.544 250.354 202.61 249.862 201.903C244.959 194.882 242.036 183.051 242.036 170.256ZM239.985 217.579C238.651 211.949 236.703 206.969 234.251 203.077C236.703 199.19 238.651 194.205 239.985 188.574C241.318 194.205 243.267 199.185 245.718 203.077C243.267 206.964 241.318 211.949 239.985 217.579ZM242.549 155.897C245.4 155.897 248.159 155.062 250.528 153.472C251.308 152.949 251.631 151.964 251.318 151.082C251.005 150.2 250.138 149.636 249.2 149.723C249.036 149.738 248.872 149.738 248.703 149.738C244.179 149.738 240.497 146.056 240.497 141.533C240.497 137.01 244.179 133.328 248.703 133.328C248.872 133.328 249.036 133.328 249.2 133.344C250.133 133.436 251.005 132.872 251.318 131.985C251.631 131.097 251.303 130.118 250.528 129.595C248.159 128.01 245.4 127.169 242.549 127.169C234.631 127.169 228.19 133.61 228.19 141.528C228.19 149.446 234.631 155.887 242.549 155.887V155.897ZM241.872 131.303C238.569 133.513 236.395 137.277 236.395 141.538C236.395 145.8 238.574 149.564 241.872 151.774C236.528 151.426 232.292 146.969 232.292 141.538C232.292 136.108 236.533 131.651 241.872 131.303Z"
      fill="#DCB2C1"
    />
    <path
      d="M420.939 113.144L368.2 125.277L370.103 127.995L386.785 124.087L398.954 141.467L389.513 155.723L391.646 158.774L421.087 113.369L420.934 113.149L420.939 113.144ZM390.051 123.323L414.81 117.523L400.8 138.677L390.051 123.323Z"
      fill="#FFF1EB"
    />
    <path
      d="M166.128 59.5179L193.682 50.564L200.666 72.0666L203.82 71.0461L188.969 25.3333L185.815 26.3589L192.718 47.6051L165.164 56.5589L158.261 35.3128L155.107 36.3384L169.959 82.0461L173.113 81.0205L166.128 59.5179Z"
      fill="#FFF1EB"
    />
    <path
      d="M361.323 107.338L357.061 51.4769L356.897 51.3539L327.364 90.5487L329.959 92.5026L354.318 60.0615L358.784 115.667L358.892 115.749L388.507 76.441L385.964 74.5282L361.323 107.338Z"
      fill="#FFF1EB"
    />
    <path
      d="M311.523 75.0667L289.302 23.6359L289.113 23.5744L273.943 70.2462L277.036 71.2513L289.513 32.6462L311.831 83.7692L311.959 83.8103L327.169 37.0051L324.143 36.0205L311.523 75.0667Z"
      fill="#FFF1EB"
    />
    <path
      d="M255.297 64.9538H228.021V45.523H251.713V42.3435H228.021V23.2512H254.349V20.0717H224.703V68.1333H255.297V64.9538Z"
      fill="#FFF1EB"
    />
    <path
      d="M137.164 62.8615C134.759 61.0769 132.036 59.7845 129 58.9897C125.964 58.1948 122.687 58.1384 119.164 58.8102C115.641 59.4871 111.98 61.1538 108.169 63.8204L98.4668 70.6153L126.036 109.985L137.626 101.872C140.174 100.087 142.282 97.9384 143.939 95.4256C145.595 92.9179 146.728 90.1845 147.328 87.2256C147.928 84.2717 147.913 81.2358 147.282 78.1281C146.646 75.0204 145.282 71.9692 143.185 68.9743C141.58 66.682 139.574 64.6461 137.169 62.8563L137.164 62.8615ZM143.949 78.8102C144.523 81.5179 144.544 84.164 144.01 86.7435C143.472 89.323 142.441 91.723 140.918 93.9487C139.39 96.1743 137.446 98.1179 135.077 99.7743L126.923 105.482L103.046 71.3794L110.421 66.2153C113.38 64.1435 116.287 62.7948 119.154 62.164C122.021 61.5333 124.764 61.4871 127.395 62.0153C130.026 62.5435 132.436 63.5692 134.631 65.0871C136.826 66.6102 138.713 68.4974 140.292 70.7487C142.154 73.4102 143.374 76.0974 143.949 78.8051V78.8102Z"
      fill="#FFF1EB"
    />
    <path
      d="M115.687 121.656L117.979 118.723L65.9485 103.846L65.7793 104.062L92.8049 150.944L94.846 148.328L86.2306 133.518L99.2921 116.8L115.682 121.662L115.687 121.656ZM84.5485 130.621L71.7639 108.641L96.087 115.851L84.5485 130.621Z"
      fill="#FFF1EB"
    />
    <path
      d="M362.472 371.144C359.292 370.708 356.133 370.887 352.984 371.682C349.841 372.477 346.923 373.903 344.236 375.964C341.548 378.026 339.425 380.467 337.866 383.282C336.302 386.103 335.323 389.103 334.918 392.282C334.513 395.467 334.713 398.61 335.507 401.728C336.302 404.841 337.733 407.744 339.795 410.426C341.938 413.221 344.415 415.41 347.23 417.005C350.046 418.6 353.02 419.59 356.159 419.969C359.297 420.349 362.405 420.123 365.492 419.292C368.579 418.462 371.466 417.015 374.148 414.954C376.836 412.892 378.974 410.456 380.569 407.641C382.164 404.826 383.169 401.836 383.584 398.672C384 395.508 383.82 392.364 383.041 389.236C382.261 386.108 380.841 383.2 378.779 380.518C376.718 377.831 374.277 375.708 371.461 374.149C368.641 372.585 365.641 371.59 362.466 371.154L362.472 371.144ZM379.856 390.185C380.543 392.897 380.713 395.615 380.354 398.338C379.995 401.062 379.133 403.641 377.764 406.082C376.395 408.528 374.533 410.651 372.169 412.467C369.877 414.226 367.384 415.441 364.687 416.118C361.989 416.795 359.282 416.954 356.564 416.595C353.846 416.236 351.272 415.364 348.846 413.985C346.42 412.605 344.318 410.749 342.528 408.421C340.769 406.128 339.523 403.631 338.784 400.928C338.046 398.226 337.836 395.503 338.148 392.759C338.461 390.015 339.287 387.405 340.63 384.928C341.969 382.451 343.82 380.303 346.184 378.492C348.513 376.708 351.041 375.477 353.769 374.805C356.497 374.133 359.225 373.985 361.964 374.364C364.697 374.738 367.292 375.621 369.748 377.005C372.205 378.39 374.328 380.246 376.113 382.574C377.928 384.939 379.174 387.477 379.866 390.19L379.856 390.185Z"
      fill="#FFF1EB"
    />
    <path
      d="M315.954 402.574C313.067 401.18 310.005 400.374 306.769 400.154C303.533 399.933 300.318 400.39 297.128 401.523C293.938 402.656 291.164 404.318 288.805 406.518C286.446 408.718 284.585 411.267 283.221 414.169C281.851 417.072 281.067 420.128 280.867 423.333C280.662 426.544 281.123 429.738 282.256 432.933C283.431 436.251 285.113 439.103 287.297 441.487C289.482 443.872 292.005 445.733 294.872 447.062C297.738 448.395 300.764 449.138 303.959 449.303C307.154 449.467 310.344 448.979 313.533 447.851C316.723 446.723 319.513 445.062 321.897 442.877C324.282 440.692 326.164 438.159 327.538 435.277C328.913 432.395 329.713 429.349 329.938 426.133C330.164 422.918 329.713 419.713 328.585 416.523C327.456 413.333 325.79 410.559 323.59 408.2C321.39 405.841 318.846 403.969 315.959 402.574H315.954ZM326.605 426.056C326.421 428.851 325.738 431.487 324.559 433.964C323.379 436.441 321.759 438.631 319.703 440.533C317.646 442.436 315.215 443.882 312.405 444.877C309.595 445.872 306.933 446.231 304.164 446.036C301.39 445.846 298.764 445.159 296.292 443.98C293.815 442.8 291.636 441.174 289.759 439.113C287.877 437.051 286.451 434.636 285.472 431.872C284.492 429.108 284.092 426.39 284.226 423.59C284.359 420.79 285 418.133 286.144 415.621C287.287 413.108 288.882 410.882 290.923 408.938C292.964 406.995 295.39 405.528 298.195 404.533C300.959 403.554 303.744 403.169 306.544 403.369C309.344 403.574 311.99 404.277 314.472 405.482C316.954 406.687 319.154 408.323 321.062 410.4C322.969 412.477 324.415 414.897 325.395 417.662C326.374 420.426 326.795 423.272 326.61 426.062L326.605 426.056Z"
      fill="#FFF1EB"
    />
    <path
      d="M234.98 415.682L248.964 414.826L251.703 459.626L255.015 459.42L252.272 414.626L266.395 413.759L266.2 410.585L234.785 412.508L234.98 415.682Z"
      fill="#FFF1EB"
    />
    <path
      d="M189.676 408.395L203.41 411.19L194.461 455.169L197.712 455.831L206.661 411.851L220.522 414.672L221.158 411.554L190.312 405.277L189.676 408.395Z"
      fill="#FFF1EB"
    />
    <path
      d="M166.338 394.118L126.415 430.651L129.41 432.077L142.005 420.462L161.153 429.595L159.959 446.651L163.318 448.256L166.584 394.241L166.338 394.123V394.118ZM144.471 418.19L163.164 400.949L161.389 426.256L144.471 418.185V418.19Z"
      fill="#FFF1EB"
    />
    <path
      d="M119.513 365.979L130.328 374.892L101.779 409.523L104.338 411.631L132.887 377L143.805 386L145.825 383.544L121.538 363.523L119.513 365.979Z"
      fill="#FFF1EB"
    />
  </g>
  <defs>
    <clipPath id="clip0_266_2328">
      <rect width="480" height="480" fill="white" />
    </clipPath>
  </defs>
</svg>
