<svg
  viewBox="-2 -3 16 16"
  xmlns="http://www.w3.org/2000/svg"
>
  <path
    d="M1.01299 4.58749L5.30299 8.82749C5.39595 8.92122 5.50656 8.99562 5.62841 9.04638C5.75027 9.09715 5.88098 9.12329 6.01299 9.12329C6.145 9.12329 6.27571 9.09715 6.39757 9.04638C6.51943 8.99562 6.63003 8.92122 6.72299 8.82749L10.963 4.58749C11.0567 4.49453 11.1311 4.38393 11.1819 4.26207C11.2327 4.14021 11.2588 4.0095 11.2588 3.87749C11.2588 3.74548 11.2327 3.61478 11.1819 3.49292C11.1311 3.37106 11.0567 3.26046 10.963 3.16749C10.7756 2.98124 10.5222 2.8767 10.258 2.8767C9.99381 2.8767 9.74035 2.98124 9.55299 3.16749L6.01299 6.70749L2.47299 3.16749C2.28673 2.98275 2.03533 2.8786 1.77299 2.87749C1.64138 2.87673 1.51092 2.90196 1.38908 2.95172C1.26725 3.00149 1.15643 3.07481 1.06299 3.16749C0.965916 3.25711 0.887562 3.36508 0.832455 3.48515C0.777348 3.60523 0.746581 3.73503 0.741932 3.86707C0.737283 3.9991 0.758843 4.13075 0.805368 4.25441C0.851893 4.37806 0.92246 4.49127 1.01299 4.58749Z"
    
  />
</svg>
