<svg
  viewBox="0 0 24 24"
  fill="none"
  xmlns="http://www.w3.org/2000/svg"
>
  <path
    d="M19.7002 5.5H16.4002V4.4C16.4002 3.23305 15.9366 2.11389 15.1115 1.28873C14.2863 0.46357 13.1671 0 12.0002 0C10.8332 0 9.71409 0.46357 8.88893 1.28873C8.06377 2.11389 7.6002 3.23305 7.6002 4.4V5.5H4.3002C4.00846 5.5 3.72867 5.61589 3.52238 5.82218C3.31609 6.02847 3.2002 6.30826 3.2002 6.6V18.7C3.2002 19.5752 3.54787 20.4146 4.16674 21.0335C4.78561 21.6523 5.62498 22 6.5002 22H17.5002C18.3754 22 19.2148 21.6523 19.8336 21.0335C20.4525 20.4146 20.8002 19.5752 20.8002 18.7V6.6C20.8002 6.30826 20.6843 6.02847 20.478 5.82218C20.2717 5.61589 19.9919 5.5 19.7002 5.5ZM9.8002 4.4C9.8002 3.81652 10.032 3.25695 10.4446 2.84437C10.8571 2.43179 11.4167 2.2 12.0002 2.2C12.5837 2.2 13.1433 2.43179 13.5558 2.84437C13.9684 3.25695 14.2002 3.81652 14.2002 4.4V5.5H9.8002V4.4ZM18.6002 18.7C18.6002 18.9917 18.4843 19.2715 18.278 19.4778C18.0717 19.6841 17.7919 19.8 17.5002 19.8H6.5002C6.20846 19.8 5.92867 19.6841 5.72238 19.4778C5.51609 19.2715 5.4002 18.9917 5.4002 18.7V7.7H7.6002V8.8C7.6002 9.09174 7.71609 9.37153 7.92238 9.57782C8.12867 9.78411 8.40846 9.9 8.7002 9.9C8.99193 9.9 9.27172 9.78411 9.47801 9.57782C9.6843 9.37153 9.8002 9.09174 9.8002 8.8V7.7H14.2002V8.8C14.2002 9.09174 14.3161 9.37153 14.5224 9.57782C14.7287 9.78411 15.0085 9.9 15.3002 9.9C15.5919 9.9 15.8717 9.78411 16.078 9.57782C16.2843 9.37153 16.4002 9.09174 16.4002 8.8V7.7H18.6002V18.7Z"
  />
</svg>
