<svg
  viewBox="0 0 190 182"
  fill="none"
  xmlns="http://www.w3.org/2000/svg"
>
  <path
    d="M182.04 0V86.28C182.04 95.69 180.55 104.87 177.67 113.62C175.44 120.35 172.39 126.8 168.54 132.88C163.89 127.14 158.61 121.96 152.76 117.44C152.77 117.42 152.77 117.41 152.78 117.39C152.78 117.39 152.773 117.387 152.76 117.38C154.02 114.19 155.11 110.91 156.01 107.55C156.16 106.99 156.31 106.43 156.45 105.87C156.45 105.85 156.45 105.84 156.46 105.83C156.57 105.35 156.69 104.87 156.8 104.39L157.19 102.65C157.32 102 157.45 101.36 157.58 100.71C157.6 100.63 157.62 100.53 157.62 100.45C157.75 99.78 157.87 99.12 157.98 98.45C157.99 98.31 158.02 98.18 158.04 98.04C158.16 97.37 158.25 96.7 158.35 96.03V96.01C158.45 95.27 158.54 94.53 158.63 93.78C158.77 92.58 158.89 91.36 158.98 90.15V90.09C159.19 87.57 159.28 85.03 159.28 82.49V0H151.7V82.49C151.7 84.83 151.61 87.15 151.42 89.48C151.41 89.51 151.41 89.53 151.41 89.56C151.39 90.07 151.34 90.58 151.28 91.09C151.24 91.59 151.2 92.09 151.13 92.6C151.03 93.6 150.89 94.62 150.74 95.61C150.67 96.11 150.6 96.61 150.51 97.1C150.44 97.59 150.35 98.1 150.26 98.59C150.09 99.57 149.89 100.55 149.67 101.53C149.58 102.01 149.46 102.49 149.34 102.98C149.23 103.46 149.12 103.95 148.99 104.43C148.27 107.32 147.39 110.16 146.38 112.91C140.14 108.87 133.48 105.57 126.49 103.08V103.06C126.49 103.06 126.46 103.04 126.45 103.04C127.56 97.8 128.32 92.25 128.7 86.56C128.69 86.54 128.69 86.51 128.7 86.49C128.79 84.95 128.86 83.42 128.91 81.86C128.92 80.78 128.94 79.69 128.94 78.6V0H121.36V78.6C121.36 79.6 121.35 80.58 121.32 81.57C121.17 88.25 120.45 94.7 119.2 100.84C112.48 99.05 105.58 98.01 98.6 97.74V0H91.02V97.74C84.04 98.01 77.14 99.05 70.42 100.84C69.17 94.7 68.45 88.25 68.3 81.57C68.27 80.58 68.26 79.6 68.26 78.6V0H60.68V78.6C60.68 79.69 60.7 80.78 60.71 81.86C60.76 83.42 60.83 84.95 60.92 86.49C60.93 86.51 60.93 86.54 60.92 86.56C61.3 92.25 62.06 97.8 63.17 103.04C63.16 103.04 63.14 103.05 63.13 103.06V103.08C56.14 105.57 49.48 108.87 43.24 112.91C42.23 110.16 41.35 107.32 40.63 104.43C40.5 103.95 40.39 103.46 40.28 102.98C40.16 102.49 40.04 102.01 39.95 101.53C39.73 100.55 39.53 99.57 39.36 98.59C39.27 98.1 39.18 97.59 39.11 97.1C39.02 96.61 38.95 96.11 38.88 95.61C38.73 94.62 38.59 93.6 38.49 92.6C38.42 92.09 38.38 91.59 38.34 91.09C38.28 90.58 38.23 90.07 38.21 89.56C38.21 89.53 38.21 89.51 38.2 89.48C38.01 87.15 37.92 84.83 37.92 82.49V0H30.34V82.49C30.34 85.03 30.43 87.57 30.64 90.09V90.15C30.73 91.36 30.85 92.58 30.99 93.78C31.08 94.53 31.17 95.27 31.27 96.01V96.03C31.37 96.7 31.46 97.37 31.58 98.04C31.6 98.18 31.63 98.31 31.64 98.45C31.75 99.12 31.87 99.78 32 100.45C32 100.53 32.02 100.63 32.04 100.71C32.17 101.36 32.3 102 32.43 102.65L32.82 104.39C32.93 104.87 33.05 105.35 33.16 105.83C33.17 105.84 33.17 105.85 33.17 105.87C33.31 106.43 33.46 106.99 33.61 107.55C34.51 110.91 35.6 114.19 36.86 117.38C36.86 117.38 36.8533 117.383 36.84 117.39C36.84 117.39 36.85 117.42 36.86 117.44C31.01 121.96 25.73 127.14 21.08 132.88C17.22 126.8 14.16 120.33 11.93 113.58C9.06 104.86 7.58 95.68 7.58 86.28V0H0V87.23C0 87.31 0.0100021 87.38 0.0100021 87.46C0.250002 107.03 6.38 125.72 17.78 141.57C17.86 141.69 17.95 141.81 18.04 141.92C18.05 141.93 18.06 141.95 18.07 141.96C24.52 150.84 32.4 158.41 41.26 164.47C41.51 164.68 41.78 164.88 42.07 165.03C49.35 169.89 57.27 173.73 65.6 176.44C65.98 176.63 66.38 176.76 66.78 176.82C75.77 179.62 85.21 181.1 94.81 181.1C106.23 181.1 117.41 179.01 127.88 175.1C128.29 175.02 128.69 174.86 129.06 174.64C138.52 170.96 147.38 165.78 155.24 159.3C155.47 159.14 155.7 158.96 155.9 158.75C161.72 153.85 166.99 148.23 171.55 141.97C171.55 141.96 171.56 141.95 171.56 141.94C171.66 141.82 171.75 141.7 171.83 141.6C171.83 141.59 171.84 141.58 171.85 141.57C171.85 141.57 171.853 141.563 171.86 141.55C183.25 125.69 189.37 107.01 189.61 87.46C189.61 87.38 189.62 87.31 189.62 87.23V0H182.04ZM38.8 136.98C38.47 138.83 38.24 140.7 38.09 142.57C38.04 143.2 38.01 143.82 37.98 144.45C37.94 145.26 37.92 146.06 37.92 146.87C37.92 147.82 37.94 148.75 38 149.69C38.03 150.48 38.08 151.26 38.17 152.04V152.11C38.18 152.24 38.19 152.38 38.21 152.51H38.2C38.2 152.51 38.21 152.58 38.21 152.61C35.45 150.27 32.84 147.75 30.37 145.06V144.97C30.4 144.14 30.44 143.3 30.5 142.47C30.53 142.01 30.56 141.57 30.6 141.12C30.64 140.68 30.68 140.23 30.72 139.79C33.4 138.75 36.09 137.78 38.8 136.88C38.79 136.92 38.79 136.95 38.78 136.99C38.78 136.99 38.7867 136.987 38.8 136.98ZM33.14 130.8C33.09 130.82 33.06 130.83 33.01 130.84C35.25 128.6 37.61 126.49 40.06 124.51C40.07 124.51 40.07 124.54 40.08 124.55C40.66 125.71 41.27 126.83 41.9 127.96C38.96 128.83 36.03 129.78 33.14 130.8ZM124.58 110.46C124.58 110.46 124.59 110.43 124.59 110.42C131.21 112.83 137.51 116.03 143.36 119.95C143.36 119.95 143.35 119.97 143.34 119.98C142.36 122.01 141.29 123.98 140.14 125.9C140.09 125.9 140.05 125.87 140 125.86C134.32 124.43 128.58 123.29 122.79 122.42C122.75 122.41 122.72 122.41 122.69 122.4C121.87 122.27 121.05 122.16 120.22 122.05C121.9 118.5 123.36 114.61 124.58 110.46ZM98.6 105.24C104.99 105.53 111.29 106.51 117.38 108.14C117.37 108.16 117.37 108.17 117.36 108.19C115.97 112.95 114.24 117.31 112.2 121.14C107.7 120.72 103.16 120.46 98.6 120.37V105.24ZM94.81 127.91C100.2 127.91 104.72 131.66 105.87 136.69C105.91 136.85 105.95 137.02 105.98 137.18C106.02 137.35 106.04 137.52 106.06 137.69C106.09 137.87 106.11 138.05 106.13 138.23C106.15 138.41 106.16 138.6 106.17 138.79C106.19 138.95 106.19 139.12 106.19 139.28C106.19 139.48 106.18 139.67 106.17 139.87C106.16 140.06 106.15 140.25 106.13 140.43C106.11 140.61 106.09 140.79 106.06 140.97C106.04 141.14 106.02 141.31 105.98 141.48C105.95 141.64 105.91 141.81 105.87 141.98C104.72 147 100.2 150.76 94.81 150.76C92.81 150.76 91.18 149.22 91.04 147.26C91.03 147.12 91.02 147 91.02 146.87C91.02 146.77 91.02 146.67 91.04 146.57C91.18 144.62 92.81 143.08 94.81 143.08C96.81 143.08 98.38 141.59 98.58 139.67C98.59 139.54 98.6 139.42 98.6 139.28C98.6 139.19 98.6 139.08 98.58 138.99C98.38 137.07 96.77 135.59 94.81 135.59C89.47 135.59 84.97 139.29 83.75 144.27C83.71 144.43 83.67 144.59 83.64 144.76C83.61 144.93 83.58 145.1 83.56 145.28C83.53 145.46 83.51 145.64 83.49 145.82C83.47 146.01 83.46 146.19 83.45 146.38C83.43 146.54 83.43 146.71 83.43 146.87C83.43 147.07 83.44 147.26 83.45 147.46C83.46 147.65 83.47 147.83 83.49 148.02C83.51 148.2 83.53 148.38 83.56 148.56C83.58 148.73 83.61 148.9 83.64 149.07C83.67 149.24 83.71 149.4 83.75 149.56C84.97 154.54 89.47 158.25 94.81 158.25C103.15 158.25 110.26 152.83 112.81 145.32C112.88 145.08 112.96 144.83 113.03 144.58C113.19 144.05 113.32 143.52 113.42 142.97C113.54 142.38 113.62 141.8 113.68 141.2C113.71 140.89 113.73 140.57 113.74 140.26C113.76 139.94 113.77 139.61 113.77 139.28C113.77 139.06 113.77 138.86 113.76 138.64C113.75 138.41 113.74 138.18 113.73 137.96C113.7 137.53 113.65 137.1 113.59 136.69C113.17 133.75 112.07 131.03 110.45 128.68C110.47 128.68 110.5 128.68 110.52 128.69C110.5 128.65 110.47 128.63 110.45 128.59C113.5 128.85 116.53 129.19 119.54 129.61C120.6 132.33 121.21 135.19 121.33 138.13C121.35 138.51 121.36 138.89 121.36 139.28C121.36 139.74 121.35 140.19 121.32 140.65C121.3 141.08 121.27 141.52 121.23 141.96C121.19 142.37 121.13 142.79 121.07 143.21C119.22 156.04 108.15 165.93 94.81 165.93C86.43 165.93 79.3 160.46 76.81 152.91C76.73 152.66 76.65 152.41 76.59 152.17C76.43 151.64 76.3 151.11 76.2 150.56C76.08 149.97 76 149.38 75.94 148.78C75.91 148.47 75.89 148.16 75.88 147.84C75.86 147.52 75.85 147.19 75.85 146.87C75.85 146.57 75.86 146.28 75.88 145.99C75.89 145.67 75.91 145.36 75.94 145.05C76 144.45 76.08 143.86 76.2 143.28C76.3 142.72 76.43 142.19 76.59 141.66C76.65 141.42 76.73 141.17 76.81 140.92C79.3 133.37 86.43 127.91 94.81 127.91ZM91.02 105.24V120.37C86.46 120.46 81.92 120.72 77.42 121.14C75.38 117.31 73.65 112.95 72.26 108.19C72.25 108.17 72.25 108.16 72.24 108.14C78.33 106.51 84.63 105.53 91.02 105.24ZM65.03 110.42C65.03 110.42 65.04 110.45 65.04 110.46C66.26 114.61 67.72 118.5 69.4 122.05C62.68 122.97 56.03 124.25 49.48 125.9C48.33 123.98 47.26 122.01 46.27 119.98C46.27 119.97 46.26 119.96 46.26 119.95C52.11 116.03 58.41 112.83 65.03 110.42ZM57.15 164.91C53.66 163.24 50.29 161.34 47.05 159.22C46.57 157.34 46.2 155.41 45.94 153.48C45.78 152.31 45.68 151.14 45.6 149.98C45.53 148.94 45.51 147.91 45.51 146.87C45.51 145.83 45.53 144.81 45.61 143.8C45.67 142.74 45.76 141.69 45.9 140.65C45.96 140.13 46.04 139.61 46.13 139.08C46.38 137.49 46.71 135.92 47.12 134.35C47.61 134.22 48.1 134.09 48.6 133.95C48.69 133.93 48.79 133.91 48.88 133.88C51.17 133.27 53.46 132.7 55.77 132.18C55.77 132.22 55.75 132.26 55.74 132.3C55.75 132.29 55.76 132.29 55.77 132.29C54.23 136.36 53.34 140.69 53.13 145.08C53.1 145.67 53.09 146.27 53.09 146.87C53.09 147.66 53.11 148.44 53.16 149.22C53.18 149.56 53.2 149.9 53.22 150.24C53.25 150.59 53.29 150.95 53.32 151.31C53.83 156.03 55.13 160.59 57.15 164.83C57.13 164.83 57.12 164.81 57.1 164.8C57.11 164.84 57.13 164.87 57.15 164.91ZM136.48 141.29C136.04 151.34 132.03 160.75 125.08 168.05C115.77 171.51 105.84 173.41 95.69 173.5C95.4 173.51 95.1 173.51 94.81 173.51C94.57 173.51 94.33 173.51 94.09 173.5C85.62 173.44 77.3 172.13 69.36 169.69C65.83 165.73 63.28 161.05 61.91 156.01C61.81 155.67 61.73 155.34 61.64 154.99C61.56 154.63 61.47 154.27 61.4 153.9C61.22 153.08 61.07 152.23 60.97 151.38C60.84 150.41 60.75 149.43 60.71 148.44C60.69 147.92 60.68 147.4 60.68 146.87C60.68 146.18 60.7 145.49 60.74 144.8C60.78 144.17 60.84 143.54 60.91 142.91C60.94 142.59 60.99 142.28 61.04 141.98C61.11 141.46 61.2 140.96 61.29 140.46C61.97 136.93 63.19 133.54 64.93 130.39C68.34 129.82 71.77 129.36 75.22 128.98C75.19 129.01 75.16 129.04 75.14 129.07C75.16 129.07 75.19 129.06 75.22 129.06C71.16 133.49 68.59 139.29 68.29 145.67C68.27 146.07 68.26 146.47 68.26 146.87C68.26 147.32 68.27 147.78 68.3 148.23C68.32 148.67 68.36 149.11 68.39 149.53C68.44 149.97 68.5 150.4 68.56 150.82C68.6 151.15 68.66 151.5 68.73 151.82C68.77 152.05 68.83 152.28 68.88 152.52C68.88 152.57 68.89 152.61 68.91 152.65C68.98 152.98 69.06 153.33 69.15 153.66C69.21 153.93 69.29 154.2 69.37 154.46C69.45 154.71 69.52 154.96 69.61 155.2C69.67 155.39 69.73 155.57 69.81 155.75C69.82 155.8 69.84 155.86 69.85 155.91C69.87 155.97 69.89 156.02 69.91 156.07C69.92 156.09 69.93 156.12 69.94 156.15C69.95 156.17 69.96 156.19 69.96 156.21C69.99 156.26 70.02 156.33 70.03 156.39C70.04 156.42 70.05 156.45 70.06 156.48C70.08 156.51 70.09 156.54 70.1 156.57C70.13 156.64 70.16 156.72 70.19 156.79L70.33 157.13C70.4 157.28 70.47 157.44 70.54 157.59C70.62 157.79 70.72 158 70.81 158.2C70.84 158.27 70.88 158.34 70.92 158.42C71.03 158.65 71.14 158.88 71.27 159.11C71.3 159.16 71.31 159.21 71.35 159.26C71.45 159.45 71.55 159.64 71.66 159.82C71.68 159.85 71.68 159.88 71.7 159.91C71.79 160.07 71.88 160.22 71.98 160.38C72.11 160.62 72.25 160.85 72.41 161.09C72.59 161.37 72.77 161.64 72.96 161.91C73.17 162.23 73.4 162.55 73.65 162.86C73.75 163.01 73.86 163.15 73.97 163.29C75.02 164.64 76.22 165.88 77.52 167C77.76 167.21 78.02 167.41 78.27 167.61C78.63 167.91 79 168.19 79.38 168.46C79.59 168.61 79.8 168.76 80.02 168.9C81.41 169.84 82.89 170.65 84.46 171.31C84.76 171.44 85.06 171.57 85.37 171.68C85.68 171.8 85.99 171.91 86.31 172.01C86.62 172.13 86.94 172.22 87.25 172.32C87.5 172.39 87.74 172.46 87.98 172.52C88.18 172.58 88.39 172.63 88.6 172.68C88.9 172.75 89.2 172.82 89.51 172.88C89.78 172.94 90.06 172.99 90.33 173.03C90.66 173.09 90.98 173.14 91.3 173.18C91.51 173.22 91.72 173.24 91.93 173.26C92.13 173.28 92.32 173.3 92.52 173.31C92.87 173.35 93.22 173.37 93.57 173.39C93.74 173.39 93.92 173.41 94.09 173.41H94.25C94.44 173.42 94.62 173.42 94.81 173.42C95.1 173.42 95.4 173.42 95.69 173.41C96.39 173.39 97.09 173.35 97.79 173.28C98 173.27 98.2 173.26 98.41 173.23C98.82 173.19 99.23 173.14 99.64 173.08C99.96 173.04 100.27 172.98 100.59 172.92C100.87 172.89 101.14 172.84 101.42 172.77C101.72 172.72 102.02 172.66 102.31 172.59C102.36 172.58 102.4 172.57 102.45 172.55C102.77 172.49 103.1 172.4 103.42 172.32C103.55 172.29 103.68 172.25 103.82 172.21C104.2 172.11 104.57 172 104.94 171.89C105.26 171.79 105.58 171.68 105.89 171.57C107.74 170.93 109.53 170.15 111.22 169.21C111.45 169.08 111.68 168.96 111.91 168.82C112.22 168.65 112.53 168.46 112.83 168.26C113.11 168.09 113.38 167.91 113.66 167.73C113.98 167.51 114.3 167.29 114.62 167.06C114.88 166.88 115.14 166.69 115.39 166.49C115.63 166.31 115.87 166.13 116.11 165.94C117.13 165.12 118.12 164.25 119.04 163.31C119.24 163.11 119.44 162.9 119.63 162.69C119.85 162.47 120.07 162.23 120.28 162C120.49 161.76 120.69 161.53 120.88 161.29C121.01 161.15 121.13 161 121.24 160.85C121.4 160.68 121.53 160.5 121.66 160.33C121.74 160.25 121.8 160.16 121.87 160.08C121.98 159.93 122.09 159.79 122.19 159.65C122.23 159.59 122.28 159.54 122.32 159.48C122.5 159.23 122.67 158.99 122.85 158.74C122.85 158.73 122.86 158.71 122.87 158.7C123.04 158.46 123.2 158.23 123.35 157.99C123.37 157.96 123.39 157.93 123.41 157.9C123.58 157.65 123.75 157.38 123.91 157.12C124.14 156.76 124.35 156.38 124.56 156.01C124.59 155.97 124.61 155.93 124.63 155.89C124.65 155.86 124.67 155.82 124.7 155.78C124.86 155.48 125.02 155.17 125.18 154.86C125.35 154.53 125.52 154.2 125.68 153.86C125.78 153.66 125.86 153.46 125.96 153.26C126.16 152.8 126.35 152.34 126.53 151.87C126.64 151.6 126.74 151.33 126.85 151.06C126.98 150.73 127.09 150.4 127.21 150.05C127.34 149.66 127.46 149.26 127.58 148.86C127.73 148.37 127.86 147.85 127.99 147.35C128.1 146.88 128.2 146.4 128.3 145.92C128.35 145.65 128.39 145.39 128.44 145.12C128.49 144.86 128.54 144.58 128.57 144.32C128.61 144.05 128.65 143.78 128.68 143.5C128.73 143.15 128.76 142.8 128.79 142.45C128.84 141.99 128.88 141.51 128.9 141.04C128.92 140.46 128.94 139.87 128.94 139.28C128.94 138.61 128.92 137.94 128.88 137.26C128.74 135.16 128.42 133.09 127.92 131.06H127.94C127.94 131.06 127.93 131.01 127.92 130.98C130.63 131.48 133.32 132.06 136.01 132.69C136.09 133.25 136.17 133.81 136.23 134.38C136.3 134.94 136.36 135.51 136.4 136.07C136.48 137.14 136.53 138.21 136.53 139.28C136.53 139.96 136.51 140.63 136.48 141.29ZM151.58 142.98C151.36 146.69 150.76 150.37 149.81 153.94C146.36 156.74 142.7 159.28 138.88 161.52C138.9 161.47 138.93 161.43 138.95 161.38C138.93 161.39 138.9 161.41 138.88 161.42C141.31 156.59 142.92 151.39 143.67 145.98C143.73 145.56 143.77 145.14 143.82 144.73C143.91 143.89 143.98 143.05 144.03 142.2C144.09 141.24 144.11 140.26 144.11 139.28C144.11 138.56 144.09 137.83 144.06 137.11C144.04 136.73 144.02 136.35 143.99 135.98C143.96 135.6 143.92 135.22 143.9 134.85C143.9 134.85 143.9 134.78 143.9 134.75C146.49 135.5 149.08 136.31 151.65 137.17V137.26C151.68 137.95 151.7 138.61 151.7 139.28C151.7 140.52 151.66 141.75 151.58 142.98ZM156.48 130.8C153.58 129.78 150.66 128.83 147.72 127.96C148.35 126.83 148.96 125.71 149.54 124.55C149.55 124.54 149.55 124.52 149.56 124.51C152.01 126.49 154.37 128.6 156.62 130.84C156.57 130.83 156.53 130.82 156.48 130.8ZM162.49 141.3C161.36 142.68 160.2 144.02 159 145.32C159 145.29 159.01 145.26 159.01 145.23C159.06 144.63 159.1 144.03 159.14 143.44C159.16 143.15 159.18 142.87 159.19 142.58C159.24 141.73 159.27 140.88 159.27 140.02V139.93C160.35 140.34 161.43 140.77 162.49 141.21C162.47 141.23 162.45 141.26 162.43 141.27C162.45 141.28 162.47 141.29 162.49 141.3Z"
  />
</svg>
