<svg
  viewBox="0 0 108 49"
  xmlns="http://www.w3.org/2000/svg"
>
  <path
    d="M78.9918 48.344C76.0905 48.344 73.4451 48.0027 71.0558 47.32C68.7518 46.6373 66.5331 45.656 64.3998 44.376C62.3518 43.0107 60.3891 41.304 58.5118 39.256C56.6345 37.208 54.6718 34.8187 52.6238 32.088C51.1731 34.3067 49.5091 36.44 47.6318 38.488C45.7545 40.4507 43.6638 42.2 41.3598 43.736C39.0558 45.1867 36.4958 46.3813 33.6798 47.32C30.8638 48.1733 27.7491 48.6 24.3358 48.6C21.0078 48.6 17.8931 48.088 14.9918 47.064C12.1758 45.9547 9.70112 44.4613 7.56778 42.584C5.51978 40.6213 3.89845 38.2747 2.70378 35.544C1.50911 32.8133 0.911781 29.8267 0.911781 26.584C0.911781 22.744 1.72245 19.2453 3.34378 16.088C5.05045 12.9307 7.22645 10.2427 9.87178 8.024C12.5171 5.71999 15.4611 3.97066 18.7038 2.77599C21.9464 1.49599 25.1891 0.855995 28.4318 0.855995C31.8451 0.855995 34.7891 1.24 37.2638 2.008C39.8238 2.776 42.1278 3.928 44.1758 5.464C46.2238 6.91466 48.1438 8.70666 49.9358 10.84C51.7278 12.9733 53.6051 15.448 55.5678 18.264C57.1891 15.96 58.9384 13.784 60.8158 11.736C62.6931 9.60266 64.8264 7.72533 67.2158 6.104C69.6051 4.39733 72.2505 3.07466 75.1518 2.13599C78.0531 1.112 81.2958 0.599998 84.8798 0.599998C88.8904 0.599998 92.3038 1.24 95.1198 2.52C98.0211 3.71466 100.41 5.336 102.288 7.384C104.165 9.34666 105.53 11.608 106.384 14.168C107.237 16.6427 107.664 19.16 107.664 21.72C107.664 25.4747 106.896 28.9733 105.36 32.216C103.909 35.4587 101.861 38.2747 99.2158 40.664C96.6558 43.0533 93.6265 44.9307 90.1278 46.296C86.6291 47.6613 82.9171 48.344 78.9918 48.344ZM80.3998 7.64C78.0958 7.64 75.9198 8.06666 73.8718 8.92C71.9091 9.688 70.0318 10.7973 68.2398 12.248C66.4478 13.6133 64.7411 15.192 63.1198 16.984C61.5838 18.776 60.1331 20.696 58.7678 22.744L59.4078 23.64C61.7971 27.0533 63.9305 29.9547 65.8078 32.344C67.7705 34.7333 69.6478 36.696 71.4398 38.232C73.2318 39.6827 75.0238 40.7493 76.8158 41.432C78.6078 42.1147 80.5705 42.456 82.7038 42.456C87.4825 42.456 91.1945 41.0907 93.8398 38.36C96.4851 35.6293 97.8078 31.576 97.8078 26.2C97.8078 23.64 97.4238 21.2507 96.6558 19.032C95.9731 16.728 94.8638 14.7653 93.3278 13.144C91.8771 11.4373 90.0425 10.1147 87.8238 9.176C85.6905 8.152 83.2158 7.64 80.3998 7.64ZM28.5598 41.048C32.6558 41.048 36.4105 39.896 39.8238 37.592C43.3225 35.2027 46.5225 31.9173 49.4238 27.736L46.2238 23C44.3465 20.2693 42.5971 17.88 40.9758 15.832C39.3545 13.784 37.7331 12.0773 36.1118 10.712C34.4904 9.34666 32.8264 8.32266 31.1198 7.64C29.4131 6.95733 27.5358 6.616 25.4878 6.616C23.5251 6.616 21.6478 6.95733 19.8558 7.64C18.0638 8.32266 16.4851 9.34666 15.1198 10.712C13.8398 11.992 12.7731 13.656 11.9198 15.704C11.1518 17.6667 10.7678 19.9707 10.7678 22.616C10.7678 28.248 12.3464 32.728 15.5038 36.056C18.7464 39.384 23.0984 41.048 28.5598 41.048Z"
  />
</svg>
