<svg
  viewBox="0 0 188 22"
  xmlns="http://www.w3.org/2000/svg"
  preserveAspectRatio="none"
>
  <path
    d="M187.621 19.917C182.246 21.9822 171.521 22.428 155.446 21.2542C149.154 20.7726 140.834 19.9289 130.485 18.7233C120.137 17.5176 111.185 16.4008 103.63 15.373C96.0786 14.3917 85.2749 12.9443 71.2187 11.031C61.904 9.73486 54.6995 8.74669 49.6053 8.06648C44.511 7.38627 38.1884 6.55552 30.6373 5.57423C23.0902 4.63949 17.2146 3.95728 13.0104 3.52759C8.6379 3.15954 5.76047 3.01252 4.37807 3.08655C3.16796 3.14551 2.21016 3.11203 1.5047 2.9861C0.795181 2.81362 0.428178 2.5877 0.403739 2.30836L0.39152 2.1687C0.379301 2.02903 0.539381 1.87429 0.871747 1.70447C1.03181 1.54973 1.36623 1.4032 1.87495 1.26486C2.21139 1.14161 2.636 1.03409 3.14881 0.94231C3.66161 0.850533 4.2626 0.774497 4.95177 0.714202C8.92262 0.460622 15.9961 0.94421 26.1724 2.16496C36.5249 3.4172 53.2965 5.60903 76.4871 8.74048C118.836 14.5586 146.563 17.9499 159.669 18.9144C162.987 19.1401 165.953 19.3029 168.565 19.4027C171.178 19.5025 173.178 19.5386 174.564 19.5112C176.123 19.4686 177.419 19.4021 178.453 19.3117L181.521 19.0433L182.284 18.8358C182.284 18.8358 184.279 18.5297 185.459 18.6987C186.64 18.8678 187.135 19.191 187.36 19.3545C187.586 19.518 187.621 19.917 187.621 19.917Z"
  />
</svg>
