<svg
  viewBox="0 0 101 136"
  fill="none"
  xmlns="http://www.w3.org/2000/svg"
>
  <g opacity="0.75">
    <path
      d="M2.87851 0H12.6906C14.0454 0 15.1437 1.10312 15.1437 2.46389V12.3194C15.1437 13.6802 14.0454 14.7833 12.6906 14.7833H2.87851C1.52374 14.7833 0.425474 13.6802 0.425474 12.3194V2.46389C0.425474 1.10312 1.52374 0 2.87851 0Z"
      fill="#38D430"
    />
    <path
      opacity="0.871429"
      d="M2.87815 17.2473H12.6903C14.0451 17.2473 15.1433 18.3504 15.1433 19.7112V29.5667C15.1433 30.9275 14.0451 32.0306 12.6903 32.0306H2.87815C1.52338 32.0306 0.425119 30.9275 0.425119 29.5667V19.7112C0.425119 18.3504 1.52338 17.2473 2.87815 17.2473Z"
      fill="#38D430"
    />
    <path
      opacity="0.742857"
      d="M2.87815 34.4944H12.6903C14.0451 34.4944 15.1433 35.5975 15.1433 36.9583V46.8138C15.1433 48.1746 14.0451 49.2777 12.6903 49.2777H2.87815C1.52338 49.2777 0.425119 48.1746 0.425119 46.8138V36.9583C0.425119 35.5975 1.52338 34.4944 2.87815 34.4944Z"
      fill="#38D430"
    />
    <path
      opacity="0.614286"
      d="M2.87815 51.7416H12.6903C14.0451 51.7416 15.1433 52.8447 15.1433 54.2055V64.061C15.1433 65.4218 14.0451 66.5249 12.6903 66.5249H2.87815C1.52338 66.5249 0.425119 65.4218 0.425119 64.061V54.2055C0.425119 52.8447 1.52338 51.7416 2.87815 51.7416Z"
      fill="#38D430"
    />
    <path
      opacity="0.485714"
      d="M2.87815 68.9891H12.6903C14.0451 68.9891 15.1433 70.0923 15.1433 71.453V81.3086C15.1433 82.6693 14.0451 83.7725 12.6903 83.7725H2.87815C1.52338 83.7725 0.425119 82.6693 0.425119 81.3086V71.453C0.425119 70.0923 1.52338 68.9891 2.87815 68.9891Z"
      fill="#38D430"
    />
    <path
      opacity="0.357143"
      d="M2.87815 86.2362H12.6903C14.0451 86.2362 15.1433 87.3393 15.1433 88.7001V98.5556C15.1433 99.9164 14.0451 101.02 12.6903 101.02H2.87815C1.52338 101.02 0.425119 99.9164 0.425119 98.5556V88.7001C0.425119 87.3393 1.52338 86.2362 2.87815 86.2362Z"
      fill="#38D430"
    />
    <path
      opacity="0.228571"
      d="M2.87815 103.483H12.6903C14.0451 103.483 15.1433 104.586 15.1433 105.947V115.803C15.1433 117.163 14.0451 118.267 12.6903 118.267H2.87815C1.52338 118.267 0.425119 117.163 0.425119 115.803V105.947C0.425119 104.586 1.52338 103.483 2.87815 103.483Z"
      fill="#38D430"
    />
    <path
      opacity="0.1"
      d="M2.87815 120.731H12.6903C14.0451 120.731 15.1433 121.834 15.1433 123.194V133.05C15.1433 134.411 14.0451 135.514 12.6903 135.514H2.87815C1.52338 135.514 0.425119 134.411 0.425119 133.05V123.194C0.425119 121.834 1.52338 120.731 2.87815 120.731Z"
      fill="#38D430"
    />
    <path
      d="M20.05 0H29.8621C31.2169 0 32.3151 1.10312 32.3151 2.46389V12.3194C32.3151 13.6802 31.2169 14.7833 29.8621 14.7833H20.05C18.6952 14.7833 17.5969 13.6802 17.5969 12.3194V2.46389C17.5969 1.10312 18.6952 0 20.05 0Z"
      fill="#38D430"
    />
    <path
      opacity="0.82"
      d="M20.0501 17.2473H29.8623C31.217 17.2473 32.3153 18.3504 32.3153 19.7112V29.5667C32.3153 30.9275 31.217 32.0306 29.8623 32.0306H20.0501C18.6954 32.0306 17.5971 30.9275 17.5971 29.5667V19.7112C17.5971 18.3504 18.6954 17.2473 20.0501 17.2473Z"
      fill="#38D430"
    />
    <path
      opacity="0.64"
      d="M20.0501 34.4944H29.8623C31.217 34.4944 32.3153 35.5975 32.3153 36.9583V46.8138C32.3153 48.1746 31.217 49.2777 29.8623 49.2777H20.0501C18.6954 49.2777 17.5971 48.1746 17.5971 46.8138V36.9583C17.5971 35.5975 18.6954 34.4944 20.0501 34.4944Z"
      fill="#38D430"
    />
    <path
      opacity="0.46"
      d="M20.0501 51.7416H29.8623C31.217 51.7416 32.3153 52.8447 32.3153 54.2055V64.061C32.3153 65.4218 31.217 66.5249 29.8623 66.5249H20.0501C18.6954 66.5249 17.5971 65.4218 17.5971 64.061V54.2055C17.5971 52.8447 18.6954 51.7416 20.0501 51.7416Z"
      fill="#38D430"
    />
    <path
      opacity="0.28"
      d="M20.0501 68.9891H29.8623C31.217 68.9891 32.3153 70.0923 32.3153 71.453V81.3086C32.3153 82.6693 31.217 83.7725 29.8623 83.7725H20.0501C18.6954 83.7725 17.5971 82.6693 17.5971 81.3086V71.453C17.5971 70.0923 18.6954 68.9891 20.0501 68.9891Z"
      fill="#38D430"
    />
    <path
      opacity="0.1"
      d="M20.0501 86.2362H29.8623C31.217 86.2362 32.3153 87.3393 32.3153 88.7001V98.5556C32.3153 99.9164 31.217 101.02 29.8623 101.02H20.0501C18.6954 101.02 17.5971 99.9164 17.5971 98.5556V88.7001C17.5971 87.3393 18.6954 86.2362 20.0501 86.2362Z"
      fill="#38D430"
    />
    <path
      opacity="0.742857"
      d="M37.2212 0H47.0333C48.3881 0 49.4863 1.10312 49.4863 2.46389V12.3194C49.4863 13.6802 48.3881 14.7833 47.0333 14.7833H37.2212C35.8664 14.7833 34.7681 13.6802 34.7681 12.3194V2.46389C34.7681 1.10312 35.8664 0 37.2212 0Z"
      fill="#38D430"
    />
    <path
      opacity="0.485714"
      d="M37.2212 17.2473H47.0333C48.3881 17.2473 49.4863 18.3504 49.4863 19.7112V29.5667C49.4863 30.9275 48.3881 32.0306 47.0333 32.0306H37.2212C35.8664 32.0306 34.7681 30.9275 34.7681 29.5667V19.7112C34.7681 18.3504 35.8664 17.2473 37.2212 17.2473Z"
      fill="#38D430"
    />
    <path
      opacity="0.228571"
      d="M37.2212 34.4944H47.0333C48.3881 34.4944 49.4863 35.5975 49.4863 36.9583V46.8138C49.4863 48.1746 48.3881 49.2777 47.0333 49.2777H37.2212C35.8664 49.2777 34.7681 48.1746 34.7681 46.8138V36.9583C34.7681 35.5975 35.8664 34.4944 37.2212 34.4944Z"
      fill="#38D430"
    />
    <g opacity="0.614286">
      <path
        d="M54.3919 0H64.204C65.5588 0 66.6571 1.10312 66.6571 2.46389V12.3194C66.6571 13.6802 65.5588 14.7833 64.204 14.7833H54.3919C53.0371 14.7833 51.9389 13.6802 51.9389 12.3194V2.46389C51.9389 1.10312 53.0371 0 54.3919 0Z"
        fill="#38D430"
      />
    </g>
    <g opacity="0.28">
      <path
        d="M54.3919 17.2473H64.204C65.5588 17.2473 66.6571 18.3504 66.6571 19.7112V29.5667C66.6571 30.9275 65.5588 32.0306 64.204 32.0306H54.3919C53.0371 32.0306 51.9389 30.9275 51.9389 29.5667V19.7112C51.9389 18.3504 53.0371 17.2473 54.3919 17.2473Z"
        fill="#38D430"
      />
    </g>
    <g opacity="0.357143">
      <path
        d="M71.5634 0H81.3755C82.7303 0 83.8285 1.10312 83.8285 2.46389V12.3194C83.8285 13.6802 82.7303 14.7833 81.3755 14.7833H71.5634C70.2086 14.7833 69.1103 13.6802 69.1103 12.3194V2.46389C69.1103 1.10312 70.2086 0 71.5634 0Z"
        fill="#38D430"
      />
    </g>
    <g opacity="0.1">
      <path
        d="M88.7348 0H98.5469C99.9017 0 101 1.10312 101 2.46389V12.3194C101 13.6802 99.9017 14.7833 98.5469 14.7833H88.7348C87.38 14.7833 86.2818 13.6802 86.2818 12.3194V2.46389C86.2818 1.10312 87.38 0 88.7348 0Z"
        fill="#38D430"
      />
    </g>
    <g opacity="0.1">
      <path
        d="M71.5634 17.2473H81.3755C82.7303 17.2473 83.8285 18.3504 83.8285 19.7112V29.5667C83.8285 30.9275 82.7303 32.0306 81.3755 32.0306H71.5634C70.2086 32.0306 69.1103 30.9275 69.1103 29.5667V19.7112C69.1103 18.3504 70.2086 17.2473 71.5634 17.2473Z"
        fill="#38D430"
      />
    </g>
  </g>
</svg>
