<svg
  viewBox="0 0 71 48"
  fill="none"
  xmlns="http://www.w3.org/2000/svg"
>
  <g clip-path="url(#clip0_86_989)">
    <path
      d="M3.8703 47.7979C2.63746 46.8783 0.2223 44.9583 0.131353 43.392C0.848827 42.5937 1.79872 41.9975 2.64756 41.3609C9.0543 36.1162 18.24 29.0627 19.7962 20.4632C14.5617 20.9078 10.0446 24.7478 4.76967 24.6467C2.9002 24.2931 1.38441 22.747 0.343564 21.1402C0.0808267 20.7259 -0.0505417 20.2409 -1.53929e-05 19.7558C0.474932 15.0872 16.5423 -3.34483 20.5642 0.535593C20.7057 0.666962 21.5646 1.92001 20.3116 2.33433C14.0463 5.11328 8.0943 15.1478 4.07241 20.8977C8.97346 19.7659 13.6522 16.128 18.8362 16.9364C22.0598 18.6341 24.1617 22.2518 23.1714 26.1019C20.9583 34.6712 5.58819 48 4.32504 48C4.14314 48 3.99156 47.9394 3.8703 47.7979Z"
      fill="#FEC301"
    />
    <path
      d="M69.4635 25.4046C69.0088 25.0206 68.5136 24.3436 67.8871 24.3436C66.9069 24.7478 65.9166 25.1318 64.9263 25.5259C64.5221 25.6573 64.1077 25.7785 63.6934 25.8998C64.1178 21.2716 64.3806 16.6131 65.1991 12.0455C65.6842 10.3377 66.0075 8.57937 66.4421 6.86147C66.8968 5.68926 67.3212 4.50695 67.6951 3.31453C67.5233 2.52632 65.6437 -0.050526 64.8252 2.97208e-07C59.7423 9.216 56.0033 19.6244 51.456 29.1032C50.496 29.3659 49.536 29.6286 48.5861 29.9217C47.8787 30.1743 46.9389 30.4775 46.272 30.8211C46.2416 31.5284 47.9797 32.8421 48.5658 33.2463C48.6871 33.3272 48.7983 33.3575 48.9195 33.3575C49.061 33.3575 49.2025 33.3171 49.344 33.2564C47.4138 36.5406 45.8677 41.6842 43.2 44.1701C42.6341 44.6956 41.8155 44.8674 41.1082 44.5541C41.0475 44.5238 40.9869 44.4935 40.9263 44.4632C40.9263 44.4632 42.8766 47.0299 44.2408 47.808C44.5338 47.9495 44.8269 48.0101 45.1098 48.0101C47.8787 48.0101 49.8896 41.7549 51.173 39.8248C52.7292 37.056 54.1743 34.2265 55.5385 31.3667C57.1856 31.0131 58.8429 30.6594 60.4699 30.1844C60.2172 32.7107 60.0353 35.2371 59.8939 37.7836C59.8736 40.6232 58.5802 42.8261 61.3187 44.7966C61.8543 45.2211 62.1776 45.4737 62.3696 45.4737C62.6122 45.4737 62.6324 45.0695 62.6122 44.1297C62.7637 39.4206 62.7637 34.6914 63.2791 30.0025C63.2993 29.8611 63.3094 29.7095 63.3296 29.568C65.8256 29.0021 68.2711 28.3048 70.5246 27.0013C70.8075 26.8396 69.5545 25.4956 69.4635 25.4046ZM57.2665 27.6278C58.1557 25.6573 59.0046 23.6665 59.8231 21.6657C60.581 19.9579 61.3692 18.2602 62.1675 16.5625C61.7936 19.3718 61.5208 22.2114 61.0964 25.0105C61.0155 25.5764 60.9347 26.1423 60.864 26.7082C59.6715 27.0215 58.469 27.3246 57.2665 27.6278Z"
      fill="#FEC301"
    />
    <path
      d="M35.7827 25.3743C37.4703 23.4139 39.1579 21.4535 40.9162 19.5739C40.7949 18.8564 40.0067 18.3107 39.4812 17.856C39.1073 17.5225 38.3798 18.6341 38.0463 18.9676C36.7528 20.2914 35.6008 21.7364 34.469 23.1916C33.4686 21.5444 32.5996 20.1196 31.9225 18.7958C31.4981 18.9777 31.013 19.6547 30.6492 20.1095C30.3562 20.4632 30.6998 20.8472 30.821 21.1301C31.4172 22.4135 32.1448 23.6665 32.9633 25.1116C32.256 26.0008 31.5284 26.8699 30.7604 27.7086C29.8408 28.6484 29.0223 29.6792 28.2846 30.7806C28.3857 31.4072 29.093 31.8922 29.5478 32.2964C29.8711 32.5895 30.6391 31.3263 30.9322 30.9625C31.9831 29.7095 33.0442 28.5373 34.1255 27.2943C34.2467 27.5469 34.368 27.7996 34.4892 28.0623C34.9743 29.2446 35.6311 30.4168 36.4396 31.6194C37.1469 31.7204 37.9958 31.0838 38.6223 30.5987C38.9962 30.3057 37.9857 29.0728 37.632 28.5575C36.9347 27.4156 36.3688 26.3747 35.7827 25.3743Z"
      fill="#0F0F0F"
    />
  </g>
  <defs>
    <clipPath id="clip0_86_989">
      <rect width="70.5549" height="48" fill="white" />
    </clipPath>
  </defs>
</svg>
