<svg
 
  viewBox="0 0 12 12"
  
  xmlns="http://www.w3.org/2000/svg"
>
  <path
    d="M7.2011 9.60065C7.36026 9.60065 7.5129 9.53743 7.62544 9.42489C7.73799 9.31234 7.80121 9.1597 7.80121 9.00054V2.04528L9.17546 3.42553C9.28846 3.53854 9.44173 3.60202 9.60154 3.60202C9.76135 3.60202 9.91461 3.53854 10.0276 3.42553C10.1406 3.31253 10.2041 3.15927 10.2041 2.99946C10.2041 2.83965 10.1406 2.68638 10.0276 2.57338L7.62718 0.172943C7.54279 0.0896735 7.43563 0.0332655 7.31921 0.010837C7.2028 -0.0115916 7.08235 0.000964313 6.97306 0.0469203C6.86347 0.0919405 6.76966 0.168393 6.70344 0.266643C6.63723 0.364893 6.60158 0.480544 6.60099 0.59902V9.00054C6.60099 9.1597 6.66422 9.31234 6.77676 9.42489C6.8893 9.53743 7.04194 9.60065 7.2011 9.60065ZM5.02871 11.9531C5.1383 11.9081 5.23211 11.8316 5.29832 11.7334C5.36454 11.6351 5.40018 11.5195 5.40078 11.401L5.40078 2.99946C5.40078 2.8403 5.33755 2.68766 5.22501 2.57512C5.11247 2.46257 4.95983 2.39935 4.80067 2.39935C4.64151 2.39935 4.48887 2.46257 4.37633 2.57512C4.26378 2.68766 4.20056 2.8403 4.20056 2.99946L4.20056 9.95472L2.82631 8.57447C2.77052 8.51822 2.70415 8.47357 2.63102 8.44311C2.55789 8.41264 2.47945 8.39696 2.40023 8.39696C2.32101 8.39696 2.24257 8.41264 2.16944 8.44311C2.09632 8.47357 2.02994 8.51822 1.97416 8.57447C1.91791 8.63026 1.87326 8.69663 1.8428 8.76976C1.81233 8.84289 1.79664 8.92132 1.79664 9.00054C1.79664 9.07977 1.81233 9.1582 1.8428 9.23133C1.87326 9.30446 1.91791 9.37083 1.97416 9.42662L4.37459 11.8271C4.45898 11.9103 4.56614 11.9667 4.68256 11.9892C4.79897 12.0116 4.91942 11.999 5.02871 11.9531Z"
  />
</svg>
