<svg
  viewBox="0 0 34 32"
  fill="none"
  xmlns="http://www.w3.org/2000/svg"
>
  <path
    d="M33.5396 12.8137C33.7073 11.9752 33.0365 10.9691 32.198 10.9691L22.6392 9.62747L18.2791 0.90717C18.1114 0.571774 17.9437 0.404075 17.6083 0.236377C16.7698 -0.266717 15.7636 0.0686792 15.2605 0.90717L11.0681 9.62747L1.50928 10.9691C1.00619 10.9691 0.670793 11.1368 0.503094 11.4722C-0.167698 12.1429 -0.167698 13.1491 0.503094 13.8199L7.37872 20.5278L5.70174 30.0866C5.70174 30.422 5.70174 30.7574 5.86943 31.0928C6.37253 31.9313 7.37872 32.2667 8.21721 31.7636L16.7698 27.2358L25.3224 31.7636C25.4901 31.9313 25.8255 31.9313 26.1609 31.9313C26.3286 31.9313 26.3286 31.9313 26.4963 31.9313C27.3348 31.7636 28.0056 30.9251 27.8379 29.9189L26.1609 20.3602L33.0365 13.6522C33.3719 13.4845 33.5396 13.1491 33.5396 12.8137Z"
  />
</svg>
