<svg
  viewBox="0 0 24 24"
  fill="none"
  xmlns="http://www.w3.org/2000/svg"
>
  <path
    d="M19.8848 5.13274C19.7213 5.04902 19.5621 4.95725 19.4079 4.85776C18.9593 4.564 18.548 4.21786 18.1828 3.82681C17.2692 2.79136 16.928 1.74091 16.8023 1.00545H16.8073C16.7024 0.39498 16.7458 0 16.7523 0H12.5911V15.9382C12.5911 16.1522 12.5911 16.3637 12.582 16.5727C12.582 16.5987 12.5795 16.6227 12.578 16.6507C12.578 16.6622 12.578 16.6742 12.5755 16.6862C12.5755 16.6892 12.5755 16.6922 12.5755 16.6952C12.5316 17.267 12.3465 17.8194 12.0365 18.3038C11.7265 18.7882 11.3011 19.1897 10.7977 19.473C10.273 19.7687 9.6796 19.9238 9.07597 19.923C7.13719 19.923 5.56588 18.3571 5.56588 16.4232C5.56588 14.4893 7.13719 12.9234 9.07597 12.9234C9.44297 12.923 9.80771 12.9802 10.1567 13.0928L10.1617 8.89606C9.1024 8.76052 8.02623 8.84391 7.00109 9.14096C5.97596 9.43802 5.02409 9.94229 4.20556 10.622C3.48833 11.2392 2.88535 11.9758 2.42376 12.7984C2.24811 13.0983 1.58536 14.3038 1.5051 16.2602C1.45463 17.3706 1.7913 18.5211 1.95181 18.9966V19.0066C2.05277 19.2865 2.44395 20.242 3.08146 21.0474C3.59553 21.6936 4.20288 22.2611 4.88395 22.7319V22.7219L4.89405 22.7319C6.90854 24.0878 9.14209 23.9988 9.14209 23.9988C9.52873 23.9833 10.8239 23.9988 12.2948 23.3083C13.9262 22.5429 14.8549 21.4024 14.8549 21.4024C15.4483 20.721 15.9201 19.9444 16.2501 19.106C16.6266 18.1256 16.7523 16.9497 16.7523 16.4797V8.0241C16.8028 8.0541 17.4751 8.49458 17.4751 8.49458C17.4751 8.49458 18.4438 9.10955 19.955 9.51003C21.0392 9.79501 22.5 9.85501 22.5 9.85501V5.76321C21.9882 5.81821 20.9489 5.65822 19.8848 5.13274Z"
  />
</svg>
