<svg viewBox="0 0 22 24" fill="none" xmlns="http://www.w3.org/2000/svg">
  <path
    d="M8.46641 19.2C8.78467 19.2 9.08989 19.0736 9.31493 18.8485C9.53998 18.6235 9.66641 18.3183 9.66641 18V10.8C9.66641 10.4817 9.53998 10.1765 9.31493 9.95147C9.08989 9.72643 8.78467 9.6 8.46641 9.6C8.14815 9.6 7.84292 9.72643 7.61788 9.95147C7.39284 10.1765 7.26641 10.4817 7.26641 10.8V18C7.26641 18.3183 7.39284 18.6235 7.61788 18.8485C7.84292 19.0736 8.14815 19.2 8.46641 19.2ZM20.4664 4.8H15.6664V3.6C15.6664 2.64522 15.2871 1.72955 14.612 1.05442C13.9369 0.379285 13.0212 0 12.0664 0H9.66641C8.71163 0 7.79595 0.379285 7.12082 1.05442C6.44569 1.72955 6.06641 2.64522 6.06641 3.6V4.8H1.26641C0.948146 4.8 0.642922 4.92643 0.417878 5.15147C0.192834 5.37652 0.0664063 5.68174 0.0664062 6C0.0664063 6.31826 0.192834 6.62348 0.417878 6.84853C0.642922 7.07357 0.948146 7.2 1.26641 7.2H2.46641V20.4C2.46641 21.3548 2.84569 22.2705 3.52082 22.9456C4.19595 23.6207 5.11163 24 6.06641 24H15.6664C16.6212 24 17.5369 23.6207 18.212 22.9456C18.8871 22.2705 19.2664 21.3548 19.2664 20.4V7.2H20.4664C20.7847 7.2 21.0899 7.07357 21.3149 6.84853C21.54 6.62348 21.6664 6.31826 21.6664 6C21.6664 5.68174 21.54 5.37652 21.3149 5.15147C21.0899 4.92643 20.7847 4.8 20.4664 4.8ZM8.46641 3.6C8.46641 3.28174 8.59284 2.97652 8.81788 2.75147C9.04292 2.52643 9.34815 2.4 9.66641 2.4H12.0664C12.3847 2.4 12.6899 2.52643 12.9149 2.75147C13.14 2.97652 13.2664 3.28174 13.2664 3.6V4.8H8.46641V3.6ZM16.8664 20.4C16.8664 20.7183 16.74 21.0235 16.5149 21.2485C16.2899 21.4736 15.9847 21.6 15.6664 21.6H6.06641C5.74815 21.6 5.44292 21.4736 5.21788 21.2485C4.99284 21.0235 4.86641 20.7183 4.86641 20.4V7.2H16.8664V20.4ZM13.2664 19.2C13.5847 19.2 13.8899 19.0736 14.1149 18.8485C14.34 18.6235 14.4664 18.3183 14.4664 18V10.8C14.4664 10.4817 14.34 10.1765 14.1149 9.95147C13.8899 9.72643 13.5847 9.6 13.2664 9.6C12.9481 9.6 12.6429 9.72643 12.4179 9.95147C12.1928 10.1765 12.0664 10.4817 12.0664 10.8V18C12.0664 18.3183 12.1928 18.6235 12.4179 18.8485C12.6429 19.0736 12.9481 19.2 13.2664 19.2Z"
  />
</svg>
