<svg

  viewBox="0 0 88 157"
  fill="none"
  xmlns="http://www.w3.org/2000/svg"
>
  <path
    d="M87.0792 31.9956C86.9118 32.1806 86.7796 32.4537 86.577 32.5154C86.1806 32.6299 85.7489 32.6211 85.3261 32.6739C79.829 33.2906 75.7944 36.7086 74.2968 42.0471C74.0501 42.9368 73.8651 43.853 73.6801 44.7604C72.667 49.8169 72.0592 54.9352 71.5923 60.071C71.5042 61.0753 71.3544 62.0796 71.1783 63.075C71.1254 63.3569 70.8875 63.6124 70.6673 64C69.8657 63.3833 69.7952 62.6257 69.7159 61.9122C69.5221 60.1503 69.3635 58.3884 69.205 56.6178C68.7909 51.984 68.095 47.3944 67.0643 42.8663C66.245 39.2545 64.2805 36.4091 61.1708 34.3213C59.5587 33.2465 57.7792 32.8942 55.9204 32.6651C55.295 32.5858 54.5198 32.8413 54 31.8106C54.1409 31.7401 54.3436 31.5727 54.5726 31.5199C55.0659 31.4142 55.5681 31.3437 56.0702 31.2909C61.6289 30.7623 64.8531 27.4147 66.6767 22.4463C67.1348 21.1865 67.3638 19.8387 67.6281 18.5085C68.6412 13.2845 69.2314 7.9989 69.6719 2.69566C69.7423 1.79711 69.7423 0.863317 70.588 0C70.8347 0.343565 71.1166 0.572608 71.1606 0.836889C71.3456 1.83235 71.5042 2.83661 71.5923 3.84088C72.1297 9.73434 72.7904 15.6102 74.1734 21.3715C75.0191 24.8953 76.966 27.6438 79.9964 29.6611C81.5293 30.6918 83.2207 31.0706 85.0001 31.2732C86.1365 31.3966 86.1365 31.4142 87.088 31.978L87.0792 31.9956ZM81.6614 31.9956C80.5602 31.2468 79.7321 30.6742 78.8864 30.1192C76.552 28.5864 74.931 26.4545 73.8387 23.935C73.3365 22.781 73.0106 21.5477 72.7199 20.3144C71.7332 16.2004 71.3192 12.0072 70.9668 7.80509C70.9316 7.3382 71.0461 6.76559 70.3678 6.60702C70.1476 8.61555 69.8921 10.6241 69.7159 12.6326C69.4428 15.663 68.9054 18.6494 68.139 21.5917C67.1612 25.3445 65.1174 28.3221 61.8403 30.4363C61.1003 30.912 60.4044 31.4406 59.5323 32.0573C60.5718 32.7444 61.4175 33.2906 62.2456 33.8632C65.1615 35.8453 67.0026 38.5938 68.0157 41.9326C68.28 42.8223 68.4826 43.7297 68.6676 44.637C69.4957 48.6012 69.9802 52.6183 70.2357 56.6618C70.2533 56.9878 70.0771 57.4547 70.7554 57.7013C70.8523 56.9437 70.9492 56.2918 71.0197 55.6399C71.4866 51.1119 71.9006 46.5751 73.1427 42.1704C74.147 38.6202 76.0939 35.7748 79.186 33.7222C79.9524 33.2113 80.71 32.6827 81.6966 32.0132L81.6614 31.9956Z"
    fill="#853D57"
  />
  <g opacity="0.5">
    <path
      d="M36.604 29.0627C36.855 30.4011 37.2105 31.7394 37.315 33.0778C37.4823 35.0644 37.545 37.0719 37.545 39.0794C37.4405 52.902 37.315 66.7246 37.1686 80.5262C37.1686 82.3037 36.9386 84.0603 36.7922 86.5069C35.7885 85.8169 34.9102 85.5241 34.8474 85.085C34.5965 83.7257 34.5965 82.3037 34.5965 80.9026C34.5129 66.4736 34.4501 52.0655 34.4083 37.6365C34.4083 35.4408 34.4919 33.2241 34.6592 31.0284C34.722 30.3383 35.2029 29.6692 35.4957 29C35.8721 29 36.2485 29 36.6249 29.0209L36.604 29.0627ZM37.0013 101.752C36.9595 100.831 36.7086 99.9322 36.4786 98.6357C35.7048 99.2839 34.9938 99.5767 34.9311 99.974C34.7429 101.354 34.722 102.755 34.722 104.156C34.6801 119.735 34.6592 135.336 34.6383 150.915C34.6383 152.316 34.6383 153.717 34.8056 155.097C34.8683 155.536 35.4539 155.934 36.3322 157C37.2523 151.772 37.5869 117.707 37.0013 101.772V101.752ZM44.7805 93.7633C50.7403 93.9724 56.721 94.1606 62.6808 94.2861C64.6674 94.3279 66.6749 94.2861 68.6406 94.056C69.4562 93.9515 70.209 93.2614 71.2546 92.6968C70.4808 92.0276 70.0417 91.3375 69.6235 91.3375C60.6942 91.4212 51.7649 91.5885 42.8566 91.7976C42.6893 91.7976 42.522 92.404 42.0619 93.3032C43.2539 93.5123 44.0276 93.7424 44.8014 93.7633H44.7805ZM1.53525 93.5751C2.43445 93.9306 3.45911 94.1815 4.42104 94.1606C12.242 94.077 20.042 93.9097 27.863 93.7633C28.2603 93.7633 28.6994 93.7214 29.034 93.5542C29.3268 93.3869 29.745 92.9268 29.6823 92.7386C29.515 92.2367 29.1804 91.5257 28.7831 91.4212C27.8211 91.1911 26.7965 91.2121 25.8136 91.1911C18.9964 91.1284 12.1793 91.0866 5.38298 91.0866C4.00281 91.0866 2.62265 91.2748 0.46875 91.4212C1.07519 92.6759 1.20065 93.4287 1.57706 93.5542L1.53525 93.5751ZM55.8845 73.1862C55.9891 72.998 55.6336 72.5171 55.5081 72.1825C51.3467 74.5246 48.8791 76.9294 41.581 85.7959C40.9746 86.5279 40.1381 87.197 40.9327 88.8072C45.8469 85.315 53.2706 77.5568 55.9054 73.1653L55.8845 73.1862ZM30.6442 97.5483C26.3573 101.982 22.1541 106.498 18.0136 111.057C17.6372 111.475 17.8254 112.396 17.7208 113.42C22.0495 110.555 30.2887 101.856 32.9445 97.3392C31.9825 97.4019 30.9997 97.1719 30.6651 97.5483H30.6442ZM32.2544 86.026C30.1841 83.6002 28.1557 81.1327 26.0227 78.7487C24.0361 76.5321 21.9659 74.3573 19.8329 72.2661C19.4774 71.9106 18.5991 72.0988 17.3863 71.9943C21.4849 78.5814 26.9219 82.9938 31.5016 88.619C32.9445 87.4061 32.8608 86.737 32.2753 86.026H32.2544ZM54.6089 111.894C51.1585 106.289 46.3279 101.856 41.8946 97.0882C41.7274 96.9 40.9327 96.9418 40.87 97.0673C40.6609 97.5483 40.3681 98.3429 40.5772 98.5939C44.6132 103.215 48.7327 107.774 52.8732 112.291C53.1451 112.584 53.877 112.479 54.3371 112.563C54.4835 112.207 54.6507 111.977 54.588 111.894H54.6089Z"
      fill="#853D57"
    />
  </g>
</svg>
