<svg
  viewBox="0 0 84 157"
  fill="none"
  xmlns="http://www.w3.org/2000/svg"
>
  <path
    d="M75.1955 21.7382C75.3421 23.4241 74.3054 24.2618 73.4782 25.2042C72.6196 26.178 71.6457 27.0681 70.7347 28C69.8238 28.9319 68.9232 29.8639 68.0751 30.733C68.274 31.5602 68.8395 31.466 69.3107 31.4555C72.6196 31.4241 75.9389 31.3717 79.2478 31.3508C80.2531 31.3508 81.2583 31.3717 82.2531 31.466C82.5777 31.4974 82.8709 31.8325 83.541 32.2513C82.5253 32.5654 81.897 32.9215 81.2688 32.9319C79.2688 32.9738 77.2583 32.8586 75.2478 32.8482C72.9442 32.8272 70.6405 32.8482 68.3473 32.8482C67.9075 33.3717 68.2217 33.7696 68.5567 34.1466C70.0855 35.8743 71.6248 37.5916 73.1431 39.3298C73.8447 40.1361 74.63 40.8901 75.007 41.9058C74.3264 42.4607 73.9599 41.9791 73.6562 41.644C71.8237 39.6545 70.0227 37.623 68.2007 35.623C67.7505 35.1309 67.2583 34.6806 66.7033 34.1257C66.0122 34.9948 66.2321 35.822 66.2321 36.5654C66.2217 44.5969 66.2321 52.6283 66.2321 60.6597C66.2321 61.5602 66.2321 62.4712 66.1588 63.3613C66.1379 63.5812 65.8552 63.7906 65.6876 64C64.829 63.7068 65.0279 63.0367 65.0175 62.5131C65.0175 58.7958 65.0384 55.089 65.0384 51.3717C65.0384 46.8586 65.0384 42.3351 65.0489 37.822C65.0489 36.9319 65.0489 36.0314 65.0489 35.2251C64.3054 34.7644 63.9808 35.2251 63.6562 35.5707C61.8656 37.466 60.096 39.3927 58.2845 41.267C57.8342 41.7382 57.2478 42.0838 56.7557 42.4712C56.5253 42.2723 56.3892 42.2094 56.3787 42.1361C56.3787 41.9476 56.3578 41.7068 56.4625 41.5812C58.9232 38.8272 61.4049 36.0838 64.0751 33.1099C63.363 32.9424 62.9232 32.7435 62.4834 32.7435C58.7662 32.7749 55.0593 32.8482 51.3421 32.8901C50.4415 32.8901 49.5306 32.8901 48.6405 32.7749C48.3787 32.7435 48.1274 32.2827 48.0018 31.9581C47.9703 31.8743 48.3683 31.4555 48.5986 31.4346C49.3944 31.3508 50.2007 31.3508 51.007 31.3508C54.5253 31.3613 58.0332 31.3927 61.5515 31.4031C62.2426 31.4031 62.9337 31.4031 63.5201 31.4031C63.9703 30.6597 63.5306 30.3037 63.2164 29.9581C61.8028 28.3874 60.3578 26.8586 58.9546 25.288C58.0436 24.2618 57.0489 23.288 56.5358 22.0209C57.007 21.4869 57.3944 21.7173 57.6562 21.9895C58.829 23.2251 59.9704 24.4921 61.1222 25.7487C62.2007 26.9215 63.0698 28.2827 64.6091 29.4136C64.7662 28.7853 64.9546 28.3456 64.9546 27.9162C64.9337 21.9895 64.8813 16.0733 64.829 10.1571C64.808 8.05236 64.7452 5.93717 64.7557 3.83246C64.7557 2.63874 64.7871 1.43456 65.4049 0C65.7923 0.544503 66.2112 0.86911 66.2321 1.22513C66.3368 2.82723 66.3787 4.42932 66.3683 6.03141C66.3473 13.2565 66.295 20.4817 66.2635 27.7068C66.2635 28.4921 66.3368 29.267 66.3787 30.2723C67.6039 29.9162 68.0541 28.9634 68.7033 28.2932C69.4677 27.4974 70.1798 26.6492 70.9128 25.8325C71.5829 25.089 72.2321 24.3246 72.9546 23.623C73.6562 22.9424 74.4311 22.3351 75.1745 21.6859L75.1955 21.7382Z"
    fill="#853D57"
  />
  <g opacity="0.5">
    <path
      d="M66.4513 92.9912C66.1165 93.3612 65.8522 93.9074 65.447 94.0307C64.6542 94.2597 63.7908 94.2421 62.9451 94.3478C51.9511 95.5811 43.8817 102.417 40.8865 113.094C40.3932 114.874 40.0232 116.706 39.6532 118.521C37.627 128.634 36.4113 138.87 35.4776 149.142C35.3014 151.151 35.0018 153.159 34.6495 155.15C34.5438 155.714 34.0681 156.225 33.6276 157C32.0243 155.767 31.8833 154.251 31.7248 152.824C31.3372 149.301 31.02 145.777 30.7029 142.236C29.8748 132.968 28.4829 123.789 26.4215 114.733C24.783 107.509 20.854 101.818 14.6346 97.6425C11.4104 95.4931 7.8514 94.7883 4.13385 94.3302C2.88292 94.1717 1.33247 94.6826 0.292969 92.6212C0.574868 92.4803 0.980099 92.1455 1.43819 92.0398C2.42483 91.8284 3.4291 91.6874 4.43337 91.5817C15.5508 90.5246 21.9992 83.8295 25.6463 73.8925C26.5625 71.373 27.0206 68.6774 27.5491 66.0169C29.5753 55.569 30.7557 44.9978 31.6367 34.3913C31.7776 32.5942 31.7776 30.7266 33.469 29C33.9623 29.6871 34.5261 30.1452 34.6142 30.6738C34.9842 32.6647 35.3014 34.6732 35.4776 36.6818C36.5523 48.4687 37.8737 60.2204 40.6398 71.743C42.3312 78.7905 46.225 84.2876 52.2858 88.3222C55.3515 90.3836 58.7343 91.1412 62.2933 91.5465C64.5661 91.7931 64.5661 91.8284 66.4689 92.956L66.4513 92.9912ZM55.6158 92.9912C53.4134 91.4936 51.7573 90.3484 50.0659 89.2384C45.3969 86.1727 42.155 81.909 39.9703 76.8701C38.9661 74.562 38.3142 72.0954 37.7327 69.6288C35.7595 61.4008 34.9314 53.0143 34.2266 44.6102C34.1562 43.6764 34.3852 42.5312 33.0286 42.214C32.5881 46.2311 32.0771 50.2482 31.7248 54.2652C31.1786 60.3261 30.1038 66.2988 28.571 72.1835C26.6153 79.6891 22.5278 85.6442 15.9736 89.8727C14.4937 90.8241 13.1018 91.8812 11.3575 93.1145C13.4365 94.4888 15.1279 95.5811 16.7841 96.7264C22.6159 100.691 26.2982 106.188 28.3244 112.865C28.8529 114.645 29.2581 116.459 29.6281 118.274C31.2843 126.202 32.2533 134.237 32.7643 142.324C32.7995 142.976 32.4471 143.909 33.8038 144.403C33.9976 142.887 34.1914 141.584 34.3323 140.28C35.2661 131.224 36.0942 122.15 38.5784 113.341C40.587 106.24 44.4807 100.55 50.6649 96.4445C52.1977 95.4226 53.7129 94.3655 55.6862 93.0264L55.6158 92.9912Z"
      fill="#853D57"
    />
  </g>
</svg>
