<svg
  viewBox="0 0 72 128"
  fill="none"
  xmlns="http://www.w3.org/2000/svg"
>
  <g opacity="0.75">
    <path
      d="M36.604 0.0627343C36.855 1.40108 37.2105 2.73942 37.315 4.07776C37.4823 6.06437 37.545 8.07188 37.545 10.0794C37.4405 23.902 37.315 37.7246 37.1686 51.5262C37.1686 53.3037 36.9386 55.0603 36.7922 57.5069C35.7885 56.8169 34.9102 56.5241 34.8474 56.085C34.5965 54.7257 34.5965 53.3037 34.5965 51.9026C34.5129 37.4736 34.4501 23.0655 34.4083 8.6365C34.4083 6.44078 34.4919 4.22415 34.6592 2.02843C34.722 1.33834 35.2029 0.669172 35.4957 0C35.8721 0 36.2485 4.80873e-07 36.6249 0.0209121L36.604 0.0627343ZM37.0013 72.7515C36.9595 71.8314 36.7086 70.9322 36.4786 69.6357C35.7048 70.2839 34.9938 70.5767 34.9311 70.974C34.7429 72.3542 34.722 73.7553 34.722 75.1563C34.6801 90.7355 34.6592 106.336 34.6383 121.915C34.6383 123.316 34.6383 124.717 34.8056 126.097C34.8683 126.536 35.4539 126.934 36.3322 128C37.2523 122.772 37.5869 88.7071 37.0013 72.7724V72.7515ZM44.7805 64.7633C50.7403 64.9724 56.721 65.1606 62.6808 65.2861C64.6674 65.3279 66.6749 65.2861 68.6406 65.056C69.4562 64.9515 70.209 64.2614 71.2546 63.6968C70.4808 63.0276 70.0417 62.3375 69.6235 62.3375C60.6942 62.4212 51.7649 62.5885 42.8566 62.7976C42.6893 62.7976 42.522 63.404 42.0619 64.3032C43.2539 64.5123 44.0276 64.7424 44.8014 64.7633H44.7805ZM1.53525 64.5751C2.43445 64.9306 3.45911 65.1815 4.42104 65.1606C12.242 65.077 20.042 64.9097 27.863 64.7633C28.2603 64.7633 28.6994 64.7214 29.034 64.5542C29.3268 64.3869 29.745 63.9268 29.6823 63.7386C29.515 63.2367 29.1804 62.5257 28.7831 62.4212C27.8211 62.1911 26.7965 62.2121 25.8136 62.1911C18.9964 62.1284 12.1793 62.0866 5.38298 62.0866C4.00281 62.0866 2.62265 62.2748 0.46875 62.4212C1.07519 63.6759 1.20065 64.4287 1.57706 64.5542L1.53525 64.5751ZM55.8845 44.1862C55.9891 43.998 55.6336 43.5171 55.5081 43.1825C51.3467 45.5246 48.8791 47.9294 41.581 56.7959C40.9746 57.5279 40.1381 58.197 40.9327 59.8072C45.8469 56.315 53.2706 48.5568 55.9054 44.1653L55.8845 44.1862ZM30.6442 68.5483C26.3573 72.9815 22.1541 77.4985 18.0136 82.0572C17.6372 82.4754 17.8254 83.3955 17.7208 84.4202C22.0495 81.5553 30.2887 72.8561 32.9445 68.3392C31.9825 68.4019 30.9997 68.1719 30.6651 68.5483H30.6442ZM32.2544 57.026C30.1841 54.6002 28.1557 52.1327 26.0227 49.7487C24.0361 47.5321 21.9659 45.3573 19.8329 43.2661C19.4774 42.9106 18.5991 43.0988 17.3863 42.9943C21.4849 49.5814 26.9219 53.9938 31.5016 59.619C32.9445 58.4061 32.8608 57.737 32.2753 57.026H32.2544ZM54.6089 82.8936C51.1585 77.2893 46.3279 72.8561 41.8946 68.0882C41.7274 67.9 40.9327 67.9418 40.87 68.0673C40.6609 68.5483 40.3681 69.3429 40.5772 69.5939C44.6132 74.2153 48.7327 78.7741 52.8732 83.291C53.1451 83.5837 53.877 83.4792 54.3371 83.5628C54.4835 83.2073 54.6507 82.9773 54.588 82.8936H54.6089Z"
      fill="#853D57"
    />
  </g>
</svg>
