<svg
  viewBox="0 0 96 158"
  fill="none"
  xmlns="http://www.w3.org/2000/svg"
>
  <path
    d="M77.9692 0.0313671C78.0939 0.700539 78.2707 1.36971 78.3227 2.03888C78.4059 3.03218 78.4371 4.03594 78.4371 5.0397C78.3851 11.951 78.3227 18.8623 78.2499 25.7631C78.2499 26.6519 78.1355 27.5301 78.0628 28.7535C77.5636 28.4084 77.1269 28.262 77.0957 28.0425C76.9709 27.3628 76.9709 26.6519 76.9709 25.9513C76.9293 18.7368 76.8981 11.5328 76.8773 4.31825C76.8773 3.22039 76.9189 2.11207 77.0021 1.01421C77.0333 0.669172 77.2724 0.334586 77.418 0C77.6052 0 77.7924 2.40436e-07 77.9796 0.010456L77.9692 0.0313671ZM78.1667 36.3758C78.1459 35.9157 78.0212 35.4661 77.9068 34.8178C77.522 35.142 77.1685 35.2884 77.1373 35.487C77.0437 36.1771 77.0333 36.8776 77.0333 37.5782C77.0125 45.3677 77.0021 53.1678 76.9917 60.9574C76.9917 61.6579 76.9917 62.3584 77.0749 63.0485C77.1061 63.2681 77.3972 63.4668 77.834 64C78.2915 61.3861 78.4579 44.3535 78.1667 36.3862V36.3758ZM82.0351 32.3816C84.9988 32.4862 87.9728 32.5803 90.9365 32.643C91.9244 32.6639 92.9227 32.643 93.9001 32.528C94.3057 32.4757 94.6801 32.1307 95.2 31.8484C94.8152 31.5138 94.5969 31.1688 94.3889 31.1688C89.9486 31.2106 85.5083 31.2942 81.0784 31.3988C80.9952 31.3988 80.912 31.702 80.6832 32.1516C81.276 32.2562 81.6607 32.3712 82.0455 32.3816H82.0351ZM60.5303 32.2875C60.9775 32.4653 61.487 32.5908 61.9654 32.5803C65.8545 32.5385 69.7333 32.4548 73.6225 32.3816C73.82 32.3816 74.0384 32.3607 74.2048 32.2771C74.3504 32.1934 74.5583 31.9634 74.5272 31.8693C74.444 31.6184 74.2776 31.2629 74.08 31.2106C73.6017 31.0956 73.0921 31.106 72.6034 31.0956C69.2134 31.0642 65.8233 31.0433 62.4437 31.0433C61.7574 31.0433 61.0711 31.1374 60 31.2106C60.3016 31.8379 60.364 32.2143 60.5511 32.2771L60.5303 32.2875ZM87.5569 22.0931C87.6089 21.999 87.4321 21.7585 87.3697 21.5912C85.3003 22.7623 84.0733 23.9647 80.4441 28.398C80.1425 28.7639 79.7266 29.0985 80.1217 29.9036C82.5654 28.1575 86.257 24.2784 87.5673 22.0827L87.5569 22.0931ZM75.0055 34.2741C72.8737 36.4908 70.7836 38.7492 68.7246 41.0286C68.5374 41.2377 68.631 41.6978 68.579 42.2101C70.7316 40.7777 74.8287 36.428 76.1494 34.1696C75.671 34.2009 75.1823 34.0859 75.0159 34.2741H75.0055ZM75.8062 28.513C74.7767 27.3001 73.768 26.0663 72.7074 24.8744C71.7195 23.7661 70.69 22.6786 69.6293 21.6331C69.4525 21.4553 69.0158 21.5494 68.4126 21.4971C70.4508 24.7907 73.1545 26.9969 75.4319 29.8095C76.1494 29.2031 76.1078 28.8685 75.8166 28.513H75.8062ZM86.9225 41.4468C85.2067 38.6447 82.8046 36.428 80.6001 34.0441C80.5169 33.95 80.1217 33.9709 80.0905 34.0337C79.9865 34.2741 79.8409 34.6715 79.9449 34.7969C81.9519 37.1077 84.0005 39.387 86.0594 41.6455C86.1946 41.7919 86.5586 41.7396 86.7874 41.7814C86.8602 41.6037 86.9433 41.4886 86.9121 41.4468H86.9225Z"
    fill="#853D57"
  />
  <g opacity="0.5">
    <path
      d="M39.2818 30.0161C40.0239 30.613 40.7498 30.9841 41.1693 31.5809C42.7825 33.8878 43.8472 36.4528 44.2021 39.2759C44.7506 43.7284 45.3475 48.1809 45.8153 52.6333C46.5251 59.3927 47.122 66.1681 47.8318 72.9436C48.0254 74.7827 48.4932 76.5895 48.832 78.4124C49.2676 80.8806 50.6711 82.7035 52.8166 83.8328C55.2687 85.1233 57.7853 86.3655 60.4148 87.2366C64.222 88.5111 68.1582 89.3822 72.0138 90.5114C73.7883 91.0277 75.5468 91.6407 77.1922 92.4634C78.6602 93.1894 78.6602 95.0607 77.1922 95.7866C75.5468 96.5932 73.7722 97.2063 72.0138 97.7225C68.1582 98.8679 64.2381 99.7874 60.431 101.03C58.0918 101.788 55.8333 102.869 53.6232 103.949C50.9937 105.24 49.2031 107.273 48.7514 110.306C48.4771 112.145 47.9932 113.951 47.7996 115.79C46.8639 124.711 46.0089 133.632 45.0893 142.554C44.8312 145.006 44.5086 147.474 44.0731 149.91C43.6052 152.523 42.5889 154.959 40.9273 157.056C39.911 158.315 38.3461 158.315 37.346 157.056C35.4585 154.701 34.3938 151.959 34.0066 149.006C33.3129 143.796 32.7967 138.569 32.2321 133.326C31.5384 126.873 30.7479 120.42 30.2479 113.951C29.7962 108.015 26.973 104.127 21.2945 102.336C16.4388 100.804 11.5508 99.3357 6.69501 97.8193C4.93661 97.2708 3.14595 96.7545 1.45208 96.0286C0.83906 95.7705 0.209917 94.9962 0.0485957 94.3509C-0.193386 93.3668 0.500304 92.5441 1.41983 92.2053C3.29115 91.5116 5.21084 90.9147 7.13055 90.334C11.4217 89.0434 15.729 87.8012 20.0201 86.4945C20.7622 86.2687 21.4397 85.8654 22.1657 85.5912C27.0376 83.8489 29.6348 80.4128 30.1349 75.2505C30.7318 69.2494 31.49 63.2644 32.1192 57.2632C32.7483 51.4234 33.2968 45.5675 33.9421 39.7276C34.2648 36.7593 35.3133 34.0008 37.0717 31.5971C37.5557 30.9357 38.4914 30.5808 39.3302 30L39.2818 30.0161ZM39.0237 154.459C40.6369 152.12 41.0886 149.877 41.3306 147.587C42.2179 139.601 43.0083 131.6 43.9762 123.614C44.4924 119.323 45.1055 115.032 46.0089 110.806C47.0091 106.176 49.7193 102.836 54.204 100.82C59.0275 98.642 64.0768 97.2385 69.1423 95.8673C70.7232 95.4479 72.288 94.98 74.3852 94.3831C72.5784 92.8506 70.82 92.8506 69.2875 92.415C64.3833 91.0438 59.4953 89.6887 54.7686 87.6883C49.7354 85.5589 46.9284 81.8808 45.7831 76.7024C45.5895 75.799 45.2991 74.9117 45.17 73.9922C44.7183 70.6206 44.2666 67.249 43.9117 63.8612C43.2826 57.8601 42.7986 51.859 42.0726 45.874C41.6855 42.6637 41.008 39.4857 40.3304 36.3076C40.1691 35.5172 39.5238 34.8235 39.0237 33.9524C37.4912 36.0173 37.2331 38.2112 36.862 40.3245C36.3458 43.3735 36.0392 46.4547 35.7166 49.5198C35.0229 56.134 34.4422 62.7643 33.6678 69.3623C33.2484 72.8791 32.7161 76.3959 31.4094 79.7513C30.1672 82.9294 28.2152 85.3814 25.0533 86.7688C22.3754 87.9464 19.6975 89.2047 16.9227 90.1081C13.2608 91.3019 9.48588 92.173 5.75937 93.2216C5.25927 93.3668 4.82367 93.754 3.75895 94.3831C6.03358 95.0123 7.61451 95.4479 9.19546 95.8996C14.0996 97.2869 19.0038 98.5936 23.6982 100.691C28.1346 102.675 30.8931 105.885 32.0869 110.531C32.3934 111.725 32.7644 112.919 32.9096 114.145C33.6033 119.662 34.2647 125.195 34.8939 130.729C35.5231 136.262 36.0554 141.795 36.7491 147.329C37.0395 149.603 37.4266 151.91 38.9914 154.475L39.0237 154.459Z"
      fill="#853D57"
    />
  </g>
</svg>
