<svg
  viewBox="0 0 72 128"
  fill="none"
  xmlns="http://www.w3.org/2000/svg"
>
  <g opacity="0.75">
    <path
      d="M54.6458 43.4764C54.939 46.8482 52.8657 48.5236 51.2113 50.4084C49.494 52.356 47.5464 54.1361 45.7244 56C43.9024 57.8639 42.1014 59.7277 40.405 61.466C40.8029 63.1204 41.9338 62.9319 42.8762 62.911C49.494 62.8482 56.1328 62.7435 62.7506 62.7016C64.761 62.7016 66.7715 62.7435 68.761 62.9319C69.4102 62.9948 69.9966 63.6649 71.3369 64.5026C69.3055 65.1309 68.049 65.8429 66.7924 65.8639C62.7924 65.9476 58.7715 65.7173 54.7505 65.6963C50.1432 65.6545 45.5359 65.6963 40.9495 65.6963C40.0699 66.7435 40.6982 67.5393 41.3683 68.2932C44.4259 71.7487 47.5045 75.1832 50.5411 78.6597C51.9443 80.2722 53.515 81.7801 54.2689 83.8115C52.9076 84.9215 52.1746 83.9581 51.5673 83.288C47.9024 79.3089 44.3003 75.2461 40.6563 71.2461C39.7558 70.2618 38.7715 69.3613 37.6615 68.2513C36.2793 69.9895 36.7191 71.644 36.7191 73.1309C36.6982 89.1937 36.7191 105.257 36.7191 121.319C36.7191 123.12 36.7191 124.942 36.5726 126.723C36.5307 127.162 35.9652 127.581 35.6301 128C33.9129 127.414 34.3107 126.073 34.2898 125.026C34.2898 117.592 34.3317 110.178 34.3317 102.743C34.3317 93.7173 34.3317 84.6702 34.3527 75.644C34.3527 73.8639 34.3527 72.0628 34.3527 70.4503C32.8658 69.5288 32.2165 70.4503 31.5673 71.1414C27.9862 74.9319 24.4469 78.7853 20.8239 82.534C19.9233 83.4764 18.7505 84.1675 17.7662 84.9424C17.3055 84.5445 17.0333 84.4188 17.0123 84.2722C17.0123 83.8953 16.9704 83.4136 17.1799 83.1623C22.1013 77.6545 27.0647 72.1675 32.405 66.2199C30.9809 65.8848 30.1013 65.4869 29.2217 65.4869C21.7872 65.5497 14.3736 65.6963 6.93903 65.7801C5.13798 65.7801 3.31598 65.7801 1.53588 65.5497C1.01232 65.4869 0.5097 64.5654 0.258391 63.9162C0.195564 63.7487 0.991391 62.911 1.45212 62.8691C3.04375 62.7016 4.65632 62.7016 6.26888 62.7016C13.3055 62.7225 20.3212 62.7853 27.3579 62.8063C28.7401 62.8063 30.1223 62.8063 31.2951 62.8063C32.1956 61.3194 31.316 60.6073 30.6877 59.9162C27.8605 56.7749 24.9704 53.7173 22.1642 50.5759C20.3422 48.5236 18.3527 46.5759 17.3265 44.0419C18.2689 42.9738 19.0437 43.4346 19.5673 43.9791C21.9128 46.4503 24.1956 48.9843 26.4993 51.4974C28.6563 53.8429 30.3945 56.5654 33.4731 58.8272C33.7872 57.5707 34.1642 56.6911 34.1642 55.8325C34.1223 43.9791 34.0176 32.1466 33.9129 20.3141C33.871 16.1047 33.7453 11.8743 33.7662 7.66492C33.7662 5.27749 33.8291 2.86911 35.0647 0C35.8396 1.08901 36.6772 1.73822 36.7191 2.45026C36.9286 5.65445 37.0123 8.85864 36.9914 12.0628C36.9495 26.5131 36.8448 40.9633 36.782 55.4136C36.782 56.9843 36.9286 58.534 37.0123 60.5445C39.4626 59.8325 40.3631 57.9267 41.6615 56.5864C43.1903 54.9948 44.6144 53.2984 46.0804 51.6649C47.4207 50.178 48.7191 48.6492 50.1642 47.2461C51.5673 45.8848 53.1171 44.6702 54.604 43.3717L54.6458 43.4764Z"
      fill="#853D57"
    />
  </g>
</svg>
