<svg
  viewBox="0 0 67 128"
  fill="none"
  xmlns="http://www.w3.org/2000/svg"
>
  <g opacity="0.75">
    <path
      d="M66.4513 63.9912C66.1165 64.3612 65.8522 64.9074 65.447 65.0307C64.6542 65.2597 63.7908 65.2421 62.9451 65.3478C51.9511 66.5811 43.8817 73.4172 40.8865 84.0942C40.3932 85.8736 40.0232 87.706 39.6532 89.5207C37.627 99.6339 36.4113 109.87 35.4776 120.142C35.3014 122.151 35.0018 124.159 34.6495 126.15C34.5438 126.714 34.0681 127.225 33.6276 128C32.0243 126.767 31.8833 125.251 31.7248 123.824C31.3372 120.301 31.02 116.777 30.7029 113.236C29.8748 103.968 28.4829 94.7887 26.4215 85.7327C24.783 78.509 20.854 72.8182 14.6346 68.6425C11.4104 66.4931 7.8514 65.7883 4.13385 65.3302C2.88292 65.1717 1.33247 65.6826 0.292969 63.6212C0.574868 63.4803 0.980099 63.1455 1.43819 63.0398C2.42483 62.8284 3.4291 62.6874 4.43337 62.5817C15.5508 61.5246 21.9992 54.8295 25.6463 44.8925C26.5625 42.373 27.0206 39.6774 27.5491 37.0169C29.5753 26.569 30.7557 15.9978 31.6367 5.39133C31.7776 3.59422 31.7776 1.72663 33.469 0C33.9623 0.68713 34.5261 1.14522 34.6142 1.67378C34.9842 3.66469 35.3014 5.67323 35.4776 7.68176C36.5523 19.4687 37.8737 31.2204 40.6398 42.743C42.3312 49.7905 46.225 55.2876 52.2858 59.3222C55.3515 61.3836 58.7343 62.1412 62.2933 62.5465C64.5661 62.7931 64.5661 62.8284 66.4689 63.956L66.4513 63.9912ZM55.6158 63.9912C53.4134 62.4936 51.7573 61.3484 50.0659 60.2384C45.3969 57.1727 42.155 52.909 39.9703 47.8701C38.9661 45.562 38.3142 43.0954 37.7327 40.6288C35.7595 32.4008 34.9314 24.0143 34.2266 15.6102C34.1562 14.6764 34.3852 13.5312 33.0286 13.214C32.5881 17.2311 32.0771 21.2482 31.7248 25.2652C31.1786 31.3261 30.1038 37.2988 28.571 43.1835C26.6153 50.6891 22.5278 56.6442 15.9736 60.8727C14.4937 61.8241 13.1018 62.8812 11.3575 64.1145C13.4365 65.4888 15.1279 66.5811 16.7841 67.7264C22.6159 71.6906 26.2982 77.1876 28.3244 83.8651C28.8529 85.6446 29.2581 87.4593 29.6281 89.2741C31.2843 97.2025 32.2533 105.237 32.7643 113.324C32.7995 113.976 32.4471 114.909 33.8038 115.403C33.9976 113.887 34.1914 112.584 34.3323 111.28C35.2661 102.224 36.0942 93.1502 38.5784 84.3408C40.587 77.2405 44.4807 71.5496 50.6649 67.4445C52.1977 66.4226 53.7129 65.3655 55.6862 64.0264L55.6158 63.9912Z"
      fill="#853D57"
    />
  </g>
</svg>
