<svg

  viewBox="0 0 91 157"
  fill="none"
  xmlns="http://www.w3.org/2000/svg"
>
  <path
    d="M70.6409 0.00806604C71.012 0.30651 71.3749 0.492029 71.5846 0.790472C72.3912 1.94392 72.9236 3.22642 73.101 4.63797C73.3753 6.8642 73.6737 9.09043 73.9077 11.3167C74.2626 14.6963 74.561 18.0841 74.9159 21.4718C75.0127 22.3913 75.2466 23.2947 75.416 24.2062C75.6338 25.4403 76.3355 26.3518 77.4083 26.9164C78.6343 27.5617 79.8926 28.1827 81.2074 28.6183C83.111 29.2555 85.0791 29.6911 87.0069 30.2557C87.8942 30.5138 88.7734 30.8203 89.5961 31.2317C90.3301 31.5947 90.3301 32.5303 89.5961 32.8933C88.7734 33.2966 87.8861 33.6031 87.0069 33.8612C85.0791 34.4339 83.1191 34.8937 81.2155 35.5148C80.0459 35.8939 78.9167 36.4343 77.8116 36.9747C76.4968 37.62 75.6015 38.6363 75.3757 40.1528C75.2386 41.0723 74.9966 41.9757 74.8998 42.8952C74.432 47.3557 74.0044 51.8162 73.5447 56.2768C73.4156 57.5028 73.2543 58.7369 73.0365 59.9549C72.8026 61.2616 72.2944 62.4796 71.4636 63.5281C70.9555 64.1573 70.1731 64.1573 69.673 63.5281C68.7293 62.3505 68.1969 60.9793 68.0033 59.5032C67.6565 56.8979 67.3983 54.2845 67.116 51.663C66.7692 48.4366 66.374 45.2102 66.1239 41.9757C65.8981 39.0074 64.4865 37.0635 61.6473 36.1681C59.2194 35.4019 56.7754 34.6678 54.3475 33.9096C53.4683 33.6354 52.573 33.3773 51.726 33.0143C51.4195 32.8852 51.105 32.4981 51.0243 32.1754C50.9033 31.6834 51.2502 31.272 51.7099 31.1027C52.6456 30.7558 53.6054 30.4574 54.5653 30.167C56.7108 29.5217 58.8645 28.9006 61.0101 28.2473C61.3811 28.1343 61.7199 27.9327 62.0828 27.7956C64.5188 26.9244 65.8174 25.2064 66.0675 22.6252C66.3659 19.6247 66.745 16.6322 67.0596 13.6316C67.3742 10.7117 67.6484 7.78373 67.9711 4.86382C68.1324 3.37967 68.6566 2.00038 69.5358 0.798538C69.7778 0.46783 70.2457 0.290377 70.6651 0L70.6409 0.00806604ZM70.5119 62.2295C71.3185 61.0599 71.5443 59.9387 71.6653 58.7934C72.1089 54.8007 72.5041 50.7999 72.9881 46.8072C73.2462 44.6617 73.5527 42.5161 74.0044 40.4028C74.5045 38.0878 75.8596 36.4182 78.102 35.4099C80.5138 34.321 83.0384 33.6193 85.5711 32.9336C86.3616 32.7239 87.144 32.49 88.1926 32.1916C87.2892 31.4253 86.41 31.4253 85.6437 31.2075C83.1917 30.5219 80.7476 29.8443 78.3843 28.8442C75.8677 27.7794 74.4642 25.9404 73.8915 23.3512C73.7947 22.8995 73.6495 22.4559 73.585 21.9961C73.3592 20.3103 73.1333 18.6245 72.9559 16.9306C72.6413 13.9301 72.3993 10.9295 72.0363 7.93698C71.8427 6.33184 71.504 4.74283 71.1652 3.15382C71.0845 2.75859 70.7619 2.41175 70.5119 1.97618C69.7456 3.00863 69.6165 4.10561 69.431 5.16227C69.1729 6.68675 69.0196 8.22736 68.8583 9.75991C68.5115 13.067 68.2211 16.3821 67.8339 19.6811C67.6242 21.4395 67.358 23.1979 66.7047 24.8757C66.0836 26.4647 65.1076 27.6907 63.5267 28.3844C62.1877 28.9732 60.8487 29.6024 59.4614 30.0541C57.6304 30.651 55.7429 31.0865 53.8797 31.6108C53.6296 31.6834 53.4118 31.877 52.8795 32.1916C54.0168 32.5061 54.8073 32.7239 55.5977 32.9498C58.0498 33.6435 60.5019 34.2968 62.8491 35.3454C65.0673 36.3375 66.4466 37.9427 67.0434 40.2657C67.1967 40.8626 67.3822 41.4594 67.4548 42.0725C67.8017 44.8311 68.1324 47.5977 68.447 50.3644C68.7615 53.131 69.0277 55.8977 69.3745 58.6643C69.5197 59.8016 69.7133 60.9551 70.4957 62.2376L70.5119 62.2295Z"
    fill="#853D57"
  />
  <g opacity="0.5">
    <path
      d="M54.3909 72.4764C54.6841 75.8482 52.6108 77.5236 50.9564 79.4084C49.2391 81.356 47.2915 83.1361 45.4695 85C43.6475 86.8639 41.8465 88.7277 40.1501 90.466C40.548 92.1204 41.6789 91.9319 42.6213 91.911C49.2391 91.8482 55.8779 91.7435 62.4957 91.7016C64.5062 91.7016 66.5166 91.7435 68.5061 91.9319C69.1554 91.9948 69.7417 92.6649 71.082 93.5026C69.0506 94.1309 67.7941 94.8429 66.5375 94.8639C62.5375 94.9476 58.5166 94.7173 54.4957 94.6963C49.8883 94.6545 45.281 94.6963 40.6946 94.6963C39.815 95.7435 40.4433 96.5393 41.1135 97.2932C44.1711 100.749 47.2496 104.183 50.2863 107.66C51.6894 109.272 53.2601 110.78 54.014 112.812C52.6527 113.921 51.9197 112.958 51.3124 112.288C47.6475 108.309 44.0454 104.246 40.4014 100.246C39.5009 99.2618 38.5166 98.3613 37.4067 97.2513C36.0245 98.9895 36.4642 100.644 36.4642 102.131C36.4433 118.194 36.4642 134.257 36.4642 150.319C36.4642 152.12 36.4643 153.942 36.3177 155.723C36.2758 156.162 35.7103 156.581 35.3753 157C33.658 156.414 34.0559 155.073 34.0349 154.026C34.0349 146.592 34.0768 139.178 34.0768 131.743C34.0768 122.717 34.0768 113.67 34.0978 104.644C34.0978 102.864 34.0978 101.063 34.0978 99.4503C32.6109 98.5288 31.9617 99.4503 31.3124 100.141C27.7313 103.932 24.192 107.785 20.569 111.534C19.6684 112.476 18.4957 113.168 17.5114 113.942C17.0506 113.545 16.7784 113.419 16.7574 113.272C16.7574 112.895 16.7156 112.414 16.925 112.162C21.8464 106.654 26.8098 101.168 32.1501 95.2199C30.726 94.8848 29.8464 94.4869 28.9669 94.4869C21.5323 94.5497 14.1187 94.6963 6.68414 94.7801C4.8831 94.7801 3.0611 94.7801 1.281 94.5497C0.757437 94.4869 0.254817 93.5654 0.00350858 92.9162C-0.0593186 92.7487 0.736508 91.911 1.19724 91.8691C2.78886 91.7016 4.40144 91.7016 6.014 91.7016C13.0507 91.7225 20.0663 91.7853 27.103 91.8063C28.4852 91.8063 29.8674 91.8063 31.0402 91.8063C31.9407 90.3194 31.0611 89.6073 30.4329 88.9162C27.6056 85.7749 24.7156 82.7173 21.9093 79.5759C20.0873 77.5236 18.0978 75.5759 17.0716 73.0419C18.014 71.9738 18.7889 72.4346 19.3124 72.9791C21.658 75.4503 23.9407 77.9843 26.2444 80.4974C28.4014 82.8429 30.1396 85.5654 33.2182 87.8272C33.5323 86.5707 33.9093 85.6911 33.9093 84.8325C33.8674 72.9791 33.7627 61.1466 33.658 49.3141C33.6161 45.1047 33.4904 40.8743 33.5114 36.6649C33.5114 34.2775 33.5742 31.8691 34.8098 29C35.5847 30.089 36.4224 30.7382 36.4642 31.4503C36.6737 34.6545 36.7575 37.8586 36.7365 41.0628C36.6946 55.5131 36.5899 69.9633 36.5271 84.4136C36.5271 85.9843 36.6737 87.534 36.7574 89.5445C39.2077 88.8325 40.1082 86.9267 41.4067 85.5864C42.9355 83.9948 44.3595 82.2984 45.8255 80.6649C47.1658 79.178 48.4642 77.6492 49.9093 76.2461C51.3124 74.8848 52.8622 73.6702 54.3491 72.3717L54.3909 72.4764Z"
      fill="#853D57"
    />
  </g>
</svg>
