<svg
  viewBox="0 0 79 128"
  fill="none"
  xmlns="http://www.w3.org/2000/svg"
>
  <g opacity="0.75">
    <path
      d="M39.2818 0.0161321C40.0239 0.613019 40.7498 0.984057 41.1693 1.58094C42.7825 3.88783 43.8472 6.45283 44.2021 9.27595C44.7506 13.7284 45.3475 18.1809 45.8153 22.6333C46.5251 29.3927 47.122 36.1681 47.8318 42.9436C48.0254 44.7827 48.4932 46.5895 48.832 48.4124C49.2676 50.8806 50.6711 52.7035 52.8166 53.8328C55.2687 55.1233 57.7853 56.3655 60.4148 57.2366C64.222 58.5111 68.1582 59.3822 72.0138 60.5114C73.7883 61.0277 75.5468 61.6407 77.1922 62.4634C78.6602 63.1894 78.6602 65.0607 77.1922 65.7866C75.5468 66.5932 73.7722 67.2063 72.0138 67.7225C68.1582 68.8679 64.2381 69.7874 60.431 71.0296C58.0918 71.7878 55.8333 72.8686 53.6232 73.9495C50.9937 75.24 49.2031 77.2727 48.7514 80.3055C48.4771 82.1446 47.9932 83.9513 47.7996 85.7904C46.8639 94.7114 46.0089 103.632 45.0893 112.554C44.8312 115.006 44.5086 117.474 44.0731 119.91C43.6052 122.523 42.5889 124.959 40.9273 127.056C39.911 128.315 38.3461 128.315 37.346 127.056C35.4585 124.701 34.3938 121.959 34.0066 119.006C33.3129 113.796 32.7967 108.569 32.2321 103.326C31.5384 96.8732 30.7479 90.4203 30.2479 83.9513C29.7962 78.0147 26.973 74.1269 21.2945 72.3363C16.4388 70.8037 11.5508 69.3357 6.69501 67.8193C4.93661 67.2708 3.14595 66.7545 1.45208 66.0286C0.83906 65.7705 0.209917 64.9962 0.0485957 64.3509C-0.193386 63.3668 0.500304 62.5441 1.41983 62.2053C3.29115 61.5116 5.21084 60.9147 7.13055 60.334C11.4217 59.0434 15.729 57.8012 20.0201 56.4945C20.7622 56.2687 21.4397 55.8654 22.1657 55.5912C27.0376 53.8489 29.6348 50.4128 30.1349 45.2505C30.7318 39.2494 31.49 33.2644 32.1192 27.2632C32.7483 21.4234 33.2968 15.5675 33.9421 9.72765C34.2648 6.75934 35.3133 4.00076 37.0717 1.59708C37.5557 0.935661 38.4914 0.580755 39.3302 0L39.2818 0.0161321ZM39.0237 124.459C40.6369 122.12 41.0886 119.877 41.3306 117.587C42.2179 109.601 43.0083 101.6 43.9762 93.6145C44.4924 89.3233 45.1055 85.0322 46.0089 80.8056C47.0091 76.1757 49.7193 72.8363 54.204 70.8198C59.0275 68.642 64.0768 67.2385 69.1423 65.8673C70.7232 65.4479 72.288 64.98 74.3852 64.3831C72.5784 62.8506 70.82 62.8506 69.2875 62.415C64.3833 61.0438 59.4953 59.6887 54.7686 57.6883C49.7354 55.5589 46.9284 51.8808 45.7831 46.7024C45.5895 45.799 45.2991 44.9117 45.17 43.9922C44.7183 40.6206 44.2666 37.249 43.9117 33.8612C43.2826 27.8601 42.7986 21.859 42.0726 15.874C41.6855 12.6637 41.008 9.48566 40.3304 6.30764C40.1691 5.51717 39.5238 4.82349 39.0237 3.95236C37.4912 6.01727 37.2331 8.21123 36.862 10.3245C36.3458 13.3735 36.0392 16.4547 35.7166 19.5198C35.0229 26.134 34.4422 32.7643 33.6678 39.3623C33.2484 42.8791 32.7161 46.3959 31.4094 49.7513C30.1672 52.9294 28.2152 55.3814 25.0533 56.7688C22.3754 57.9464 19.6975 59.2047 16.9227 60.1081C13.2608 61.3019 9.48588 62.173 5.75937 63.2216C5.25927 63.3668 4.82367 63.754 3.75895 64.3831C6.03358 65.0123 7.61451 65.4479 9.19546 65.8996C14.0996 67.2869 19.0038 68.5936 23.6982 70.6908C28.1346 72.675 30.8931 75.8853 32.0869 80.5313C32.3934 81.7251 32.7644 82.9189 32.9096 84.1449C33.6033 89.6621 34.2647 95.1954 34.8939 100.729C35.5231 106.262 36.0554 111.795 36.7491 117.329C37.0395 119.603 37.4266 121.91 38.9914 124.475L39.0237 124.459Z"
      fill="#853D57"
    />
  </g>
</svg>
