<svg viewBox="0 0 979 107">
  <mask
    id="path-1-outside-1_277_812"
    maskUnits="userSpaceOnUse"
    x="0"
    y="-0.5"
    fill="black"
  >
    <rect fill="white" y="-0.5" width="979" height="108" />
    <path
      d="M35.935 74.484H102.239L85.087 96.5H9.439V10.868H35.935V74.484ZM137.688 74.484H210.52L193.496 96.5H111.064V10.868H210.264L193.112 33.14H137.688V43.38H205.528L190.296 62.836H137.688V74.484ZM328.492 52.852C328.492 77.684 306.604 96.5 276.908 96.5H219.564V43.124H246.188V74.484H276.908C291.628 74.484 302.252 66.292 302.252 54.004C302.252 41.972 291.244 33.14 276.908 33.14H219.564L236.46 10.868H276.908C306.86 10.868 328.492 28.148 328.492 52.852ZM400.027 10.868H497.307L480.155 33.14H449.563V96.5H423.067V33.14H382.875L400.027 10.868ZM614.122 96.5H514.538L530.538 74.484H552.042C557.162 74.484 563.178 74.484 567.274 74.74C564.97 71.668 561.386 66.42 558.57 62.324L543.21 39.668L503.018 96.5H471.658L526.57 19.06C530.154 14.068 535.402 9.46 543.722 9.46C551.658 9.46 556.906 13.684 560.618 19.06L614.122 96.5ZM665.908 10.868H698.42L736.948 67.7L777.14 10.868H808.372L753.588 88.308C749.876 93.3 744.628 97.908 736.436 97.908C728.5 97.908 723.252 93.684 719.54 88.308L665.908 10.868ZM844.694 10.868V96.5H818.198V10.868H844.694ZM887.813 74.484H960.645L943.621 96.5H861.189V10.868H960.389L943.237 33.14H887.813V43.38H955.653L940.421 62.836H887.813V74.484Z"
    />
  </mask>
  <path
    d="M35.935 74.484H102.239L85.087 96.5H9.439V10.868H35.935V74.484ZM137.688 74.484H210.52L193.496 96.5H111.064V10.868H210.264L193.112 33.14H137.688V43.38H205.528L190.296 62.836H137.688V74.484ZM328.492 52.852C328.492 77.684 306.604 96.5 276.908 96.5H219.564V43.124H246.188V74.484H276.908C291.628 74.484 302.252 66.292 302.252 54.004C302.252 41.972 291.244 33.14 276.908 33.14H219.564L236.46 10.868H276.908C306.86 10.868 328.492 28.148 328.492 52.852ZM400.027 10.868H497.307L480.155 33.14H449.563V96.5H423.067V33.14H382.875L400.027 10.868ZM614.122 96.5H514.538L530.538 74.484H552.042C557.162 74.484 563.178 74.484 567.274 74.74C564.97 71.668 561.386 66.42 558.57 62.324L543.21 39.668L503.018 96.5H471.658L526.57 19.06C530.154 14.068 535.402 9.46 543.722 9.46C551.658 9.46 556.906 13.684 560.618 19.06L614.122 96.5ZM665.908 10.868H698.42L736.948 67.7L777.14 10.868H808.372L753.588 88.308C749.876 93.3 744.628 97.908 736.436 97.908C728.5 97.908 723.252 93.684 719.54 88.308L665.908 10.868ZM844.694 10.868V96.5H818.198V10.868H844.694ZM887.813 74.484H960.645L943.621 96.5H861.189V10.868H960.389L943.237 33.14H887.813V43.38H955.653L940.421 62.836H887.813V74.484Z"
    fill="white"
  />
  <path
    d="M35.935 74.484H26.935V83.484H35.935V74.484ZM102.239 74.484L109.339 80.0152L120.66 65.484H102.239V74.484ZM85.087 96.5V105.5H89.4843L92.1867 102.031L85.087 96.5ZM9.439 96.5H0.439V105.5H9.439V96.5ZM9.439 10.868V1.868H0.439V10.868H9.439ZM35.935 10.868H44.935V1.868H35.935V10.868ZM35.935 74.484V83.484H102.239V74.484V65.484H35.935V74.484ZM102.239 74.484L95.1393 68.9528L77.9873 90.9688L85.087 96.5L92.1867 102.031L109.339 80.0152L102.239 74.484ZM85.087 96.5V87.5H9.439V96.5V105.5H85.087V96.5ZM9.439 96.5H18.439V10.868H9.439H0.439V96.5H9.439ZM9.439 10.868V19.868H35.935V10.868V1.868H9.439V10.868ZM35.935 10.868H26.935V74.484H35.935H44.935V10.868H35.935ZM137.688 74.484H128.688V83.484H137.688V74.484ZM210.52 74.484L217.64 79.9894L228.856 65.484H210.52V74.484ZM193.496 96.5V105.5H197.914L200.616 102.005L193.496 96.5ZM111.064 96.5H102.064V105.5H111.064V96.5ZM111.064 10.868V1.868H102.064V10.868H111.064ZM210.264 10.868L217.395 16.3594L228.555 1.868H210.264V10.868ZM193.112 33.14V42.14H197.541L200.243 38.6314L193.112 33.14ZM137.688 33.14V24.14H128.688V33.14H137.688ZM137.688 43.38H128.688V52.38H137.688V43.38ZM205.528 43.38L212.615 48.928L224.004 34.38H205.528V43.38ZM190.296 62.836V71.836H194.68L197.383 68.384L190.296 62.836ZM137.688 62.836V53.836H128.688V62.836H137.688ZM137.688 74.484V83.484H210.52V74.484V65.484H137.688V74.484ZM210.52 74.484L203.4 68.9786L186.376 90.9946L193.496 96.5L200.616 102.005L217.64 79.9894L210.52 74.484ZM193.496 96.5V87.5H111.064V96.5V105.5H193.496V96.5ZM111.064 96.5H120.064V10.868H111.064H102.064V96.5H111.064ZM111.064 10.868V19.868H210.264V10.868V1.868H111.064V10.868ZM210.264 10.868L203.133 5.37664L185.981 27.6486L193.112 33.14L200.243 38.6314L217.395 16.3594L210.264 10.868ZM193.112 33.14V24.14H137.688V33.14V42.14H193.112V33.14ZM137.688 33.14H128.688V43.38H137.688H146.688V33.14H137.688ZM137.688 43.38V52.38H205.528V43.38V34.38H137.688V43.38ZM205.528 43.38L198.441 37.832L183.209 57.288L190.296 62.836L197.383 68.384L212.615 48.928L205.528 43.38ZM190.296 62.836V53.836H137.688V62.836V71.836H190.296V62.836ZM137.688 62.836H128.688V74.484H137.688H146.688V62.836H137.688ZM219.564 96.5H210.564V105.5H219.564V96.5ZM219.564 43.124V34.124H210.564V43.124H219.564ZM246.188 43.124H255.188V34.124H246.188V43.124ZM246.188 74.484H237.188V83.484H246.188V74.484ZM219.564 33.14L212.394 27.7005L201.44 42.14H219.564V33.14ZM236.46 10.868V1.868H231.991L229.29 5.42852L236.46 10.868ZM328.492 52.852H319.492C319.492 71.399 303.059 87.5 276.908 87.5V96.5V105.5C310.149 105.5 337.492 83.969 337.492 52.852H328.492ZM276.908 96.5V87.5H219.564V96.5V105.5H276.908V96.5ZM219.564 96.5H228.564V43.124H219.564H210.564V96.5H219.564ZM219.564 43.124V52.124H246.188V43.124V34.124H219.564V43.124ZM246.188 43.124H237.188V74.484H246.188H255.188V43.124H246.188ZM246.188 74.484V83.484H276.908V74.484V65.484H246.188V74.484ZM276.908 74.484V83.484C285.866 83.484 294.307 80.9937 300.71 75.8896C307.268 70.6622 311.252 62.9889 311.252 54.004H302.252H293.252C293.252 57.3071 291.924 59.8738 289.49 61.8144C286.901 63.8783 282.67 65.484 276.908 65.484V74.484ZM302.252 54.004H311.252C311.252 35.3854 294.427 24.14 276.908 24.14V33.14V42.14C288.061 42.14 293.252 48.5586 293.252 54.004H302.252ZM276.908 33.14V24.14H219.564V33.14V42.14H276.908V33.14ZM219.564 33.14L226.734 38.5795L243.63 16.3075L236.46 10.868L229.29 5.42852L212.394 27.7005L219.564 33.14ZM236.46 10.868V19.868H276.908V10.868V1.868H236.46V10.868ZM276.908 10.868V19.868C303.76 19.868 319.492 34.8026 319.492 52.852H328.492H337.492C337.492 21.4934 309.96 1.868 276.908 1.868V10.868ZM400.027 10.868V1.868H395.598L392.896 5.37664L400.027 10.868ZM497.307 10.868L504.438 16.3594L515.598 1.868H497.307V10.868ZM480.155 33.14V42.14H484.584L487.286 38.6314L480.155 33.14ZM449.563 33.14V24.14H440.563V33.14H449.563ZM449.563 96.5V105.5H458.563V96.5H449.563ZM423.067 96.5H414.067V105.5H423.067V96.5ZM423.067 33.14H432.067V24.14H423.067V33.14ZM382.875 33.14L375.744 27.6486L364.584 42.14H382.875V33.14ZM400.027 10.868V19.868H497.307V10.868V1.868H400.027V10.868ZM497.307 10.868L490.176 5.37664L473.024 27.6486L480.155 33.14L487.286 38.6314L504.438 16.3594L497.307 10.868ZM480.155 33.14V24.14H449.563V33.14V42.14H480.155V33.14ZM449.563 33.14H440.563V96.5H449.563H458.563V33.14H449.563ZM449.563 96.5V87.5H423.067V96.5V105.5H449.563V96.5ZM423.067 96.5H432.067V33.14H423.067H414.067V96.5H423.067ZM423.067 33.14V24.14H382.875V33.14V42.14H423.067V33.14ZM382.875 33.14L390.006 38.6314L407.158 16.3594L400.027 10.868L392.896 5.37664L375.744 27.6486L382.875 33.14ZM614.122 96.5V105.5H631.279L621.527 91.3841L614.122 96.5ZM514.538 96.5L507.258 91.209L496.872 105.5H514.538V96.5ZM530.538 74.484V65.484H525.953L523.258 69.193L530.538 74.484ZM567.274 74.74L566.713 83.7225L586.173 84.9388L574.474 69.34L567.274 74.74ZM558.57 62.324L551.121 67.3744L551.137 67.3986L551.154 67.4227L558.57 62.324ZM543.21 39.668L550.659 34.6176L543.366 23.8601L535.862 34.4714L543.21 39.668ZM503.018 96.5V105.5H507.676L510.366 101.697L503.018 96.5ZM471.658 96.5L464.316 91.2941L454.243 105.5H471.658V96.5ZM526.57 19.06L519.259 13.8111L519.244 13.8326L519.228 13.8541L526.57 19.06ZM560.618 19.06L553.212 24.1737L553.213 24.1759L560.618 19.06ZM614.122 96.5V87.5H514.538V96.5V105.5H614.122V96.5ZM514.538 96.5L521.818 101.791L537.818 79.775L530.538 74.484L523.258 69.193L507.258 91.209L514.538 96.5ZM530.538 74.484V83.484H552.042V74.484V65.484H530.538V74.484ZM552.042 74.484V83.484C557.275 83.484 562.963 83.4881 566.713 83.7225L567.274 74.74L567.835 65.7575C563.393 65.4799 557.049 65.484 552.042 65.484V74.484ZM567.274 74.74L574.474 69.34C572.313 66.4588 568.873 61.4233 565.986 57.2252L558.57 62.324L551.154 67.4227C553.899 71.4167 557.627 76.8772 560.074 80.14L567.274 74.74ZM558.57 62.324L566.019 57.2736L550.659 34.6176L543.21 39.668L535.761 44.7184L551.121 67.3744L558.57 62.324ZM543.21 39.668L535.862 34.4714L495.67 91.3034L503.018 96.5L510.366 101.697L550.558 44.8646L543.21 39.668ZM503.018 96.5V87.5H471.658V96.5V105.5H503.018V96.5ZM471.658 96.5L479 101.706L533.912 24.2659L526.57 19.06L519.228 13.8541L464.316 91.2941L471.658 96.5ZM526.57 19.06L533.881 24.3089C536.554 20.5853 539.42 18.46 543.722 18.46V9.46V0.459999C531.384 0.459999 523.754 7.55068 519.259 13.8111L526.57 19.06ZM543.722 9.46V18.46C547.76 18.46 550.563 20.338 553.212 24.1737L560.618 19.06L568.024 13.9463C563.249 7.03 555.556 0.459999 543.722 0.459999V9.46ZM560.618 19.06L553.213 24.1759L606.717 101.616L614.122 96.5L621.527 91.3841L568.023 13.9441L560.618 19.06ZM665.908 10.868V1.868H648.727L658.509 15.9922L665.908 10.868ZM698.42 10.868L705.87 5.81777L703.192 1.868H698.42V10.868ZM736.948 67.7L729.498 72.7502L736.792 83.5082L744.296 72.8966L736.948 67.7ZM777.14 10.868V1.868H772.482L769.792 5.67135L777.14 10.868ZM808.372 10.868L815.719 16.0658L825.763 1.868H808.372V10.868ZM753.588 88.308L760.81 93.6783L760.874 93.5928L760.935 93.5058L753.588 88.308ZM719.54 88.308L726.946 83.1943L726.939 83.1838L719.54 88.308ZM665.908 10.868V19.868H698.42V10.868V1.868H665.908V10.868ZM698.42 10.868L690.97 15.9182L729.498 72.7502L736.948 67.7L744.398 62.6498L705.87 5.81777L698.42 10.868ZM736.948 67.7L744.296 72.8966L784.488 16.0646L777.14 10.868L769.792 5.67135L729.6 62.5034L736.948 67.7ZM777.14 10.868V19.868H808.372V10.868V1.868H777.14V10.868ZM808.372 10.868L801.025 5.67022L746.241 83.1102L753.588 88.308L760.935 93.5058L815.719 16.0658L808.372 10.868ZM753.588 88.308L746.366 82.9377C743.477 86.8232 740.58 88.908 736.436 88.908V97.908V106.908C748.676 106.908 756.275 99.7768 760.81 93.6783L753.588 88.308ZM736.436 97.908V88.908C732.398 88.908 729.595 87.03 726.946 83.1943L719.54 88.308L712.134 93.4217C716.909 100.338 724.602 106.908 736.436 106.908V97.908ZM719.54 88.308L726.939 83.1838L673.307 5.74383L665.908 10.868L658.509 15.9922L712.141 93.4322L719.54 88.308ZM844.694 10.868H853.694V1.868H844.694V10.868ZM844.694 96.5V105.5H853.694V96.5H844.694ZM818.198 96.5H809.198V105.5H818.198V96.5ZM818.198 10.868V1.868H809.198V10.868H818.198ZM844.694 10.868H835.694V96.5H844.694H853.694V10.868H844.694ZM844.694 96.5V87.5H818.198V96.5V105.5H844.694V96.5ZM818.198 96.5H827.198V10.868H818.198H809.198V96.5H818.198ZM818.198 10.868V19.868H844.694V10.868V1.868H818.198V10.868ZM887.813 74.484H878.813V83.484H887.813V74.484ZM960.645 74.484L967.765 79.9894L978.981 65.484H960.645V74.484ZM943.621 96.5V105.5H948.039L950.741 102.005L943.621 96.5ZM861.189 96.5H852.189V105.5H861.189V96.5ZM861.189 10.868V1.868H852.189V10.868H861.189ZM960.389 10.868L967.52 16.3594L978.68 1.868H960.389V10.868ZM943.237 33.14V42.14H947.666L950.368 38.6314L943.237 33.14ZM887.813 33.14V24.14H878.813V33.14H887.813ZM887.813 43.38H878.813V52.38H887.813V43.38ZM955.653 43.38L962.74 48.928L974.129 34.38H955.653V43.38ZM940.421 62.836V71.836H944.805L947.508 68.384L940.421 62.836ZM887.813 62.836V53.836H878.813V62.836H887.813ZM887.813 74.484V83.484H960.645V74.484V65.484H887.813V74.484ZM960.645 74.484L953.525 68.9786L936.501 90.9946L943.621 96.5L950.741 102.005L967.765 79.9894L960.645 74.484ZM943.621 96.5V87.5H861.189V96.5V105.5H943.621V96.5ZM861.189 96.5H870.189V10.868H861.189H852.189V96.5H861.189ZM861.189 10.868V19.868H960.389V10.868V1.868H861.189V10.868ZM960.389 10.868L953.258 5.37664L936.106 27.6486L943.237 33.14L950.368 38.6314L967.52 16.3594L960.389 10.868ZM943.237 33.14V24.14H887.813V33.14V42.14H943.237V33.14ZM887.813 33.14H878.813V43.38H887.813H896.813V33.14H887.813ZM887.813 43.38V52.38H955.653V43.38V34.38H887.813V43.38ZM955.653 43.38L948.566 37.832L933.334 57.288L940.421 62.836L947.508 68.384L962.74 48.928L955.653 43.38ZM940.421 62.836V53.836H887.813V62.836V71.836H940.421V62.836ZM887.813 62.836H878.813V74.484H887.813H896.813V62.836H887.813Z"
    mask="url(#path-1-outside-1_277_812)"
    data-gradient="gradient"
  />
</svg>
