<svg xmlns="http://www.w3.org/2000/svg" viewBox="0 0 2426 203">
  <path
    data-gradient="gradient"
    d="M2372.5,119.8l44.5-56.9h-37.5l45.8-59.4h-512.5v116.3h-98V3.5h-88.4v196.5h168.1l18.4-23.6v23.6h167.3v-57.3h78.3l25-32.3v89.7h180.5l62-80.2h-53.3ZM1625,135.8l-.2-.2c-.4-.4-.8-.8-1.2-1.2,16.2-12.9,25.9-32.5,25.9-55s-13.3-49.4-37.5-62.4c-20.9-11.2-45.8-13.6-63-13.6h-110.4l-28.8,37.1V3.5h-88.7v108.2c0,2.7-.2,6.1-1.4,6.8-1.8,1.2-8,3.9-27.5,3.9-29.7,0-37.2-3-39.1-4.2-.2-.6-.6-2.4-.6-6.4V3.5h-88.2v39.1c-5.4-7.1-11.9-13.4-19.7-18.7-22.3-15.4-54.1-22.9-97.1-22.9s-47.6,2.7-65.7,8.2l5-5.6h-114.7l-41.5,50.5c-1.8,2.2-3.4,4.2-5,6-.2-.2-.3-.4-.5-.5-2-2.2-3.8-4.2-5-5.6l-43.4-50.4h-116.8l120.8,132.4v64.2h88.7v-64.1l44.6-50.4c-.7,5.1-1,10.5-1,16.1,0,34.5,12.5,60.7,37.2,77.9,22.4,15.5,54.2,23.1,97.2,23.1s74.7-7.5,97.1-23.1c11.7-8.1,20.6-18.2,26.9-30.3,5.7,13.1,14.8,23.8,27.3,32.2,21.1,14.2,51.7,21.1,93.4,21.1s65-7,84.9-21.5c6.6-4.8,13.7-11.5,19.6-20.8v39.7h88.4v-41.4h45.1l34.9,41.4h120.6l-60.7-64.2ZM1089.1,116.9c-7.9,4.4-27.5,4.9-41.6,4.9s-33.7-.5-41.6-4.9c-1.7-1-4.6-2.6-4.6-15.3s2.8-14.2,4.5-15.1c7.9-4.4,27.6-4.9,41.7-4.9s33.8.5,41.7,4.9c1.7.9,4.5,2.5,4.5,15.1s-2.9,14.3-4.6,15.3ZM509.7,3.5H186.5v116.3h-97.3V3.5H.7v196.5h168.1l17.7-22.7v22.7h180.5l17.8-23.1v23.1h124.8c65.2,0,114.3-42.9,114.3-99.8S575.9,3.5,509.7,3.5ZM384.9,119.8h-9.1l9.1-11.6v11.6ZM473.5,119.8v-35.6h36.2c15,0,26.3,7.8,26.3,18.1s-14.2,17.4-26.3,17.4h-36.2Z"
  />
  <path
    fill="#fff"
    d="M69.2,139.8h121.2l-31.4,40.2H20.7V23.5h48.4v116.3ZM255.2,118.5h96.2l27.8-35.6h-124v-18.7h101.3l31.4-40.7h-181.3v156.5h150.7l31.1-40.2h-133.1v-21.3ZM509.7,23.5h-73.9l-30.9,40.7h104.8c26.2,0,46.3,16.1,46.3,38.1s-19.4,37.4-46.3,37.4h-56.2v-57.3h-48.7v97.6h104.8c54.3,0,94.3-34.4,94.3-79.8s-39.5-76.8-94.3-76.8ZM881.5,23.5l-35.6,43.3c-11.2,13.6-16.6,20.4-19.7,24.8-3.3-4.7-16.4-19-21.3-24.6l-37.4-43.5h-62.2l95.5,104.6v51.9h48.7v-51.7l92.9-104.8h-60.8ZM1161.9,101.6c0,55.9-38.4,81-114.4,81s-114.4-25-114.4-81,38.1-80.7,114.4-80.7,114.4,24.8,114.4,80.7ZM1113.7,101.6c0-33.7-17.6-40-66.2-40s-66.2,6.3-66.2,40,17.5,40.2,66.2,40.2,66.2-6.6,66.2-40.2ZM1341.1,111.7c0,22-11.7,30.7-48.9,30.7s-59.7-7.5-59.7-30.7V23.5h-48.2v88.2c0,47.3,32.5,70.9,107.9,70.9s97.6-23.6,97.6-70.9V23.5h-48.7v88.2ZM1588.5,129c25.7-5.1,40.9-25.3,40.9-49.6,0-44.7-44.9-55.9-80.5-55.9h-100.6l-31.6,40.7h136.2c16.6,0,26.7,6.1,26.7,18.3s-11.7,17.5-26.7,17.5h-136.2v80h48.4v-41.4h74.4l34.9,41.4h64.8l-28.8-30.4c-10.8-11-16.6-16.6-22-20.6ZM1794.7,23.5h-48.4v156.5h138.3l31.3-40.2h-121.2V23.5ZM1932.8,180h48.4V23.5h-48.4v156.5ZM2155.5,64.2l31.4-40.7h-175.5v156.5h48.7v-57.3h88.5l29.5-38.1h-117.9v-20.4h95.5ZM2252,139.8v-21.3h96.2l27.9-35.6h-124v-18.7h101.3l31.3-40.7h-181.3v156.5h150.7l31.1-40.2h-133.1Z"
  />
</svg>
